<?xml version="1.0" encoding="UTF-8" standalone="no"?>
<!-- Created with Inkscape (http://www.inkscape.org/) -->

<svg
   xmlns:dc="http://purl.org/dc/elements/1.1/"
   xmlns:cc="http://creativecommons.org/ns#"
   xmlns:rdf="http://www.w3.org/1999/02/22-rdf-syntax-ns#"
   xmlns:svg="http://www.w3.org/2000/svg"
   xmlns="http://www.w3.org/2000/svg"
   xmlns:sodipodi="http://sodipodi.sourceforge.net/DTD/sodipodi-0.dtd"
   xmlns:inkscape="http://www.inkscape.org/namespaces/inkscape"
   width="3.5in"
   height="2in"
   viewBox="0 0 88.900004 50.8"
   version="1.1"
   id="svg4756"
   inkscape:version="0.92.4 (5da689c313, 2019-01-14)"
   sodipodi:docname="business-card-sticker-3.5-inch-2-inch-alt.svg"
   inkscape:export-filename="/tmp/sticker-front.png"
   inkscape:export-xdpi="300"
   inkscape:export-ydpi="300">
  <defs
     id="defs4750">
    <clipPath
       clipPathUnits="userSpaceOnUse"
       id="clipPath17718-7-7-0">
      <path
         sodipodi:nodetypes="cccccccccccccccc"
         inkscape:connector-curvature="0"
         id="path17720-5-2-2"
         d="m -971.0049,83.772646 v 35.000004 h -35 v 35 h -35 v 70 h 519.99999 110 v -35 h 35 v -35 h 35 V 83.772646 h -120 -481 z"
         style="fill:#59cfe6;fill-opacity:1;stroke:none" />
    </clipPath>
    <clipPath
       clipPathUnits="userSpaceOnUse"
       id="clipPath17718-7-7-09">
      <path
         sodipodi:nodetypes="cccccccccccccccc"
         inkscape:connector-curvature="0"
         id="path17720-5-2-6"
         d="m -971.0049,83.772646 v 35.000004 h -35 v 35 h -35 v 70 h 519.99999 110 v -35 h 35 v -35 h 35 V 83.772646 h -120 -481 z"
         style="fill:#59cfe6;fill-opacity:1;stroke:none" />
    </clipPath>
    <clipPath
       clipPathUnits="userSpaceOnUse"
       id="clipPath17718-7-7-5">
      <path
         sodipodi:nodetypes="cccccccccccccccc"
         inkscape:connector-curvature="0"
         id="path17720-5-2-9"
         d="m -971.0049,83.772646 v 35.000004 h -35 v 35 h -35 v 70 h 519.99999 110 v -35 h 35 v -35 h 35 V 83.772646 h -120 -481 z"
         style="fill:#59cfe6;fill-opacity:1;stroke:none" />
    </clipPath>
  </defs>
  <sodipodi:namedview
     id="base"
     pagecolor="#ffffff"
     bordercolor="#666666"
     borderopacity="1.0"
     inkscape:pageopacity="0.0"
     inkscape:pageshadow="2"
     inkscape:zoom="1.77"
     inkscape:cx="14.427336"
     inkscape:cy="103.00427"
     inkscape:document-units="in"
     inkscape:current-layer="layer1"
     showgrid="true"
     inkscape:window-width="1920"
     inkscape:window-height="1016"
     inkscape:window-x="0"
     inkscape:window-y="27"
     inkscape:window-maximized="1"
     units="in">
    <inkscape:grid
       type="xygrid"
       id="grid4542" />
  </sodipodi:namedview>
  <metadata
     id="metadata4753">
    <rdf:RDF>
      <cc:Work
         rdf:about="">
        <dc:format>image/svg+xml</dc:format>
        <dc:type
           rdf:resource="http://purl.org/dc/dcmitype/StillImage" />
        <dc:title></dc:title>
      </cc:Work>
    </rdf:RDF>
  </metadata>
  <g
     inkscape:label="Layer 1"
     inkscape:groupmode="layer"
     id="layer1"
     transform="translate(0,-246.2)">
    <path
       sodipodi:nodetypes="ccccccccccccccccccc"
       inkscape:connector-curvature="0"
       id="path6633-2-0-9"
       d="m 17.197917,266.57292 v 3.96875 H 11.90625 v 5.29166 H 6.6145835 V 281.125 H 1.3229167 v 11.90625 l 53.1812513,-0.26458 10e-7,-5.02708 h 5.291666 v -5.29167 h 5.291667 v -5.29166 h 5.291667 v -5.02709 h 3.968749 l 10e-7,-5.55625 z"
       style="fill:#115f6e;fill-opacity:1;stroke:none;stroke-width:0.03588867" />
    <path
       sodipodi:nodetypes="ccccccccccccc"
       inkscape:connector-curvature="0"
       id="path6633-2-0"
       d="m 9.9053017,249.67272 v 4.29119 H 5.614108 v 4.2912 H 1.3229167 v 8.58238 H 78.564387 v -4.29119 h 4.291193 v -4.29119 h 4.291193 v -8.58239 z"
       style="fill:#59cfe6;fill-opacity:1;stroke:none;stroke-width:0.02979995" />
    <path
       style="fill:#59cfe6;fill-opacity:1;stroke:none;stroke-width:0.12260551"
       d="m 9.905299,249.67273 v 4.29119 H 5.6141062 v 4.29119 H 1.3229133 v 8.58239 H 65.077777 78.564383 v -4.29119 h 4.291193 v -4.2912 h 4.291193 v -8.58238 H 72.434108 13.460858 Z"
       id="path17720-5-2"
       inkscape:connector-curvature="0"
       sodipodi:nodetypes="cccccccccccccccc" />
    <g
       id="g5552-7-1"
       transform="matrix(0.12260551,0,0,0.12260551,244.61075,8.0356017)">
      <g
         style="font-style:normal;font-variant:normal;font-weight:bold;font-stretch:normal;font-size:65.4969635px;line-height:0%;font-family:Anke;-inkscape-font-specification:'Anke Bold';text-align:start;letter-spacing:16.50997543px;word-spacing:0px;writing-mode:lr-tb;text-anchor:start;fill:#ffffff;fill-opacity:1;stroke:#ffffff;stroke-width:2;stroke-miterlimit:4;stroke-opacity:1"
         id="text5554-8-5">
        <path
           inkscape:connector-curvature="0"
           d="m -1880.8213,2066.9026 c 3.2749,0 6.4842,-0.655 9.4316,-1.8994 2.9474,-1.2445 5.5018,-3.0129 7.7286,-5.2398 2.2269,-2.2269 3.9954,-4.7813 5.2398,-7.7286 1.2444,-2.9474 1.8994,-6.1567 1.8994,-9.4316 0,-3.2748 -0.655,-6.4842 -1.8994,-9.4315 -1.2444,-2.9474 -3.0129,-5.5018 -5.2398,-7.7287 -2.2268,-2.2269 -4.7812,-3.9953 -7.7286,-5.2397 -2.9474,-1.2445 -6.1567,-1.8995 -9.4316,-1.8995 -3.2748,0 -6.4842,0.655 -9.4315,1.8995 -2.9474,1.2444 -5.5018,3.0128 -7.7287,5.2397 -2.2269,2.2269 -3.9953,4.7813 -5.2397,7.7287 -1.2445,2.9473 -1.8994,6.1567 -1.8994,9.4315 0,3.2749 0.6549,6.4842 1.8994,9.4316 1.2444,2.9473 3.0128,5.5017 5.2397,7.7286 2.2269,2.2269 4.7813,3.9953 7.7287,5.2398 2.9473,1.2444 6.1567,1.8994 9.4315,1.8994 m 0,-42.704 c 4.9123,0 9.5626,1.8994 13.0339,5.3707 3.4714,3.4714 5.3708,8.1216 5.3708,13.0339 0,4.9123 -1.8994,9.5626 -5.3708,13.0339 -3.4713,3.4713 -8.1216,5.3708 -13.0339,5.3708 -4.9122,0 -9.5625,-1.8995 -13.0339,-5.3708 -3.4713,-3.4713 -5.3707,-8.1216 -5.3707,-13.0339 0,-4.9123 1.8994,-9.5625 5.3707,-13.0339 3.4714,-3.4713 8.1217,-5.3707 13.0339,-5.3707"
           style="line-height:0%;font-family:Anke;-inkscape-font-specification:'Anke Bold';stroke:#ffffff"
           id="path3114-5-9" />
        <path
           inkscape:connector-curvature="0"
           d="m -1815.8456,2066.9026 c 2.8164,0 5.5673,-0.524 8.1216,-1.6374 2.4889,-1.048 4.7158,-2.5544 6.6152,-4.4538 1.8995,-1.8994 3.4059,-4.1263 4.4538,-6.6152 1.1135,-2.5544 1.6375,-5.3053 1.6375,-8.1216 v -27.7708 h -5.8948 v 27.7708 c 0,3.9953 -1.5719,7.7286 -4.3883,10.545 -2.8163,2.8163 -6.5497,4.3883 -10.545,4.3883 -3.9953,0 -7.7286,-1.572 -10.545,-4.3883 -2.8164,-2.8164 -4.3883,-6.5497 -4.3883,-10.545 v -27.7708 h -5.8947 v 27.7708 c 0,2.8163 0.524,5.5672 1.6374,8.1216 1.048,2.4889 2.5544,4.7158 4.4538,6.6152 1.8994,1.8994 4.1263,3.4058 6.6152,4.4538 2.5544,1.1134 5.3053,1.6374 8.1216,1.6374"
           style="line-height:0%;font-family:Anke;-inkscape-font-specification:'Anke Bold';stroke:#ffffff"
           id="path3116-7-4" />
        <path
           inkscape:connector-curvature="0"
           d="m -1736.7502,2018.3038 h -38.5122 v 5.8948 h 16.3087 v 42.704 h 5.8948 v -42.704 h 16.3087 v -5.8948"
           style="line-height:0%;font-family:Anke;-inkscape-font-specification:'Anke Bold';stroke:#ffffff"
           id="path3118-4-9" />
        <path
           inkscape:connector-curvature="0"
           d="m -1686.2862,2066.9026 h 7.2047 l -13.8854,-19.6491 c 3.4058,-0.262 6.5497,-1.7684 8.9731,-4.1918 2.7509,-2.7509 4.2573,-6.3532 4.2573,-10.283 0,-3.8643 -1.5064,-7.4667 -4.2573,-10.2176 -2.7509,-2.7508 -6.3532,-4.2573 -10.2175,-4.2573 h -21.0901 v 0 48.5988 h 5.8948 v -19.5836 h 9.235 l 13.8854,19.5836 m -23.1204,-42.704 h 15.1953 c 4.7157,0 8.5801,3.8643 8.5801,8.5801 0,4.7812 -3.8644,8.6456 -8.5801,8.6456 h -15.1953 v -17.2257"
           style="line-height:0%;font-family:Anke;-inkscape-font-specification:'Anke Bold';stroke:#ffffff"
           id="path3120-1-0" />
        <path
           inkscape:connector-curvature="0"
           d="m -1649.9082,2061.0079 v -17.2257 h 19.7146 v -5.8948 h -19.7146 v -13.6888 h 23.1859 v -5.8948 h -29.0806 v 48.5988 h 2.9473 27.6398 v -5.8947 h -24.6924"
           style="line-height:0%;font-family:Anke;-inkscape-font-specification:'Anke Bold';stroke:#ffffff"
           id="path3122-8-9" />
        <path
           inkscape:connector-curvature="0"
           d="m -1584.6382,2018.3038 -21.745,48.5988 h 6.4842 l 5.0433,-11.2655 h 27.1812 l 5.0433,11.2655 h 6.4842 l -21.8105,-48.5988 h -6.6807 m -7.5976,31.4386 10.938,-24.4959 11.0035,24.4959 h -21.9415"
           style="line-height:0%;font-family:Anke;-inkscape-font-specification:'Anke Bold';stroke:#ffffff"
           id="path3124-5-1" />
        <path
           inkscape:connector-curvature="0"
           d="m -1518.0817,2066.9026 c 3.2748,0 6.4842,-0.655 9.4316,-1.8994 2.9473,-1.2445 5.5017,-3.0129 7.7286,-5.2398 l -4.1263,-4.1263 c -3.4713,3.4713 -8.1216,5.3708 -13.0339,5.3708 -4.9123,0 -9.5626,-1.8995 -13.0339,-5.3708 -3.4713,-3.4713 -5.3707,-8.1216 -5.3707,-13.0339 0,-4.9123 1.8994,-9.5625 5.3707,-13.0339 3.4713,-3.4713 8.1216,-5.3707 13.0339,-5.3707 4.9123,0 9.5626,1.8994 13.0339,5.3707 l 4.1263,-4.1263 c -2.2269,-2.2269 -4.7813,-3.9953 -7.7286,-5.2397 -2.9474,-1.2445 -6.1568,-1.8995 -9.4316,-1.8995 -3.2748,0 -6.4842,0.655 -9.4316,1.8995 -2.9473,1.2444 -5.5017,3.0128 -7.7286,5.2397 -2.2269,2.2269 -3.9953,4.7813 -5.2398,7.7287 -1.2444,2.9473 -1.8994,6.1567 -1.8994,9.4315 0,3.2749 0.655,6.4842 1.8994,9.4316 1.2445,2.9473 3.0129,5.5017 5.2398,7.7286 2.2269,2.2269 4.7813,3.9953 7.7286,5.2398 2.9474,1.2444 6.1568,1.8994 9.4316,1.8994"
           style="line-height:0%;font-family:Anke;-inkscape-font-specification:'Anke Bold';stroke:#ffffff"
           id="path3126-9-7" />
        <path
           inkscape:connector-curvature="0"
           d="m -1448.4803,2018.5003 v 19.5836 h -26.7227 v -19.5836 h -5.8948 v 48.4023 h 5.8948 v -22.9239 h 26.7227 v 23.1204 h 5.8947 v -48.5988 h -5.8947"
           style="line-height:0%;font-family:Anke;-inkscape-font-specification:'Anke Bold';stroke:#ffffff"
           id="path3128-7-7" />
        <path
           inkscape:connector-curvature="0"
           d="m -1390.5322,2018.3038 -12.5099,17.4222 -12.4444,-17.4222 h -7.2702 l 16.7672,23.448 v 25.1508 h 5.8947 v -25.1508 l 16.8328,-23.448 h -7.2702"
           style="line-height:0%;font-family:Anke;-inkscape-font-specification:'Anke Bold';stroke:#ffffff"
           id="path3130-5-1" />
      </g>
    </g>
    <text
       xml:space="preserve"
       style="font-style:normal;font-weight:normal;font-size:0.79259932px;line-height:1.25;font-family:sans-serif;letter-spacing:0px;word-spacing:0px;fill:#ffffff;fill-opacity:1;stroke:none;stroke-width:0.01981498"
       x="33.397308"
       y="278.11758"
       id="text5207"><tspan
         sodipodi:role="line"
         x="33.397308"
         y="278.81885"
         style="font-style:normal;font-variant:normal;font-weight:500;font-stretch:normal;font-size:7.05555582px;font-family:Asimov;-inkscape-font-specification:'Asimov, Medium';font-variant-ligatures:normal;font-variant-caps:normal;font-variant-numeric:normal;font-feature-settings:normal;text-align:center;writing-mode:lr-tb;text-anchor:middle;fill:#ffffff;fill-opacity:1;stroke-width:0.01981498"
         id="tspan5399" /><tspan
         sodipodi:role="line"
         x="33.397308"
         y="279.8096"
         style="font-style:normal;font-variant:normal;font-weight:500;font-stretch:normal;font-size:4.58611107px;font-family:Asimov;-inkscape-font-specification:'Asimov, Medium';font-variant-ligatures:normal;font-variant-caps:normal;font-variant-numeric:normal;font-feature-settings:normal;text-align:center;writing-mode:lr-tb;text-anchor:middle;fill:#ffffff;fill-opacity:1;stroke-width:0.01981498"
         id="tspan5405" /><tspan
         sodipodi:role="line"
         x="33.397308"
         y="284.11194"
         style="font-style:normal;font-variant:normal;font-weight:500;font-stretch:normal;font-size:4.58611107px;font-family:Asimov;-inkscape-font-specification:'Asimov, Medium';font-variant-ligatures:normal;font-variant-caps:normal;font-variant-numeric:normal;font-feature-settings:normal;text-align:center;writing-mode:lr-tb;text-anchor:middle;fill:#ffffff;fill-opacity:1;stroke-width:0.01981498"
         id="tspan5397">diversity in free and</tspan><tspan
         sodipodi:role="line"
         x="33.397308"
         y="286.53299"
         style="font-style:normal;font-variant:normal;font-weight:500;font-stretch:normal;font-size:4.58611107px;font-family:Asimov;-inkscape-font-specification:'Asimov, Medium';font-variant-ligatures:normal;font-variant-caps:normal;font-variant-numeric:normal;font-feature-settings:normal;text-align:center;writing-mode:lr-tb;text-anchor:middle;fill:#ffffff;fill-opacity:1;stroke-width:0.01981498"
         id="tspan6449" /></text>
    <text
       xml:space="preserve"
       style="font-style:normal;font-weight:normal;font-size:10.58333397px;line-height:1.25;font-family:sans-serif;letter-spacing:0px;word-spacing:0px;fill:#000000;fill-opacity:1;stroke:none;stroke-width:0.26458335"
       x="10.837178"
       y="273.37302"
       id="text5464"><tspan
         sodipodi:role="line"
         id="tspan5462"
         x="10.837178"
         y="282.73679"
         style="stroke-width:0.26458335" /></text>
    <text
       xml:space="preserve"
       style="font-style:normal;font-weight:normal;font-size:0.79259932px;line-height:1.25;font-family:sans-serif;letter-spacing:0px;word-spacing:0px;fill:#000000;fill-opacity:0;stroke:none;stroke-width:0.01981498"
       x="45.964569"
       y="272.02603"
       id="text5207-3"><tspan
         sodipodi:role="line"
         x="45.964569"
         y="272.02603"
         style="font-style:normal;font-variant:normal;font-weight:500;font-stretch:normal;font-size:4.58611107px;font-family:Asimov;-inkscape-font-specification:'Asimov, Medium';font-variant-ligatures:normal;font-variant-caps:normal;font-variant-numeric:normal;font-feature-settings:normal;text-align:center;writing-mode:lr-tb;text-anchor:middle;fill:#ffffff;fill-opacity:1;stroke-width:0.01981498"
         id="tspan6449-1">https://outreachy.org</tspan></text>
    <path
       clip-path="none"
       sodipodi:nodetypes="cccccc"
       inkscape:connector-curvature="0"
       id="path6635-1-6"
       d="m 24.077084,263.6625 52.035189,0.10987 v -4.2912 h 3.678165 v -3.67816 h 8.032015"
       style="fill:none;fill-opacity:1;stroke:#ffffff;stroke-width:0.61302757;stroke-linecap:round;stroke-linejoin:miter;stroke-miterlimit:4;stroke-dasharray:none;stroke-opacity:1" />
    <path
       clip-path="none"
       sodipodi:nodetypes="ccccccccc"
       inkscape:connector-curvature="0"
       id="path6635-1-6-6"
       d="m 3.9687501,290.38542 v -6.61459 h 5.2916668 v -5.55625 h 5.2916671 v -5.29166 l 5.265664,-0.0579 -0.06851,-9.20255 h 9.090347"
       style="fill:none;fill-opacity:1;stroke:#ffffff;stroke-width:0.61302751;stroke-linecap:round;stroke-linejoin:miter;stroke-miterlimit:4;stroke-dasharray:none;stroke-opacity:1" />
    <text
       xml:space="preserve"
       style="font-style:normal;font-weight:normal;font-size:0.79259932px;line-height:1.25;font-family:sans-serif;letter-spacing:0px;word-spacing:0px;fill:#ffffff;fill-opacity:1;stroke:none;stroke-width:0.01981498"
       x="40.723186"
       y="272.19714"
       id="text5207-5"><tspan
         sodipodi:role="line"
         x="40.723186"
         y="272.89841"
         style="font-style:normal;font-variant:normal;font-weight:500;font-stretch:normal;font-size:7.05555582px;font-family:Asimov;-inkscape-font-specification:'Asimov, Medium';font-variant-ligatures:normal;font-variant-caps:normal;font-variant-numeric:normal;font-feature-settings:normal;text-align:center;writing-mode:lr-tb;text-anchor:middle;fill:#ffffff;fill-opacity:1;stroke-width:0.01981498"
         id="tspan5399-6" /><tspan
         sodipodi:role="line"
         x="40.723186"
         y="273.88916"
         style="font-style:normal;font-variant:normal;font-weight:500;font-stretch:normal;font-size:4.58611107px;font-family:Asimov;-inkscape-font-specification:'Asimov, Medium';font-variant-ligatures:normal;font-variant-caps:normal;font-variant-numeric:normal;font-feature-settings:normal;text-align:center;writing-mode:lr-tb;text-anchor:middle;fill:#ffffff;fill-opacity:1;stroke-width:0.01981498"
         id="tspan5405-3" /><tspan
         sodipodi:role="line"
         x="40.723186"
         y="278.1915"
         style="font-style:normal;font-variant:normal;font-weight:500;font-stretch:normal;font-size:4.58611107px;font-family:Asimov;-inkscape-font-specification:'Asimov, Medium';font-variant-ligatures:normal;font-variant-caps:normal;font-variant-numeric:normal;font-feature-settings:normal;text-align:center;writing-mode:lr-tb;text-anchor:middle;fill:#ffffff;fill-opacity:1;stroke-width:0.01981498"
         id="tspan5397-4">Internships supporting</tspan><tspan
         sodipodi:role="line"
         x="40.723186"
         y="280.61255"
         style="font-style:normal;font-variant:normal;font-weight:500;font-stretch:normal;font-size:4.58611107px;font-family:Asimov;-inkscape-font-specification:'Asimov, Medium';font-variant-ligatures:normal;font-variant-caps:normal;font-variant-numeric:normal;font-feature-settings:normal;text-align:center;writing-mode:lr-tb;text-anchor:middle;fill:#ffffff;fill-opacity:1;stroke-width:0.01981498"
         id="tspan6449-8" /></text>
    <text
       xml:space="preserve"
       style="font-style:normal;font-weight:normal;font-size:0.79259932px;line-height:1.25;font-family:sans-serif;letter-spacing:0px;word-spacing:0px;fill:#ffffff;fill-opacity:1;stroke:none;stroke-width:0.01981498"
       x="30.34791"
       y="283.8909"
       id="text5207-1"><tspan
         sodipodi:role="line"
         x="30.34791"
         y="284.59216"
         style="font-style:normal;font-variant:normal;font-weight:500;font-stretch:normal;font-size:7.05555582px;font-family:Asimov;-inkscape-font-specification:'Asimov, Medium';font-variant-ligatures:normal;font-variant-caps:normal;font-variant-numeric:normal;font-feature-settings:normal;text-align:center;writing-mode:lr-tb;text-anchor:middle;fill:#ffffff;fill-opacity:1;stroke-width:0.01981498"
         id="tspan5399-2" /><tspan
         sodipodi:role="line"
         x="30.34791"
         y="285.58292"
         style="font-style:normal;font-variant:normal;font-weight:500;font-stretch:normal;font-size:4.58611107px;font-family:Asimov;-inkscape-font-specification:'Asimov, Medium';font-variant-ligatures:normal;font-variant-caps:normal;font-variant-numeric:normal;font-feature-settings:normal;text-align:center;writing-mode:lr-tb;text-anchor:middle;fill:#ffffff;fill-opacity:1;stroke-width:0.01981498"
         id="tspan5405-9" /><tspan
         sodipodi:role="line"
         x="30.34791"
         y="289.88525"
         style="font-style:normal;font-variant:normal;font-weight:500;font-stretch:normal;font-size:4.58611107px;font-family:Asimov;-inkscape-font-specification:'Asimov, Medium';font-variant-ligatures:normal;font-variant-caps:normal;font-variant-numeric:normal;font-feature-settings:normal;text-align:center;writing-mode:lr-tb;text-anchor:middle;fill:#ffffff;fill-opacity:1;stroke-width:0.01981498"
         id="tspan5397-3">open source software</tspan><tspan
         sodipodi:role="line"
         x="30.34791"
         y="292.3063"
         style="font-style:normal;font-variant:normal;font-weight:500;font-stretch:normal;font-size:4.58611107px;font-family:Asimov;-inkscape-font-specification:'Asimov, Medium';font-variant-ligatures:normal;font-variant-caps:normal;font-variant-numeric:normal;font-feature-settings:normal;text-align:center;writing-mode:lr-tb;text-anchor:middle;fill:#ffffff;fill-opacity:1;stroke-width:0.01981498"
         id="tspan6449-9" /></text>
  </g>
</svg>
