<?xml version="1.0" encoding="UTF-8" standalone="no"?>
<!-- Created with Inkscape (http://www.inkscape.org/) -->

<svg
   xmlns:dc="http://purl.org/dc/elements/1.1/"
   xmlns:cc="http://creativecommons.org/ns#"
   xmlns:rdf="http://www.w3.org/1999/02/22-rdf-syntax-ns#"
   xmlns:svg="http://www.w3.org/2000/svg"
   xmlns="http://www.w3.org/2000/svg"
   xmlns:sodipodi="http://sodipodi.sourceforge.net/DTD/sodipodi-0.dtd"
   xmlns:inkscape="http://www.inkscape.org/namespaces/inkscape"
   width="200"
   height="200"
   viewBox="0 0 52.916665 52.916668"
   version="1.1"
   id="svg2148"
   sodipodi:docname="outreachy-bot-200x200-avatar-1.svg"
   inkscape:version="0.92.2 (5c3e80d, 2017-08-06)"
   inkscape:export-filename="/home/sarah/outreachy/git-repo/creative-works/outreachy-bot-200x200-avatar-1.png"
   inkscape:export-xdpi="96"
   inkscape:export-ydpi="96">
  <title
     id="title6482">Outreachy bot</title>
  <defs
     id="defs2142">
    <clipPath
       clipPathUnits="userSpaceOnUse"
       id="clipPath6459">
      <g
         inkscape:label="Clip"
         id="use6461">
        <g
           inkscape:export-ydpi="90"
           inkscape:export-xdpi="90"
           inkscape:export-filename="/home/christy/Desktop/gnome/comix/GNOMErobots_christy_blue_version_larger.png"
           id="g850"
           style="fill:#0c7ab1;fill-opacity:1"
           transform="matrix(-0.36509639,0.05885962,0.05537619,0.34315782,-62.376862,58.264556)">
          <path
             sodipodi:nodetypes="sssssssss"
             inkscape:connector-curvature="0"
             id="path848"
             d="m -118.9203,696.81858 17.57423,-2.87305 c 1.810946,-0.29605 3.479609,0.92351 3.741406,2.73446 l 0.873518,6.04244 c 0.261796,1.81094 -1.029039,5.40756 -2.857783,5.52751 l -17.512741,1.14878 c -1.82874,0.11995 -3.4796,-0.92351 -3.7414,-2.73445 l -0.87351,-6.04245 c -0.2618,-1.81094 0.98534,-3.50718 2.79628,-3.80324 z"
             style="fill:#0c7ab1;stroke:none" />
        </g>
        <g
           inkscape:export-ydpi="90"
           inkscape:export-xdpi="90"
           inkscape:export-filename="/home/christy/Desktop/gnome/comix/GNOMErobots_christy_blue_version_larger.png"
           id="g854"
           transform="matrix(-0.38952356,0.00287333,0.00270328,0.36611678,-44.948125,36.372068)"
           style="fill:#0c7ab1;fill-opacity:1">
          <path
             sodipodi:nodetypes="sssssssss"
             inkscape:connector-curvature="0"
             id="path852"
             d="m -125.87951,694.78736 h 16.88059 c 1.73947,0 3.13983,1.40036 3.13983,3.13983 v 5.80395 c 0,1.73946 -1.33506,4.84175 -3.06819,4.68388 l -16.95223,-1.54406 c -1.73311,-0.15787 -3.13981,-1.40036 -3.13981,-3.13982 v -5.80395 c 0,-1.73947 1.40036,-3.13983 3.13981,-3.13983 z"
             style="fill:#0c7ab1;stroke:none" />
        </g>
        <g
           inkscape:export-ydpi="90"
           inkscape:export-xdpi="90"
           inkscape:export-filename="/home/christy/Desktop/gnome/comix/GNOMErobots_christy_blue_version_larger.png"
           transform="matrix(0.47779686,-0.02880984,0.02882378,0.47756584,758.5227,67.425401)"
           id="g858"
           style="fill:#0d7ab1;fill-opacity:1">
          <path
             inkscape:export-ydpi="150"
             inkscape:export-xdpi="150"
             inkscape:export-filename="/home/yuliansu/Desktop/gnome/vi/draft/coscup.png"
             id="path856"
             style="display:inline;fill:#0d7ab1;fill-opacity:1;fill-rule:evenodd;stroke:none"
             d="m -1557.9217,342.28603 9.6331,-9.63312 c 1.02,-1.01998 0.8268,-2.86625 0,-3.69299 l -2.7532,-2.75318 c -1.0195,-1.01999 -2.673,-1.01999 -3.6925,0 l -9.6336,9.63358 c -0.8262,0.82627 -1.0195,2.673 0,3.69253 l 2.7532,2.75318 c 0.8268,0.82674 2.8663,0.82674 3.693,0 z"
             inkscape:connector-curvature="0" />
        </g>
        <path
           inkscape:connector-curvature="0"
           d="M -4.0924586,271.83007 20.45137,270.80642 c 1.569393,-0.0656 2.907238,1.4501 2.960311,2.72141 l 0.469674,11.25029 c 0.06558,1.56856 -1.153784,2.89343 -2.72317,2.95887 l -24.5438659,1.02365 c -1.2720926,0.0531 -2.8945457,-1.15329 -2.9600354,-2.72184 l -0.4696573,-11.25027 c -0.053156,-1.27135 1.4507776,-2.90541 2.722915,-2.95846 z"
           style="display:inline;fill:#0d7ab1;fill-opacity:1;fill-rule:evenodd;stroke:none;stroke-width:0.72906089"
           id="path860"
           inkscape:export-filename="/home/christy/Desktop/gnome/comix/GNOMErobots_christy_blue_version_larger.png"
           inkscape:export-xdpi="90"
           inkscape:export-ydpi="90" />
        <path
           inkscape:export-ydpi="90"
           inkscape:export-xdpi="90"
           inkscape:export-filename="/home/christy/Desktop/gnome/comix/GNOMErobots_christy_blue_version_larger.png"
           style="display:inline;fill:#0d7ab1;fill-opacity:1;fill-rule:nonzero;stroke:none;stroke-width:0.72906089"
           d="m -1.9244784,250.01972 c -0.7924776,0.13359 -1.4856739,0.75544 -1.6706775,1.58107 l -1.0607463,4.71305 c -1.3474281,1.55673 -2.0893345,3.38733 -2.0098309,5.29132 0.2234666,5.3529 6.86821848,9.41026 14.8262116,9.07835 7.9581605,-0.33191 14.2265725,-4.92782 14.0030435,-10.28076 -0.07936,-1.90152 -0.974616,-3.66739 -2.443813,-5.10555 l -1.449967,-4.60833 c -0.290759,-0.92811 -1.225315,-1.5171 -2.155291,-1.42148 -0.131985,0.0277 -0.266454,0.0804 -0.399215,0.12138 -1.755496,0.71547 -3.983173,0.8918 -5.471685,1.97903 -0.9365929,-0.0874 -1.9055592,-0.11485 -2.8925523,-0.0739 -0.9905688,0.0412 -1.9619905,0.14755 -2.8911962,0.31512 0,2.3e-4 -0.01375,5.2e-4 -0.01375,5.2e-4 -1.6200658,-0.93903 -3.72214395,-1.09427 -5.602633,-1.51714 -0.134467,-0.0295 -0.274167,-0.0868 -0.4077551,-0.0884 -0.1127008,0.004 -0.2339396,-0.008 -0.3437197,0.0143 l -0.013802,5.2e-4 z"
           id="path862"
           inkscape:connector-curvature="0" />
        <path
           inkscape:export-ydpi="90"
           inkscape:export-xdpi="90"
           inkscape:export-filename="/home/christy/Desktop/gnome/comix/GNOMErobots_christy_blue_version_larger.png"
           style="display:inline;fill:#ffffff;fill-opacity:1;fill-rule:nonzero;stroke:none;stroke-width:0.72906089"
           d="m 4.4005573,258.25319 c 0.049057,-0.003 0.1016799,0.008 0.1501782,0.008 l 3.4821665,-0.14521 c 0.7936618,-0.0332 1.4459142,0.56662 1.4790633,1.35989 l 0.1446625,3.4656 c 0.033083,0.79331 -0.565672,1.47516 -1.359339,1.50824 l -3.4821665,0.14521 c -0.7939668,0.0331 -1.4622026,-0.59585 -1.4952395,-1.38916 l -0.144661,-3.46558 c -0.028948,-0.69426 0.4280914,-1.3061 1.076596,-1.46652 0.046317,-0.003 0.09975,-0.0185 0.1487964,-0.0207 z"
           id="path864"
           inkscape:connector-curvature="0" />
        <path
           inkscape:export-ydpi="90"
           inkscape:export-xdpi="90"
           inkscape:export-filename="/home/christy/Desktop/gnome/comix/GNOMErobots_christy_blue_version_larger.png"
           style="display:inline;fill:#ffffff;fill-opacity:1;fill-rule:nonzero;stroke:none;stroke-width:0.72906089"
           d="m 13.633931,257.86809 0.01375,-5.2e-4 c 0.04766,-0.003 0.08404,0.0108 0.131713,0.008 l 3.393937,-0.14156 c 0.773824,-0.0322 1.42456,0.56754 1.457654,1.36081 l 0.144668,3.46561 c 0.03308,0.79331 -0.564106,1.47505 -1.337935,1.50732 l -3.393932,0.14155 c -0.773579,0.0322 -1.440352,-0.59677 -1.473472,-1.39007 l -0.144666,-3.46561 c -0.02895,-0.69425 0.445011,-1.30678 1.076932,-1.46651 0.04549,-0.003 0.08294,-0.0179 0.130332,-0.0198 z"
           id="path866"
           inkscape:connector-curvature="0" />
        <g
           inkscape:export-ydpi="90"
           inkscape:export-xdpi="90"
           inkscape:export-filename="/home/christy/Desktop/gnome/comix/GNOMErobots_christy_blue_version_larger.png"
           style="display:inline;fill:#0d7ab1;fill-opacity:1"
           id="g872"
           transform="matrix(1.5681335,-0.06540147,0.0654331,1.5673753,-550.27334,-1032.3003)">
          <path
             style="fill:#0d7ab1;fill-opacity:1;stroke:none"
             d="m 321.87711,829.37355 c 0,0.49011 -0.41389,0.88743 -0.92445,0.88743 -0.51056,0 -0.92445,-0.39732 -0.92445,-0.88743 0,-0.49011 0.41389,-0.88743 0.92445,-0.88743 0.46646,0 0.85983,0.33359 0.91739,0.77794"
             id="path868"
             inkscape:connector-curvature="0" />
          <path
             style="fill:#0d7ab1;fill-opacity:1;stroke:none"
             d="m 320.70229,829.97121 h 0.50074 v 2.78906 h -0.50074 z"
             id="path870"
             inkscape:connector-curvature="0" />
        </g>
        <g
           style="fill:#0d7ab1;fill-opacity:1"
           id="g876"
           transform="matrix(0.02698189,0.47767333,-0.47790441,0.02696885,193.94273,1007.6505)"
           inkscape:export-filename="/home/christy/Desktop/gnome/comix/GNOMErobots_christy_blue_version_larger.png"
           inkscape:export-xdpi="90"
           inkscape:export-ydpi="90">
          <path
             inkscape:connector-curvature="0"
             d="m -1557.9217,342.28603 9.6331,-9.63312 c 1.02,-1.01998 0.8268,-2.86625 0,-3.69299 l -2.7532,-2.75318 c -1.0195,-1.01999 -2.673,-1.01999 -3.6925,0 l -9.6336,9.63358 c -0.8262,0.82627 -1.0195,2.673 0,3.69253 l 2.7532,2.75318 c 0.8268,0.82674 2.8663,0.82674 3.693,0 z"
             style="display:inline;fill:#0d7ab1;fill-opacity:1;fill-rule:evenodd;stroke:none"
             id="path874"
             inkscape:export-filename="/home/yuliansu/Desktop/gnome/vi/draft/coscup.png"
             inkscape:export-xdpi="150"
             inkscape:export-ydpi="150" />
        </g>
      </g>
    </clipPath>
  </defs>
  <sodipodi:namedview
     id="base"
     pagecolor="#ffffff"
     bordercolor="#666666"
     borderopacity="1.0"
     inkscape:pageopacity="0.0"
     inkscape:pageshadow="2"
     inkscape:zoom="0.88"
     inkscape:cx="121.81034"
     inkscape:cy="101.26986"
     inkscape:document-units="px"
     inkscape:current-layer="layer1"
     showgrid="false"
     units="px"
     inkscape:window-width="836"
     inkscape:window-height="425"
     inkscape:window-x="5"
     inkscape:window-y="0"
     inkscape:window-maximized="0" />
  <metadata
     id="metadata2145">
    <rdf:RDF>
      <cc:Work
         rdf:about="">
        <dc:format>image/svg+xml</dc:format>
        <dc:type
           rdf:resource="http://purl.org/dc/dcmitype/StillImage" />
        <dc:title>Outreachy bot</dc:title>
        <cc:license
           rdf:resource="http://creativecommons.org/licenses/by-sa/4.0/" />
        <dc:contributor>
          <cc:Agent>
            <dc:title>CC-BY-SA - artists Liansu Yu, Christy Eller, Meg Ford, Tamara Atanasoska, Barbara Muraus, Sage Sharp</dc:title>
          </cc:Agent>
        </dc:contributor>
      </cc:Work>
      <cc:License
         rdf:about="http://creativecommons.org/licenses/by-sa/4.0/">
        <cc:permits
           rdf:resource="http://creativecommons.org/ns#Reproduction" />
        <cc:permits
           rdf:resource="http://creativecommons.org/ns#Distribution" />
        <cc:requires
           rdf:resource="http://creativecommons.org/ns#Notice" />
        <cc:requires
           rdf:resource="http://creativecommons.org/ns#Attribution" />
        <cc:permits
           rdf:resource="http://creativecommons.org/ns#DerivativeWorks" />
        <cc:requires
           rdf:resource="http://creativecommons.org/ns#ShareAlike" />
      </cc:License>
    </rdf:RDF>
  </metadata>
  <g
     inkscape:label="Layer 1"
     inkscape:groupmode="layer"
     id="layer1"
     transform="translate(0,-244.08331)">
    <g
       inkscape:export-ydpi="90"
       inkscape:export-xdpi="90"
       inkscape:export-filename="/home/christy/Desktop/gnome/comix/GNOMErobots_christy_blue_version_larger.png"
       id="g5421"
       style="fill:#59cfe6;fill-opacity:1"
       transform="matrix(-0.36509639,0.05885962,0.05537619,0.34315782,-44.220487,58.454544)">
      <path
         sodipodi:nodetypes="sssssssss"
         inkscape:connector-curvature="0"
         id="path5423"
         d="m -118.9203,696.81858 17.57423,-2.87305 c 1.810946,-0.29605 3.479609,0.92351 3.741406,2.73446 l 0.873518,6.04244 c 0.261796,1.81094 -1.029039,5.40756 -2.857783,5.52751 l -17.512741,1.14878 c -1.82874,0.11995 -3.4796,-0.92351 -3.7414,-2.73445 l -0.87351,-6.04245 c -0.2618,-1.81094 0.98534,-3.50718 2.79628,-3.80324 z"
         style="fill:#59cfe6;stroke:none;fill-opacity:1" />
    </g>
    <g
       inkscape:export-ydpi="90"
       inkscape:export-xdpi="90"
       inkscape:export-filename="/home/christy/Desktop/gnome/comix/GNOMErobots_christy_blue_version_larger.png"
       id="g5425"
       transform="matrix(-0.38952356,0.00287333,0.00270328,0.36611678,-26.79175,36.562056)"
       style="fill:#59cfe6;fill-opacity:1">
      <path
         sodipodi:nodetypes="sssssssss"
         inkscape:connector-curvature="0"
         id="path5427"
         d="m -125.87951,694.78736 h 16.88059 c 1.73947,0 3.13983,1.40036 3.13983,3.13983 v 5.80395 c 0,1.73946 -1.33506,4.84175 -3.06819,4.68388 l -16.95223,-1.54406 c -1.73311,-0.15787 -3.13981,-1.40036 -3.13981,-3.13982 v -5.80395 c 0,-1.73947 1.40036,-3.13983 3.13981,-3.13983 z"
         style="fill:#59cfe6;stroke:none;fill-opacity:1" />
    </g>
    <g
       inkscape:export-ydpi="90"
       inkscape:export-xdpi="90"
       inkscape:export-filename="/home/christy/Desktop/gnome/comix/GNOMErobots_christy_blue_version_larger.png"
       transform="matrix(0.47779686,-0.02880984,0.02882378,0.47756584,776.67907,67.615389)"
       id="g5578"
       style="fill:#59cfe6;fill-opacity:1">
      <path
         inkscape:export-ydpi="150"
         inkscape:export-xdpi="150"
         inkscape:export-filename="/home/yuliansu/Desktop/gnome/vi/draft/coscup.png"
         id="path5580"
         style="display:inline;fill:#59cfe6;fill-opacity:1;fill-rule:evenodd;stroke:none"
         d="m -1557.9217,342.28603 9.6331,-9.63312 c 1.02,-1.01998 0.8268,-2.86625 0,-3.69299 l -2.7532,-2.75318 c -1.0195,-1.01999 -2.673,-1.01999 -3.6925,0 l -9.6336,9.63358 c -0.8262,0.82627 -1.0195,2.673 0,3.69253 l 2.7532,2.75318 c 0.8268,0.82674 2.8663,0.82674 3.693,0 z"
         inkscape:connector-curvature="0" />
    </g>
    <path
       inkscape:connector-curvature="0"
       d="m 14.063916,272.02006 24.543829,-1.02365 c 1.569393,-0.0656 2.907238,1.4501 2.960311,2.72141 l 0.469674,11.25029 c 0.06558,1.56856 -1.153784,2.89343 -2.72317,2.95887 l -24.543866,1.02365 c -1.272092,0.0531 -2.894546,-1.15329 -2.960035,-2.72184 l -0.469658,-11.25027 c -0.05316,-1.27135 1.450778,-2.90541 2.722915,-2.95846 z"
       style="display:inline;fill:#59cfe6;fill-opacity:1;fill-rule:evenodd;stroke:none;stroke-width:0.72906089"
       id="path5582"
       inkscape:export-filename="/home/christy/Desktop/gnome/comix/GNOMErobots_christy_blue_version_larger.png"
       inkscape:export-xdpi="90"
       inkscape:export-ydpi="90" />
    <path
       inkscape:export-ydpi="90"
       inkscape:export-xdpi="90"
       inkscape:export-filename="/home/christy/Desktop/gnome/comix/GNOMErobots_christy_blue_version_larger.png"
       style="display:inline;fill:#59cfe6;fill-opacity:1;fill-rule:nonzero;stroke:none;stroke-width:0.72906089"
       d="m 16.231897,250.20971 c -0.792478,0.13359 -1.485674,0.75544 -1.670678,1.58107 l -1.060746,4.71305 c -1.347428,1.55673 -2.089335,3.38733 -2.009831,5.29132 0.223467,5.3529 6.868218,9.41026 14.826211,9.07835 7.958161,-0.33191 14.226573,-4.92782 14.003044,-10.28076 -0.07936,-1.90152 -0.974616,-3.66739 -2.443813,-5.10555 l -1.449967,-4.60833 c -0.290759,-0.92811 -1.225315,-1.5171 -2.155291,-1.42148 -0.131985,0.0277 -0.266454,0.0804 -0.399215,0.12138 -1.755496,0.71547 -3.983173,0.8918 -5.471685,1.97903 -0.936593,-0.0874 -1.905559,-0.11485 -2.892552,-0.0739 -0.990569,0.0412 -1.961991,0.14755 -2.891196,0.31512 0,2.3e-4 -0.01375,5.2e-4 -0.01375,5.2e-4 -1.620066,-0.93903 -3.722144,-1.09427 -5.602633,-1.51714 -0.134467,-0.0295 -0.274167,-0.0868 -0.407756,-0.0884 -0.1127,0.004 -0.233939,-0.008 -0.343719,0.0143 l -0.0138,5.2e-4 z"
       id="path5588"
       inkscape:connector-curvature="0" />
    <path
       inkscape:export-ydpi="90"
       inkscape:export-xdpi="90"
       inkscape:export-filename="/home/christy/Desktop/gnome/comix/GNOMErobots_christy_blue_version_larger.png"
       style="display:inline;fill:#ffffff;fill-opacity:1;fill-rule:nonzero;stroke:none;stroke-width:0.72906089"
       d="m 22.556932,258.44318 c 0.04906,-0.003 0.10168,0.008 0.150178,0.008 l 3.482167,-0.14521 c 0.793662,-0.0332 1.445914,0.56662 1.479063,1.35989 l 0.144663,3.4656 c 0.03308,0.79331 -0.565672,1.47516 -1.359339,1.50824 l -3.482167,0.14521 c -0.793966,0.0331 -1.462202,-0.59585 -1.495239,-1.38916 l -0.144661,-3.46558 c -0.02895,-0.69426 0.428091,-1.3061 1.076596,-1.46652 0.04632,-0.003 0.09975,-0.0185 0.148796,-0.0207 z"
       id="path5590"
       inkscape:connector-curvature="0" />
    <path
       inkscape:export-ydpi="90"
       inkscape:export-xdpi="90"
       inkscape:export-filename="/home/christy/Desktop/gnome/comix/GNOMErobots_christy_blue_version_larger.png"
       style="display:inline;fill:#ffffff;fill-opacity:1;fill-rule:nonzero;stroke:none;stroke-width:0.72906089"
       d="m 31.790306,258.05808 0.01375,-5.2e-4 c 0.04766,-0.003 0.08404,0.0108 0.131713,0.008 l 3.393937,-0.14156 c 0.773824,-0.0322 1.42456,0.56754 1.457654,1.36081 l 0.144668,3.46561 c 0.03308,0.79331 -0.564106,1.47505 -1.337935,1.50732 l -3.393932,0.14155 c -0.773579,0.0322 -1.440352,-0.59677 -1.473472,-1.39007 l -0.144666,-3.46561 c -0.02895,-0.69425 0.445011,-1.30678 1.076932,-1.46651 0.04549,-0.003 0.08294,-0.0179 0.130332,-0.0198 z"
       id="path5592"
       inkscape:connector-curvature="0" />
    <g
       inkscape:export-ydpi="90"
       inkscape:export-xdpi="90"
       inkscape:export-filename="/home/christy/Desktop/gnome/comix/GNOMErobots_christy_blue_version_larger.png"
       style="display:inline;fill:#59cfe6;fill-opacity:1"
       id="g5594"
       transform="matrix(1.5681335,-0.06540147,0.0654331,1.5673753,-532.11696,-1032.1103)">
      <path
         style="fill:#59cfe6;fill-opacity:1;stroke:none"
         d="m 321.87711,829.37355 c 0,0.49011 -0.41389,0.88743 -0.92445,0.88743 -0.51056,0 -0.92445,-0.39732 -0.92445,-0.88743 0,-0.49011 0.41389,-0.88743 0.92445,-0.88743 0.46646,0 0.85983,0.33359 0.91739,0.77794"
         id="path5596"
         inkscape:connector-curvature="0" />
      <path
         style="fill:#59cfe6;fill-opacity:1;stroke:none"
         d="m 320.70229,829.97121 h 0.50074 v 2.78906 h -0.50074 z"
         id="path5598"
         inkscape:connector-curvature="0" />
    </g>
    <g
       style="fill:#59cfe6;fill-opacity:1"
       id="g5600"
       transform="matrix(0.02698189,0.47767333,-0.47790441,0.02696885,212.0991,1007.8405)"
       inkscape:export-filename="/home/christy/Desktop/gnome/comix/GNOMErobots_christy_blue_version_larger.png"
       inkscape:export-xdpi="90"
       inkscape:export-ydpi="90">
      <path
         inkscape:connector-curvature="0"
         d="m -1557.9217,342.28603 9.6331,-9.63312 c 1.02,-1.01998 0.8268,-2.86625 0,-3.69299 l -2.7532,-2.75318 c -1.0195,-1.01999 -2.673,-1.01999 -3.6925,0 l -9.6336,9.63358 c -0.8262,0.82627 -1.0195,2.673 0,3.69253 l 2.7532,2.75318 c 0.8268,0.82674 2.8663,0.82674 3.693,0 z"
         style="display:inline;fill:#59cfe6;fill-opacity:1;fill-rule:evenodd;stroke:none"
         id="path5602"
         inkscape:export-filename="/home/yuliansu/Desktop/gnome/vi/draft/coscup.png"
         inkscape:export-xdpi="150"
         inkscape:export-ydpi="150" />
    </g>
  </g>
</svg>
