<?xml version="1.0" encoding="UTF-8" standalone="no"?>
<svg
   xmlns:dc="http://purl.org/dc/elements/1.1/"
   xmlns:cc="http://creativecommons.org/ns#"
   xmlns:rdf="http://www.w3.org/1999/02/22-rdf-syntax-ns#"
   xmlns:svg="http://www.w3.org/2000/svg"
   xmlns="http://www.w3.org/2000/svg"
   xmlns:sodipodi="http://sodipodi.sourceforge.net/DTD/sodipodi-0.dtd"
   xmlns:inkscape="http://www.inkscape.org/namespaces/inkscape"
   version="1.1"
   x="0px"
   y="0px"
   viewBox="0 0 720 720"
   style="enable-background:new 0 0 720 720;"
   xml:space="preserve"
   id="svg445"
   sodipodi:docname="2023-final-shirt-design-mock-up-on-shirt.svg"
   inkscape:version="1.0.2 (e86c870879, 2021-01-15)"
   inkscape:export-filename="/home/sage/outreachy/organizer-docs/t-shirt/2023-final-shirt-design-with-black-background.png"
   inkscape:export-xdpi="96"
   inkscape:export-ydpi="96"><metadata
   id="metadata451"><rdf:RDF><cc:Work
       rdf:about=""><dc:format>image/svg+xml</dc:format><dc:type
         rdf:resource="http://purl.org/dc/dcmitype/StillImage" /><dc:title></dc:title></cc:Work></rdf:RDF></metadata><defs
   id="defs449">
	
	
	
	
	
	
	
	
	
	
	
	
	
	
	
	
	
	
	
	
	
	
	
	
	
	
	
	
	
	
	
	
	
	
	
	
	
	
	
	
	
	
	
	
	
	

		
	
	
</defs><sodipodi:namedview
   pagecolor="#ffffff"
   bordercolor="#666666"
   borderopacity="1"
   objecttolerance="10"
   gridtolerance="10"
   guidetolerance="10"
   inkscape:pageopacity="0"
   inkscape:pageshadow="2"
   inkscape:window-width="1920"
   inkscape:window-height="1016"
   id="namedview447"
   showgrid="false"
   inkscape:zoom="0.97925607"
   inkscape:cx="327.14919"
   inkscape:cy="395.39641"
   inkscape:window-x="0"
   inkscape:window-y="27"
   inkscape:window-maximized="1"
   inkscape:current-layer="svg445"
   inkscape:document-rotation="0" />
<style
   type="text/css"
   id="style2">
	.st0{fill:#2F3746;}
	.st1{fill:#5DC9DF;}
	.st2{fill:#002B4B;}
	.st3{fill:#4F8FB4;}
	.st4{fill:#FFFFFF;}
	.st5{fill:#2E888F;}
	.st6{fill:#5EC9E1;}
</style>

<g
   id="g9">
		<polygon
   style="fill:#5dc9df"
   id="polygon7"
   points="331.6,698.6 153.7,682.3 203.5,579.7 381.2,582.6 "
   class="st1" />
	</g><g
   id="g13">
		<path
   style="fill:#002b4b"
   inkscape:connector-curvature="0"
   id="path11"
   d="m 124.1,425.4 c 1.2,31.8 -26.2,59.9 -33.8,89.7 -5.9,22.9 -1.5,46.6 10.6,67 16.4,27.6 44.6,25.8 71.3,15.1 22.6,-9.1 40.1,-20.7 49.4,-43.4 6.1,-14.7 -5,-31.5 -13.7,-46.3 -11.4,-19.5 -21.5,-38.7 -32.3,-58.7 -6.5,-12.1 -12.2,-29.5 -8.4,-43.5"
   class="st2" />
	</g><g
   id="g17">
		<path
   style="fill:#4f8fb4"
   inkscape:connector-curvature="0"
   id="path15"
   d="M 553.3,63.8 C 528.9,37.5 484.7,24.2 449.8,24.5 c -29,0.2 -64,13.6 -75.4,42.4 -8.8,22.1 -9.2,45.8 -16.3,68.1 -1.7,5.3 -3.7,10.5 -6,15.3 -3.3,1.8 -6.3,4.1 -8.8,6.9 -2.4,2.6 -4.3,5.7 -6.9,8.1 -4.4,4.2 -10.2,6.4 -16,8.2 -22.6,7.2 -46.5,9.9 -68.9,17.6 -31.8,11 -59.4,31.6 -85.2,53.3 -5.1,4.3 -10.3,8.9 -13.9,14.4 -4.5,4.5 -8.9,9.1 -11.7,14.8 -1.2,2.4 -2.1,5 -2.5,7.7 -8.3,12.9 -14.9,26.8 -20.1,41.3 -8.6,24.3 -15.8,49.9 -12.3,75.8 -4.1,9.1 -7,18.7 -7.1,28.3 -0.1,17.8 1.8,39.2 13.7,53.4 0.6,0.7 1.2,1.4 1.9,2.1 -6.1,9.8 -13.1,19.4 -17.9,30.3 -8.5,18.9 -2.1,49.7 8.5,67.5 14.3,24.2 41.9,21.3 65.2,12 19.8,-7.9 41.4,-15.2 49,-35.3 5.8,-15.4 -8.1,-32.6 -15.7,-45.5 -0.1,-0.1 -0.1,-0.2 -0.2,-0.3 0.3,-0.2 0.6,-0.5 0.9,-0.7 5.5,-4.5 9.1,-3.7 16.3,-5.4 8.2,-1.9 15.6,-6.7 20.4,-13.7 2.5,-3.7 3.6,-7.8 5.2,-11.9 2,-5.2 0.8,-8.8 0.7,-14.4 -0.1,-3.9 1.2,-7.6 2.5,-11.3 21.6,-0.3 43.6,-1.9 63.8,-7.8 37.6,-11.1 68.7,-33.8 88.4,-68.2 14.6,-25.6 27.1,-58.9 30.7,-89 1.5,-0.2 2.8,-1.4 3.4,-2.8 0.8,-1.8 0.8,-3.8 0.7,-5.7 -0.3,-20.2 1.1,-41 9.6,-59.3 3.2,-7 7.5,-13.6 9.3,-21.1 0.1,-0.6 0.3,-1.2 0.3,-1.9 11.3,-10.5 24.7,-19.4 38.8,-26.2 22.7,-11.1 53.7,-17.7 67.8,-41.2 12.3,-20.9 7.5,-49.1 -8.7,-66.5 z"
   class="st3" />
	</g><g
   id="g21">
		<path
   style="fill:#002b4b"
   inkscape:connector-curvature="0"
   id="path19"
   d="m 451,24.5 c 34.7,0 78.2,13.3 102.4,39.3 16.2,17.4 21,45.6 8.6,66.4 -14,23.5 -45.1,30.2 -67.8,41.2 -16.8,8.2 -32.8,19.3 -45.3,32.7 -0.4,0.4 -0.7,0.8 -1.1,1.2 -2.5,5.9 -5,11.7 -6.7,17.4 -0.3,0.9 -0.6,1.8 -0.8,2.7 -4.7,17.3 -5,35.1 -6.1,52.8 -2.1,32.2 -15.6,69.4 -31.5,97.3 -19.7,34.4 -50.7,57 -88.4,68.2 -10.3,3 -20.9,4.9 -31.5,6.1 -9.6,1 -18.9,0.1 -28.6,0.1 -6.9,0 -8.1,2.1 -9.6,8.5 -0.6,2.8 -0.3,5.2 -0.1,7.9 0.7,9.2 1.6,16.7 -3.7,24.6 -4.7,7.1 -12.1,11.9 -20.4,13.8 -7.2,1.7 -10.8,0.9 -16.3,5.4 -6.9,5.6 -14.1,8 -21.6,8 -19.8,0 -38.1,-13.9 -52.8,-25.6 -11.7,-9.3 -20.8,-21.8 -25.8,-35.9 -7.1,-19.9 -5.9,-41.7 3.2,-60.7 -3.3,-25.7 3.8,-51.1 12.4,-75.2 8.3,-23.3 20.4,-45.1 37,-63.5 7.5,-8.3 16.3,-16 25.1,-23 6.4,-5.2 13.7,-8.9 20.7,-13.2 7.1,-4.3 12.9,-9.8 20.2,-13.8 20.4,-11.1 42.3,-19.8 65,-24.5 20.4,-4.2 42.3,-5.6 57.5,-21.9 1.4,-1.5 2.8,-2.9 4.2,-4.4 3.7,-6.7 6.7,-13.9 9.1,-21.5 7.1,-22.4 7.5,-46 16.3,-68.1 11.4,-28.7 46.5,-42.1 75.4,-42.4 0.2,0.1 0.6,0.1 1,0.1 m 0,-4.9 c -0.4,0 -0.8,0 -1.2,0 -16.1,0.1 -32.6,4.1 -46.4,11 -16.2,8.2 -27.8,20.1 -33.5,34.4 -5.1,12.8 -7.5,26.1 -9.8,38.9 -1.8,9.8 -3.6,20 -6.6,29.6 -2.3,7.2 -5.1,14 -8.4,20.1 -1.3,1.3 -2.5,2.6 -3.8,4 -11.6,12.5 -27.7,15.4 -44.8,18.6 -3.3,0.6 -6.7,1.2 -10.1,1.9 -49.3,10.2 -99.7,38.5 -133.6,76 -16.2,17.9 -29,39.9 -38,65.1 -5.1,14.4 -9.7,29.1 -12,44.3 -1.6,10.9 -2.3,22 -3.8,32.9 -1.4,10.2 -5.1,20.1 -5.2,30.4 -0.1,16.5 1.3,40.4 14.8,56.5 9.1,11 21.9,18.2 34.4,24.7 12.5,6.6 24.8,15 39.4,15 8.9,0 17.2,-3.1 24.7,-9.1 3,-2.4 5,-2.8 8.8,-3.4 1.6,-0.3 3.4,-0.5 5.5,-1 11.2,-2.6 20.9,-10 25.9,-20.4 2.5,-5.2 3.8,-10.4 2.9,-15.9 -0.8,-4.8 -0.8,-12.5 3.7,-15.7 4.2,-2.9 13.5,-1.5 18.7,-1.9 14.5,-1 29,-3 42.9,-7.2 40.1,-11.9 71.7,-36.2 91.2,-70.4 18,-31.3 35.3,-70 37.3,-100 0.2,-3.1 -4.3,-53.4 9.7,-70.4 14,-17 51.9,-35.3 58.3,-37.6 75.9,-27.9 65.6,-63 63.7,-76.5 -1.8,-13 -10,-23.6 -18.7,-33 C 530.7,32.3 484.8,19.6 451,19.6 Z"
   class="st2" />
	</g><g
   id="g25">
		<path
   style="fill:#ffffff"
   inkscape:connector-curvature="0"
   id="path23"
   d="M 332.9,700.8 150.6,684 l 51.7,-106.3 181.9,3 z m -176.1,-20.3 173.6,16 47.8,-112 -173.4,-2.8 z"
   class="st4" />
	</g><g
   id="g29">
		<polygon
   style="fill:#ffffff"
   id="polygon27"
   points="357.9,595.6 313.8,593.9 330.8,657.6 "
   class="st4" />
	</g><g
   id="g33">
		<path
   style="fill:#002b4b"
   inkscape:connector-curvature="0"
   id="path31"
   d="m 268.8,608.3 c -14.2,0 -27.6,-3.3 -38.1,-9.6 -4.8,-2.9 -13.6,-9.2 -17.9,-18.9 -5.3,-11.9 1.1,-27.8 3.2,-32.4 4.9,-10.8 12.8,-19.8 19,-26.4 21,-22.2 46.2,-39.9 70.6,-57.1 l 2.9,4.1 c -24.2,17 -49.2,34.6 -69.8,56.4 -6,6.3 -13.5,14.9 -18.1,25.1 -3.9,8.4 -6.7,20.3 -3.2,28.3 2.7,6.2 8.5,12.3 15.9,16.6 13.8,8.2 32.8,10.9 52.1,7.3 4.6,-0.9 16.5,-3.4 26.3,-9.1 9.4,-5.4 14.2,-12 14.2,-19.5 0,-4.2 -1.1,-8.4 -2.2,-12.8 l -0.5,-2 c -3.2,-13.1 -5,-26.6 -5.3,-40.1 -0.2,-8.2 0.8,-16 1.8,-23.6 0.5,-4.4 1.1,-8.9 1.5,-13.4 0.6,-8.5 1.3,-17.3 6.5,-25.6 l 4.3,2.7 c -4.5,7.2 -5.1,15 -5.7,23.3 -0.4,4.7 -0.9,9.2 -1.5,13.6 -1,7.8 -1.9,15.1 -1.7,22.9 0.3,13.1 2,26.3 5.1,39 l 0.5,2 c 1.1,4.5 2.3,9.1 2.3,14 0.1,18.7 -23,29.6 -44.6,33.6 -5.9,1.1 -11.8,1.6 -17.6,1.6 z"
   class="st2" />
	</g><path
   class="st5"
   d="m 653.8,515.3 c -7.4,-13 -20.2,-25.1 -31.8,-34.5 -7,-5.7 -15.1,-9.8 -22.1,-15.6 -7.9,-6.5 -12.7,-14.7 -15.9,-24.4 -0.2,-0.6 -0.4,-1.3 -0.6,-1.9 0.3,-4.8 -0.4,-9.8 -1.6,-14.5 -4.4,-18.4 -6.4,-37.3 -12.9,-55.2 -5.8,-16 -14.7,-30.7 -25.9,-43.5 -47.6,-54.1 -123.8,-62.1 -186.2,-32.2 -20,9.6 -41,25.6 -55,43 -0.6,0.7 -1.1,1.4 -1.6,2.1 -0.7,0.2 -1.4,0.5 -2.1,0.7 -3.3,1.3 -5.3,4.4 -7.6,7.1 -6.1,7 -12.3,14 -18.6,20.8 -3.6,3.9 -4.5,7.2 -6.8,11.9 -2.5,5.2 -5.2,10.2 -7,15.7 -2.1,6.5 -3.5,13.2 -4.1,20 -1.4,13.4 -0.1,27.1 4.4,39.8 1.8,5 4.6,10.2 5.6,15.3 0.9,4.6 -0.1,9.4 1.6,14 1.1,3.2 3.1,5.9 5.4,8.4 -12,9.4 -23.5,19.3 -34,30.4 -7.3,7.7 -14.2,16.1 -18.6,25.7 -3.9,8.6 -7.2,21.2 -3.2,30.3 3.3,7.5 10,13.7 16.9,17.8 15.9,9.4 36,10.9 53.9,7.6 15.5,-2.8 42.6,-11.8 42.6,-31.1 0,-5.2 -1.5,-10.3 -2.7,-15.3 -3.2,-12.9 -4.9,-26.2 -5.2,-39.5 -0.1,-3.6 0.1,-7 0.4,-10.5 2.4,-1.3 4.2,-3.3 5.1,-6.2 8.6,1.2 14.8,1.5 23,-3.2 7.6,-4.3 15.8,-11 21.7,-17.7 5.8,1 11.6,2 17.4,3 -3.4,16.2 -15.6,26.2 -25.9,38.4 -10.9,12.9 -19.1,30.8 -17.3,47.8 2.3,20.5 12.6,30.2 33.3,32.3 42,4.4 84.6,-19.6 92.6,-63 2.9,-15.6 -1.2,-28.9 -6.7,-42.5 12.6,2.5 24.5,5.7 36,13.5 0.7,0.5 1.4,0.9 2,1.3 1.5,1.9 2.8,3.9 3.9,6 3,5.5 4.6,11.6 5.2,17.9 0.8,7.6 0.1,15.5 -1,22.9 -2.6,17.3 -3.6,36.9 -0.4,54.2 4.1,22.6 23.5,33.4 44.2,38.2 27.9,6.5 51.6,-1.5 75.2,-16.8 20.6,-13.3 29.4,-30.6 33.2,-54.5 3.4,-22.2 2.5,-44.2 -8.8,-64 z"
   id="path35"
   inkscape:connector-curvature="0"
   style="fill:#4f8fb4;fill-opacity:1" /><g
   id="g67">
		<g
   id="g41">
			
				<rect
   style="fill:#5ec9e1"
   id="rect39"
   height="28.799999"
   width="2"
   class="st6"
   transform="matrix(0.09320417,-0.9956,0.9956,0.09320417,-308.5636,894.6133)"
   y="602.29999"
   x="335.89999" />
		</g>
		<g
   id="g45">
			
				<rect
   style="fill:#5ec9e1"
   id="rect43"
   height="38.200001"
   width="2"
   class="st6"
   transform="matrix(0.07953055,-0.9968,0.9968,0.07953055,-292.7726,893.2581)"
   y="586.09998"
   x="336.29999" />
		</g>
		<g
   id="g49">
			
				<rect
   style="fill:#5ec9e1"
   id="rect47"
   height="2"
   width="16.5"
   class="st6"
   transform="matrix(0.3897,-0.921,0.921,0.3897,-341.3584,680.3774)"
   y="596.70001"
   x="334.39999" />
		</g>
		<g
   id="g53">
			
				<rect
   style="fill:#5ec9e1"
   id="rect51"
   height="2"
   width="14.5"
   class="st6"
   transform="matrix(0.3897,-0.921,0.921,0.3897,-374.1343,680.7816)"
   y="621.70001"
   x="319.29999" />
		</g>
		<g
   id="g57">
			
				<rect
   style="fill:#5ec9e1"
   id="rect55"
   height="2"
   width="58.799999"
   class="st6"
   transform="matrix(0.3897,-0.921,0.921,0.3897,-370.171,670.7034)"
   y="613.59998"
   x="291.5" />
		</g>
		<g
   id="g61">
			
				<rect
   style="fill:#5ec9e1"
   id="rect59"
   height="24.5"
   width="2"
   class="st6"
   transform="matrix(0.08278526,-0.9966,0.9966,0.08278526,-333.7371,923.6906)"
   y="630.90002"
   x="333.89999" />
		</g>
		<g
   id="g65">
			
				<rect
   style="fill:#5ec9e1"
   id="rect63"
   height="24.5"
   width="2"
   class="st6"
   transform="matrix(0.08278526,-0.9966,0.9966,0.08278526,-320.6842,910.4547)"
   y="617.20001"
   x="333.29999" />
		</g>
	</g><g
   id="g71">
		<polygon
   style="fill:#ffffff"
   id="polygon69"
   points="310.1,547.1 336.8,689.4 373.7,603.6 381.1,603.9 337.6,704 321.6,633.9 305.7,553.3 "
   class="st4" />
	</g><g
   id="g81">
		<g
   id="g75">
			<path
   style="fill:#002b4b"
   inkscape:connector-curvature="0"
   id="path73"
   d="m 311.6,477.1 c -3.3,-0.9 -20,-16.7 -11.1,-17.7 4.2,-0.5 11.1,14.5 11.7,17.7"
   class="st2" />
		</g>
		<g
   id="g79">
			<path
   style="fill:#002b4b"
   inkscape:connector-curvature="0"
   id="path77"
   d="m 314.1,475 c -2.2,-2.6 -6.5,-25.2 1.3,-20.9 3.7,2.1 0.6,18.2 -0.8,21.3"
   class="st2" />
		</g>
	</g><g
   id="g85">
		<path
   style="fill:#002b4b"
   inkscape:connector-curvature="0"
   id="path83"
   d="m 326.2,505.8 c -2.6,-7.3 -9,-15.3 -8.7,-23.4 4.9,4.1 6.5,11.3 11,16 2,2.1 4.5,3.5 6.5,5.2"
   class="st2" />
	</g><g
   id="g89">
		<path
   style="fill:#002b4b"
   inkscape:connector-curvature="0"
   id="path87"
   d="m 369.8,469.1 c -3.6,19.2 -9.3,25.9 -22.1,30.7 -4,1.5 -21.5,9.4 -21.9,0 7,5.8 15.5,0.9 22.5,-2.4 11.9,-5.5 16,-16.9 17.7,-28 0.9,-5.5 1,-17.1 -6,-20.1 3.7,1.3 6.6,2.5 7.9,6.1 1.6,4.1 2.7,9.6 1.9,13.7 z"
   class="st2" />
	</g><g
   id="g93">
		<path
   style="fill:#002b4b"
   inkscape:connector-curvature="0"
   id="path91"
   d="m 383.5,487 c 4.3,-8.3 2.8,-19.1 5.8,-27.9 2.6,-7.6 10.3,-18.1 18.7,-19.8 -5.4,4.9 -11,10.8 -14.2,17.6 -2.6,5.4 -2.7,12.1 -3.7,18 -1.3,8 -2.5,15.9 -7.8,21.2"
   class="st2" />
	</g><g
   id="g97">
		<path
   style="fill:#002b4b"
   inkscape:connector-curvature="0"
   id="path95"
   d="m 465.1,499.4 c -3.9,-8.4 -6.4,-16.6 -10.5,-24.2 -2.5,-4.7 -4.3,-6.4 -7.6,-10.4 -1.4,-1.7 -5.3,-5.3 -5.7,-7.4 8.1,4 16.4,14.7 19.2,20.2 2.8,5.7 4.8,11.7 7.1,17.7 1.6,4.4 7.6,20.4 6.4,25"
   class="st2" />
	</g><g
   id="g101">
		<path
   style="fill:#002b4b"
   inkscape:connector-curvature="0"
   id="path99"
   d="m 370,481.6 c 2.9,-4.9 4.4,-7.3 5.6,-13.6 1.1,2.3 0.2,6.3 -0.2,8.8 -0.5,3 -2,5.3 -3.2,7.9"
   class="st2" />
	</g><g
   id="g105">
		<path
   style="fill:#002b4b"
   inkscape:connector-curvature="0"
   id="path103"
   d="m 451.2,467.3 c -2,-8.3 -7.3,-22 -17.6,-22 12.9,-4.2 28.9,26.6 27.3,37.2"
   class="st2" />
	</g><g
   id="g109">
		<path
   style="fill:#002b4b"
   inkscape:connector-curvature="0"
   id="path107"
   d="m 488.8,503.7 c 3.1,10.5 29.1,8.3 37.5,5.7 -6.7,6.3 -28.4,8.3 -33.8,-1.5"
   class="st2" />
	</g><g
   id="g113">
		<path
   style="fill:#002b4b"
   inkscape:connector-curvature="0"
   id="path111"
   d="m 349.4,414.6 c -0.3,13.4 -13.8,19.4 -16.5,16 -5,-6.3 -7.4,-23.9 0.8,-23.8 5.9,0.1 15.8,2.4 15.7,7.8 z"
   class="st2" />
	</g><g
   id="g117">
		<path
   style="fill:#002b4b"
   inkscape:connector-curvature="0"
   id="path115"
   d="m 264.8,445.7 c -0.7,7.9 2.9,16.5 9.1,15.7 2.2,-0.3 4.2,-1.7 5.9,-3.7 1.4,-1.7 3.7,-4 2.6,-6.5 -2.3,-5.3 -6.7,-9.9 -10.8,-12 -1.4,-0.7 -3.1,-1.2 -4.4,-0.1 -1.1,0.9 -1.7,2.7 -2,4.4 -0.2,0.7 -0.3,1.5 -0.4,2.2 z"
   class="st2" />
	</g><g
   id="g121">
		<path
   style="fill:#002b4b"
   inkscape:connector-curvature="0"
   id="path119"
   d="m 431.8,277.5 c 12.5,0 24.9,1.6 36.9,5 22.9,6.4 45.5,16.1 63.1,32.4 8.8,8.1 16.7,18.2 21.7,29.1 5.9,13.2 11.8,26.2 17.3,39.5 5.9,14.4 6.1,29.3 7.8,44.6 1.3,11.3 4.2,23.2 11.4,32.3 8,10.1 22.1,12.4 32,20.5 11.6,9.4 24.4,21.5 31.8,34.5 11.3,19.8 12.3,41.8 8.7,64 -3.9,23.9 -12.6,41.2 -33.2,54.5 -18,11.7 -36.1,19.1 -56,19.1 -6.2,0 -12.6,-0.7 -19.3,-2.3 -20.7,-4.8 -40.1,-15.6 -44.2,-38.2 -3.2,-17.3 -2.2,-36.9 0.4,-54.2 1.1,-7.4 1.8,-15.3 1,-22.9 -0.6,-6.3 -2.2,-12.3 -5.2,-17.9 -1.1,-2 -2.4,-4 -3.9,-6 -0.7,-0.4 -1.4,-0.8 -2.1,-1.3 -11.5,-7.8 -23.3,-11 -36,-13.5 5.5,13.6 9.6,26.9 6.7,42.5 -7.3,40 -44.1,63.5 -82.7,63.5 -3.3,0 -6.5,-0.2 -9.8,-0.5 -20.7,-2.1 -31,-11.9 -33.3,-32.3 -1.9,-17 6.4,-34.9 17.3,-47.8 10.3,-12.1 22.4,-22.2 25.9,-38.4 -5.8,-1 -11.6,-2 -17.4,-3 -5.9,6.7 -14.1,13.4 -21.7,17.7 -5.2,3 -9.6,3.9 -14.3,3.9 -2.7,0 -5.5,-0.3 -8.7,-0.8 -2,6.1 -7.6,8.2 -14.3,8.2 -9.7,0 -21.6,-4.5 -26.9,-7.4 -7.7,-4.3 -16.3,-9.8 -19.3,-18.3 -1.7,-4.6 -0.7,-9.4 -1.6,-14 -0.9,-5.1 -3.8,-10.3 -5.6,-15.3 -4.5,-12.7 -5.7,-26.5 -4.4,-39.8 0.7,-6.8 2.1,-13.5 4.1,-20 6.5,-20.2 21.9,-35.4 37,-49.5 3,-2.8 4.6,-6 7,-9.2 3.2,-4.3 7.2,-8.1 11.1,-11.8 8,-7.4 16.9,-13.9 26.2,-19.5 5.3,-3.2 10.9,-6.2 16.5,-8.9 22.6,-10.8 47.2,-17.8 72.2,-18.4 1.3,-0.1 2.5,-0.1 3.8,-0.1 m 0,-4.9 c -1.3,0 -2.6,0 -3.9,0 -24.4,0.6 -49.3,7 -74.2,18.9 -5.8,2.8 -11.5,5.9 -16.9,9.1 -10.2,6.1 -19.3,12.9 -27,20.1 -4,3.7 -8.1,7.8 -11.6,12.4 -0.9,1.1 -1.6,2.2 -2.3,3.3 -1.4,2 -2.5,3.7 -4.1,5.3 -17,16 -33.6,28.9 -40.2,49.5 -2.2,6.7 -4.5,16.7 -5.3,23.9 -1.5,14.6 3,28.3 7.5,41.1 0.7,1.9 1.5,3.8 2.2,5.6 1.3,3.2 2.6,6.2 3.1,9 0.3,1.5 0.3,3.2 0.4,5 0.1,3 0.2,6.3 1.4,9.8 3.5,9.8 12.8,16.1 21.5,20.9 5.8,3.2 18.4,8.1 29.2,8.1 4.9,0 13,-1.1 17.2,-7.8 1.9,0.2 3.8,0.4 5.8,0.4 6,0 11.2,-1.4 16.7,-4.6 7.3,-4.2 12.9,-8 18.9,-14.4 3.2,0.5 7.5,1.3 10.7,1.8 -3.3,9.1 -8.8,13.8 -15.7,21.3 -2.2,2.5 -4.6,5 -6.8,7.6 -13.3,15.8 -20.2,35 -18.4,51.5 2.5,22.6 14.4,34.2 37.6,36.6 3.4,0.4 6.9,0.5 10.3,0.5 20.4,0 40.3,-6.3 56,-17.7 16.9,-12.3 27.8,-29.5 31.6,-49.8 1.1,-6.1 1.5,-12.4 0.8,-18.5 -0.6,-5.6 -2.5,-10.7 -3.8,-16.1 0.1,0.5 7.5,2 8.5,2.3 4.8,1.4 9.3,4.3 13.4,7.1 3.4,2.4 6.1,7.6 7.8,11.3 4.7,10 4.8,20.7 3.2,31.4 -2.2,14.5 -6,40.8 -2.4,60.7 3.8,21.1 22.4,33.6 49.9,40 6.8,1.6 14.5,1.2 21.2,1.2 19,0 39.7,-6.2 60.7,-19.7 20.4,-13.2 29.9,-30.9 34.3,-58.3 4.3,-26.7 -0.5,-50 -11,-68.5 -6.4,-11.3 -17.5,-23.4 -33,-35.9 -4.9,-4 -10.2,-6.7 -15.4,-9.3 -15.5,-7.9 -22.3,-21.9 -24.4,-38.9 -1.9,-15 -2.3,-29.4 -7.3,-43.7 -2.9,-8.3 -6.6,-16.3 -10,-24.3 -9.8,-23.3 -24.5,-45.1 -45.6,-59.7 -14.1,-9.8 -31.2,-17.4 -52.5,-23.4 -12.1,-3.4 -25,-5.1 -38.1,-5.1 z"
   class="st2" />
	</g><g
   id="g125">
		<path
   style="fill:#002b4b"
   inkscape:connector-curvature="0"
   id="path123"
   d="m 374.7,385.6 c -5.2,-8.4 -11.9,-14.2 -18.6,-15.9 8.3,5.2 15.9,15.4 20.9,28.1 5.1,12.7 7.6,27.8 7,41.8 2.8,-11.5 2.2,-17.8 0.3,-28 -1.7,-9.6 -5.2,-18.8 -9.6,-26 z"
   class="st2" />
	</g><g
   id="g129">
		<path
   style="fill:#002b4b"
   inkscape:connector-curvature="0"
   id="path127"
   d="m 391.6,397.5 c -1.6,-4.6 -2.8,-6.7 -5.2,-9.9 4.2,12.1 7,24.6 6,37.5 1.8,-5.1 2,-7.5 2.1,-11.5 -0.1,-5.4 -1.2,-11.2 -2.9,-16.1 z"
   class="st2" />
	</g><g
   id="g133">
		<polygon
   style="fill:#5ec9e1"
   id="polygon131"
   points="303.7,556.1 113.6,553.8 153.7,682.3 331.6,698.6 "
   class="st6" />
	</g><g
   id="g137">
		<polygon
   style="fill:#ffffff"
   id="polygon135"
   points="305.7,553.3 107,548.8 113.7,543.7 310.1,547.1 "
   class="st4" />
	</g><g
   id="g141">
		<path
   style="fill:#ffffff"
   inkscape:connector-curvature="0"
   id="path139"
   d="m 113.6,553.8 190.1,2.4 27.9,142.5 -177.9,-16.4 -40.1,-128.5 m -6.6,-5 2,6.4 40.1,128.5 1,3.1 3.2,0.3 177.9,16.4 6.5,0.6 -1.2,-6.4 -27.9,-142.5 -0.8,-3.9 h -3.9 l -190.1,-2.4 z"
   class="st4" />
	</g><g
   id="g151">
		<g
   id="g145">
			<path
   style="fill:#002b4b"
   inkscape:connector-curvature="0"
   id="path143"
   d="m 186.7,465.7 c 3.1,-0.6 6.4,4.6 7.8,6.6 2.1,3 4.2,6.7 5.5,10.2 -4.8,-1.5 -9.1,-5.4 -12.4,-9.1 -1.8,-2 -5.5,-6.7 -0.9,-7.7 z"
   class="st2" />
		</g>
		<g
   id="g149">
			<path
   style="fill:#002b4b"
   inkscape:connector-curvature="0"
   id="path147"
   d="m 203.1,480.2 c -2.4,-2.4 -8.9,-24.4 -0.8,-20.9 3.9,1.7 2.3,18.1 1.3,21.2"
   class="st2" />
		</g>
	</g><g
   id="g155">
		<path
   style="fill:#002b4b"
   inkscape:connector-curvature="0"
   id="path153"
   d="m 127.5,449.2 c 0.4,8.7 6.3,17.4 13.8,15.4 2.6,-0.7 4.9,-2.7 6.6,-5.1 1.4,-2.1 3.9,-5 2.1,-7.6 -3.7,-5.3 -9.9,-9.5 -15.3,-11 -1.9,-0.5 -4,-0.7 -5.5,0.7 -1.2,1.2 -1.6,3.3 -1.7,5.2 0,0.8 0,1.6 0,2.4 z"
   class="st2" />
	</g><g
   id="g159">
		<path
   style="fill:#002b4b"
   inkscape:connector-curvature="0"
   id="path157"
   d="m 228,411.8 c 6.5,6.3 9.4,16.7 2.8,21 -2.3,1.5 -5.3,1.9 -8.3,1.5 -2.5,-0.3 -6.4,-0.5 -7.2,-3.6 -1.7,-6.5 -0.8,-14 1.6,-19.1 0.8,-1.8 2.1,-3.5 4.2,-3.6 1.7,-0.1 3.6,1 5.2,2.3 0.5,0.4 1.1,0.9 1.7,1.5 z"
   class="st2" />
	</g><g
   id="g163">
		<path
   style="fill:#002b4b"
   inkscape:connector-curvature="0"
   id="path161"
   d="m 134.9,428.2 c -1.7,-2.8 -5.7,-3.4 -8.7,-2.1 -3,1.3 -5,4.2 -6.2,7.2 3.8,-3.8 9.4,-5.7 14.7,-5"
   class="st2" />
	</g><g
   id="g167">
		<path
   style="fill:#002b4b"
   inkscape:connector-curvature="0"
   id="path165"
   d="m 221.2,394.9 c -5.5,-2.3 -12.2,1 -13,7.1 0.2,-1.2 5.2,-3.7 6.3,-4.2 1.9,-0.8 4.3,-1.1 6.3,-1.4 0.5,-0.1 1.2,-0.4 1.1,-0.9 -0.1,-0.3 -0.4,-0.5 -0.7,-0.6 z"
   class="st2" />
	</g><g
   id="g171">
		<path
   style="fill:#002b4b"
   inkscape:connector-curvature="0"
   id="path169"
   d="m 149.6,505.9 c -8.2,-8.7 -12.5,-21 -11.5,-33 -3.4,7.9 -3.3,17.3 0.3,25.1 3.6,7.8 10.6,14.1 18.8,16.7"
   class="st2" />
	</g><g
   id="g175">
		<path
   style="fill:#002b4b"
   inkscape:connector-curvature="0"
   id="path173"
   d="m 97.5,416.9 c 2,-24.7 19.6,-47.5 43,-55.7 -11.4,10.3 -26.3,17.8 -33.1,33.8 -6,14.1 -10.3,28.7 -11.4,44 -0.4,-9 0.5,-18.1 2.4,-26.9"
   class="st2" />
	</g><g
   id="g179">
		<path
   style="fill:#002b4b"
   inkscape:connector-curvature="0"
   id="path177"
   d="m 252.1,410.7 c -17.4,-31.1 -24.1,-35 -40,-44.8 6.1,1.7 15.8,4.5 25.8,14.2 8.6,8.3 17.9,22 15.5,29.1"
   class="st2" />
	</g><g
   id="g183">
		<path
   style="fill:#002b4b"
   inkscape:connector-curvature="0"
   id="path181"
   d="m 240.9,472.3 c 0.1,0.3 0.3,0.5 0.4,0.8 1.7,3.8 2,8.9 2.2,13 0.2,3.3 0.4,5.9 -1.4,8.7 -0.8,1.3 -4.7,6.5 -6.3,4 -0.8,-1.1 1.9,-4.2 2.4,-5.3 3.2,-7.8 2.3,-21.9 -5,-27.3 3.1,2.3 5.9,2.7 7.7,6.1 z"
   class="st2" />
	</g><g
   id="g187">
		<path
   style="fill:#002b4b"
   inkscape:connector-curvature="0"
   id="path185"
   d="m 212,509.8 c -1.1,0.6 -2.2,1.1 -2.7,1.3 -0.7,0.3 -1.3,0.6 -2,0.2 -0.8,-0.5 -1.2,-1.4 -1.2,-2.4 0,-1 0.4,-1.9 0.5,-2.9 0.1,-1.1 -0.1,-2.3 -0.3,-3.3 -0.7,-4.5 -2.8,-8.8 -3.8,-13.3 -0.1,-0.7 -0.1,-1.6 0.5,-1.7 0.5,-0.1 0.9,0.4 1.2,0.9 1.6,2.9 2.2,6.1 3.3,9.2 1,3.1 2.5,6.3 5.2,8.1 0.7,0.5 1.7,1.1 1.6,2 -0.1,0.5 -1.2,1.2 -2.3,1.9 z"
   class="st2" />
	</g><g
   id="g191">
		<path
   style="fill:#002b4b"
   inkscape:connector-curvature="0"
   id="path189"
   d="m 157.9,490.4 c 0.7,7.7 3.4,15.6 8.6,21.4 2.5,2.8 5.6,5.1 9.1,6.6 1.9,0.8 3.8,1.3 5.8,1.7 1.7,0.3 3.8,0 5.3,0.7 -0.2,1.1 -1.3,1.3 -2.3,1.3 -6.2,0.1 -12.6,-0.5 -18.2,-3.2 -1.5,-0.7 -2.5,-2.4 -3.3,-3.9 -2.9,-5.1 -10.5,-14.9 -5,-24.6 z"
   class="st2" />
	</g><g
   id="g195">
		<path
   style="fill:#002b4b"
   inkscape:connector-curvature="0"
   id="path193"
   d="m 100.7,392.9 c 4.2,-12.1 11.8,-23 21.7,-31.2 -7.3,9.2 -13.6,19.2 -18.6,29.8"
   class="st2" />
	</g><g
   id="g199">
		<path
   style="fill:#002b4b"
   inkscape:connector-curvature="0"
   id="path197"
   d="m 245,466.4 c -1.7,-7.6 -4.6,-14.8 -8.5,-21.5 3.4,1.9 6.9,3.8 9.3,6.8 2.5,3 3.8,7.3 2.2,10.8"
   class="st2" />
	</g><g
   id="g203">
		<path
   style="fill:#002b4b"
   inkscape:connector-curvature="0"
   id="path201"
   d="m 319.9,403 c 0,-1.5 4,-3.7 5.1,-4.4 1.9,-1.2 4,-1.7 6.2,-2.3 -3.3,-1.1 -7.4,-1.5 -9.9,1.3 -1.3,1.4 -1.9,3.5 -1.4,5.4 z"
   class="st2" />
	</g><g
   id="g207">
		<path
   style="fill:#002b4b"
   inkscape:connector-curvature="0"
   id="path205"
   d="m 272.8,426.1 c -1.1,-2 -3.6,-3.1 -5.8,-2.5 -2.2,0.6 -3.8,2.9 -3.7,5.2 2.3,-2.5 6.1,-3.4 9.3,-2.3"
   class="st2" />
	</g><g
   transform="matrix(0.83073617,0,0,0.83073617,-130.86974,72.589873)"
   id="g3203">
		<g
   id="path5150">
			<path
   style="fill:#ffffff"
   inkscape:connector-curvature="0"
   id="path209"
   d="m 409.8,629.1 c -18.3,0.2 -29.7,14.5 -25.5,31.9 4.2,17.4 22.5,31.5 40.7,31.3 18.3,-0.2 29.7,-14.5 25.5,-31.9 -4.2,-17.4 -22.4,-31.5 -40.7,-31.3 z m 0.8,3.2 c 16.5,-0.2 32.9,12.5 36.7,28.2 3.8,15.7 -6.5,28.6 -22.9,28.8 -16.5,0.2 -32.9,-12.4 -36.7,-28.2 -3.9,-15.8 6.4,-28.7 22.9,-28.8 z"
   class="st4" />
		</g>
		<g
   id="g3199">
			<g
   id="g214">
				<path
   style="fill:#ffffff"
   inkscape:connector-curvature="0"
   id="path212"
   d="m 437.2,657.6 c -1.4,-1.9 -3.8,-3.4 -6.4,-4.1 -1.3,-2.3 -4.9,-3.8 -8.6,-3.5 -0.8,0.1 -1.6,0.2 -2.3,0.5 0,-0.2 -0.1,-0.4 -0.1,-0.6 -0.6,-2 -2.9,-3.4 -5.2,-3.4 -0.2,0 -0.3,0 -0.5,0 0,0 0,0 0,0 0,0 0,0 0,0 -0.2,0 -0.3,0 -0.5,0 v 0 c -2.3,0 -3.9,1.6 -3.5,3.5 0,0.2 0.1,0.4 0.2,0.6 -0.8,-0.2 -1.7,-0.4 -2.5,-0.4 -3.8,-0.2 -6.7,1.4 -6.9,3.7 -2.3,0.8 -3.9,2.3 -4.4,4.2 -2.2,-0.1 -3.8,1.5 -3.4,3.6 0.3,2.2 2.5,4 4.8,4.2 0.7,0 1.4,-0.1 1.9,-0.4 2.2,1.7 5.2,3 8.3,3.2 2.8,0.2 5.3,-0.5 6.9,-1.7 1.1,1.2 2.7,2.1 4.5,2.3 v 0 c 0.1,0 0.1,0 0.1,0 0.1,0 0.1,0 0.2,0 v 0 c 1.7,-0.3 2.9,-1.2 3.4,-2.4 2.3,1.2 5,1.8 7.8,1.6 3,-0.3 5.4,-1.5 6.8,-3.3 0.7,0.3 1.4,0.4 2.1,0.3 2.2,-0.2 3.4,-2.1 2.7,-4.2 -0.9,-2.3 -3.2,-3.8 -5.4,-3.7 z"
   class="st4" />
			</g>
			<g
   id="path5204">
				<path
   style="fill:#ffffff"
   inkscape:connector-curvature="0"
   id="path216"
   d="m 410.3,661 4.5,2.8 -3.4,0.1 -2.2,-1.4 h -1.9 l 4,2.5 v 0 l 5.3,-0.1 0.1,0.1 0.5,10.1 h 7.4 l -4.5,-10 0.2,-0.2 h 5.3 v 0 0 l 2.8,-2.6 h -1.9 l -1.6,1.4 h -3.4 l 3.1,-2.9 h -2 l -3.1,2.8 -0.6,-1.3 h -2.4 l 0.1,1.2 -4.2,-2.6 z"
   class="st4" />
			</g>
		</g>
	</g><g
   id="g223">
		<path
   style="fill:#ffffff"
   inkscape:connector-curvature="0"
   id="path221"
   d="m 230.2,429.3 c 2.5,-2.9 2,-7.5 -0.4,-10.3 0.4,3.4 0.7,9 -2.4,11.3 -0.9,0.7 -1.9,1 -3,1.3 2.2,0.2 4.4,-0.7 5.8,-2.3 z"
   class="st4" />
	</g><g
   id="g227">
		<path
   style="fill:#ffffff"
   inkscape:connector-curvature="0"
   id="path225"
   d="m 146.7,456.8 c 0.8,-1.2 1.3,-2.6 1.1,-3.7 -0.4,-2.1 -3,-4 -5,-4.3 0.2,0 1.5,2.4 1.7,2.7 0.6,1.2 0.6,2.7 0.4,4.1 -0.2,1.6 -0.7,3 -1.3,4.5 1,-0.7 2.2,-1.9 3.1,-3.3 z"
   class="st4" />
	</g><g
   id="g231">
		<path
   style="fill:#ffffff"
   inkscape:connector-curvature="0"
   id="path229"
   d="m 276.4,456.9 c 1.4,-0.8 4.2,-3.1 4,-5 0,-0.5 -0.3,-0.9 -0.5,-1.3 -1.1,-1.8 -2.6,-3.3 -4,-4.8 0.6,1.4 1.1,2.7 1.7,4.1 0.6,1.4 0.6,2.4 0.2,3.8 -0.3,0.7 -0.8,2.8 -1.4,3.2 z"
   class="st4" />
	</g><g
   id="g235">
		<path
   style="fill:#ffffff"
   inkscape:connector-curvature="0"
   id="path233"
   d="m 343.5,422.7 c -0.3,0.8 -0.6,1.6 -0.8,2.4 2,-2.6 6.4,-8.4 4,-12 -0.4,-0.6 -1,-1 -1.7,-1.3 -1.7,-0.9 -3.5,-1.4 -5.4,-1.6 1.7,1 3.2,2.3 4.5,3.8 1.6,2.1 0.5,5.5 -0.2,7.6 -0.2,0.4 -0.3,0.7 -0.4,1.1 z"
   class="st4" />
	</g>
<g
   id="banners">
	<g
   id="g246">
		<g
   id="g244">
			<g
   id="g242">
				<g
   id="g240">
					<path
   class="st4"
   d="M41.9,182.6c10.6,1.3,15.9,1.6,26.5,2c-1.2-10.8-1.8-16.1-3-26.9c10.9,0.4,16.4,0.4,27.2,0       c-1.3-11.3-2-12.2-3.3-23.5c143-8.9,276.8-91.7,421.5-78.9l2.7,28.1c-10.6-1.3-15.7-1.2-26.3-1.6c1.2,10.8,3.1,24.3,3.1,24.3       c-10.2-0.4-15.3-0.4-25.4,0c1.3,11.8,1.6,14.2,2.9,26c-152.8,8-290.6,88.5-423.1,79.5C43.3,199.2,43.2,195,41.9,182.6z"
   id="path238" />
				</g>
			</g>
		</g>
	</g>
	<g
   id="g292">
		<g
   id="g290">
			<g
   id="g250">
				<path
   class="st6"
   d="M37.1,175.6c10.7,1,16,1.3,26.5,1.5c-1-9.1-1.6-13.7-2.6-22.9c10.9,0.2,16.4,0.1,27.2-0.6      c-1.1-9.6-1.6-14.4-2.7-24c142-11.7,273.6-89.6,417.7-79.2c1.1,10,1.7,15,2.8,25.1c-10.7-1-16-1.3-26.5-1.5      c1,9.1,1.6,13.7,2.6,22.9c-10.2-0.2-15.3-0.1-25.4,0.5c1.1,10,1.7,15.1,2.9,25.1c-142.7,11.2-274.8,89.7-419.5,79.3      C38.9,191.3,38.3,186,37.1,175.6z"
   id="path248" />
			</g>
			<g
   id="g288">
				<g
   id="g254">
					<path
   class="st4"
   d="M101.2,166.7C101.2,166.6,101.2,166.6,101.2,166.7c-1.1-9.3,5.4-17.6,15.7-18.9       c10.3-1.3,18.3,5.1,19.4,14.3c0,0,0,0.1,0,0.1c1,9.2-5.3,18.2-15.6,19.5C110.4,182.9,102.3,175.9,101.2,166.7z M130.2,163.2       C130.2,163.2,130.2,163.2,130.2,163.2c-0.7-6.5-6.1-11-12.7-10.1c-6.7,0.8-10.8,6.5-10,12.8c0,0,0,0.1,0,0.1       c0.7,6.3,6.1,11.2,12.8,10.3C126.9,175.5,130.9,169.6,130.2,163.2z"
   id="path252" />
				</g>
				<g
   id="g258">
					<path
   class="st4"
   d="M147.2,162.8c-0.9-7.5-1.3-11.3-2.1-18.9c2.4-0.4,3.6-0.7,6-1.2c0.8,7.5,1.3,11.2,2.1,18.6       c0.7,6.1,4.3,8.7,9.7,7.6c5.3-1.1,8.2-5,7.5-11c-0.9-7.6-1.3-11.3-2.2-18.9c2.4-0.5,3.6-0.8,6-1.4c0.8,7.4,1.3,11.2,2.1,18.6       c1.1,9.8-4.1,16.1-13,18C154.5,176.2,148.3,172.3,147.2,162.8z"
   id="path256" />
				</g>
				<g
   id="g262">
					<path
   class="st4"
   d="M196.7,137.7c-4.3,1.1-6.5,1.7-10.8,2.8c-0.2-2.1-0.4-3.2-0.6-5.3c11-2.8,16.5-4.2,27.5-7.3       c0.2,2.1,0.4,3.2,0.6,5.4c-4.3,1.2-6.4,1.8-10.7,3c1.3,11,1.9,16.5,3.1,27.5c-2.4,0.6-3.6,1-6,1.6       C198.6,154.2,198,148.7,196.7,137.7z"
   id="path260" />
				</g>
				<g
   id="g266">
					<path
   class="st4"
   d="M225.4,124.2c5.2-1.5,7.8-2.3,13-3.8c3.7-1.1,6.7-0.7,8.8,0.8c1.7,1.3,2.9,3.5,3.2,6.4c0,0,0,0.1,0,0.1       c0.6,5.4-1.9,9.5-5.8,12.1c3.7,4,5.6,6.1,9.3,10.1c-2.4,0.7-3.6,1.1-6,1.8c-3.4-3.7-5.1-5.6-8.5-9.3c0,0,0,0-0.1,0       c-2.5,0.8-3.8,1.1-6.3,1.9c0.5,4.6,0.8,6.9,1.3,11.5c-2,0.6-3.1,0.9-5.1,1.5C227.7,143.9,226.9,137.3,225.4,124.2z        M239.9,136.8c3.7-1.1,5.7-4,5.4-7.3c0,0,0-0.1,0-0.1c-0.4-3.5-2.9-4.8-6.6-3.6c-3,0.9-4.5,1.3-7.4,2.2c0.5,4.4,0.8,6.6,1.3,11       C235.4,138.1,236.9,137.6,239.9,136.8z"
   id="path264" />
				</g>
				<g
   id="g270">
					<path
   class="st4"
   d="M263.7,112.7c8.2-2.5,12.3-3.8,20.5-6.3c0.2,2.1,0.4,3.1,0.6,5.2c-6.3,1.9-9.4,2.9-15.6,4.8       c0.4,3.1,0.5,4.6,0.9,7.7c5.2-1.6,7.8-2.4,13-4c0.2,2.1,0.4,3.1,0.6,5.2c-5.2,1.6-7.8,2.4-13,4c0.4,3.9,0.7,5.8,1.1,9.7       c6.6-2,9.9-3,16.5-5.1c0.2,2.1,0.4,3.1,0.6,5.2c-8.6,2.6-12.8,3.9-21.4,6.5C265.9,132.4,265.2,125.9,263.7,112.7z"
   id="path268" />
				</g>
				<g
   id="g274">
					<path
   class="st4"
   d="M310.2,98.4c2.2-0.6,3.3-1,5.5-1.6c7.5,11.5,11.2,17.3,18.7,28.9c-2.5,0.7-3.8,1-6.3,1.8       c-1.7-2.6-2.6-3.9-4.3-6.6c-6.4,1.8-9.6,2.8-16,4.7c-1,3.4-1.6,5.1-2.6,8.6c-2.4,0.7-3.6,1.1-6.1,1.8       C303.5,120.9,305.7,113.4,310.2,98.4z M321,116.6c-3-4.8-4.4-7.3-7.4-12.1c-1.7,6.2-2.5,9.3-4.2,15.5       C314,118.6,316.4,118,321,116.6z"
   id="path272" />
				</g>
				<g
   id="g278">
					<path
   class="st4"
   d="M340,107.3C340,107.3,340,107.2,340,107.3c-1.1-9.4,4.6-18.9,14-21.2c5.7-1.4,9.4-0.1,12.7,2.2       c-1.2,2-1.8,3.1-3,5.1c-2.8-1.8-5.6-2.8-9.1-2c-5.9,1.5-9.6,7.8-8.9,14.2c0,0,0,0.1,0,0.1c0.7,6.4,5.6,10.6,11.5,9.1       c3.8-1,6-3.2,8.4-6.4c1.6,1.2,2.4,1.8,3.9,2.9c-2.8,4.3-6.1,7.4-11.9,8.9C348.6,122.4,341.1,116.7,340,107.3z"
   id="path276" />
				</g>
				<g
   id="g282">
					<path
   class="st4"
   d="M377.6,81.2c2.3-0.5,3.4-0.7,5.7-1.2c0.5,5.1,0.8,7.7,1.3,12.8c6.2-1.3,9.3-1.9,15.5-3       c-0.5-5.1-0.8-7.7-1.3-12.8c2.3-0.4,3.4-0.6,5.7-1c1.5,13.1,2.2,19.6,3.7,32.8c-2.3,0.4-3.4,0.6-5.7,1c-0.7-6-1.1-9-1.8-14.9       c-6.2,1.1-9.3,1.7-15.5,3c0.7,6,1.1,9,1.8,14.9c-2.3,0.5-3.4,0.7-5.7,1.2C379.8,100.8,379.1,94.3,377.6,81.2z"
   id="path280" />
				</g>
				<g
   id="g286">
					<path
   class="st4"
   d="M429.8,88.6c-5.4-5.8-8.1-8.7-13.5-14.4c2.3-0.3,3.4-0.5,5.7-0.8c3.9,3.8,5.8,5.7,9.7,9.5       c2.9-4.6,4.3-6.8,7.2-11.3c2.2-0.2,3.3-0.3,5.6-0.4c-3.9,6.6-5.8,10-9.7,16.7c0.8,6.8,1.2,10.2,1.9,16.9       c-2,0.2-2.9,0.3-4.9,0.5C431,98.7,430.6,95.4,429.8,88.6z"
   id="path284" />
				</g>
			</g>
		</g>
	</g>
	<g
   id="g442">
		<g
   id="g440">
			<g
   id="g300">
				<g
   id="g298">
					<g
   id="g296">
						<path
   class="st4"
   d="M422.5,605L422.5,605c-9.2-1.6-18.9-4.3-27.5-7.8c0-6,0-9,0-15c5.7,2.3,8.6,3.2,14.3,4.8        c0-5.3,0-7.9,0-13.2c5.3,1.5,8,2.1,13.3,3c0-5.7,0-8.6,0-14.4c71.7,9.8,138.8-23.6,210.2-22.2c0,14.2,0,28.3,0,42.5        C561.4,581.4,494.2,614.8,422.5,605z"
   id="path294" />
					</g>
				</g>
			</g>
			<g
   id="g308">
				<g
   id="g306">
					<g
   id="g304">
						<path
   class="st4"
   d="M443.6,612.8c0,14.2,0,28.3,0,42.5c76.1,0.8,148.1-37.3,224.3-18.6c0-14.2,0-28.3,0-42.5        C591.7,575.5,519.8,613.6,443.6,612.8z"
   id="path302" />
					</g>
				</g>
			</g>
			<g
   id="g316">
				<g
   id="g314">
					<g
   id="g312">
						<path
   class="st4"
   d="M670.8,657.9c0,5.3,0,7.9,0,13.2c-5.3-1.7-8-2.4-13.3-3.5c0,5.7,0,8.6,0,14.4        c-61.6-10.5-119.7,11.9-180.2,20c0-14.2,0-28.3,0-42.5c60.5-8,118.6-30.5,180.2-20v0c9.3,1.9,18.9,5,27.5,8.9c0,6,0,9,0,15        C679.4,660.8,676.5,659.7,670.8,657.9z"
   id="path310" />
					</g>
				</g>
			</g>
			<g
   id="g324">
				<g
   id="g322">
					<g
   id="g320">
						<path
   class="st6"
   d="M417.3,598L417.3,598c-9.3-1.9-18.9-5-27.5-8.9c0-6,0-9,0-15c5.7,2.5,8.6,3.6,14.3,5.4        c0-5.3,0-7.9,0-13.2c5.3,1.7,8,2.4,13.3,3.5c0-5.7,0-8.6,0-14.4c71.7,12.3,139-20.8,210.2-21.4c0,14.2,0,28.3,0,42.5        C556.3,577.2,489,610.2,417.3,598z"
   id="path318" />
					</g>
				</g>
			</g>
			<g
   id="g332">
				<g
   id="g330">
					<g
   id="g328">
						<path
   class="st6"
   d="M438.4,606.5c0,14.2,0,28.3,0,42.5c76.2,3,148-35.5,224.3-19.7c0-14.2,0-28.3,0-42.5        C586.4,571,514.6,609.5,438.4,606.5z"
   id="path326" />
					</g>
				</g>
			</g>
			<g
   id="g340">
				<g
   id="g338">
					<g
   id="g336">
						<path
   class="st6"
   d="M665.6,650.3c0,5.3,0,7.9,0,13.2c-5.3-1.5-8-2.1-13.3-3c0,5.7,0,8.6,0,14.4        c-61.6-8.4-119.6,14.5-180.2,21.5c0-14.2,0-28.3,0-42.5c60.6-7,118.6-29.9,180.2-21.5v0c9.2,1.6,18.9,4.3,27.5,7.8        c0,6,0,9,0,15C674.2,652.9,671.3,651.9,665.6,650.3z"
   id="path334" />
					</g>
				</g>
			</g>
			<g
   id="g374">
				<g
   id="g344">
					<path
   class="st4"
   d="M432.8,579.4C432.8,579.4,432.8,579.4,432.8,579.4c0-5.3,3.9-9.1,9.4-8.8c3.3,0.2,5.4,1.4,7.1,3.1       c-0.8,0.9-1.2,1.4-2,2.4c-1.5-1.4-3-2.4-5.1-2.5c-3.5-0.2-6,2.5-6,6.1c0,0,0,0,0,0.1c0,3.6,2.5,6.8,6,7       c2.2,0.1,3.7-0.8,5.2-2.2c0.8,0.9,1.2,1.3,2,2.1c-1.9,2-4,3.2-7.4,3C436.7,589.4,432.8,584.7,432.8,579.4z"
   id="path342" />
				</g>
				<g
   id="g348">
					<path
   class="st4"
   d="M457.1,580.4C457.1,580.4,457.1,580.3,457.1,580.4c0-5.2,3.9-9.7,9.5-10s9.5,3.5,9.5,8.7c0,0,0,0,0,0.1       c0,5.2-3.9,10-9.5,10.4C461,589.8,457.1,585.6,457.1,580.4z M472.8,579.4C472.8,579.4,472.8,579.4,472.8,579.4       c0-3.6-2.6-6.4-6.2-6.1s-6.1,3.3-6.1,6.8c0,0,0,0,0,0.1c0,3.6,2.6,6.5,6.2,6.2C470.3,586.2,472.8,583,472.8,579.4z"
   id="path346" />
				</g>
				<g
   id="g352">
					<path
   class="st4"
   d="M484.7,568.8c1.2-0.2,1.8-0.2,3-0.4c3.9,4.5,5.8,6.8,9.7,11.2c0-5.1,0-7.7,0-12.8c1.3-0.2,1.9-0.3,3.1-0.5       c0,7.4,0,11.1,0,18.4c-1.1,0.2-1.6,0.3-2.7,0.5c-4-4.6-6-6.9-10-11.5c0,5.2,0,7.9,0,13.1c-1.3,0.2-1.9,0.3-3.1,0.4       C484.7,579.9,484.7,576.2,484.7,568.8z"
   id="path350" />
				</g>
				<g
   id="g356">
					<path
   class="st4"
   d="M510.3,564.4c1.2-0.2,1.8-0.4,3-0.6c3.9,4.3,5.8,6.5,9.7,10.7c0-5.1,0-7.7,0-12.8c1.3-0.3,1.9-0.4,3.1-0.7       c0,7.4,0,11.1,0,18.4c-1.1,0.2-1.6,0.3-2.7,0.6c-4-4.4-6-6.6-10-11c0,5.2,0,7.9,0,13.1c-1.3,0.3-1.9,0.4-3.1,0.6       C510.3,575.5,510.3,571.8,510.3,564.4z"
   id="path354" />
				</g>
				<g
   id="g360">
					<path
   class="st4"
   d="M536,559c5.4-1.2,8.1-1.8,13.5-2.9c0,1.2,0,1.7,0,2.9c-4.1,0.9-6.2,1.3-10.3,2.2c0,1.9,0,2.9,0,4.8       c3.6-0.8,5.5-1.2,9.1-2c0,1.2,0,1.7,0,2.9c-3.6,0.8-5.5,1.2-9.1,2c0,2,0,3,0,5c4.2-0.9,6.2-1.4,10.4-2.3c0,1.2,0,1.7,0,2.9       c-5.4,1.2-8.2,1.8-13.6,3C536,570,536,566.4,536,559z"
   id="path358" />
				</g>
				<g
   id="g364">
					<path
   class="st4"
   d="M557.3,563.7C557.3,563.6,557.3,563.6,557.3,563.7c0-5.3,3.9-10.4,9.4-11.5c3.3-0.6,5.4,0.2,7.1,1.5       c-0.8,1.1-1.2,1.7-2,2.8c-1.5-1.1-3-1.7-5.1-1.3c-3.5,0.7-6,4.1-6,7.7c0,0,0,0,0,0.1c0,3.6,2.5,6,6,5.4       c2.2-0.4,3.7-1.6,5.2-3.4c0.8,0.7,1.2,1,2,1.7c-1.9,2.3-4,4-7.4,4.6C561.2,572.3,557.3,569,557.3,563.7z"
   id="path362" />
				</g>
				<g
   id="g368">
					<path
   class="st4"
   d="M586.9,552c-2.3,0.3-3.5,0.5-5.8,0.9c0-1.2,0-1.8,0-3c5.9-1,8.8-1.4,14.7-2.1c0,1.2,0,1.8,0,3       c-2.3,0.3-3.5,0.4-5.8,0.7c0,6.2,0,9.3,0,15.4c-1.3,0.2-1.9,0.3-3.2,0.5C586.9,561.3,586.9,558.2,586.9,552z"
   id="path366" />
				</g>
				<g
   id="g372">
					<path
   class="st4"
   d="M602.3,562.9c0.8-1,1.2-1.5,1.9-2.5c1.7,1.4,3.5,2.1,5.7,2c2-0.1,3.2-1.1,3.2-2.5c0,0,0,0,0-0.1       c0-1.3-0.7-2-4.1-2.6c-3.8-0.7-6-1.6-6-5c0,0,0,0,0-0.1c0-3.2,2.6-5.6,6.2-5.8c2.6-0.2,4.7,0.6,6.6,2c-0.7,1-1,1.5-1.7,2.5       c-1.6-1.2-3.3-1.7-4.9-1.6c-1.9,0.1-3,1.2-3,2.4c0,0,0,0,0,0.1c0,1.4,0.8,2,4.3,2.6c3.8,0.7,5.8,2.1,5.8,5.1c0,0,0,0,0,0.1       c0,3.5-2.7,5.6-6.5,5.8C607.1,565.5,604.4,564.7,602.3,562.9z"
   id="path370" />
				</g>
			</g>
			<g
   id="g404">
				<g
   id="g378">
					<path
   class="st4"
   d="M486.7,665.2c1.4-0.2,2-0.3,3.4-0.5c2.2,3.2,3.3,4.7,5.5,7.8c2.2-3.9,3.3-5.8,5.5-9.7       c1.4-0.2,2-0.4,3.4-0.6c0,7.4,0,11.1,0,18.4c-1.3,0.2-1.9,0.4-3.2,0.6c0-5.3,0-7.9,0-13.2c-2.3,3.9-3.4,5.8-5.7,9.7       c0,0-0.1,0-0.1,0c-2.3-3.1-3.4-4.6-5.7-7.7c0,5.3,0,7.9,0,13.2c-1.3,0.2-1.9,0.3-3.1,0.5C486.7,676.2,486.7,672.6,486.7,665.2z       "
   id="path376" />
				</g>
				<g
   id="g382">
					<path
   class="st4"
   d="M514.4,660.3c5.4-1.1,8.1-1.7,13.5-2.8c0,1.2,0,1.7,0,2.9c-4.1,0.9-6.2,1.3-10.3,2.2c0,1.9,0,2.9,0,4.8       c3.6-0.8,5.5-1.1,9.1-1.9c0,1.2,0,1.7,0,2.9c-3.6,0.8-5.5,1.2-9.1,1.9c0,2,0,3,0,5c4.2-0.9,6.2-1.3,10.4-2.2c0,1.2,0,1.7,0,2.9       c-5.4,1.2-8.2,1.8-13.6,2.9C514.4,671.3,514.4,667.7,514.4,660.3z"
   id="path380" />
				</g>
				<g
   id="g386">
					<path
   class="st4"
   d="M537,655.4c1.2-0.3,1.8-0.4,3-0.7c3.9,4.2,5.8,6.4,9.7,10.6c0-5.1,0-7.7,0-12.8c1.3-0.3,1.9-0.4,3.1-0.7       c0,7.4,0,11.1,0,18.4c-1.1,0.2-1.6,0.3-2.7,0.6c-4-4.4-6-6.6-10-10.9c0,5.2,0,7.9,0,13.1c-1.3,0.3-1.9,0.4-3.1,0.7       C537,666.5,537,662.8,537,655.4z"
   id="path384" />
				</g>
				<g
   id="g390">
					<path
   class="st4"
   d="M566.6,652.2c-2.3,0.4-3.5,0.7-5.8,1.1c0-1.2,0-1.8,0-3c5.9-1.2,8.8-1.8,14.7-2.8c0,1.2,0,1.8,0,3       c-2.3,0.4-3.5,0.6-5.8,1c0,6.2,0,9.3,0,15.4c-1.3,0.2-1.9,0.4-3.2,0.6C566.6,661.4,566.6,658.4,566.6,652.2z"
   id="path388" />
				</g>
				<g
   id="g394">
					<path
   class="st4"
   d="M583.6,646.2c5.4-0.8,8.1-1.2,13.5-1.8c0,1.2,0,1.7,0,2.9c-4.1,0.5-6.2,0.7-10.3,1.3c0,1.9,0,2.9,0,4.8       c3.6-0.5,5.5-0.8,9.1-1.2c0,1.2,0,1.7,0,2.9c-3.6,0.4-5.5,0.7-9.1,1.2c0,2,0,3,0,5c4.2-0.6,6.2-0.9,10.4-1.3c0,1.2,0,1.7,0,2.9       c-5.4,0.6-8.2,1-13.6,1.8C583.6,657.2,583.6,653.6,583.6,646.2z"
   id="path392" />
				</g>
				<g
   id="g398">
					<path
   class="st4"
   d="M606.7,643.5c5.4-0.4,8.1-0.5,13.5-0.6c0,1.2,0,1.7,0,2.9c-4.1,0.1-6.2,0.1-10.3,0.4c0,1.9,0,2.9,0,4.8       c3.6-0.2,5.5-0.3,9.1-0.4c0,1.2,0,1.7,0,2.9c-3.6,0.1-5.5,0.1-9.1,0.4c0,2,0,3,0,5c4.2-0.3,6.2-0.3,10.4-0.4c0,1.2,0,1.7,0,2.9       c-5.4,0.1-8.2,0.2-13.6,0.6C606.7,654.5,606.7,650.8,606.7,643.5z"
   id="path396" />
				</g>
				<g
   id="g402">
					<path
   class="st4"
   d="M628.1,658.7c0.8-0.9,1.2-1.4,1.9-2.3c1.7,1.6,3.5,2.6,5.7,2.7c2,0.1,3.2-0.7,3.2-2.1c0,0,0,0,0-0.1       c0-1.3-0.7-2.1-4.1-3.1c-3.9-1.2-6-2.4-6-5.8c0,0,0,0,0-0.1c0-3.2,2.6-5.3,6.2-5c2.6,0.2,4.7,1.2,6.6,2.9       c-0.7,0.9-1,1.4-1.7,2.3c-1.6-1.4-3.3-2.2-4.9-2.3c-1.9-0.1-3,0.8-3,2c0,0,0,0,0,0.1c0,1.4,0.8,2.1,4.3,3.2       c3.8,1.2,5.8,2.9,5.8,5.9c0,0,0,0,0,0.1c0,3.5-2.7,5.2-6.5,4.9C632.9,661.8,630.2,660.7,628.1,658.7z"
   id="path400" />
				</g>
			</g>
			<g
   id="g438">
				<g
   id="g408">
					<path
   class="st4"
   d="M453.3,619.5c1.4,0,2,0,3.4,0c2.2,3.4,3.3,5.1,5.5,8.5c2.2-3.6,3.3-5.4,5.5-9.1c1.4-0.1,2-0.2,3.4-0.3       c0,7.4,0,11.1,0,18.4c-1.3,0.1-1.9,0.2-3.2,0.3c0-5.3,0-7.9,0-13.2c-2.3,3.6-3.4,5.5-5.7,9c0,0-0.1,0-0.1,0       c-2.3-3.3-3.4-5-5.7-8.4c0,5.3,0,7.9,0,13.2c-1.3,0-1.9,0-3.1,0C453.3,630.6,453.3,626.9,453.3,619.5z"
   id="path406" />
				</g>
				<g
   id="g412">
					<path
   class="st4"
   d="M481,617.6c5.4-0.7,8.1-1.1,13.5-1.9c0,1.2,0,1.7,0,2.9c-4.1,0.7-6.2,1-10.3,1.5c0,1.9,0,2.9,0,4.8       c3.6-0.5,5.5-0.8,9.1-1.3c0,1.2,0,1.7,0,2.9c-3.6,0.6-5.5,0.9-9.1,1.3c0,2,0,3,0,5c4.2-0.6,6.2-0.9,10.4-1.6c0,1.2,0,1.7,0,2.9       c-5.4,0.9-8.2,1.3-13.6,2C481,628.7,481,625,481,617.6z"
   id="path410" />
				</g>
				<g
   id="g416">
					<path
   class="st4"
   d="M503.6,614.1c1.2-0.2,1.8-0.3,3-0.6c3.9,4.4,5.8,6.5,9.7,10.8c0-5.1,0-7.7,0-12.8c1.3-0.3,1.9-0.4,3.1-0.7       c0,7.4,0,11.1,0,18.4c-1.1,0.2-1.6,0.3-2.7,0.6c-4-4.4-6-6.6-10-11.1c0,5.2,0,7.9,0,13.1c-1.3,0.2-1.9,0.4-3.1,0.6       C503.6,625.1,503.6,621.5,503.6,614.1z"
   id="path414" />
				</g>
				<g
   id="g420">
					<path
   class="st4"
   d="M533.7,610.8c-2.3,0.5-3.5,0.8-5.8,1.3c0-1.2,0-1.8,0-3c5.9-1.3,8.8-1.9,14.7-3.2c0,1.2,0,1.8,0,3       c-2.3,0.5-3.5,0.8-5.8,1.3c0,6.2,0,9.3,0,15.4c-1.3,0.3-1.9,0.4-3.2,0.7C533.7,620.1,533.7,617,533.7,610.8z"
   id="path418" />
				</g>
				<g
   id="g424">
					<path
   class="st4"
   d="M548.4,613.9C548.4,613.9,548.4,613.9,548.4,613.9c0-5.2,3.9-10.5,9.5-11.6c5.6-1.2,9.5,2.4,9.5,7.6       c0,0,0,0,0,0.1c0,5.2-3.9,10.3-9.5,11.4C552.3,622.5,548.4,619.1,548.4,613.9z M564.1,610.6       C564.1,610.6,564.1,610.6,564.1,610.6c0-3.6-2.6-6.1-6.2-5.4s-6.1,4.2-6.1,7.8c0,0,0,0,0,0.1c0,3.6,2.6,6,6.2,5.3       C561.6,617.6,564.1,614.2,564.1,610.6z"
   id="path422" />
				</g>
				<g
   id="g428">
					<path
   class="st4"
   d="M574.9,599.3c3.2-0.6,4.9-0.8,8.1-1.4c2.3-0.4,4.1,0.1,5.2,1.1c1,0.8,1.5,2.2,1.5,3.8c0,0,0,0,0,0.1       c0,3-1.8,5.1-4.3,6.2c2,2.5,2.9,3.8,4.9,6.3c-1.5,0.2-2.3,0.3-3.8,0.5c-1.8-2.3-2.7-3.5-4.5-5.7c0,0,0,0-0.1,0       c-1.6,0.3-2.4,0.4-3.9,0.6c0,2.6,0,3.9,0,6.4c-1.3,0.2-1.9,0.3-3.2,0.6C574.9,610.4,574.9,606.7,574.9,599.3z M582.8,607.1       c2.3-0.4,3.7-1.8,3.7-3.7c0,0,0,0,0-0.1c0-2-1.4-2.9-3.8-2.5c-1.9,0.3-2.8,0.4-4.6,0.8c0,2.5,0,3.7,0,6.2       C580,607.6,580.9,607.4,582.8,607.1z"
   id="path426" />
				</g>
				<g
   id="g432">
					<path
   class="st4"
   d="M597.7,611.7c0.8-1,1.2-1.5,1.9-2.5c1.7,1.3,3.5,2.1,5.7,1.9c2-0.2,3.2-1.2,3.2-2.6c0,0,0,0,0-0.1       c0-1.3-0.7-2-4.1-2.5c-3.8-0.6-6-1.5-6-4.9c0,0,0,0,0-0.1c0-3.2,2.6-5.6,6.2-5.9c2.6-0.2,4.7,0.5,6.6,1.9c-0.7,1-1,1.5-1.7,2.6       c-1.6-1.1-3.3-1.7-4.9-1.5c-1.9,0.2-3,1.2-3,2.5c0,0,0,0,0,0.1c0,1.4,0.8,1.9,4.3,2.5c3.8,0.6,5.8,2,5.8,5c0,0,0,0,0,0.1       c0,3.5-2.7,5.6-6.5,5.9C602.5,614.2,599.8,613.5,597.7,611.7z"
   id="path430" />
				</g>
				<g
   id="g436">
					<path
   class="st4"
   d="M643.8,612.1c-1.6,1.3-3.4,2-5.6,1.8c-3.4-0.3-5.9-2.5-5.9-5.7c0,0,0,0,0-0.1c0-2.4,1.4-4,3.9-4.9       c-1-1.4-1.5-2.6-1.5-4c0,0,0,0,0-0.1c0-2.5,2-4.5,5.2-4.2c2.9,0.3,4.8,2.5,4.8,5c0,0,0,0,0,0.1c0,2.4-1.6,3.7-4,4.3       c1.2,1.4,1.9,2.1,3.1,3.6c0.7-1,1.3-2.1,1.9-3.3c1,0.6,1.4,1,2.4,1.6c-0.7,1.4-1.5,2.7-2.5,3.9c1.1,1.3,1.7,2,2.9,3.4       c-0.9,0.5-1.4,0.8-2.4,1.4C645.2,613.8,644.8,613.2,643.8,612.1z M642,610c-1.6-1.9-2.4-2.8-4-4.6c-1.7,0.6-2.4,1.7-2.4,2.9       c0,0,0,0,0,0.1c0,1.6,1.3,2.8,3,2.9C639.8,611.4,640.9,610.9,642,610z M641.9,599.9C641.9,599.9,641.9,599.9,641.9,599.9       c0-1.3-0.9-2.2-2.1-2.3c-1.3-0.1-2.2,0.7-2.2,2c0,0,0,0,0,0.1c0,0.9,0.4,1.6,1.4,2.9C640.9,602,641.9,601.2,641.9,599.9z"
   id="path434" />
				</g>
			</g>
		</g>
	</g>
</g>
</svg>
