<?xml version="1.0" encoding="UTF-8" standalone="no"?>
<svg
   xmlns:dc="http://purl.org/dc/elements/1.1/"
   xmlns:cc="http://creativecommons.org/ns#"
   xmlns:rdf="http://www.w3.org/1999/02/22-rdf-syntax-ns#"
   xmlns:svg="http://www.w3.org/2000/svg"
   xmlns="http://www.w3.org/2000/svg"
   xmlns:sodipodi="http://sodipodi.sourceforge.net/DTD/sodipodi-0.dtd"
   xmlns:inkscape="http://www.inkscape.org/namespaces/inkscape"
   width="720"
   height="720"
   viewBox="0 0 190.5 190.50001"
   version="1.1"
   id="svg3950"
   inkscape:version="1.0.2 (e86c870879, 2021-01-15)"
   sodipodi:docname="2023-final-shirt-design-back-on-dark-shirt.svg"
   inkscape:export-filename="/home/sage/outreachy/git-repo/2023-outreachy-celebration/t-shirt/2023-final-shirt-design-back-on-dark-shirt.png"
   inkscape:export-xdpi="600"
   inkscape:export-ydpi="600">
  <defs
     id="defs3944">
    <clipPath
       clipPathUnits="userSpaceOnUse"
       id="clipPath17718">
      <path
         sodipodi:nodetypes="cccccccccccccccc"
         inkscape:connector-curvature="0"
         id="path17720"
         d="m -971.0049,83.772646 v 35.000004 h -35 v 35 h -35 v 70 h 519.99999 110 v -35 h 35 v -35 h 35 V 83.772646 h -120 -481 z"
         style="fill:#59cfe6;fill-opacity:1;stroke:none" />
    </clipPath>
  </defs>
  <sodipodi:namedview
     id="base"
     pagecolor="#000000"
     bordercolor="#666666"
     borderopacity="1.0"
     inkscape:pageopacity="0"
     inkscape:pageshadow="2"
     inkscape:zoom="0.71"
     inkscape:cx="301.85458"
     inkscape:cy="303.96896"
     inkscape:document-units="mm"
     inkscape:current-layer="layer1"
     inkscape:document-rotation="0"
     showgrid="false"
     units="px"
     inkscape:window-width="1920"
     inkscape:window-height="1016"
     inkscape:window-x="0"
     inkscape:window-y="27"
     inkscape:window-maximized="1" />
  <metadata
     id="metadata3947">
    <rdf:RDF>
      <cc:Work
         rdf:about="">
        <dc:format>image/svg+xml</dc:format>
        <dc:type
           rdf:resource="http://purl.org/dc/dcmitype/StillImage" />
        <dc:title></dc:title>
      </cc:Work>
    </rdf:RDF>
  </metadata>
  <g
     inkscape:label="Layer 1"
     inkscape:groupmode="layer"
     id="layer1">
    <g
       aria-label="  Supporting diversity in open source and open science"
       id="text4758"
       style="font-size:11.2889px;line-height:1.25;font-family:Anke;-inkscape-font-specification:Anke;text-align:center;letter-spacing:0px;word-spacing:0px;writing-mode:lr-tb;text-anchor:middle;fill:#ffffff;stroke-width:0.264583"
       inkscape:export-xdpi="600"
       inkscape:export-ydpi="600">
      <path
         d="m 41.509354,101.52836 c 0.801512,0 1.557869,-0.23707 2.122314,-0.66605 0.293511,-0.21449 0.530578,-0.47413 0.699911,-0.76764 0.169334,-0.316092 0.259645,-0.654759 0.259645,-0.993426 0,-0.688623 -0.3048,-1.309513 -0.869245,-1.738491 -0.530579,-0.417689 -1.286935,-0.654756 -2.178758,-0.699912 -0.508001,-0.03387 -0.959557,-0.191911 -1.286935,-0.440267 -0.2032,-0.158044 -0.440267,-0.428978 -0.440267,-0.801512 0,-0.316089 0.158045,-0.620889 0.451556,-0.846667 0.327378,-0.259645 0.767645,-0.406401 1.241779,-0.406401 0.474134,0 0.914401,0.146756 1.241779,0.406401 0.293512,0.225778 0.462845,0.530578 0.462845,0.846667 h 1.016001 c 0,-0.327378 -0.07902,-0.632178 -0.237067,-0.925689 -0.146755,-0.270934 -0.349956,-0.51929 -0.6096,-0.72249 -0.496712,-0.395112 -1.162757,-0.62089 -1.873958,-0.62089 -0.699912,0 -1.365957,0.225778 -1.873957,0.62089 -0.259645,0.2032 -0.462845,0.451556 -0.609601,0.72249 -0.158044,0.293511 -0.225778,0.598311 -0.225778,0.925689 0,0.62089 0.293512,1.185335 0.835379,1.603024 0.485423,0.372534 1.12889,0.598312 1.840091,0.654756 h 0.01129 c 0.869246,0.04516 1.354668,0.282223 1.614313,0.485423 0.316089,0.248356 0.474134,0.553156 0.474134,0.936979 0,0.349956 -0.191911,0.688623 -0.541867,0.948266 -0.406401,0.29351 -0.948268,0.46285 -1.524002,0.46285 -0.575734,0 -1.117601,-0.16934 -1.512712,-0.46285 -0.361245,-0.259643 -0.553157,-0.59831 -0.553157,-0.948266 h -1.016001 c 0,0.338667 0.09031,0.677334 0.270934,0.993426 0.158045,0.29351 0.395112,0.55315 0.688623,0.76764 0.575734,0.42898 1.33209,0.66605 2.122313,0.66605 z"
         style="font-size:11.2889px;fill:#ffffff;stroke-width:0.264583"
         id="path6204" />
      <path
         d="m 49.42286,95.511374 v 3.510848 c 0,0.824089 -0.666045,1.490138 -1.490135,1.490138 -0.812801,0 -1.478846,-0.666049 -1.478846,-1.490138 v -3.510848 h -1.016001 v 3.510848 c 0,0.677334 0.259645,1.298228 0.733778,1.772358 0.474134,0.47413 1.095024,0.73378 1.761069,0.73378 0.541867,0 1.061156,-0.16934 1.490135,-0.48543 v 0.48543 h 1.016001 v -6.016986 z"
         style="font-size:11.2889px;fill:#ffffff;stroke-width:0.264583"
         id="path6206" />
      <path
         d="m 56.433252,96.391908 c -0.564445,-0.564445 -1.320801,-0.880534 -2.133602,-0.880534 -0.733779,0 -1.43369,0.270933 -1.986847,0.756356 v -0.756356 h -1.016001 v 8.477966 h 1.016001 V 100.772 c 0.553157,0.48542 1.253068,0.75636 1.986847,0.75636 0.812801,0 1.569157,-0.31609 2.133602,-0.88054 0.564445,-0.56444 0.880534,-1.320798 0.880534,-2.133599 0,-0.801512 -0.316089,-1.557868 -0.880534,-2.122313 z m -2.133602,4.120452 c -1.095023,0 -1.986847,-0.891827 -1.986847,-1.998139 0,-1.095023 0.891824,-1.986846 1.986847,-1.986846 1.106312,0 1.998135,0.891823 1.998135,1.986846 0,1.106312 -0.891823,1.998139 -1.998135,1.998139 z"
         style="font-size:11.2889px;fill:#ffffff;stroke-width:0.264583"
         id="path6208" />
      <path
         d="m 63.014662,96.391908 c -0.564445,-0.564445 -1.320802,-0.880534 -2.133603,-0.880534 -0.733778,0 -1.43369,0.270933 -1.986846,0.756356 v -0.756356 h -1.016001 v 8.477966 h 1.016001 V 100.772 c 0.553156,0.48542 1.253068,0.75636 1.986846,0.75636 0.812801,0 1.569158,-0.31609 2.133603,-0.88054 0.564445,-0.56444 0.880534,-1.320798 0.880534,-2.133599 0,-0.801512 -0.316089,-1.557868 -0.880534,-2.122313 z m -2.133603,4.120452 c -1.095023,0 -1.986846,-0.891827 -1.986846,-1.998139 0,-1.095023 0.891823,-1.986846 1.986846,-1.986846 1.106313,0 1.998136,0.891823 1.998136,1.986846 0,1.106312 -0.891823,1.998139 -1.998136,1.998139 z"
         style="font-size:11.2889px;fill:#ffffff;stroke-width:0.264583"
         id="path6210" />
      <path
         d="m 67.462469,101.52836 c 0.812801,0 1.569157,-0.31609 2.133602,-0.88054 0.564445,-0.56444 0.880534,-1.320798 0.880534,-2.133599 0,-0.801512 -0.316089,-1.557868 -0.880534,-2.122313 -0.564445,-0.564445 -1.320801,-0.880534 -2.133602,-0.880534 -0.801512,0 -1.557868,0.316089 -2.122313,0.880534 -0.564445,0.564445 -0.880535,1.320801 -0.880535,2.122313 0,0.812801 0.31609,1.569159 0.880535,2.133599 0.564445,0.56445 1.320801,0.88054 2.122313,0.88054 z m 0,-5.000985 c 1.106312,0 1.998135,0.891823 1.998135,1.986846 0,1.106312 -0.891823,1.998139 -1.998135,1.998139 -1.095023,0 -1.986847,-0.891827 -1.986847,-1.998139 0,-1.095023 0.891824,-1.986846 1.986847,-1.986846 z"
         style="font-size:11.2889px;fill:#ffffff;stroke-width:0.264583"
         id="path6212" />
      <path
         d="m 74.179347,95.511374 c -0.474134,0.02258 -0.948268,0.169333 -1.365957,0.417689 -0.169333,0.09031 -0.327378,0.2032 -0.474134,0.338667 v -0.756356 h -1.016001 v 6.016986 h 1.016001 v -3.025428 c 0,-0.338667 0.09031,-0.666045 0.259645,-0.970845 0.169333,-0.304801 0.417689,-0.553156 0.72249,-0.733779 0.282222,-0.158044 0.587022,-0.248356 0.914401,-0.270933 0.3048,-0.01129 0.620889,0.04515 0.903112,0.169333 l 0.4064,-0.92569 c -0.428978,-0.191911 -0.903112,-0.282222 -1.365957,-0.259644 z"
         style="font-size:11.2889px;fill:#ffffff;stroke-width:0.264583"
         id="path6214" />
      <path
         d="M 78.841657,95.511374 H 77.4757 v -2.810937 h -1.016001 v 2.810937 h -0.745067 v 1.016001 h 0.745067 v 5.000985 H 77.4757 v -5.000985 h 1.365957 z"
         style="font-size:11.2889px;fill:#ffffff;stroke-width:0.264583"
         id="path6216" />
      <path
         d="m 79.50768,101.52836 h 1.016001 V 95.511374 H 79.50768 Z m 0.508001,-7.157165 c 0.338667,0 0.6096,-0.270934 0.6096,-0.609601 0,-0.338667 -0.270933,-0.609601 -0.6096,-0.609601 -0.338667,0 -0.609601,0.270934 -0.609601,0.609601 0,0.338667 0.270934,0.609601 0.609601,0.609601 z"
         style="font-size:11.2889px;fill:#ffffff;stroke-width:0.264583"
         id="path6218" />
      <path
         d="m 85.852023,96.245152 c -0.474134,-0.474134 -1.095024,-0.733778 -1.772358,-0.733778 -0.541867,0 -1.049867,0.169333 -1.478845,0.485422 v -0.485422 h -1.016002 v 6.016986 h 1.016002 v -3.522139 c 0,-0.812801 0.666045,-1.478846 1.478845,-1.478846 0.82409,0 1.490135,0.666045 1.490135,1.478846 v 3.522139 h 1.016001 v -3.522139 c 0,-0.666046 -0.259644,-1.286935 -0.733778,-1.761069 z"
         style="font-size:11.2889px;fill:#ffffff;stroke-width:0.264583"
         id="path6220" />
      <path
         d="M 92.207656,95.511374 V 96.26773 C 91.6545,95.782307 90.954588,95.511374 90.20952,95.511374 c -0.801511,0 -1.557868,0.316089 -2.122313,0.880534 -0.564445,0.564445 -0.880534,1.320801 -0.880534,2.122313 0,0.812801 0.316089,1.569159 0.880534,2.133599 0.564445,0.56445 1.320802,0.88054 2.122313,0.88054 0.745068,0 1.44498,-0.27094 1.998136,-0.75636 v 0.2032 c 0,1.10631 -0.891823,1.99814 -1.998136,1.99814 -0.316089,0 -0.632178,-0.079 -0.9144,-0.22578 -0.270934,-0.14676 -0.508001,-0.34996 -0.699912,-0.59831 l -0.812801,0.59831 c 0.270933,0.37253 0.632178,0.68862 1.038579,0.90311 0.428978,0.22578 0.914401,0.33867 1.388534,0.33867 0.812801,0 1.569158,-0.31609 2.133603,-0.88054 0.564445,-0.56444 0.880534,-1.3208 0.880534,-2.1336 v -5.463826 z m -1.998136,5.000986 c -1.095023,0 -1.986846,-0.891827 -1.986846,-1.998139 0,-1.095023 0.891823,-1.986846 1.986846,-1.986846 1.106313,0 1.998136,0.891823 1.998136,1.986846 v 0.01129 c 0,1.095023 -0.891823,1.986849 -1.998136,1.986849 z"
         style="font-size:11.2889px;fill:#ffffff;stroke-width:0.264583"
         id="path6222" />
      <path
         d="m 102.45795,92.700437 v 3.567293 c -0.55315,-0.485423 -1.25306,-0.756356 -1.99813,-0.756356 -0.801512,0 -1.557869,0.316089 -2.122314,0.880534 -0.564445,0.564445 -0.880534,1.320801 -0.880534,2.122313 0,0.812801 0.316089,1.569159 0.880534,2.133599 0.564445,0.56445 1.320802,0.88054 2.122314,0.88054 0.74507,0 1.44498,-0.27094 1.99813,-0.75636 v 0.75636 h 1.01601 v -8.827923 z m -1.99813,7.811923 c -1.095024,0 -1.986847,-0.891827 -1.986847,-1.998139 0,-1.095023 0.891823,-1.986846 1.986847,-1.986846 1.10631,0 1.99813,0.891823 1.99813,1.986846 0,1.106312 -0.89182,1.998139 -1.99813,1.998139 z"
         style="font-size:11.2889px;fill:#ffffff;stroke-width:0.264583"
         id="path6224" />
      <path
         d="m 104.42221,101.52836 h 1.016 v -6.016986 h -1.016 z m 0.508,-7.157165 c 0.33867,0 0.6096,-0.270934 0.6096,-0.609601 0,-0.338667 -0.27093,-0.609601 -0.6096,-0.609601 -0.33867,0 -0.6096,0.270934 -0.6096,0.609601 0,0.338667 0.27093,0.609601 0.6096,0.609601 z"
         style="font-size:11.2889px;fill:#ffffff;stroke-width:0.264583"
         id="path6226" />
      <path
         d="m 111.10521,95.511374 -1.81751,4.628446 -1.80622,-4.628446 h -1.09503 l 2.35938,6.016986 h 1.09503 l 2.35938,-6.016986 z"
         style="font-size:11.2889px;fill:#ffffff;stroke-width:0.264583"
         id="path6228" />
      <path
         d="m 118.78165,98.514221 c 0,-0.801512 -0.31609,-1.557868 -0.88053,-2.122313 -0.56445,-0.564445 -1.32081,-0.880534 -2.13361,-0.880534 -0.80151,0 -1.55787,0.316089 -2.12231,0.880534 -0.56445,0.564445 -0.88053,1.320801 -0.88053,2.122313 0,0.812801 0.31608,1.569159 0.88053,2.133599 0.56444,0.56445 1.3208,0.88054 2.12231,0.88054 0,0 0,0 0,0 0.48543,0 0.97085,-0.11289 1.39983,-0.33867 0.4064,-0.21449 0.76764,-0.53058 1.03858,-0.90311 l -0.82409,-0.598313 c -0.18063,0.248356 -0.41769,0.451553 -0.68863,0.598313 -0.28222,0.14675 -0.59831,0.22578 -0.92569,0.22578 -0.9144,0 -1.69333,-0.632182 -1.91911,-1.490138 h 4.93325 z m -4.93325,-0.508 c 0.22578,-0.846668 1.00471,-1.478846 1.91911,-1.478846 0.92569,0 1.70463,0.632178 1.93041,1.478846 z"
         style="font-size:11.2889px;fill:#ffffff;stroke-width:0.264583"
         id="path6230" />
      <path
         d="m 122.48439,95.511374 c -0.47413,0.02258 -0.94826,0.169333 -1.36595,0.417689 -0.16934,0.09031 -0.32738,0.2032 -0.47414,0.338667 v -0.756356 h -1.016 v 6.016986 h 1.016 v -3.025428 c 0,-0.338667 0.0903,-0.666045 0.25965,-0.970845 0.16933,-0.304801 0.41769,-0.553156 0.72249,-0.733779 0.28222,-0.158044 0.58702,-0.248356 0.9144,-0.270933 0.3048,-0.01129 0.62089,0.04515 0.90311,0.169333 l 0.4064,-0.92569 c -0.42898,-0.191911 -0.90311,-0.282222 -1.36596,-0.259644 z"
         style="font-size:11.2889px;fill:#ffffff;stroke-width:0.264583"
         id="path6232" />
      <path
         d="m 126.27746,101.52836 c 0.57573,0 1.12889,-0.16934 1.54658,-0.48543 0.21449,-0.15804 0.38382,-0.34995 0.508,-0.57573 0.13546,-0.23707 0.2032,-0.485422 0.2032,-0.756355 0,-0.51929 -0.23707,-0.982135 -0.65476,-1.309513 -0.39511,-0.293511 -0.93698,-0.474134 -1.56916,-0.508 -0.58702,-0.03387 -1.02729,-0.327379 -1.02729,-0.677334 0,-0.372534 0.45156,-0.688623 0.99343,-0.688623 0.54187,0 0.99342,0.316089 0.99342,0.688623 h 1.016 c 0,-0.474134 -0.22578,-0.92569 -0.63218,-1.241779 -0.37253,-0.304801 -0.85795,-0.462845 -1.37724,-0.462845 -0.51929,0 -1.00471,0.158044 -1.37725,0.462845 -0.4064,0.316089 -0.63218,0.767645 -0.63218,1.241779 0,0.474133 0.22578,0.903112 0.63218,1.219201 0.36125,0.270933 0.83538,0.440267 1.34338,0.474134 h 0.0113 c 0.54187,0.03387 0.84667,0.180622 1.00471,0.3048 0.18062,0.135467 0.25965,0.293511 0.25965,0.496712 0,0.248355 -0.19191,0.428975 -0.3048,0.519285 -0.24836,0.18063 -0.58703,0.28223 -0.93698,0.28223 -0.34996,0 -0.68862,-0.1016 -0.93698,-0.28223 -0.11289,-0.0903 -0.3048,-0.27093 -0.3048,-0.519285 h -1.016 c 0,0.270933 0.0677,0.519285 0.2032,0.756355 0.12418,0.22578 0.29351,0.41769 0.508,0.57573 0.41769,0.31609 0.97084,0.48543 1.54658,0.48543 z"
         style="font-size:11.2889px;fill:#ffffff;stroke-width:0.264583"
         id="path6234" />
      <path
         d="m 129.48349,101.52836 h 1.01601 v -6.016986 h -1.01601 z m 0.50801,-7.157165 c 0.33866,0 0.6096,-0.270934 0.6096,-0.609601 0,-0.338667 -0.27094,-0.609601 -0.6096,-0.609601 -0.33867,0 -0.60961,0.270934 -0.60961,0.609601 0,0.338667 0.27094,0.609601 0.60961,0.609601 z"
         style="font-size:11.2889px;fill:#ffffff;stroke-width:0.264583"
         id="path6236" />
      <path
         d="m 134.57477,95.511374 h -1.36596 v -2.810937 h -1.016 v 2.810937 h -0.74507 v 1.016001 h 0.74507 v 5.000985 h 1.016 v -5.000985 h 1.36596 z"
         style="font-size:11.2889px;fill:#ffffff;stroke-width:0.264583"
         id="path6238" />
      <path
         d="m 136.2455,103.98934 h 1.09502 l 3.31894,-8.477966 h -1.09502 l -1.80623,4.628446 -1.80622,-4.628446 h -1.09502 l 2.35938,6.016986 z"
         style="font-size:11.2889px;fill:#ffffff;stroke-width:0.264583"
         id="path6240" />
      <path
         d="m 144.99438,101.52836 h 1.016 v -6.016986 h -1.016 z m 0.508,-7.157165 c 0.33867,0 0.6096,-0.270934 0.6096,-0.609601 0,-0.338667 -0.27093,-0.609601 -0.6096,-0.609601 -0.33866,0 -0.6096,0.270934 -0.6096,0.609601 0,0.338667 0.27094,0.609601 0.6096,0.609601 z"
         style="font-size:11.2889px;fill:#ffffff;stroke-width:0.264583"
         id="path6242" />
      <path
         d="m 151.33873,96.245152 c -0.47414,-0.474134 -1.09502,-0.733778 -1.77236,-0.733778 -0.54187,0 -1.04987,0.169333 -1.47884,0.485422 v -0.485422 h -1.01601 v 6.016986 h 1.01601 v -3.522139 c 0,-0.812801 0.66604,-1.478846 1.47884,-1.478846 0.82409,0 1.49014,0.666045 1.49014,1.478846 v 3.522139 h 1.016 v -3.522139 c 0,-0.666046 -0.25965,-1.286935 -0.73378,-1.761069 z"
         style="font-size:11.2889px;fill:#ffffff;stroke-width:0.264583"
         id="path6244" />
      <path
         d="m 20.703949,115.63948 c 0.812801,0 1.569157,-0.31609 2.133602,-0.88053 0.564445,-0.56445 0.880534,-1.3208 0.880534,-2.1336 0,-0.80152 -0.316089,-1.55787 -0.880534,-2.12232 -0.564445,-0.56444 -1.320801,-0.88053 -2.133602,-0.88053 -0.801512,0 -1.557868,0.31609 -2.122313,0.88053 -0.564445,0.56445 -0.880535,1.3208 -0.880535,2.12232 0,0.8128 0.31609,1.56915 0.880535,2.1336 0.564445,0.56444 1.320801,0.88053 2.122313,0.88053 z m 0,-5.00098 c 1.106312,0 1.998135,0.89182 1.998135,1.98685 0,1.10631 -0.891823,1.99813 -1.998135,1.99813 -1.095023,0 -1.986847,-0.89182 -1.986847,-1.99813 0,-1.09503 0.891824,-1.98685 1.986847,-1.98685 z"
         style="font-size:11.2889px;fill:#ffffff;stroke-width:0.264583"
         id="path6246" />
      <path
         d="m 29.418961,110.50303 c -0.564445,-0.56444 -1.320802,-0.88053 -2.133603,-0.88053 -0.733778,0 -1.43369,0.27093 -1.986846,0.75636 v -0.75636 h -1.016001 v 8.47796 h 1.016001 v -3.21733 c 0.553156,0.48542 1.253068,0.75635 1.986846,0.75635 0.812801,0 1.569158,-0.31609 2.133603,-0.88053 0.564445,-0.56445 0.880534,-1.3208 0.880534,-2.1336 0,-0.80152 -0.316089,-1.55787 -0.880534,-2.12232 z m -2.133603,4.12045 c -1.095023,0 -1.986846,-0.89182 -1.986846,-1.99813 0,-1.09503 0.891823,-1.98685 1.986846,-1.98685 1.106313,0 1.998136,0.89182 1.998136,1.98685 0,1.10631 -0.891823,1.99813 -1.998136,1.99813 z"
         style="font-size:11.2889px;fill:#ffffff;stroke-width:0.264583"
         id="path6248" />
      <path
         d="m 36.880904,112.62535 c 0,-0.80152 -0.316089,-1.55787 -0.880534,-2.12232 -0.564445,-0.56444 -1.320801,-0.88053 -2.133602,-0.88053 -0.801512,0 -1.557868,0.31609 -2.122313,0.88053 -0.564445,0.56445 -0.880535,1.3208 -0.880535,2.12232 0,0.8128 0.31609,1.56915 0.880535,2.1336 0.564445,0.56444 1.320801,0.88053 2.122313,0.88053 0,0 0,0 0,0 0.485423,0 0.970845,-0.11289 1.399823,-0.33866 0.406401,-0.21449 0.767646,-0.53058 1.038579,-0.90312 l -0.824089,-0.59831 c -0.180623,0.24836 -0.41769,0.45156 -0.688623,0.59831 -0.282223,0.14676 -0.598312,0.22578 -0.92569,0.22578 -0.914401,0 -1.693335,-0.63218 -1.919113,-1.49013 h 4.933249 z m -4.933249,-0.508 c 0.225778,-0.84667 1.004712,-1.47885 1.919113,-1.47885 0.92569,0 1.704624,0.63218 1.930402,1.47885 z"
         style="font-size:11.2889px;fill:#ffffff;stroke-width:0.264583"
         id="path6250" />
      <path
         d="m 41.825423,110.35628 c -0.474134,-0.47414 -1.095023,-0.73378 -1.772357,-0.73378 -0.541867,0 -1.049868,0.16933 -1.478846,0.48542 v -0.48542 h -1.016001 v 6.01698 h 1.016001 v -3.52213 c 0,-0.8128 0.666045,-1.47885 1.478846,-1.47885 0.82409,0 1.490135,0.66605 1.490135,1.47885 v 3.52213 h 1.016001 v -3.52213 c 0,-0.66605 -0.259645,-1.28694 -0.733779,-1.76107 z"
         style="font-size:11.2889px;fill:#ffffff;stroke-width:0.264583"
         id="path6252" />
      <path
         d="m 48.76807,115.63948 c 0.575734,0 1.12889,-0.16933 1.54658,-0.48542 0.214489,-0.15804 0.383822,-0.34996 0.508,-0.57573 0.135467,-0.23707 0.2032,-0.48543 0.2032,-0.75636 0,-0.51929 -0.237066,-0.98213 -0.654756,-1.30951 -0.395111,-0.29351 -0.936979,-0.47414 -1.569157,-0.508 -0.587023,-0.0339 -1.02729,-0.32738 -1.02729,-0.67734 0,-0.37253 0.451556,-0.68862 0.993423,-0.68862 0.541868,0 0.993424,0.31609 0.993424,0.68862 h 1.016001 c 0,-0.47413 -0.225778,-0.92569 -0.632179,-1.24178 -0.372534,-0.3048 -0.857956,-0.46284 -1.377246,-0.46284 -0.519289,0 -1.004712,0.15804 -1.377245,0.46284 -0.406401,0.31609 -0.632179,0.76765 -0.632179,1.24178 0,0.47414 0.225778,0.90312 0.632179,1.2192 0.361244,0.27094 0.835378,0.44027 1.343379,0.47414 h 0.01129 c 0.541867,0.0339 0.846667,0.18062 1.004712,0.3048 0.180622,0.13547 0.259644,0.29351 0.259644,0.49671 0,0.24836 -0.191911,0.42898 -0.3048,0.51929 -0.248356,0.18062 -0.587023,0.28222 -0.936979,0.28222 -0.349956,0 -0.688623,-0.1016 -0.936978,-0.28222 -0.112889,-0.0903 -0.304801,-0.27093 -0.304801,-0.51929 H 46.51029 c 0,0.27093 0.06773,0.51929 0.2032,0.75636 0.124178,0.22577 0.293512,0.41769 0.508001,0.57573 0.417689,0.31609 0.970845,0.48542 1.546579,0.48542 z"
         style="font-size:11.2889px;fill:#ffffff;stroke-width:0.264583"
         id="path6254" />
      <path
         d="m 54.593128,115.63948 c 0.812801,0 1.569157,-0.31609 2.133602,-0.88053 0.564445,-0.56445 0.880535,-1.3208 0.880535,-2.1336 0,-0.80152 -0.31609,-1.55787 -0.880535,-2.12232 -0.564445,-0.56444 -1.320801,-0.88053 -2.133602,-0.88053 -0.801512,0 -1.557868,0.31609 -2.122313,0.88053 -0.564445,0.56445 -0.880534,1.3208 -0.880534,2.12232 0,0.8128 0.316089,1.56915 0.880534,2.1336 0.564445,0.56444 1.320801,0.88053 2.122313,0.88053 z m 0,-5.00098 c 1.106312,0 1.998136,0.89182 1.998136,1.98685 0,1.10631 -0.891824,1.99813 -1.998136,1.99813 -1.095023,0 -1.986846,-0.89182 -1.986846,-1.99813 0,-1.09503 0.891823,-1.98685 1.986846,-1.98685 z"
         style="font-size:11.2889px;fill:#ffffff;stroke-width:0.264583"
         id="path6256" />
      <path
         d="m 62.438894,109.6225 v 3.51085 c 0,0.82409 -0.666045,1.49013 -1.490134,1.49013 -0.812801,0 -1.478846,-0.66604 -1.478846,-1.49013 v -3.51085 h -1.016001 v 3.51085 c 0,0.67733 0.259644,1.29822 0.733778,1.77235 0.474134,0.47414 1.095023,0.73378 1.761069,0.73378 0.541867,0 1.061156,-0.16933 1.490134,-0.48542 v 0.48542 h 1.016001 v -6.01698 z"
         style="font-size:11.2889px;fill:#ffffff;stroke-width:0.264583"
         id="path6258" />
      <path
         d="m 67.451152,109.6225 c -0.474134,0.0226 -0.948268,0.16933 -1.365957,0.41769 -0.169333,0.0903 -0.327378,0.2032 -0.474134,0.33867 V 109.6225 H 64.59506 v 6.01698 h 1.016001 v -3.02542 c 0,-0.33867 0.09031,-0.66605 0.259645,-0.97085 0.169333,-0.3048 0.417689,-0.55315 0.72249,-0.73378 0.282222,-0.15804 0.587022,-0.24835 0.914401,-0.27093 0.3048,-0.0113 0.620889,0.0452 0.903112,0.16933 l 0.4064,-0.92569 c -0.428978,-0.19191 -0.903112,-0.28222 -1.365957,-0.25964 z"
         style="font-size:11.2889px;fill:#ffffff;stroke-width:0.264583"
         id="path6260" />
      <path
         d="m 71.989284,115.63948 c 0.812801,0 1.569158,-0.31609 2.133603,-0.88053 l -0.72249,-0.72249 c -0.372534,0.38382 -0.869245,0.58702 -1.411113,0.58702 -1.095023,0 -1.986846,-0.89182 -1.986846,-1.99813 0,-1.09503 0.891823,-1.98685 1.986846,-1.98685 0.541868,0 1.038579,0.2032 1.411113,0.58702 l 0.72249,-0.72249 c -0.564445,-0.56444 -1.320802,-0.88053 -2.133603,-0.88053 -0.801511,0 -1.557868,0.31609 -2.122313,0.88053 -0.564445,0.56445 -0.880534,1.3208 -0.880534,2.12232 0,0.8128 0.316089,1.56915 0.880534,2.1336 0.564445,0.56444 1.320802,0.88053 2.122313,0.88053 z"
         style="font-size:11.2889px;fill:#ffffff;stroke-width:0.264583"
         id="path6262" />
      <path
         d="m 80.704307,112.62535 c 0,-0.80152 -0.31609,-1.55787 -0.880535,-2.12232 -0.564445,-0.56444 -1.320801,-0.88053 -2.133602,-0.88053 -0.801512,0 -1.557868,0.31609 -2.122313,0.88053 -0.564445,0.56445 -0.880534,1.3208 -0.880534,2.12232 0,0.8128 0.316089,1.56915 0.880534,2.1336 0.564445,0.56444 1.320801,0.88053 2.122313,0.88053 0,0 0,0 0,0 0.485423,0 0.970846,-0.11289 1.399824,-0.33866 0.4064,-0.21449 0.767645,-0.53058 1.038579,-0.90312 l -0.82409,-0.59831 c -0.180622,0.24836 -0.417689,0.45156 -0.688623,0.59831 -0.282222,0.14676 -0.598312,0.22578 -0.92569,0.22578 -0.914401,0 -1.693335,-0.63218 -1.919113,-1.49013 h 4.93325 z m -4.93325,-0.508 c 0.225778,-0.84667 1.004712,-1.47885 1.919113,-1.47885 0.92569,0 1.704624,0.63218 1.930402,1.47885 z"
         style="font-size:11.2889px;fill:#ffffff;stroke-width:0.264583"
         id="path6264" />
      <path
         d="m 89.656377,109.6225 v 0.75636 c -0.553157,-0.48543 -1.253068,-0.75636 -1.998136,-0.75636 -0.801512,0 -1.557868,0.31609 -2.122313,0.88053 -0.564445,0.56445 -0.880534,1.3208 -0.880534,2.12232 0,0.8128 0.316089,1.56915 0.880534,2.1336 0.564445,0.56444 1.320801,0.88053 2.122313,0.88053 0.745068,0 1.444979,-0.27093 1.998136,-0.75635 v 0.75635 h 1.016001 v -6.01698 z m -1.998136,5.00098 c -1.095023,0 -1.986846,-0.89182 -1.986846,-1.99813 0,-1.09503 0.891823,-1.98685 1.986846,-1.98685 1.106312,0 1.998136,0.89182 1.998136,1.98685 0,1.10631 -0.891824,1.99813 -1.998136,1.99813 z"
         style="font-size:11.2889px;fill:#ffffff;stroke-width:0.264583"
         id="path6266" />
      <path
         d="m 95.6169,110.35628 c -0.474133,-0.47414 -1.095023,-0.73378 -1.772357,-0.73378 -0.541867,0 -1.049868,0.16933 -1.478846,0.48542 v -0.48542 h -1.016001 v 6.01698 h 1.016001 v -3.52213 c 0,-0.8128 0.666045,-1.47885 1.478846,-1.47885 0.82409,0 1.490135,0.66605 1.490135,1.47885 v 3.52213 h 1.016001 v -3.52213 c 0,-0.66605 -0.259645,-1.28694 -0.733779,-1.76107 z"
         style="font-size:11.2889px;fill:#ffffff;stroke-width:0.264583"
         id="path6268" />
      <path
         d="m 101.91609,106.81156 v 3.5673 c -0.55316,-0.48543 -1.25307,-0.75636 -1.998137,-0.75636 -0.801511,0 -1.557868,0.31609 -2.122313,0.88053 -0.564445,0.56445 -0.880534,1.3208 -0.880534,2.12232 0,0.8128 0.316089,1.56915 0.880534,2.1336 0.564445,0.56444 1.320802,0.88053 2.122313,0.88053 0.745067,0 1.444977,-0.27093 1.998137,-0.75635 v 0.75635 h 1.016 v -8.82792 z m -1.998137,7.81192 c -1.095023,0 -1.986846,-0.89182 -1.986846,-1.99813 0,-1.09503 0.891823,-1.98685 1.986846,-1.98685 1.106317,0 1.998137,0.89182 1.998137,1.98685 0,1.10631 -0.89182,1.99813 -1.998137,1.99813 z"
         style="font-size:11.2889px;fill:#ffffff;stroke-width:0.264583"
         id="path6270" />
      <path
         d="m 109.88602,115.63948 c 0.81281,0 1.56916,-0.31609 2.13361,-0.88053 0.56444,-0.56445 0.88053,-1.3208 0.88053,-2.1336 0,-0.80152 -0.31609,-1.55787 -0.88053,-2.12232 -0.56445,-0.56444 -1.3208,-0.88053 -2.13361,-0.88053 -0.80151,0 -1.55786,0.31609 -2.12231,0.88053 -0.56444,0.56445 -0.88053,1.3208 -0.88053,2.12232 0,0.8128 0.31609,1.56915 0.88053,2.1336 0.56445,0.56444 1.3208,0.88053 2.12231,0.88053 z m 0,-5.00098 c 1.10632,0 1.99814,0.89182 1.99814,1.98685 0,1.10631 -0.89182,1.99813 -1.99814,1.99813 -1.09502,0 -1.98684,-0.89182 -1.98684,-1.99813 0,-1.09503 0.89182,-1.98685 1.98684,-1.98685 z"
         style="font-size:11.2889px;fill:#ffffff;stroke-width:0.264583"
         id="path6272" />
      <path
         d="m 118.60103,110.50303 c -0.56444,-0.56444 -1.3208,-0.88053 -2.1336,-0.88053 -0.73378,0 -1.43369,0.27093 -1.98685,0.75636 v -0.75636 h -1.016 v 8.47796 h 1.016 v -3.21733 c 0.55316,0.48542 1.25307,0.75635 1.98685,0.75635 0.8128,0 1.56916,-0.31609 2.1336,-0.88053 0.56445,-0.56445 0.88054,-1.3208 0.88054,-2.1336 0,-0.80152 -0.31609,-1.55787 -0.88054,-2.12232 z m -2.1336,4.12045 c -1.09502,0 -1.98685,-0.89182 -1.98685,-1.99813 0,-1.09503 0.89183,-1.98685 1.98685,-1.98685 1.10631,0 1.99814,0.89182 1.99814,1.98685 0,1.10631 -0.89183,1.99813 -1.99814,1.99813 z"
         style="font-size:11.2889px;fill:#ffffff;stroke-width:0.264583"
         id="path6274" />
      <path
         d="m 126.06298,112.62535 c 0,-0.80152 -0.31609,-1.55787 -0.88053,-2.12232 -0.56445,-0.56444 -1.32081,-0.88053 -2.13361,-0.88053 -0.80151,0 -1.55786,0.31609 -2.12231,0.88053 -0.56444,0.56445 -0.88053,1.3208 -0.88053,2.12232 0,0.8128 0.31609,1.56915 0.88053,2.1336 0.56445,0.56444 1.3208,0.88053 2.12231,0.88053 0,0 0,0 0,0 0.48543,0 0.97085,-0.11289 1.39983,-0.33866 0.4064,-0.21449 0.76764,-0.53058 1.03858,-0.90312 l -0.82409,-0.59831 c -0.18063,0.24836 -0.41769,0.45156 -0.68863,0.59831 -0.28222,0.14676 -0.59831,0.22578 -0.92569,0.22578 -0.9144,0 -1.69333,-0.63218 -1.91911,-1.49013 h 4.93325 z m -4.93325,-0.508 c 0.22578,-0.84667 1.00471,-1.47885 1.91911,-1.47885 0.92569,0 1.70463,0.63218 1.93041,1.47885 z"
         style="font-size:11.2889px;fill:#ffffff;stroke-width:0.264583"
         id="path6276" />
      <path
         d="m 131.00749,110.35628 c -0.47413,-0.47414 -1.09502,-0.73378 -1.77235,-0.73378 -0.54187,0 -1.04987,0.16933 -1.47885,0.48542 v -0.48542 h -1.016 v 6.01698 h 1.016 v -3.52213 c 0,-0.8128 0.66605,-1.47885 1.47885,-1.47885 0.82409,0 1.49013,0.66605 1.49013,1.47885 v 3.52213 h 1.016 v -3.52213 c 0,-0.66605 -0.25964,-1.28694 -0.73378,-1.76107 z"
         style="font-size:11.2889px;fill:#ffffff;stroke-width:0.264583"
         id="path6278" />
      <path
         d="m 137.95014,115.63948 c 0.57573,0 1.12889,-0.16933 1.54658,-0.48542 0.21449,-0.15804 0.38382,-0.34996 0.508,-0.57573 0.13546,-0.23707 0.2032,-0.48543 0.2032,-0.75636 0,-0.51929 -0.23707,-0.98213 -0.65476,-1.30951 -0.39511,-0.29351 -0.93698,-0.47414 -1.56916,-0.508 -0.58702,-0.0339 -1.02729,-0.32738 -1.02729,-0.67734 0,-0.37253 0.45156,-0.68862 0.99343,-0.68862 0.54187,0 0.99342,0.31609 0.99342,0.68862 h 1.016 c 0,-0.47413 -0.22578,-0.92569 -0.63218,-1.24178 -0.37253,-0.3048 -0.85795,-0.46284 -1.37724,-0.46284 -0.51929,0 -1.00471,0.15804 -1.37725,0.46284 -0.4064,0.31609 -0.63218,0.76765 -0.63218,1.24178 0,0.47414 0.22578,0.90312 0.63218,1.2192 0.36125,0.27094 0.83538,0.44027 1.34338,0.47414 h 0.0113 c 0.54187,0.0339 0.84667,0.18062 1.00471,0.3048 0.18062,0.13547 0.25965,0.29351 0.25965,0.49671 0,0.24836 -0.19191,0.42898 -0.3048,0.51929 -0.24836,0.18062 -0.58703,0.28222 -0.93698,0.28222 -0.34996,0 -0.68862,-0.1016 -0.93698,-0.28222 -0.11289,-0.0903 -0.3048,-0.27093 -0.3048,-0.51929 h -1.016 c 0,0.27093 0.0677,0.51929 0.2032,0.75636 0.12418,0.22577 0.29351,0.41769 0.508,0.57573 0.41769,0.31609 0.97084,0.48542 1.54658,0.48542 z"
         style="font-size:11.2889px;fill:#ffffff;stroke-width:0.264583"
         id="path6280" />
      <path
         d="m 143.7752,115.63948 c 0.8128,0 1.56916,-0.31609 2.1336,-0.88053 l -0.72249,-0.72249 c -0.37253,0.38382 -0.86924,0.58702 -1.41111,0.58702 -1.09502,0 -1.98685,-0.89182 -1.98685,-1.99813 0,-1.09503 0.89183,-1.98685 1.98685,-1.98685 0.54187,0 1.03858,0.2032 1.41111,0.58702 l 0.72249,-0.72249 c -0.56444,-0.56444 -1.3208,-0.88053 -2.1336,-0.88053 -0.80151,0 -1.55787,0.31609 -2.12231,0.88053 -0.56445,0.56445 -0.88054,1.3208 -0.88054,2.12232 0,0.8128 0.31609,1.56915 0.88054,2.1336 0.56444,0.56444 1.3208,0.88053 2.12231,0.88053 z"
         style="font-size:11.2889px;fill:#ffffff;stroke-width:0.264583"
         id="path6282" />
      <path
         d="m 146.85706,115.63948 h 1.01601 v -6.01698 h -1.01601 z m 0.50801,-7.15716 c 0.33866,0 0.6096,-0.27093 0.6096,-0.6096 0,-0.33867 -0.27094,-0.6096 -0.6096,-0.6096 -0.33867,0 -0.60961,0.27093 -0.60961,0.6096 0,0.33867 0.27094,0.6096 0.60961,0.6096 z"
         style="font-size:11.2889px;fill:#ffffff;stroke-width:0.264583"
         id="path6284" />
      <path
         d="m 154.83829,112.62535 c 0,-0.80152 -0.31609,-1.55787 -0.88053,-2.12232 -0.56445,-0.56444 -1.3208,-0.88053 -2.1336,-0.88053 -0.80151,0 -1.55787,0.31609 -2.12232,0.88053 -0.56444,0.56445 -0.88053,1.3208 -0.88053,2.12232 0,0.8128 0.31609,1.56915 0.88053,2.1336 0.56445,0.56444 1.32081,0.88053 2.12232,0.88053 0,0 0,0 0,0 0.48542,0 0.97084,-0.11289 1.39982,-0.33866 0.4064,-0.21449 0.76765,-0.53058 1.03858,-0.90312 l -0.82409,-0.59831 c -0.18062,0.24836 -0.41769,0.45156 -0.68862,0.59831 -0.28223,0.14676 -0.59831,0.22578 -0.92569,0.22578 -0.9144,0 -1.69334,-0.63218 -1.91912,-1.49013 h 4.93325 z m -4.93325,-0.508 c 0.22578,-0.84667 1.00472,-1.47885 1.91912,-1.47885 0.92569,0 1.70462,0.63218 1.9304,1.47885 z"
         style="font-size:11.2889px;fill:#ffffff;stroke-width:0.264583"
         id="path6286" />
      <path
         d="m 159.78281,110.35628 c -0.47413,-0.47414 -1.09502,-0.73378 -1.77236,-0.73378 -0.54187,0 -1.04987,0.16933 -1.47884,0.48542 v -0.48542 h -1.01601 v 6.01698 h 1.01601 v -3.52213 c 0,-0.8128 0.66604,-1.47885 1.47884,-1.47885 0.82409,0 1.49014,0.66605 1.49014,1.47885 v 3.52213 h 1.016 v -3.52213 c 0,-0.66605 -0.25965,-1.28694 -0.73378,-1.76107 z"
         style="font-size:11.2889px;fill:#ffffff;stroke-width:0.264583"
         id="path6288" />
      <path
         d="m 164.08386,115.63948 c 0.8128,0 1.56916,-0.31609 2.1336,-0.88053 l -0.72249,-0.72249 c -0.37253,0.38382 -0.86924,0.58702 -1.41111,0.58702 -1.09502,0 -1.98684,-0.89182 -1.98684,-1.99813 0,-1.09503 0.89182,-1.98685 1.98684,-1.98685 0.54187,0 1.03858,0.2032 1.41111,0.58702 l 0.72249,-0.72249 c -0.56444,-0.56444 -1.3208,-0.88053 -2.1336,-0.88053 -0.80151,0 -1.55787,0.31609 -2.12231,0.88053 -0.56445,0.56445 -0.88054,1.3208 -0.88054,2.12232 0,0.8128 0.31609,1.56915 0.88054,2.1336 0.56444,0.56444 1.3208,0.88053 2.12231,0.88053 z"
         style="font-size:11.2889px;fill:#ffffff;stroke-width:0.264583"
         id="path6290" />
      <path
         d="m 172.7989,112.62535 c 0,-0.80152 -0.31609,-1.55787 -0.88054,-2.12232 -0.56444,-0.56444 -1.3208,-0.88053 -2.1336,-0.88053 -0.80151,0 -1.55787,0.31609 -2.12231,0.88053 -0.56445,0.56445 -0.88054,1.3208 -0.88054,2.12232 0,0.8128 0.31609,1.56915 0.88054,2.1336 0.56444,0.56444 1.3208,0.88053 2.12231,0.88053 0,0 0,0 0,0 0.48542,0 0.97084,-0.11289 1.39982,-0.33866 0.4064,-0.21449 0.76765,-0.53058 1.03858,-0.90312 l -0.82409,-0.59831 c -0.18062,0.24836 -0.41769,0.45156 -0.68862,0.59831 -0.28222,0.14676 -0.59831,0.22578 -0.92569,0.22578 -0.9144,0 -1.69334,-0.63218 -1.91911,-1.49013 h 4.93325 z m -4.93325,-0.508 c 0.22577,-0.84667 1.00471,-1.47885 1.91911,-1.47885 0.92569,0 1.70462,0.63218 1.9304,1.47885 z"
         style="font-size:11.2889px;fill:#ffffff;stroke-width:0.264583"
         id="path6292" />
    </g>
    <path
       style="fill:#59cfe6;fill-opacity:1;stroke:none;stroke-width:0.236114"
       d="m 29.138191,17.096763 v 8.263978 h -8.263976 v 8.263975 H 12.610238 V 50.152669 H 161.3618 v -8.263978 h 8.26398 v -8.263975 h 8.26398 V 17.096763 Z"
       id="path6633"
       inkscape:connector-curvature="0"
       sodipodi:nodetypes="ccccccccccccc"
       inkscape:export-xdpi="600"
       inkscape:export-ydpi="600" />
    <path
       style="fill:none;fill-opacity:1;stroke:#002b4b;stroke-width:5;stroke-linecap:round;stroke-linejoin:miter;stroke-miterlimit:4;stroke-dasharray:none;stroke-opacity:1"
       d="m -1021.0049,198.77265 h 589.99999 v -35 h 30 v -30 h 65.51104"
       id="path6635"
       inkscape:connector-curvature="0"
       sodipodi:nodetypes="cccccc"
       transform="matrix(0.23611361,0,0,0.23611361,258.40566,-2.6830981)"
       clip-path="url(#clipPath17718)"
       inkscape:export-xdpi="600"
       inkscape:export-ydpi="600" />
    <path
       inkscape:connector-curvature="0"
       id="path3114"
       style="font-style:normal;font-variant:normal;font-weight:bold;font-stretch:normal;font-size:65.497px;line-height:0%;font-family:Anke;-inkscape-font-specification:'Anke Bold';text-align:start;letter-spacing:16.51px;word-spacing:0px;writing-mode:lr-tb;text-anchor:start;fill:#000000;fill-opacity:1;stroke:#002b4b;stroke-width:0.472227;stroke-miterlimit:4;stroke-opacity:1"
       d="m 37.046299,39.776042 c 0.773242,0 1.531012,-0.154662 2.226935,-0.448468 0.695923,-0.293851 1.299053,-0.711396 1.824819,-1.237184 0.52581,-0.52581 0.943377,-1.12894 1.237183,-1.82484 0.293829,-0.695923 0.448491,-1.453671 0.448491,-2.226935 0,-0.773221 -0.154662,-1.530991 -0.448491,-2.226891 -0.293806,-0.695923 -0.711373,-1.299053 -1.237183,-1.824863 -0.525766,-0.525788 -1.128896,-0.943333 -1.824819,-1.237162 -0.695923,-0.293828 -1.453693,-0.44849 -2.226935,-0.44849 -0.77322,0 -1.531012,0.154662 -2.226913,0.44849 -0.6959,0.293829 -1.29903,0.711374 -1.824841,1.237162 -0.52581,0.52581 -0.943355,1.12894 -1.237161,1.824863 -0.293851,0.6959 -0.448468,1.45367 -0.448468,2.226891 0,0.773264 0.154617,1.531012 0.448468,2.226935 0.293806,0.6959 0.711351,1.29903 1.237161,1.82484 0.525811,0.525788 1.128941,0.943333 1.824841,1.237184 0.695901,0.293806 1.453693,0.448468 2.226913,0.448468 m 0,-10.082988 c 1.159864,0 2.257858,0.448469 3.077475,1.268085 0.819661,0.819639 1.268129,1.917634 1.268129,3.077476 0,1.159863 -0.448468,2.25788 -1.268129,3.077497 -0.819617,0.819617 -1.917611,1.268107 -3.077475,1.268107 -1.159842,0 -2.257836,-0.44849 -3.077475,-1.268107 -0.819617,-0.819617 -1.268107,-1.917634 -1.268107,-3.077497 0,-1.159842 0.44849,-2.257837 1.268107,-3.077476 0.819639,-0.819616 1.917633,-1.268085 3.077475,-1.268085"
       inkscape:export-xdpi="600"
       inkscape:export-ydpi="600" />
    <path
       inkscape:connector-curvature="0"
       id="path3116"
       style="font-style:normal;font-variant:normal;font-weight:bold;font-stretch:normal;font-size:65.497px;line-height:0%;font-family:Anke;-inkscape-font-specification:'Anke Bold';text-align:start;letter-spacing:16.51px;word-spacing:0px;writing-mode:lr-tb;text-anchor:start;fill:#000000;fill-opacity:1;stroke:#002b4b;stroke-width:0.472227;stroke-miterlimit:4;stroke-opacity:1"
       d="m 52.387942,39.776042 c 0.665,0 1.314526,-0.123716 1.917634,-0.386621 0.587657,-0.247432 1.113467,-0.603108 1.561936,-1.051598 0.44849,-0.448469 0.804166,-0.974279 1.051598,-1.561936 0.262905,-0.60313 0.386643,-1.252656 0.386643,-1.917611 v -6.557067 h -1.391845 v 6.557067 c 0,0.943332 -0.371148,1.824818 -1.036148,2.489817 -0.664955,0.664955 -1.546463,1.036126 -2.489818,1.036126 -0.943332,0 -1.824818,-0.371171 -2.489817,-1.036126 -0.664978,-0.664999 -1.036126,-1.546485 -1.036126,-2.489817 v -6.557067 h -1.391823 v 6.557067 c 0,0.664955 0.123716,1.314481 0.386621,1.917611 0.247432,0.587657 0.603108,1.113467 1.051598,1.561936 0.448469,0.44849 0.974279,0.804166 1.561936,1.051598 0.60313,0.262905 1.252657,0.386621 1.917611,0.386621"
       inkscape:export-xdpi="600"
       inkscape:export-ydpi="600" />
    <path
       inkscape:connector-curvature="0"
       id="path3118"
       style="font-style:normal;font-variant:normal;font-weight:bold;font-stretch:normal;font-size:65.497px;line-height:0%;font-family:Anke;-inkscape-font-specification:'Anke Bold';text-align:start;letter-spacing:16.51px;word-spacing:0px;writing-mode:lr-tb;text-anchor:start;fill:#000000;fill-opacity:1;stroke:#002b4b;stroke-width:0.472227;stroke-miterlimit:4;stroke-opacity:1"
       d="M 71.063458,28.301209 H 61.9702 v 1.391845 h 3.850695 v 10.082988 h 1.391846 V 29.693054 h 3.850717 v -1.391845"
       inkscape:export-xdpi="600"
       inkscape:export-ydpi="600" />
    <path
       inkscape:connector-curvature="0"
       id="path3120"
       style="font-style:normal;font-variant:normal;font-weight:bold;font-stretch:normal;font-size:65.497px;line-height:0%;font-family:Anke;-inkscape-font-specification:'Anke Bold';text-align:start;letter-spacing:16.51px;word-spacing:0px;writing-mode:lr-tb;text-anchor:start;fill:#000000;fill-opacity:1;stroke:#002b4b;stroke-width:0.472227;stroke-miterlimit:4;stroke-opacity:1"
       d="m 82.97868,39.776042 h 1.701125 l -3.278533,-4.639411 c 0.804166,-0.06187 1.546485,-0.417544 2.118669,-0.989751 0.649527,-0.649526 1.005224,-1.500067 1.005224,-2.427949 0,-0.912409 -0.355697,-1.762994 -1.005224,-2.41252 -0.649504,-0.649504 -1.500066,-1.005202 -2.412476,-1.005202 h -4.979658 v 0 11.474833 h 1.391846 v -4.62396 h 2.180494 l 3.278533,4.62396 M 77.519653,29.693054 h 3.587812 c 1.113446,0 2.025877,0.91241 2.025877,2.025877 0,1.128896 -0.912431,2.04135 -2.025877,2.04135 h -3.587812 v -4.067227"
       inkscape:export-xdpi="600"
       inkscape:export-ydpi="600" />
    <path
       inkscape:connector-curvature="0"
       id="path3122"
       style="font-style:normal;font-variant:normal;font-weight:bold;font-stretch:normal;font-size:65.497px;line-height:0%;font-family:Anke;-inkscape-font-specification:'Anke Bold';text-align:start;letter-spacing:16.51px;word-spacing:0px;writing-mode:lr-tb;text-anchor:start;fill:#000000;fill-opacity:1;stroke:#002b4b;stroke-width:0.472227;stroke-miterlimit:4;stroke-opacity:1"
       d="m 91.568021,38.384219 v -4.067226 h 4.654884 v -1.391824 h -4.654884 v -3.232115 h 5.4745 v -1.391845 h -6.866323 v 11.474833 h 0.6959 6.526143 v -1.391823 h -5.83022"
       inkscape:export-xdpi="600"
       inkscape:export-ydpi="600" />
    <path
       inkscape:connector-curvature="0"
       id="path3124"
       style="font-style:normal;font-variant:normal;font-weight:bold;font-stretch:normal;font-size:65.497px;line-height:0%;font-family:Anke;-inkscape-font-specification:'Anke Bold';text-align:start;letter-spacing:16.51px;word-spacing:0px;writing-mode:lr-tb;text-anchor:start;fill:#000000;fill-opacity:1;stroke:#002b4b;stroke-width:0.472227;stroke-miterlimit:4;stroke-opacity:1"
       d="m 106.97917,28.301209 -5.1343,11.474833 h 1.53101 l 1.19079,-2.65993 h 6.41786 l 1.19078,2.65993 h 1.53102 l -5.14977,-11.474833 h -1.57739 m -1.79392,7.42308 2.58261,-5.783824 2.59809,5.783824 h -5.1807"
       inkscape:export-xdpi="600"
       inkscape:export-ydpi="600" />
    <path
       inkscape:connector-curvature="0"
       id="path3126"
       style="font-style:normal;font-variant:normal;font-weight:bold;font-stretch:normal;font-size:65.497px;line-height:0%;font-family:Anke;-inkscape-font-specification:'Anke Bold';text-align:start;letter-spacing:16.51px;word-spacing:0px;writing-mode:lr-tb;text-anchor:start;fill:#000000;fill-opacity:1;stroke:#002b4b;stroke-width:0.472227;stroke-miterlimit:4;stroke-opacity:1"
       d="m 122.69407,39.776042 c 0.77322,0 1.53099,-0.154662 2.22691,-0.448468 0.6959,-0.293851 1.29903,-0.711396 1.82484,-1.237184 l -0.97428,-0.974278 c -0.81962,0.819617 -1.91763,1.268107 -3.07747,1.268107 -1.15987,0 -2.25789,-0.44849 -3.0775,-1.268107 -0.81962,-0.819617 -1.26809,-1.917634 -1.26809,-3.077497 0,-1.159842 0.44847,-2.257837 1.26809,-3.077476 0.81961,-0.819616 1.91763,-1.268085 3.0775,-1.268085 1.15984,0 2.25785,0.448469 3.07747,1.268085 l 0.97428,-0.974278 c -0.52581,-0.525788 -1.12894,-0.943333 -1.82484,-1.237162 -0.69592,-0.293828 -1.45369,-0.44849 -2.22691,-0.44849 -0.77325,0 -1.53102,0.154662 -2.22694,0.44849 -0.6959,0.293829 -1.29903,0.711374 -1.82484,1.237162 -0.52579,0.52581 -0.94333,1.12894 -1.23718,1.824863 -0.29381,0.6959 -0.44847,1.45367 -0.44847,2.226891 0,0.773264 0.15466,1.531012 0.44847,2.226935 0.29385,0.6959 0.71139,1.29903 1.23718,1.82484 0.52581,0.525788 1.12894,0.943333 1.82484,1.237184 0.69592,0.293806 1.45369,0.448468 2.22694,0.448468"
       inkscape:export-xdpi="600"
       inkscape:export-ydpi="600" />
    <path
       inkscape:connector-curvature="0"
       id="path3128"
       style="font-style:normal;font-variant:normal;font-weight:bold;font-stretch:normal;font-size:65.497px;line-height:0%;font-family:Anke;-inkscape-font-specification:'Anke Bold';text-align:start;letter-spacing:16.51px;word-spacing:0px;writing-mode:lr-tb;text-anchor:start;fill:#000000;fill-opacity:1;stroke:#002b4b;stroke-width:0.472227;stroke-miterlimit:4;stroke-opacity:1"
       d="m 139.12788,28.347605 v 4.623961 h -6.30959 v -4.623961 h -1.39184 v 11.428437 h 1.39184 v -5.412653 h 6.30959 v 5.45905 h 1.39182 V 28.347605 h -1.39182"
       inkscape:export-xdpi="600"
       inkscape:export-ydpi="600" />
    <path
       inkscape:connector-curvature="0"
       id="path3130"
       style="font-style:normal;font-variant:normal;font-weight:bold;font-stretch:normal;font-size:65.497px;line-height:0%;font-family:Anke;-inkscape-font-specification:'Anke Bold';text-align:start;letter-spacing:16.51px;word-spacing:0px;writing-mode:lr-tb;text-anchor:start;fill:#000000;fill-opacity:1;stroke:#002b4b;stroke-width:0.472227;stroke-miterlimit:4;stroke-opacity:1"
       d="m 152.81024,28.301209 -2.95376,4.113623 -2.93831,-4.113623 h -1.71658 l 3.95896,5.536392 v 5.938441 h 1.39181 v -5.938441 l 3.97445,-5.536392 h -1.71657"
       inkscape:export-xdpi="600"
       inkscape:export-ydpi="600" />
    <g
       aria-label="Remote paid internships"
       id="text6081"
       style="font-size:14.1111px;line-height:1.25;font-family:Anke;-inkscape-font-specification:Anke;text-align:center;letter-spacing:0px;word-spacing:0px;writing-mode:lr-tb;text-anchor:middle;fill:#ffffff;stroke-width:0.264583"
       inkscape:export-xdpi="600"
       inkscape:export-ydpi="600">
      <path
         d="m 25.62606,75.405884 h 1.552221 l -2.991553,-4.23333 c 0.733777,-0.05645 1.41111,-0.381 1.933221,-0.903111 0.592666,-0.592666 0.917221,-1.368776 0.917221,-2.215442 0,-0.832555 -0.324555,-1.608666 -0.917221,-2.201332 -0.592666,-0.592666 -1.368777,-0.917222 -2.201332,-0.917222 h -4.543774 v 10.470437 h 1.269999 v -4.219219 h 1.989665 z m -4.981218,-9.200438 h 3.273775 c 1.015999,0 1.848554,0.832555 1.848554,1.848555 0,1.03011 -0.832555,1.862665 -1.848554,1.862665 h -3.273775 z"
         style="font-size:14.1111px;fill:#ffffff;stroke-width:0.264583"
         id="path6295" />
      <path
         d="m 35.405035,71.63822 c 0,-1.001888 -0.395111,-1.947332 -1.100666,-2.652887 -0.705555,-0.705555 -1.650998,-1.100666 -2.666998,-1.100666 -1.001888,0 -1.947331,0.395111 -2.652886,1.100666 -0.705555,0.705555 -1.100666,1.650999 -1.100666,2.652887 0,1.015999 0.395111,1.961443 1.100666,2.666998 0.705555,0.705555 1.650998,1.100666 2.652886,1.100666 0,0 0,0 0,0 0.606778,0 1.213555,-0.141111 1.749777,-0.423333 0.507999,-0.268111 0.959555,-0.663222 1.298221,-1.128888 l -1.03011,-0.747889 c -0.225778,0.310445 -0.522111,0.564444 -0.860777,0.747889 -0.352778,0.183444 -0.747889,0.282222 -1.157111,0.282222 -1.142999,0 -2.116665,-0.790222 -2.398887,-1.862665 h 6.166551 z m -6.166551,-0.634999 c 0.282222,-1.058333 1.255888,-1.848555 2.398887,-1.848555 1.157111,0 2.130777,0.790222 2.412999,1.848555 z"
         style="font-size:14.1111px;fill:#ffffff;stroke-width:0.264583"
         id="path6297" />
      <path
         d="m 46.425781,68.801889 c -0.592667,-0.592666 -1.368777,-0.917222 -2.215443,-0.917222 -0.832555,0 -1.608666,0.324556 -2.201332,0.917222 -0.09878,0.09878 -0.197555,0.211666 -0.282222,0.324555 -0.08467,-0.112889 -0.183444,-0.225777 -0.282222,-0.324555 -0.592666,-0.592666 -1.368777,-0.917222 -2.215443,-0.917222 -0.677332,0 -1.312332,0.211667 -1.848554,0.606778 v -0.606778 h -1.269999 v 7.521217 h 1.269999 v -4.402663 c 0,-1.016 0.832555,-1.848555 1.848554,-1.848555 1.030111,0 1.862666,0.832555 1.862666,1.848555 v 4.402663 h 1.269999 v -4.402663 c 0,-1.016 0.832555,-1.848555 1.848554,-1.848555 1.03011,0 1.862665,0.832555 1.862665,1.848555 v 4.402663 h 1.269999 v -4.402663 c 0,-0.832555 -0.324555,-1.608666 -0.917221,-2.201332 z"
         style="font-size:14.1111px;fill:#ffffff;stroke-width:0.264583"
         id="path6299" />
      <path
         d="m 51.802092,75.405884 c 1.015999,0 1.961443,-0.395111 2.666998,-1.100666 0.705555,-0.705555 1.100666,-1.650999 1.100666,-2.666998 0,-1.001888 -0.395111,-1.947332 -1.100666,-2.652887 -0.705555,-0.705555 -1.650999,-1.100666 -2.666998,-1.100666 -1.001888,0 -1.947332,0.395111 -2.652887,1.100666 -0.705555,0.705555 -1.100666,1.650999 -1.100666,2.652887 0,1.015999 0.395111,1.961443 1.100666,2.666998 0.705555,0.705555 1.650999,1.100666 2.652887,1.100666 z m 0,-6.251218 c 1.382888,0 2.497665,1.114777 2.497665,2.483554 0,1.382888 -1.114777,2.497665 -2.497665,2.497665 -1.368777,0 -2.483554,-1.114777 -2.483554,-2.497665 0,-1.368777 1.114777,-2.483554 2.483554,-2.483554 z"
         style="font-size:14.1111px;fill:#ffffff;stroke-width:0.264583"
         id="path6301" />
      <path
         d="m 60.184062,67.884667 h -1.707444 v -3.513664 h -1.269999 v 3.513664 h -0.931332 v 1.269999 h 0.931332 v 6.251218 h 1.269999 v -6.251218 h 1.707444 z"
         style="font-size:14.1111px;fill:#ffffff;stroke-width:0.264583"
         id="path6303" />
      <path
         d="m 68.058031,71.63822 c 0,-1.001888 -0.395111,-1.947332 -1.100666,-2.652887 -0.705555,-0.705555 -1.650998,-1.100666 -2.666997,-1.100666 -1.001889,0 -1.947332,0.395111 -2.652887,1.100666 -0.705555,0.705555 -1.100666,1.650999 -1.100666,2.652887 0,1.015999 0.395111,1.961443 1.100666,2.666998 0.705555,0.705555 1.650998,1.100666 2.652887,1.100666 0,0 0,0 0,0 0.606777,0 1.213554,-0.141111 1.749776,-0.423333 0.508,-0.268111 0.959555,-0.663222 1.298221,-1.128888 l -1.03011,-0.747889 c -0.225778,0.310445 -0.522111,0.564444 -0.860777,0.747889 -0.352778,0.183444 -0.747889,0.282222 -1.15711,0.282222 -1.143,0 -2.116666,-0.790222 -2.398888,-1.862665 h 6.166551 z M 61.89148,71.003221 c 0.282222,-1.058333 1.255888,-1.848555 2.398888,-1.848555 1.15711,0 2.130776,0.790222 2.412998,1.848555 z"
         style="font-size:14.1111px;fill:#ffffff;stroke-width:0.264583"
         id="path6305" />
      <path
         d="m 79.417429,68.985333 c -0.705555,-0.705555 -1.650998,-1.100666 -2.666998,-1.100666 -0.917221,0 -1.792109,0.338667 -2.483553,0.945444 v -0.945444 h -1.269999 v 10.597437 h 1.269999 V 74.46044 c 0.691444,0.606777 1.566332,0.945444 2.483553,0.945444 1.016,0 1.961443,-0.395111 2.666998,-1.100666 0.705555,-0.705555 1.100666,-1.650999 1.100666,-2.666998 0,-1.001888 -0.395111,-1.947332 -1.100666,-2.652887 z m -2.666998,5.150552 c -1.368776,0 -2.483553,-1.114777 -2.483553,-2.497665 0,-1.368777 1.114777,-2.483554 2.483553,-2.483554 1.382888,0 2.497665,1.114777 2.497665,2.483554 0,1.382888 -1.114777,2.497665 -2.497665,2.497665 z"
         style="font-size:14.1111px;fill:#ffffff;stroke-width:0.264583"
         id="path6307" />
      <path
         d="m 87.474846,67.884667 v 0.945444 c -0.691444,-0.606777 -1.566333,-0.945444 -2.497665,-0.945444 -1.001888,0 -1.947332,0.395111 -2.652887,1.100666 -0.705555,0.705555 -1.100666,1.650999 -1.100666,2.652887 0,1.015999 0.395111,1.961443 1.100666,2.666998 0.705555,0.705555 1.650999,1.100666 2.652887,1.100666 0.931332,0 1.806221,-0.338667 2.497665,-0.945444 v 0.945444 h 1.269999 v -7.521217 z m -2.497665,6.251218 c -1.368777,0 -2.483554,-1.114777 -2.483554,-2.497665 0,-1.368777 1.114777,-2.483554 2.483554,-2.483554 1.382888,0 2.497665,1.114777 2.497665,2.483554 0,1.382888 -1.114777,2.497665 -2.497665,2.497665 z"
         style="font-size:14.1111px;fill:#ffffff;stroke-width:0.264583"
         id="path6309" />
      <path
         d="m 89.930151,75.405884 h 1.269999 v -7.521217 h -1.269999 z m 0.635,-8.946438 c 0.423333,0 0.761999,-0.338666 0.761999,-0.761999 0,-0.423333 -0.338666,-0.762 -0.761999,-0.762 -0.423333,0 -0.762,0.338667 -0.762,0.762 0,0.423333 0.338667,0.761999 0.762,0.761999 z"
         style="font-size:14.1111px;fill:#ffffff;stroke-width:0.264583"
         id="path6311" />
      <path
         d="m 98.63668,64.371003 v 4.459108 c -0.691444,-0.606777 -1.566332,-0.945444 -2.497664,-0.945444 -1.001889,0 -1.947332,0.395111 -2.652887,1.100666 -0.705555,0.705555 -1.100666,1.650999 -1.100666,2.652887 0,1.015999 0.395111,1.961443 1.100666,2.666998 0.705555,0.705555 1.650998,1.100666 2.652887,1.100666 0.931332,0 1.80622,-0.338667 2.497664,-0.945444 v 0.945444 h 1.269999 V 64.371003 Z m -2.497664,9.764882 c -1.368777,0 -2.483554,-1.114777 -2.483554,-2.497665 0,-1.368777 1.114777,-2.483554 2.483554,-2.483554 1.382887,0 2.497664,1.114777 2.497664,2.483554 0,1.382888 -1.114777,2.497665 -2.497664,2.497665 z"
         style="font-size:14.1111px;fill:#ffffff;stroke-width:0.264583"
         id="path6313" />
      <path
         d="m 105.3253,75.405884 h 1.27 v -7.521217 h -1.27 z m 0.635,-8.946438 c 0.42333,0 0.762,-0.338666 0.762,-0.761999 0,-0.423333 -0.33867,-0.762 -0.762,-0.762 -0.42333,0 -0.762,0.338667 -0.762,0.762 0,0.423333 0.33867,0.761999 0.762,0.761999 z"
         style="font-size:14.1111px;fill:#ffffff;stroke-width:0.264583"
         id="path6315" />
      <path
         d="m 113.25572,68.801889 c -0.59267,-0.592666 -1.36878,-0.917222 -2.21544,-0.917222 -0.67734,0 -1.31234,0.211667 -1.84856,0.606778 v -0.606778 h -1.27 v 7.521217 h 1.27 v -4.402663 c 0,-1.016 0.83256,-1.848555 1.84856,-1.848555 1.03011,0 1.86266,0.832555 1.86266,1.848555 v 4.402663 h 1.27 v -4.402663 c 0,-0.832555 -0.32455,-1.608666 -0.91722,-2.201332 z"
         style="font-size:14.1111px;fill:#ffffff;stroke-width:0.264583"
         id="path6317" />
      <path
         d="m 118.78725,67.884667 h -1.70744 v -3.513664 h -1.27 v 3.513664 h -0.93134 v 1.269999 h 0.93134 v 6.251218 h 1.27 v -6.251218 h 1.70744 z"
         style="font-size:14.1111px;fill:#ffffff;stroke-width:0.264583"
         id="path6319" />
      <path
         d="m 126.66121,71.63822 c 0,-1.001888 -0.39511,-1.947332 -1.10066,-2.652887 -0.70556,-0.705555 -1.651,-1.100666 -2.667,-1.100666 -1.00189,0 -1.94733,0.395111 -2.65289,1.100666 -0.70555,0.705555 -1.10067,1.650999 -1.10067,2.652887 0,1.015999 0.39512,1.961443 1.10067,2.666998 0.70556,0.705555 1.651,1.100666 2.65289,1.100666 0,0 0,0 0,0 0.60677,0 1.21355,-0.141111 1.74977,-0.423333 0.508,-0.268111 0.95956,-0.663222 1.29823,-1.128888 l -1.03012,-0.747889 c -0.22577,0.310445 -0.52211,0.564444 -0.86077,0.747889 -0.35278,0.183444 -0.74789,0.282222 -1.15711,0.282222 -1.143,0 -2.11667,-0.790222 -2.39889,-1.862665 h 6.16655 z m -6.16655,-0.634999 c 0.28222,-1.058333 1.25589,-1.848555 2.39889,-1.848555 1.15711,0 2.13077,0.790222 2.413,1.848555 z"
         style="font-size:14.1111px;fill:#ffffff;stroke-width:0.264583"
         id="path6321" />
      <path
         d="m 131.28963,67.884667 c -0.59266,0.02822 -1.18533,0.211667 -1.70744,0.522111 -0.21167,0.112889 -0.40922,0.254 -0.59267,0.423333 v -0.945444 h -1.26999 v 7.521217 h 1.26999 v -3.781775 c 0,-0.423333 0.11289,-0.832555 0.32456,-1.213555 0.21167,-0.380999 0.52211,-0.691444 0.90311,-0.917221 0.35278,-0.197556 0.73378,-0.310444 1.143,-0.338667 0.381,-0.01411 0.77611,0.05644 1.12889,0.211667 l 0.508,-1.15711 c -0.53622,-0.239889 -1.12889,-0.352778 -1.70745,-0.324556 z"
         style="font-size:14.1111px;fill:#ffffff;stroke-width:0.264583"
         id="path6323" />
      <path
         d="m 138.68384,68.801889 c -0.59266,-0.592666 -1.36877,-0.917222 -2.21544,-0.917222 -0.67733,0 -1.31233,0.211667 -1.84855,0.606778 v -0.606778 h -1.27 v 7.521217 h 1.27 v -4.402663 c 0,-1.016 0.83255,-1.848555 1.84855,-1.848555 1.03011,0 1.86267,0.832555 1.86267,1.848555 v 4.402663 h 1.26999 v -4.402663 c 0,-0.832555 -0.32455,-1.608666 -0.91722,-2.201332 z"
         style="font-size:14.1111px;fill:#ffffff;stroke-width:0.264583"
         id="path6325" />
      <path
         d="m 143.12881,75.405884 c 0.71967,0 1.41111,-0.211667 1.93322,-0.606778 0.26811,-0.197555 0.47978,-0.437444 0.635,-0.719666 0.16933,-0.296333 0.254,-0.606777 0.254,-0.945443 0,-0.649111 -0.29633,-1.227666 -0.81844,-1.636888 -0.49389,-0.366889 -1.17122,-0.592666 -1.96145,-0.634999 -0.73377,-0.04233 -1.28411,-0.409222 -1.28411,-0.846666 0,-0.465667 0.56445,-0.860778 1.24178,-0.860778 0.67733,0 1.24178,0.395111 1.24178,0.860778 h 1.27 c 0,-0.592667 -0.28223,-1.157111 -0.79023,-1.552222 -0.46566,-0.380999 -1.07244,-0.578555 -1.72155,-0.578555 -0.64911,0 -1.25589,0.197556 -1.72155,0.578555 -0.508,0.395111 -0.79023,0.959555 -0.79023,1.552222 0,0.592666 0.28223,1.128888 0.79023,1.523998 0.45155,0.338667 1.04422,0.550333 1.67922,0.592667 h 0.0141 c 0.67733,0.04233 1.05833,0.225777 1.25589,0.380999 0.22577,0.169333 0.32455,0.366889 0.32455,0.620889 0,0.310444 -0.23989,0.536221 -0.381,0.64911 -0.31044,0.225778 -0.73378,0.352778 -1.17122,0.352778 -0.43744,0 -0.86078,-0.127 -1.17122,-0.352778 -0.14111,-0.112889 -0.381,-0.338666 -0.381,-0.64911 h -1.27 c 0,0.338666 0.0847,0.64911 0.254,0.945443 0.15522,0.282222 0.36689,0.522111 0.635,0.719666 0.52211,0.395111 1.21355,0.606778 1.93322,0.606778 z"
         style="font-size:14.1111px;fill:#ffffff;stroke-width:0.264583"
         id="path6327" />
      <path
         d="m 152.34335,68.801889 c -0.59267,-0.592666 -1.36878,-0.917222 -2.21545,-0.917222 -0.67733,0 -1.31233,0.211667 -1.84855,0.606778 v -4.120442 h -1.27 v 11.034881 h 1.27 v -4.402663 c 0,-1.016 0.83255,-1.848555 1.84855,-1.848555 1.03011,0 1.86267,0.832555 1.86267,1.848555 v 4.402663 h 1.27 v -4.402663 c 0,-0.832555 -0.32456,-1.608666 -0.91722,-2.201332 z"
         style="font-size:14.1111px;fill:#ffffff;stroke-width:0.264583"
         id="path6329" />
      <path
         d="m 154.79867,75.405884 h 1.27 v -7.521217 h -1.27 z m 0.635,-8.946438 c 0.42333,0 0.762,-0.338666 0.762,-0.761999 0,-0.423333 -0.33867,-0.762 -0.762,-0.762 -0.42334,0 -0.762,0.338667 -0.762,0.762 0,0.423333 0.33866,0.761999 0.762,0.761999 z"
         style="font-size:14.1111px;fill:#ffffff;stroke-width:0.264583"
         id="path6331" />
      <path
         d="m 163.67453,68.985333 c -0.70556,-0.705555 -1.651,-1.100666 -2.667,-1.100666 -0.91722,0 -1.79211,0.338667 -2.48355,0.945444 v -0.945444 h -1.27 v 10.597437 h 1.27 V 74.46044 c 0.69144,0.606777 1.56633,0.945444 2.48355,0.945444 1.016,0 1.96144,-0.395111 2.667,-1.100666 0.70555,-0.705555 1.10066,-1.650999 1.10066,-2.666998 0,-1.001888 -0.39511,-1.947332 -1.10066,-2.652887 z m -2.667,5.150552 c -1.36878,0 -2.48355,-1.114777 -2.48355,-2.497665 0,-1.368777 1.11477,-2.483554 2.48355,-2.483554 1.38289,0 2.49767,1.114777 2.49767,2.483554 0,1.382888 -1.11478,2.497665 -2.49767,2.497665 z"
         style="font-size:14.1111px;fill:#ffffff;stroke-width:0.264583"
         id="path6333" />
      <path
         d="m 168.30294,75.405884 c 0.71967,0 1.41111,-0.211667 1.93322,-0.606778 0.26812,-0.197555 0.47978,-0.437444 0.635,-0.719666 0.16934,-0.296333 0.254,-0.606777 0.254,-0.945443 0,-0.649111 -0.29633,-1.227666 -0.81844,-1.636888 -0.49389,-0.366889 -1.17122,-0.592666 -1.96144,-0.634999 -0.73378,-0.04233 -1.28411,-0.409222 -1.28411,-0.846666 0,-0.465667 0.56444,-0.860778 1.24177,-0.860778 0.67734,0 1.24178,0.395111 1.24178,0.860778 h 1.27 c 0,-0.592667 -0.28222,-1.157111 -0.79022,-1.552222 -0.46567,-0.380999 -1.07245,-0.578555 -1.72156,-0.578555 -0.64911,0 -1.25588,0.197556 -1.72155,0.578555 -0.508,0.395111 -0.79022,0.959555 -0.79022,1.552222 0,0.592666 0.28222,1.128888 0.79022,1.523998 0.45155,0.338667 1.04422,0.550333 1.67922,0.592667 h 0.0141 c 0.67733,0.04233 1.05833,0.225777 1.25589,0.380999 0.22578,0.169333 0.32455,0.366889 0.32455,0.620889 0,0.310444 -0.23988,0.536221 -0.381,0.64911 -0.31044,0.225778 -0.73377,0.352778 -1.17122,0.352778 -0.43744,0 -0.86077,-0.127 -1.17122,-0.352778 -0.14111,-0.112889 -0.381,-0.338666 -0.381,-0.64911 h -1.27 c 0,0.338666 0.0847,0.64911 0.254,0.945443 0.15523,0.282222 0.36689,0.522111 0.635,0.719666 0.52211,0.395111 1.21356,0.606778 1.93322,0.606778 z"
         style="font-size:14.1111px;fill:#ffffff;stroke-width:0.264583"
         id="path6335" />
    </g>
  </g>
</svg>
