<?xml version="1.0" encoding="UTF-8" standalone="no"?>
<svg
   xmlns:dc="http://purl.org/dc/elements/1.1/"
   xmlns:cc="http://creativecommons.org/ns#"
   xmlns:rdf="http://www.w3.org/1999/02/22-rdf-syntax-ns#"
   xmlns:svg="http://www.w3.org/2000/svg"
   xmlns="http://www.w3.org/2000/svg"
   xmlns:sodipodi="http://sodipodi.sourceforge.net/DTD/sodipodi-0.dtd"
   xmlns:inkscape="http://www.inkscape.org/namespaces/inkscape"
   width="720"
   height="720"
   viewBox="0 0 190.5 190.50001"
   version="1.1"
   id="svg3950"
   inkscape:version="1.0.2 (e86c870879, 2021-01-15)"
   sodipodi:docname="2023-final-shirt-design-back-usa.svg">
  <defs
     id="defs3944">
    <clipPath
       clipPathUnits="userSpaceOnUse"
       id="clipPath17718">
      <path
         sodipodi:nodetypes="cccccccccccccccc"
         inkscape:connector-curvature="0"
         id="path17720"
         d="m -971.0049,83.772646 v 35.000004 h -35 v 35 h -35 v 70 h 519.99999 110 v -35 h 35 v -35 h 35 V 83.772646 h -120 -481 z"
         style="fill:#59cfe6;fill-opacity:1;stroke:none" />
    </clipPath>
  </defs>
  <sodipodi:namedview
     id="base"
     pagecolor="#ffffff"
     bordercolor="#666666"
     borderopacity="1.0"
     inkscape:pageopacity="0.0"
     inkscape:pageshadow="2"
     inkscape:zoom="0.69877457"
     inkscape:cx="301.85458"
     inkscape:cy="407.41724"
     inkscape:document-units="mm"
     inkscape:current-layer="layer1"
     inkscape:document-rotation="0"
     showgrid="false"
     units="px"
     inkscape:window-width="1920"
     inkscape:window-height="1016"
     inkscape:window-x="0"
     inkscape:window-y="27"
     inkscape:window-maximized="1" />
  <metadata
     id="metadata3947">
    <rdf:RDF>
      <cc:Work
         rdf:about="">
        <dc:format>image/svg+xml</dc:format>
        <dc:type
           rdf:resource="http://purl.org/dc/dcmitype/StillImage" />
        <dc:title />
      </cc:Work>
    </rdf:RDF>
  </metadata>
  <g
     inkscape:label="Layer 1"
     inkscape:groupmode="layer"
     id="layer1">
    <g
       aria-label="

Supporting diversity in
open source and open science"
       id="text4758"
       style="font-size:11.2889px;line-height:1.25;font-family:Anke;-inkscape-font-specification:Anke;text-align:center;letter-spacing:0px;word-spacing:0px;writing-mode:lr-tb;text-anchor:middle;stroke-width:0.264583">
      <path
         d="m 41.509354,101.52836 c 0.801512,0 1.557869,-0.23707 2.122314,-0.66605 0.293511,-0.21449 0.530578,-0.47413 0.699911,-0.76764 0.169334,-0.316092 0.259645,-0.654759 0.259645,-0.993426 0,-0.688623 -0.3048,-1.309513 -0.869245,-1.738491 -0.530579,-0.417689 -1.286935,-0.654756 -2.178758,-0.699912 -0.508001,-0.03387 -0.959557,-0.191911 -1.286935,-0.440267 -0.2032,-0.158044 -0.440267,-0.428978 -0.440267,-0.801512 0,-0.316089 0.158045,-0.620889 0.451556,-0.846667 0.327378,-0.259645 0.767645,-0.406401 1.241779,-0.406401 0.474134,0 0.914401,0.146756 1.241779,0.406401 0.293512,0.225778 0.462845,0.530578 0.462845,0.846667 h 1.016001 c 0,-0.327378 -0.07902,-0.632178 -0.237067,-0.925689 -0.146755,-0.270934 -0.349956,-0.51929 -0.6096,-0.72249 -0.496712,-0.395112 -1.162757,-0.62089 -1.873958,-0.62089 -0.699912,0 -1.365957,0.225778 -1.873957,0.62089 -0.259645,0.2032 -0.462845,0.451556 -0.609601,0.72249 -0.158044,0.293511 -0.225778,0.598311 -0.225778,0.925689 0,0.62089 0.293512,1.185335 0.835379,1.603024 0.485423,0.372534 1.12889,0.598312 1.840091,0.654756 h 0.01129 c 0.869246,0.04516 1.354668,0.282223 1.614313,0.485423 0.316089,0.248356 0.474134,0.553156 0.474134,0.936979 0,0.349956 -0.191911,0.688623 -0.541867,0.948266 -0.406401,0.29351 -0.948268,0.46285 -1.524002,0.46285 -0.575734,0 -1.117601,-0.16934 -1.512712,-0.46285 -0.361245,-0.259643 -0.553157,-0.59831 -0.553157,-0.948266 h -1.016001 c 0,0.338667 0.09031,0.677334 0.270934,0.993426 0.158045,0.29351 0.395112,0.55315 0.688623,0.76764 0.575734,0.42898 1.33209,0.66605 2.122313,0.66605 z"
         style="font-size:11.2889px;stroke-width:0.264583"
         id="path6204" />
      <path
         d="m 49.42286,95.511374 v 3.510848 c 0,0.824089 -0.666045,1.490138 -1.490135,1.490138 -0.812801,0 -1.478846,-0.666049 -1.478846,-1.490138 v -3.510848 h -1.016001 v 3.510848 c 0,0.677334 0.259645,1.298228 0.733778,1.772358 0.474134,0.47413 1.095024,0.73378 1.761069,0.73378 0.541867,0 1.061156,-0.16934 1.490135,-0.48543 v 0.48543 h 1.016001 v -6.016986 z"
         style="font-size:11.2889px;stroke-width:0.264583"
         id="path6206" />
      <path
         d="m 56.433252,96.391908 c -0.564445,-0.564445 -1.320801,-0.880534 -2.133602,-0.880534 -0.733779,0 -1.43369,0.270933 -1.986847,0.756356 v -0.756356 h -1.016001 v 8.477966 h 1.016001 V 100.772 c 0.553157,0.48542 1.253068,0.75636 1.986847,0.75636 0.812801,0 1.569157,-0.31609 2.133602,-0.88054 0.564445,-0.56444 0.880534,-1.320798 0.880534,-2.133599 0,-0.801512 -0.316089,-1.557868 -0.880534,-2.122313 z m -2.133602,4.120452 c -1.095023,0 -1.986847,-0.891827 -1.986847,-1.998139 0,-1.095023 0.891824,-1.986846 1.986847,-1.986846 1.106312,0 1.998135,0.891823 1.998135,1.986846 0,1.106312 -0.891823,1.998139 -1.998135,1.998139 z"
         style="font-size:11.2889px;stroke-width:0.264583"
         id="path6208" />
      <path
         d="m 63.014662,96.391908 c -0.564445,-0.564445 -1.320802,-0.880534 -2.133603,-0.880534 -0.733778,0 -1.43369,0.270933 -1.986846,0.756356 v -0.756356 h -1.016001 v 8.477966 h 1.016001 V 100.772 c 0.553156,0.48542 1.253068,0.75636 1.986846,0.75636 0.812801,0 1.569158,-0.31609 2.133603,-0.88054 0.564445,-0.56444 0.880534,-1.320798 0.880534,-2.133599 0,-0.801512 -0.316089,-1.557868 -0.880534,-2.122313 z m -2.133603,4.120452 c -1.095023,0 -1.986846,-0.891827 -1.986846,-1.998139 0,-1.095023 0.891823,-1.986846 1.986846,-1.986846 1.106313,0 1.998136,0.891823 1.998136,1.986846 0,1.106312 -0.891823,1.998139 -1.998136,1.998139 z"
         style="font-size:11.2889px;stroke-width:0.264583"
         id="path6210" />
      <path
         d="m 67.462469,101.52836 c 0.812801,0 1.569157,-0.31609 2.133602,-0.88054 0.564445,-0.56444 0.880534,-1.320798 0.880534,-2.133599 0,-0.801512 -0.316089,-1.557868 -0.880534,-2.122313 -0.564445,-0.564445 -1.320801,-0.880534 -2.133602,-0.880534 -0.801512,0 -1.557868,0.316089 -2.122313,0.880534 -0.564445,0.564445 -0.880535,1.320801 -0.880535,2.122313 0,0.812801 0.31609,1.569159 0.880535,2.133599 0.564445,0.56445 1.320801,0.88054 2.122313,0.88054 z m 0,-5.000985 c 1.106312,0 1.998135,0.891823 1.998135,1.986846 0,1.106312 -0.891823,1.998139 -1.998135,1.998139 -1.095023,0 -1.986847,-0.891827 -1.986847,-1.998139 0,-1.095023 0.891824,-1.986846 1.986847,-1.986846 z"
         style="font-size:11.2889px;stroke-width:0.264583"
         id="path6212" />
      <path
         d="m 74.179347,95.511374 c -0.474134,0.02258 -0.948268,0.169333 -1.365957,0.417689 -0.169333,0.09031 -0.327378,0.2032 -0.474134,0.338667 v -0.756356 h -1.016001 v 6.016986 h 1.016001 v -3.025428 c 0,-0.338667 0.09031,-0.666045 0.259645,-0.970845 0.169333,-0.304801 0.417689,-0.553156 0.72249,-0.733779 0.282222,-0.158044 0.587022,-0.248356 0.914401,-0.270933 0.3048,-0.01129 0.620889,0.04515 0.903112,0.169333 l 0.4064,-0.92569 c -0.428978,-0.191911 -0.903112,-0.282222 -1.365957,-0.259644 z"
         style="font-size:11.2889px;stroke-width:0.264583"
         id="path6214" />
      <path
         d="M 78.841657,95.511374 H 77.4757 v -2.810937 h -1.016001 v 2.810937 h -0.745067 v 1.016001 h 0.745067 v 5.000985 H 77.4757 v -5.000985 h 1.365957 z"
         style="font-size:11.2889px;stroke-width:0.264583"
         id="path6216" />
      <path
         d="m 79.50768,101.52836 h 1.016001 V 95.511374 H 79.50768 Z m 0.508001,-7.157165 c 0.338667,0 0.6096,-0.270934 0.6096,-0.609601 0,-0.338667 -0.270933,-0.609601 -0.6096,-0.609601 -0.338667,0 -0.609601,0.270934 -0.609601,0.609601 0,0.338667 0.270934,0.609601 0.609601,0.609601 z"
         style="font-size:11.2889px;stroke-width:0.264583"
         id="path6218" />
      <path
         d="m 85.852023,96.245152 c -0.474134,-0.474134 -1.095024,-0.733778 -1.772358,-0.733778 -0.541867,0 -1.049867,0.169333 -1.478845,0.485422 v -0.485422 h -1.016002 v 6.016986 h 1.016002 v -3.522139 c 0,-0.812801 0.666045,-1.478846 1.478845,-1.478846 0.82409,0 1.490135,0.666045 1.490135,1.478846 v 3.522139 h 1.016001 v -3.522139 c 0,-0.666046 -0.259644,-1.286935 -0.733778,-1.761069 z"
         style="font-size:11.2889px;stroke-width:0.264583"
         id="path6220" />
      <path
         d="M 92.207656,95.511374 V 96.26773 C 91.6545,95.782307 90.954588,95.511374 90.20952,95.511374 c -0.801511,0 -1.557868,0.316089 -2.122313,0.880534 -0.564445,0.564445 -0.880534,1.320801 -0.880534,2.122313 0,0.812801 0.316089,1.569159 0.880534,2.133599 0.564445,0.56445 1.320802,0.88054 2.122313,0.88054 0.745068,0 1.44498,-0.27094 1.998136,-0.75636 v 0.2032 c 0,1.10631 -0.891823,1.99814 -1.998136,1.99814 -0.316089,0 -0.632178,-0.079 -0.9144,-0.22578 -0.270934,-0.14676 -0.508001,-0.34996 -0.699912,-0.59831 l -0.812801,0.59831 c 0.270933,0.37253 0.632178,0.68862 1.038579,0.90311 0.428978,0.22578 0.914401,0.33867 1.388534,0.33867 0.812801,0 1.569158,-0.31609 2.133603,-0.88054 0.564445,-0.56444 0.880534,-1.3208 0.880534,-2.1336 v -5.463826 z m -1.998136,5.000986 c -1.095023,0 -1.986846,-0.891827 -1.986846,-1.998139 0,-1.095023 0.891823,-1.986846 1.986846,-1.986846 1.106313,0 1.998136,0.891823 1.998136,1.986846 v 0.01129 c 0,1.095023 -0.891823,1.98685 -1.998136,1.98685 z"
         style="font-size:11.2889px;stroke-width:0.264583"
         id="path6222" />
      <path
         d="m 102.45795,92.700437 v 3.567293 c -0.55315,-0.485423 -1.25306,-0.756356 -1.99813,-0.756356 -0.801512,0 -1.557869,0.316089 -2.122314,0.880534 -0.564445,0.564445 -0.880534,1.320801 -0.880534,2.122313 0,0.812801 0.316089,1.569159 0.880534,2.133599 0.564445,0.56445 1.320802,0.88054 2.122314,0.88054 0.74507,0 1.44498,-0.27094 1.99813,-0.75636 v 0.75636 h 1.01601 v -8.827923 z m -1.99813,7.811923 c -1.095024,0 -1.986847,-0.891827 -1.986847,-1.998139 0,-1.095023 0.891823,-1.986846 1.986847,-1.986846 1.10631,0 1.99813,0.891823 1.99813,1.986846 0,1.106312 -0.89182,1.998139 -1.99813,1.998139 z"
         style="font-size:11.2889px;stroke-width:0.264583"
         id="path6224" />
      <path
         d="m 104.42221,101.52836 h 1.016 v -6.016986 h -1.016 z m 0.508,-7.157165 c 0.33867,0 0.6096,-0.270934 0.6096,-0.609601 0,-0.338667 -0.27093,-0.609601 -0.6096,-0.609601 -0.33867,0 -0.6096,0.270934 -0.6096,0.609601 0,0.338667 0.27093,0.609601 0.6096,0.609601 z"
         style="font-size:11.2889px;stroke-width:0.264583"
         id="path6226" />
      <path
         d="m 111.10521,95.511374 -1.81751,4.628446 -1.80622,-4.628446 h -1.09503 l 2.35938,6.016986 h 1.09503 l 2.35938,-6.016986 z"
         style="font-size:11.2889px;stroke-width:0.264583"
         id="path6228" />
      <path
         d="m 118.78165,98.514221 c 0,-0.801512 -0.31609,-1.557868 -0.88053,-2.122313 -0.56445,-0.564445 -1.32081,-0.880534 -2.13361,-0.880534 -0.80151,0 -1.55787,0.316089 -2.12231,0.880534 -0.56445,0.564445 -0.88053,1.320801 -0.88053,2.122313 0,0.812801 0.31608,1.569159 0.88053,2.133599 0.56444,0.56445 1.3208,0.88054 2.12231,0.88054 0,0 0,0 0,0 0.48543,0 0.97085,-0.11289 1.39983,-0.33867 0.4064,-0.21449 0.76764,-0.53058 1.03858,-0.90311 l -0.82409,-0.598313 c -0.18063,0.248356 -0.41769,0.451553 -0.68863,0.598313 -0.28222,0.14675 -0.59831,0.22578 -0.92569,0.22578 -0.9144,0 -1.69333,-0.632182 -1.91911,-1.490138 h 4.93325 z m -4.93325,-0.508 c 0.22578,-0.846668 1.00471,-1.478846 1.91911,-1.478846 0.92569,0 1.70463,0.632178 1.93041,1.478846 z"
         style="font-size:11.2889px;stroke-width:0.264583"
         id="path6230" />
      <path
         d="m 122.48439,95.511374 c -0.47413,0.02258 -0.94826,0.169333 -1.36595,0.417689 -0.16934,0.09031 -0.32738,0.2032 -0.47414,0.338667 v -0.756356 h -1.016 v 6.016986 h 1.016 v -3.025428 c 0,-0.338667 0.0903,-0.666045 0.25965,-0.970845 0.16933,-0.304801 0.41769,-0.553156 0.72249,-0.733779 0.28222,-0.158044 0.58702,-0.248356 0.9144,-0.270933 0.3048,-0.01129 0.62089,0.04515 0.90311,0.169333 l 0.4064,-0.92569 c -0.42898,-0.191911 -0.90311,-0.282222 -1.36596,-0.259644 z"
         style="font-size:11.2889px;stroke-width:0.264583"
         id="path6232" />
      <path
         d="m 126.27746,101.52836 c 0.57573,0 1.12889,-0.16934 1.54658,-0.48543 0.21449,-0.15804 0.38382,-0.34995 0.508,-0.57573 0.13546,-0.23707 0.2032,-0.485422 0.2032,-0.756355 0,-0.51929 -0.23707,-0.982135 -0.65476,-1.309513 -0.39511,-0.293511 -0.93698,-0.474134 -1.56916,-0.508 -0.58702,-0.03387 -1.02729,-0.327379 -1.02729,-0.677334 0,-0.372534 0.45156,-0.688623 0.99343,-0.688623 0.54187,0 0.99342,0.316089 0.99342,0.688623 h 1.016 c 0,-0.474134 -0.22578,-0.92569 -0.63218,-1.241779 -0.37253,-0.304801 -0.85795,-0.462845 -1.37724,-0.462845 -0.51929,0 -1.00471,0.158044 -1.37725,0.462845 -0.4064,0.316089 -0.63218,0.767645 -0.63218,1.241779 0,0.474133 0.22578,0.903112 0.63218,1.219201 0.36125,0.270933 0.83538,0.440267 1.34338,0.474134 h 0.0113 c 0.54187,0.03387 0.84667,0.180622 1.00471,0.3048 0.18062,0.135467 0.25965,0.293511 0.25965,0.496712 0,0.248355 -0.19191,0.428975 -0.3048,0.519285 -0.24836,0.18063 -0.58703,0.28223 -0.93698,0.28223 -0.34996,0 -0.68862,-0.1016 -0.93698,-0.28223 -0.11289,-0.0903 -0.3048,-0.27093 -0.3048,-0.519285 h -1.016 c 0,0.270933 0.0677,0.519285 0.2032,0.756355 0.12418,0.22578 0.29351,0.41769 0.508,0.57573 0.41769,0.31609 0.97084,0.48543 1.54658,0.48543 z"
         style="font-size:11.2889px;stroke-width:0.264583"
         id="path6234" />
      <path
         d="m 129.48349,101.52836 h 1.01601 v -6.016986 h -1.01601 z m 0.50801,-7.157165 c 0.33866,0 0.6096,-0.270934 0.6096,-0.609601 0,-0.338667 -0.27094,-0.609601 -0.6096,-0.609601 -0.33867,0 -0.60961,0.270934 -0.60961,0.609601 0,0.338667 0.27094,0.609601 0.60961,0.609601 z"
         style="font-size:11.2889px;stroke-width:0.264583"
         id="path6236" />
      <path
         d="m 134.57477,95.511374 h -1.36596 v -2.810937 h -1.016 v 2.810937 h -0.74507 v 1.016001 h 0.74507 v 5.000985 h 1.016 v -5.000985 h 1.36596 z"
         style="font-size:11.2889px;stroke-width:0.264583"
         id="path6238" />
      <path
         d="m 136.2455,103.98934 h 1.09502 l 3.31894,-8.477966 h -1.09502 l -1.80623,4.628446 -1.80622,-4.628446 h -1.09502 l 2.35938,6.016986 z"
         style="font-size:11.2889px;stroke-width:0.264583"
         id="path6240" />
      <path
         d="m 144.99438,101.52836 h 1.016 v -6.016986 h -1.016 z m 0.508,-7.157165 c 0.33867,0 0.6096,-0.270934 0.6096,-0.609601 0,-0.338667 -0.27093,-0.609601 -0.6096,-0.609601 -0.33866,0 -0.6096,0.270934 -0.6096,0.609601 0,0.338667 0.27094,0.609601 0.6096,0.609601 z"
         style="font-size:11.2889px;stroke-width:0.264583"
         id="path6242" />
      <path
         d="m 151.33873,96.245152 c -0.47414,-0.474134 -1.09502,-0.733778 -1.77236,-0.733778 -0.54187,0 -1.04987,0.169333 -1.47884,0.485422 v -0.485422 h -1.01601 v 6.016986 h 1.01601 v -3.522139 c 0,-0.812801 0.66604,-1.478846 1.47884,-1.478846 0.82409,0 1.49014,0.666045 1.49014,1.478846 v 3.522139 h 1.016 v -3.522139 c 0,-0.666046 -0.25965,-1.286935 -0.73378,-1.761069 z"
         style="font-size:11.2889px;stroke-width:0.264583"
         id="path6244" />
      <path
         d="m 20.703949,115.63948 c 0.812801,0 1.569157,-0.31609 2.133602,-0.88053 0.564445,-0.56445 0.880534,-1.3208 0.880534,-2.1336 0,-0.80152 -0.316089,-1.55787 -0.880534,-2.12232 -0.564445,-0.56444 -1.320801,-0.88053 -2.133602,-0.88053 -0.801512,0 -1.557868,0.31609 -2.122313,0.88053 -0.564445,0.56445 -0.880535,1.3208 -0.880535,2.12232 0,0.8128 0.31609,1.56915 0.880535,2.1336 0.564445,0.56444 1.320801,0.88053 2.122313,0.88053 z m 0,-5.00098 c 1.106312,0 1.998135,0.89182 1.998135,1.98685 0,1.10631 -0.891823,1.99813 -1.998135,1.99813 -1.095023,0 -1.986847,-0.89182 -1.986847,-1.99813 0,-1.09503 0.891824,-1.98685 1.986847,-1.98685 z"
         style="font-size:11.2889px;stroke-width:0.264583"
         id="path6246" />
      <path
         d="m 29.418961,110.50303 c -0.564445,-0.56444 -1.320802,-0.88053 -2.133603,-0.88053 -0.733778,0 -1.43369,0.27093 -1.986846,0.75636 v -0.75636 h -1.016001 v 8.47796 h 1.016001 v -3.21733 c 0.553156,0.48542 1.253068,0.75635 1.986846,0.75635 0.812801,0 1.569158,-0.31609 2.133603,-0.88053 0.564445,-0.56445 0.880534,-1.3208 0.880534,-2.1336 0,-0.80152 -0.316089,-1.55787 -0.880534,-2.12232 z m -2.133603,4.12045 c -1.095023,0 -1.986846,-0.89182 -1.986846,-1.99813 0,-1.09503 0.891823,-1.98685 1.986846,-1.98685 1.106313,0 1.998136,0.89182 1.998136,1.98685 0,1.10631 -0.891823,1.99813 -1.998136,1.99813 z"
         style="font-size:11.2889px;stroke-width:0.264583"
         id="path6248" />
      <path
         d="m 36.880904,112.62535 c 0,-0.80152 -0.316089,-1.55787 -0.880534,-2.12232 -0.564445,-0.56444 -1.320801,-0.88053 -2.133602,-0.88053 -0.801512,0 -1.557868,0.31609 -2.122313,0.88053 -0.564445,0.56445 -0.880535,1.3208 -0.880535,2.12232 0,0.8128 0.31609,1.56915 0.880535,2.1336 0.564445,0.56444 1.320801,0.88053 2.122313,0.88053 0,0 0,0 0,0 0.485423,0 0.970845,-0.11289 1.399823,-0.33866 0.406401,-0.21449 0.767646,-0.53058 1.038579,-0.90312 l -0.824089,-0.59831 c -0.180623,0.24836 -0.41769,0.45156 -0.688623,0.59831 -0.282223,0.14676 -0.598312,0.22578 -0.92569,0.22578 -0.914401,0 -1.693335,-0.63218 -1.919113,-1.49013 h 4.933249 z m -4.933249,-0.508 c 0.225778,-0.84667 1.004712,-1.47885 1.919113,-1.47885 0.92569,0 1.704624,0.63218 1.930402,1.47885 z"
         style="font-size:11.2889px;stroke-width:0.264583"
         id="path6250" />
      <path
         d="m 41.825423,110.35628 c -0.474134,-0.47414 -1.095023,-0.73378 -1.772357,-0.73378 -0.541867,0 -1.049868,0.16933 -1.478846,0.48542 v -0.48542 h -1.016001 v 6.01698 h 1.016001 v -3.52213 c 0,-0.8128 0.666045,-1.47885 1.478846,-1.47885 0.82409,0 1.490135,0.66605 1.490135,1.47885 v 3.52213 h 1.016001 v -3.52213 c 0,-0.66605 -0.259645,-1.28694 -0.733779,-1.76107 z"
         style="font-size:11.2889px;stroke-width:0.264583"
         id="path6252" />
      <path
         d="m 48.76807,115.63948 c 0.575734,0 1.12889,-0.16933 1.54658,-0.48542 0.214489,-0.15804 0.383822,-0.34996 0.508,-0.57573 0.135467,-0.23707 0.2032,-0.48543 0.2032,-0.75636 0,-0.51929 -0.237066,-0.98213 -0.654756,-1.30951 -0.395111,-0.29351 -0.936979,-0.47414 -1.569157,-0.508 -0.587023,-0.0339 -1.02729,-0.32738 -1.02729,-0.67734 0,-0.37253 0.451556,-0.68862 0.993423,-0.68862 0.541868,0 0.993424,0.31609 0.993424,0.68862 h 1.016001 c 0,-0.47413 -0.225778,-0.92569 -0.632179,-1.24178 -0.372534,-0.3048 -0.857956,-0.46284 -1.377246,-0.46284 -0.519289,0 -1.004712,0.15804 -1.377245,0.46284 -0.406401,0.31609 -0.632179,0.76765 -0.632179,1.24178 0,0.47414 0.225778,0.90312 0.632179,1.2192 0.361244,0.27094 0.835378,0.44027 1.343379,0.47414 h 0.01129 c 0.541867,0.0339 0.846667,0.18062 1.004712,0.3048 0.180622,0.13547 0.259644,0.29351 0.259644,0.49671 0,0.24836 -0.191911,0.42898 -0.3048,0.51929 -0.248356,0.18062 -0.587023,0.28222 -0.936979,0.28222 -0.349956,0 -0.688623,-0.1016 -0.936978,-0.28222 -0.112889,-0.0903 -0.304801,-0.27093 -0.304801,-0.51929 H 46.51029 c 0,0.27093 0.06773,0.51929 0.2032,0.75636 0.124178,0.22577 0.293512,0.41769 0.508001,0.57573 0.417689,0.31609 0.970845,0.48542 1.546579,0.48542 z"
         style="font-size:11.2889px;stroke-width:0.264583"
         id="path6254" />
      <path
         d="m 54.593128,115.63948 c 0.812801,0 1.569157,-0.31609 2.133602,-0.88053 0.564445,-0.56445 0.880535,-1.3208 0.880535,-2.1336 0,-0.80152 -0.31609,-1.55787 -0.880535,-2.12232 -0.564445,-0.56444 -1.320801,-0.88053 -2.133602,-0.88053 -0.801512,0 -1.557868,0.31609 -2.122313,0.88053 -0.564445,0.56445 -0.880534,1.3208 -0.880534,2.12232 0,0.8128 0.316089,1.56915 0.880534,2.1336 0.564445,0.56444 1.320801,0.88053 2.122313,0.88053 z m 0,-5.00098 c 1.106312,0 1.998136,0.89182 1.998136,1.98685 0,1.10631 -0.891824,1.99813 -1.998136,1.99813 -1.095023,0 -1.986846,-0.89182 -1.986846,-1.99813 0,-1.09503 0.891823,-1.98685 1.986846,-1.98685 z"
         style="font-size:11.2889px;stroke-width:0.264583"
         id="path6256" />
      <path
         d="m 62.438894,109.6225 v 3.51085 c 0,0.82409 -0.666045,1.49013 -1.490134,1.49013 -0.812801,0 -1.478846,-0.66604 -1.478846,-1.49013 v -3.51085 h -1.016001 v 3.51085 c 0,0.67733 0.259644,1.29822 0.733778,1.77235 0.474134,0.47414 1.095023,0.73378 1.761069,0.73378 0.541867,0 1.061156,-0.16933 1.490134,-0.48542 v 0.48542 h 1.016001 v -6.01698 z"
         style="font-size:11.2889px;stroke-width:0.264583"
         id="path6258" />
      <path
         d="m 67.451152,109.6225 c -0.474134,0.0226 -0.948268,0.16933 -1.365957,0.41769 -0.169333,0.0903 -0.327378,0.2032 -0.474134,0.33867 V 109.6225 H 64.59506 v 6.01698 h 1.016001 v -3.02542 c 0,-0.33867 0.09031,-0.66605 0.259645,-0.97085 0.169333,-0.3048 0.417689,-0.55315 0.72249,-0.73378 0.282222,-0.15804 0.587022,-0.24835 0.914401,-0.27093 0.3048,-0.0113 0.620889,0.0452 0.903112,0.16933 l 0.4064,-0.92569 c -0.428978,-0.19191 -0.903112,-0.28222 -1.365957,-0.25964 z"
         style="font-size:11.2889px;stroke-width:0.264583"
         id="path6260" />
      <path
         d="m 71.989284,115.63948 c 0.812801,0 1.569158,-0.31609 2.133603,-0.88053 l -0.72249,-0.72249 c -0.372534,0.38382 -0.869245,0.58702 -1.411113,0.58702 -1.095023,0 -1.986846,-0.89182 -1.986846,-1.99813 0,-1.09503 0.891823,-1.98685 1.986846,-1.98685 0.541868,0 1.038579,0.2032 1.411113,0.58702 l 0.72249,-0.72249 c -0.564445,-0.56444 -1.320802,-0.88053 -2.133603,-0.88053 -0.801511,0 -1.557868,0.31609 -2.122313,0.88053 -0.564445,0.56445 -0.880534,1.3208 -0.880534,2.12232 0,0.8128 0.316089,1.56915 0.880534,2.1336 0.564445,0.56444 1.320802,0.88053 2.122313,0.88053 z"
         style="font-size:11.2889px;stroke-width:0.264583"
         id="path6262" />
      <path
         d="m 80.704307,112.62535 c 0,-0.80152 -0.31609,-1.55787 -0.880535,-2.12232 -0.564445,-0.56444 -1.320801,-0.88053 -2.133602,-0.88053 -0.801512,0 -1.557868,0.31609 -2.122313,0.88053 -0.564445,0.56445 -0.880534,1.3208 -0.880534,2.12232 0,0.8128 0.316089,1.56915 0.880534,2.1336 0.564445,0.56444 1.320801,0.88053 2.122313,0.88053 0,0 0,0 0,0 0.485423,0 0.970846,-0.11289 1.399824,-0.33866 0.4064,-0.21449 0.767645,-0.53058 1.038579,-0.90312 l -0.82409,-0.59831 c -0.180622,0.24836 -0.417689,0.45156 -0.688623,0.59831 -0.282222,0.14676 -0.598312,0.22578 -0.92569,0.22578 -0.914401,0 -1.693335,-0.63218 -1.919113,-1.49013 h 4.93325 z m -4.93325,-0.508 c 0.225778,-0.84667 1.004712,-1.47885 1.919113,-1.47885 0.92569,0 1.704624,0.63218 1.930402,1.47885 z"
         style="font-size:11.2889px;stroke-width:0.264583"
         id="path6264" />
      <path
         d="m 89.656377,109.6225 v 0.75636 c -0.553157,-0.48543 -1.253068,-0.75636 -1.998136,-0.75636 -0.801512,0 -1.557868,0.31609 -2.122313,0.88053 -0.564445,0.56445 -0.880534,1.3208 -0.880534,2.12232 0,0.8128 0.316089,1.56915 0.880534,2.1336 0.564445,0.56444 1.320801,0.88053 2.122313,0.88053 0.745068,0 1.444979,-0.27093 1.998136,-0.75635 v 0.75635 h 1.016001 v -6.01698 z m -1.998136,5.00098 c -1.095023,0 -1.986846,-0.89182 -1.986846,-1.99813 0,-1.09503 0.891823,-1.98685 1.986846,-1.98685 1.106312,0 1.998136,0.89182 1.998136,1.98685 0,1.10631 -0.891824,1.99813 -1.998136,1.99813 z"
         style="font-size:11.2889px;stroke-width:0.264583"
         id="path6266" />
      <path
         d="m 95.6169,110.35628 c -0.474133,-0.47414 -1.095023,-0.73378 -1.772357,-0.73378 -0.541867,0 -1.049868,0.16933 -1.478846,0.48542 v -0.48542 h -1.016001 v 6.01698 h 1.016001 v -3.52213 c 0,-0.8128 0.666045,-1.47885 1.478846,-1.47885 0.82409,0 1.490135,0.66605 1.490135,1.47885 v 3.52213 h 1.016001 v -3.52213 c 0,-0.66605 -0.259645,-1.28694 -0.733779,-1.76107 z"
         style="font-size:11.2889px;stroke-width:0.264583"
         id="path6268" />
      <path
         d="m 101.91609,106.81156 v 3.5673 c -0.55316,-0.48543 -1.25307,-0.75636 -1.998137,-0.75636 -0.801511,0 -1.557868,0.31609 -2.122313,0.88053 -0.564445,0.56445 -0.880534,1.3208 -0.880534,2.12232 0,0.8128 0.316089,1.56915 0.880534,2.1336 0.564445,0.56444 1.320802,0.88053 2.122313,0.88053 0.745067,0 1.444977,-0.27093 1.998137,-0.75635 v 0.75635 h 1.016 v -8.82792 z m -1.998137,7.81192 c -1.095023,0 -1.986846,-0.89182 -1.986846,-1.99813 0,-1.09503 0.891823,-1.98685 1.986846,-1.98685 1.106317,0 1.998137,0.89182 1.998137,1.98685 0,1.10631 -0.89182,1.99813 -1.998137,1.99813 z"
         style="font-size:11.2889px;stroke-width:0.264583"
         id="path6270" />
      <path
         d="m 109.88602,115.63948 c 0.81281,0 1.56916,-0.31609 2.13361,-0.88053 0.56444,-0.56445 0.88053,-1.3208 0.88053,-2.1336 0,-0.80152 -0.31609,-1.55787 -0.88053,-2.12232 -0.56445,-0.56444 -1.3208,-0.88053 -2.13361,-0.88053 -0.80151,0 -1.55786,0.31609 -2.12231,0.88053 -0.56444,0.56445 -0.88053,1.3208 -0.88053,2.12232 0,0.8128 0.31609,1.56915 0.88053,2.1336 0.56445,0.56444 1.3208,0.88053 2.12231,0.88053 z m 0,-5.00098 c 1.10632,0 1.99814,0.89182 1.99814,1.98685 0,1.10631 -0.89182,1.99813 -1.99814,1.99813 -1.09502,0 -1.98684,-0.89182 -1.98684,-1.99813 0,-1.09503 0.89182,-1.98685 1.98684,-1.98685 z"
         style="font-size:11.2889px;stroke-width:0.264583"
         id="path6272" />
      <path
         d="m 118.60103,110.50303 c -0.56444,-0.56444 -1.3208,-0.88053 -2.1336,-0.88053 -0.73378,0 -1.43369,0.27093 -1.98685,0.75636 v -0.75636 h -1.016 v 8.47796 h 1.016 v -3.21733 c 0.55316,0.48542 1.25307,0.75635 1.98685,0.75635 0.8128,0 1.56916,-0.31609 2.1336,-0.88053 0.56445,-0.56445 0.88054,-1.3208 0.88054,-2.1336 0,-0.80152 -0.31609,-1.55787 -0.88054,-2.12232 z m -2.1336,4.12045 c -1.09502,0 -1.98685,-0.89182 -1.98685,-1.99813 0,-1.09503 0.89183,-1.98685 1.98685,-1.98685 1.10631,0 1.99814,0.89182 1.99814,1.98685 0,1.10631 -0.89183,1.99813 -1.99814,1.99813 z"
         style="font-size:11.2889px;stroke-width:0.264583"
         id="path6274" />
      <path
         d="m 126.06298,112.62535 c 0,-0.80152 -0.31609,-1.55787 -0.88053,-2.12232 -0.56445,-0.56444 -1.32081,-0.88053 -2.13361,-0.88053 -0.80151,0 -1.55786,0.31609 -2.12231,0.88053 -0.56444,0.56445 -0.88053,1.3208 -0.88053,2.12232 0,0.8128 0.31609,1.56915 0.88053,2.1336 0.56445,0.56444 1.3208,0.88053 2.12231,0.88053 0,0 0,0 0,0 0.48543,0 0.97085,-0.11289 1.39983,-0.33866 0.4064,-0.21449 0.76764,-0.53058 1.03858,-0.90312 l -0.82409,-0.59831 c -0.18063,0.24836 -0.41769,0.45156 -0.68863,0.59831 -0.28222,0.14676 -0.59831,0.22578 -0.92569,0.22578 -0.9144,0 -1.69333,-0.63218 -1.91911,-1.49013 h 4.93325 z m -4.93325,-0.508 c 0.22578,-0.84667 1.00471,-1.47885 1.91911,-1.47885 0.92569,0 1.70463,0.63218 1.93041,1.47885 z"
         style="font-size:11.2889px;stroke-width:0.264583"
         id="path6276" />
      <path
         d="m 131.00749,110.35628 c -0.47413,-0.47414 -1.09502,-0.73378 -1.77235,-0.73378 -0.54187,0 -1.04987,0.16933 -1.47885,0.48542 v -0.48542 h -1.016 v 6.01698 h 1.016 v -3.52213 c 0,-0.8128 0.66605,-1.47885 1.47885,-1.47885 0.82409,0 1.49013,0.66605 1.49013,1.47885 v 3.52213 h 1.016 v -3.52213 c 0,-0.66605 -0.25964,-1.28694 -0.73378,-1.76107 z"
         style="font-size:11.2889px;stroke-width:0.264583"
         id="path6278" />
      <path
         d="m 137.95014,115.63948 c 0.57573,0 1.12889,-0.16933 1.54658,-0.48542 0.21449,-0.15804 0.38382,-0.34996 0.508,-0.57573 0.13546,-0.23707 0.2032,-0.48543 0.2032,-0.75636 0,-0.51929 -0.23707,-0.98213 -0.65476,-1.30951 -0.39511,-0.29351 -0.93698,-0.47414 -1.56916,-0.508 -0.58702,-0.0339 -1.02729,-0.32738 -1.02729,-0.67734 0,-0.37253 0.45156,-0.68862 0.99343,-0.68862 0.54187,0 0.99342,0.31609 0.99342,0.68862 h 1.016 c 0,-0.47413 -0.22578,-0.92569 -0.63218,-1.24178 -0.37253,-0.3048 -0.85795,-0.46284 -1.37724,-0.46284 -0.51929,0 -1.00471,0.15804 -1.37725,0.46284 -0.4064,0.31609 -0.63218,0.76765 -0.63218,1.24178 0,0.47414 0.22578,0.90312 0.63218,1.2192 0.36125,0.27094 0.83538,0.44027 1.34338,0.47414 h 0.0113 c 0.54187,0.0339 0.84667,0.18062 1.00471,0.3048 0.18062,0.13547 0.25965,0.29351 0.25965,0.49671 0,0.24836 -0.19191,0.42898 -0.3048,0.51929 -0.24836,0.18062 -0.58703,0.28222 -0.93698,0.28222 -0.34996,0 -0.68862,-0.1016 -0.93698,-0.28222 -0.11289,-0.0903 -0.3048,-0.27093 -0.3048,-0.51929 h -1.016 c 0,0.27093 0.0677,0.51929 0.2032,0.75636 0.12418,0.22577 0.29351,0.41769 0.508,0.57573 0.41769,0.31609 0.97084,0.48542 1.54658,0.48542 z"
         style="font-size:11.2889px;stroke-width:0.264583"
         id="path6280" />
      <path
         d="m 143.7752,115.63948 c 0.8128,0 1.56916,-0.31609 2.1336,-0.88053 l -0.72249,-0.72249 c -0.37253,0.38382 -0.86924,0.58702 -1.41111,0.58702 -1.09502,0 -1.98685,-0.89182 -1.98685,-1.99813 0,-1.09503 0.89183,-1.98685 1.98685,-1.98685 0.54187,0 1.03858,0.2032 1.41111,0.58702 l 0.72249,-0.72249 c -0.56444,-0.56444 -1.3208,-0.88053 -2.1336,-0.88053 -0.80151,0 -1.55787,0.31609 -2.12231,0.88053 -0.56445,0.56445 -0.88054,1.3208 -0.88054,2.12232 0,0.8128 0.31609,1.56915 0.88054,2.1336 0.56444,0.56444 1.3208,0.88053 2.12231,0.88053 z"
         style="font-size:11.2889px;stroke-width:0.264583"
         id="path6282" />
      <path
         d="m 146.85706,115.63948 h 1.01601 v -6.01698 h -1.01601 z m 0.50801,-7.15716 c 0.33866,0 0.6096,-0.27093 0.6096,-0.6096 0,-0.33867 -0.27094,-0.6096 -0.6096,-0.6096 -0.33867,0 -0.60961,0.27093 -0.60961,0.6096 0,0.33867 0.27094,0.6096 0.60961,0.6096 z"
         style="font-size:11.2889px;stroke-width:0.264583"
         id="path6284" />
      <path
         d="m 154.83829,112.62535 c 0,-0.80152 -0.31609,-1.55787 -0.88053,-2.12232 -0.56445,-0.56444 -1.3208,-0.88053 -2.1336,-0.88053 -0.80151,0 -1.55787,0.31609 -2.12232,0.88053 -0.56444,0.56445 -0.88053,1.3208 -0.88053,2.12232 0,0.8128 0.31609,1.56915 0.88053,2.1336 0.56445,0.56444 1.32081,0.88053 2.12232,0.88053 0,0 0,0 0,0 0.48542,0 0.97084,-0.11289 1.39982,-0.33866 0.4064,-0.21449 0.76765,-0.53058 1.03858,-0.90312 l -0.82409,-0.59831 c -0.18062,0.24836 -0.41769,0.45156 -0.68862,0.59831 -0.28223,0.14676 -0.59831,0.22578 -0.92569,0.22578 -0.9144,0 -1.69334,-0.63218 -1.91912,-1.49013 h 4.93325 z m -4.93325,-0.508 c 0.22578,-0.84667 1.00472,-1.47885 1.91912,-1.47885 0.92569,0 1.70462,0.63218 1.9304,1.47885 z"
         style="font-size:11.2889px;stroke-width:0.264583"
         id="path6286" />
      <path
         d="m 159.78281,110.35628 c -0.47413,-0.47414 -1.09502,-0.73378 -1.77236,-0.73378 -0.54187,0 -1.04987,0.16933 -1.47884,0.48542 v -0.48542 h -1.01601 v 6.01698 h 1.01601 v -3.52213 c 0,-0.8128 0.66604,-1.47885 1.47884,-1.47885 0.82409,0 1.49014,0.66605 1.49014,1.47885 v 3.52213 h 1.016 v -3.52213 c 0,-0.66605 -0.25965,-1.28694 -0.73378,-1.76107 z"
         style="font-size:11.2889px;stroke-width:0.264583"
         id="path6288" />
      <path
         d="m 164.08386,115.63948 c 0.8128,0 1.56916,-0.31609 2.1336,-0.88053 l -0.72249,-0.72249 c -0.37253,0.38382 -0.86924,0.58702 -1.41111,0.58702 -1.09502,0 -1.98684,-0.89182 -1.98684,-1.99813 0,-1.09503 0.89182,-1.98685 1.98684,-1.98685 0.54187,0 1.03858,0.2032 1.41111,0.58702 l 0.72249,-0.72249 c -0.56444,-0.56444 -1.3208,-0.88053 -2.1336,-0.88053 -0.80151,0 -1.55787,0.31609 -2.12231,0.88053 -0.56445,0.56445 -0.88054,1.3208 -0.88054,2.12232 0,0.8128 0.31609,1.56915 0.88054,2.1336 0.56444,0.56444 1.3208,0.88053 2.12231,0.88053 z"
         style="font-size:11.2889px;stroke-width:0.264583"
         id="path6290" />
      <path
         d="m 172.7989,112.62535 c 0,-0.80152 -0.31609,-1.55787 -0.88054,-2.12232 -0.56444,-0.56444 -1.3208,-0.88053 -2.1336,-0.88053 -0.80151,0 -1.55787,0.31609 -2.12231,0.88053 -0.56445,0.56445 -0.88054,1.3208 -0.88054,2.12232 0,0.8128 0.31609,1.56915 0.88054,2.1336 0.56444,0.56444 1.3208,0.88053 2.12231,0.88053 0,0 0,0 0,0 0.48542,0 0.97084,-0.11289 1.39982,-0.33866 0.4064,-0.21449 0.76765,-0.53058 1.03858,-0.90312 l -0.82409,-0.59831 c -0.18062,0.24836 -0.41769,0.45156 -0.68862,0.59831 -0.28222,0.14676 -0.59831,0.22578 -0.92569,0.22578 -0.9144,0 -1.69334,-0.63218 -1.91911,-1.49013 h 4.93325 z m -4.93325,-0.508 c 0.22577,-0.84667 1.00471,-1.47885 1.91911,-1.47885 0.92569,0 1.70462,0.63218 1.9304,1.47885 z"
         style="font-size:11.2889px;stroke-width:0.264583"
         id="path6292" />
    </g>
    <g
       id="g6096">
      <path
         style="fill:#000000;fill-opacity:1;stroke:none;stroke-width:0.236114"
         d="m 29.138191,17.096763 v 8.263978 h -8.263976 v 8.263975 H 12.610238 V 50.152669 H 161.3618 v -8.263978 h 8.26398 v -8.263975 h 8.26398 V 17.096763 Z"
         id="path6633"
         inkscape:connector-curvature="0"
         sodipodi:nodetypes="ccccccccccccc" />
      <path
         style="fill:#000000;fill-opacity:1;stroke:#ffffff;stroke-width:5;stroke-linecap:round;stroke-linejoin:miter;stroke-miterlimit:4;stroke-dasharray:none;stroke-opacity:1"
         d="m -1021.0049,198.77265 h 589.99999 v -35 h 30 v -30 h 65.51104"
         id="path6635"
         inkscape:connector-curvature="0"
         sodipodi:nodetypes="cccccc"
         transform="matrix(0.23611361,0,0,0.23611361,258.40566,-2.6830981)"
         clip-path="url(#clipPath17718)" />
      <g
         transform="matrix(0.2213565,0,0,0.2213565,481.13379,-448.24777)"
         id="g5552">
        <g
           id="text5554"
           style="font-style:normal;font-variant:normal;font-weight:bold;font-stretch:normal;font-size:65.497px;line-height:0%;font-family:Anke;-inkscape-font-specification:'Anke Bold';text-align:start;letter-spacing:16.51px;word-spacing:0px;writing-mode:lr-tb;text-anchor:start;fill:#ffffff;fill-opacity:1;stroke:#ffffff;stroke-width:2;stroke-miterlimit:4;stroke-opacity:1">
          <path
             inkscape:connector-curvature="0"
             id="path3114"
             style="line-height:0%;font-family:Anke;-inkscape-font-specification:'Anke Bold';stroke:#ffffff;stroke-width:2.13333"
             d="m -2006.2094,2204.6961 c 3.4932,0 6.9165,-0.6987 10.0604,-2.026 3.1439,-1.3275 5.8686,-3.2138 8.2438,-5.5891 2.3754,-2.3754 4.2618,-5.1001 5.5891,-8.2439 1.3274,-3.1439 2.0261,-6.5671 2.0261,-10.0604 0,-3.4931 -0.6987,-6.9164 -2.0261,-10.0602 -1.3273,-3.1439 -3.2137,-5.8686 -5.5891,-8.244 -2.3752,-2.3753 -5.0999,-4.2616 -8.2438,-5.589 -3.1439,-1.3274 -6.5672,-2.0261 -10.0604,-2.0261 -3.4931,0 -6.9165,0.6987 -10.0603,2.0261 -3.1438,1.3274 -5.8685,3.2137 -8.2439,5.589 -2.3754,2.3754 -4.2617,5.1001 -5.589,8.244 -1.3275,3.1438 -2.026,6.5671 -2.026,10.0602 0,3.4933 0.6985,6.9165 2.026,10.0604 1.3273,3.1438 3.2136,5.8685 5.589,8.2439 2.3754,2.3753 5.1001,4.2616 8.2439,5.5891 3.1438,1.3273 6.5672,2.026 10.0603,2.026 m 0,-45.5509 c 5.2398,0 10.2001,2.026 13.9028,5.7287 3.7029,3.7028 5.7289,8.6631 5.7289,13.9028 0,5.2398 -2.026,10.2002 -5.7289,13.9029 -3.7027,3.7027 -8.663,5.7288 -13.9028,5.7288 -5.2397,0 -10.2,-2.0261 -13.9028,-5.7288 -3.7027,-3.7027 -5.7288,-8.6631 -5.7288,-13.9029 0,-5.2397 2.0261,-10.2 5.7288,-13.9028 3.7028,-3.7027 8.6631,-5.7287 13.9028,-5.7287" />
          <path
             inkscape:connector-curvature="0"
             id="path3116"
             style="line-height:0%;font-family:Anke;-inkscape-font-specification:'Anke Bold';stroke:#ffffff;stroke-width:2.13333"
             d="m -1936.902,2204.6961 c 3.0042,0 5.9385,-0.5589 8.6631,-1.7466 2.6548,-1.1178 5.0302,-2.7246 7.0562,-4.7507 2.0261,-2.026 3.6329,-4.4014 4.7507,-7.0562 1.1877,-2.7247 1.7467,-5.659 1.7467,-8.663 v -29.6222 h -6.2878 v 29.6222 c 0,4.2616 -1.6767,8.2438 -4.6809,11.248 -3.004,3.004 -6.9863,4.6808 -11.248,4.6808 -4.2616,0 -8.2438,-1.6768 -11.248,-4.6808 -3.0041,-3.0042 -4.6808,-6.9864 -4.6808,-11.248 v -29.6222 h -6.2877 v 29.6222 c 0,3.004 0.5589,5.9383 1.7466,8.663 1.1178,2.6548 2.7246,5.0302 4.7507,7.0562 2.026,2.0261 4.4014,3.6329 7.0562,4.7507 2.7247,1.1877 5.659,1.7466 8.663,1.7466" />
          <path
             inkscape:connector-curvature="0"
             id="path3118"
             style="line-height:0%;font-family:Anke;-inkscape-font-specification:'Anke Bold';stroke:#ffffff;stroke-width:2.13333"
             d="m -1852.5335,2152.8574 h -41.0797 v 6.2878 h 17.3959 v 45.5509 h 6.2878 v -45.5509 h 17.396 v -6.2878" />
          <path
             inkscape:connector-curvature="0"
             id="path3120"
             style="line-height:0%;font-family:Anke;-inkscape-font-specification:'Anke Bold';stroke:#ffffff;stroke-width:2.13333"
             d="m -1798.7053,2204.6961 h 7.685 l -14.8111,-20.959 c 3.6329,-0.2795 6.9864,-1.8863 9.5713,-4.4713 2.9343,-2.9343 4.5412,-6.7767 4.5412,-10.9685 0,-4.1219 -1.6069,-7.9645 -4.5412,-10.8988 -2.9342,-2.9342 -6.7767,-4.5411 -10.8986,-4.5411 h -22.4961 v 0 51.8387 h 6.2878 v -20.8892 h 9.8506 l 14.8111,20.8892 m -24.6617,-45.5509 h 16.2083 c 5.0301,0 9.1521,4.1219 9.1521,9.1521 0,5.0999 -4.122,9.222 -9.1521,9.222 h -16.2083 v -18.3741" />
          <path
             inkscape:connector-curvature="0"
             id="path3122"
             style="line-height:0%;font-family:Anke;-inkscape-font-specification:'Anke Bold';stroke:#ffffff;stroke-width:2.13333"
             d="m -1759.9021,2198.4084 v -18.3741 h 21.0289 v -6.2877 h -21.0289 v -14.6014 h 24.7316 v -6.2878 h -31.0193 v 51.8387 h 3.1438 29.4825 v -6.2877 h -26.3386" />
          <path
             inkscape:connector-curvature="0"
             id="path3124"
             style="line-height:0%;font-family:Anke;-inkscape-font-specification:'Anke Bold';stroke:#ffffff;stroke-width:2.13333"
             d="m -1690.2807,2152.8574 -23.1947,51.8387 h 6.9165 l 5.3795,-12.0165 h 28.9933 l 5.3795,12.0165 h 6.9165 l -23.2646,-51.8387 h -7.126 m -8.1042,33.5345 11.6672,-26.129 11.7371,26.129 h -23.4043" />
          <path
             inkscape:connector-curvature="0"
             id="path3126"
             style="line-height:0%;font-family:Anke;-inkscape-font-specification:'Anke Bold';stroke:#ffffff;stroke-width:2.13333"
             d="m -1619.2871,2204.6961 c 3.4931,0 6.9164,-0.6987 10.0603,-2.026 3.1438,-1.3275 5.8685,-3.2138 8.2439,-5.5891 l -4.4014,-4.4014 c -3.7027,3.7027 -8.6631,5.7288 -13.9028,5.7288 -5.2398,0 -10.2002,-2.0261 -13.9029,-5.7288 -3.7027,-3.7027 -5.7287,-8.6631 -5.7287,-13.9029 0,-5.2397 2.026,-10.2 5.7287,-13.9028 3.7027,-3.7027 8.6631,-5.7287 13.9029,-5.7287 5.2397,0 10.2001,2.026 13.9028,5.7287 l 4.4014,-4.4014 c -2.3754,-2.3753 -5.1001,-4.2616 -8.2439,-5.589 -3.1439,-1.3274 -6.5672,-2.0261 -10.0603,-2.0261 -3.4932,0 -6.9165,0.6987 -10.0604,2.0261 -3.1438,1.3274 -5.8685,3.2137 -8.2439,5.589 -2.3753,2.3754 -4.2616,5.1001 -5.5891,8.244 -1.3273,3.1438 -2.026,6.5671 -2.026,10.0602 0,3.4933 0.6987,6.9165 2.026,10.0604 1.3275,3.1438 3.2138,5.8685 5.5891,8.2439 2.3754,2.3753 5.1001,4.2616 8.2439,5.5891 3.1439,1.3273 6.5672,2.026 10.0604,2.026" />
          <path
             inkscape:connector-curvature="0"
             id="path3128"
             style="line-height:0%;font-family:Anke;-inkscape-font-specification:'Anke Bold';stroke:#ffffff;stroke-width:2.13333"
             d="m -1545.0457,2153.067 v 20.8892 h -28.5042 v -20.8892 h -6.2878 v 51.6291 h 6.2878 v -24.4522 h 28.5042 v 24.6618 h 6.2877 v -51.8387 h -6.2877" />
          <path
             inkscape:connector-curvature="0"
             id="path3130"
             style="line-height:0%;font-family:Anke;-inkscape-font-specification:'Anke Bold';stroke:#ffffff;stroke-width:2.13333"
             d="m -1483.2343,2152.8574 -13.3439,18.5837 -13.2741,-18.5837 h -7.7548 l 17.885,25.0112 v 26.8275 h 6.2876 v -26.8275 l 17.955,-25.0112 h -7.7548" />
        </g>
      </g>
    </g>
    <g
       aria-label="Remote paid internships"
       id="text6081"
       style="font-size:14.1111px;line-height:1.25;font-family:Anke;-inkscape-font-specification:Anke;text-align:center;letter-spacing:0px;word-spacing:0px;writing-mode:lr-tb;text-anchor:middle;stroke-width:0.264583">
      <path
         d="m 25.62606,75.405884 h 1.552221 l -2.991553,-4.23333 c 0.733777,-0.05645 1.41111,-0.381 1.933221,-0.903111 0.592666,-0.592666 0.917221,-1.368776 0.917221,-2.215442 0,-0.832555 -0.324555,-1.608666 -0.917221,-2.201332 -0.592666,-0.592666 -1.368777,-0.917222 -2.201332,-0.917222 h -4.543774 v 10.470437 h 1.269999 v -4.219219 h 1.989665 z m -4.981218,-9.200438 h 3.273775 c 1.015999,0 1.848554,0.832555 1.848554,1.848555 0,1.03011 -0.832555,1.862665 -1.848554,1.862665 h -3.273775 z"
         style="font-size:14.1111px;stroke-width:0.264583"
         id="path6295" />
      <path
         d="m 35.405035,71.63822 c 0,-1.001888 -0.395111,-1.947332 -1.100666,-2.652887 -0.705555,-0.705555 -1.650998,-1.100666 -2.666998,-1.100666 -1.001888,0 -1.947331,0.395111 -2.652886,1.100666 -0.705555,0.705555 -1.100666,1.650999 -1.100666,2.652887 0,1.015999 0.395111,1.961443 1.100666,2.666998 0.705555,0.705555 1.650998,1.100666 2.652886,1.100666 0,0 0,0 0,0 0.606778,0 1.213555,-0.141111 1.749777,-0.423333 0.507999,-0.268111 0.959555,-0.663222 1.298221,-1.128888 l -1.03011,-0.747889 c -0.225778,0.310445 -0.522111,0.564444 -0.860777,0.747889 -0.352778,0.183444 -0.747889,0.282222 -1.157111,0.282222 -1.142999,0 -2.116665,-0.790222 -2.398887,-1.862665 h 6.166551 z m -6.166551,-0.634999 c 0.282222,-1.058333 1.255888,-1.848555 2.398887,-1.848555 1.157111,0 2.130777,0.790222 2.412999,1.848555 z"
         style="font-size:14.1111px;stroke-width:0.264583"
         id="path6297" />
      <path
         d="m 46.425781,68.801889 c -0.592667,-0.592666 -1.368777,-0.917222 -2.215443,-0.917222 -0.832555,0 -1.608666,0.324556 -2.201332,0.917222 -0.09878,0.09878 -0.197555,0.211666 -0.282222,0.324555 -0.08467,-0.112889 -0.183444,-0.225777 -0.282222,-0.324555 -0.592666,-0.592666 -1.368777,-0.917222 -2.215443,-0.917222 -0.677332,0 -1.312332,0.211667 -1.848554,0.606778 v -0.606778 h -1.269999 v 7.521217 h 1.269999 v -4.402663 c 0,-1.016 0.832555,-1.848555 1.848554,-1.848555 1.030111,0 1.862666,0.832555 1.862666,1.848555 v 4.402663 h 1.269999 v -4.402663 c 0,-1.016 0.832555,-1.848555 1.848554,-1.848555 1.03011,0 1.862665,0.832555 1.862665,1.848555 v 4.402663 h 1.269999 v -4.402663 c 0,-0.832555 -0.324555,-1.608666 -0.917221,-2.201332 z"
         style="font-size:14.1111px;stroke-width:0.264583"
         id="path6299" />
      <path
         d="m 51.802092,75.405884 c 1.015999,0 1.961443,-0.395111 2.666998,-1.100666 0.705555,-0.705555 1.100666,-1.650999 1.100666,-2.666998 0,-1.001888 -0.395111,-1.947332 -1.100666,-2.652887 -0.705555,-0.705555 -1.650999,-1.100666 -2.666998,-1.100666 -1.001888,0 -1.947332,0.395111 -2.652887,1.100666 -0.705555,0.705555 -1.100666,1.650999 -1.100666,2.652887 0,1.015999 0.395111,1.961443 1.100666,2.666998 0.705555,0.705555 1.650999,1.100666 2.652887,1.100666 z m 0,-6.251218 c 1.382888,0 2.497665,1.114777 2.497665,2.483554 0,1.382888 -1.114777,2.497665 -2.497665,2.497665 -1.368777,0 -2.483554,-1.114777 -2.483554,-2.497665 0,-1.368777 1.114777,-2.483554 2.483554,-2.483554 z"
         style="font-size:14.1111px;stroke-width:0.264583"
         id="path6301" />
      <path
         d="m 60.184062,67.884667 h -1.707444 v -3.513664 h -1.269999 v 3.513664 h -0.931332 v 1.269999 h 0.931332 v 6.251218 h 1.269999 v -6.251218 h 1.707444 z"
         style="font-size:14.1111px;stroke-width:0.264583"
         id="path6303" />
      <path
         d="m 68.058031,71.63822 c 0,-1.001888 -0.395111,-1.947332 -1.100666,-2.652887 -0.705555,-0.705555 -1.650998,-1.100666 -2.666997,-1.100666 -1.001889,0 -1.947332,0.395111 -2.652887,1.100666 -0.705555,0.705555 -1.100666,1.650999 -1.100666,2.652887 0,1.015999 0.395111,1.961443 1.100666,2.666998 0.705555,0.705555 1.650998,1.100666 2.652887,1.100666 0,0 0,0 0,0 0.606777,0 1.213554,-0.141111 1.749776,-0.423333 0.508,-0.268111 0.959555,-0.663222 1.298221,-1.128888 l -1.03011,-0.747889 c -0.225778,0.310445 -0.522111,0.564444 -0.860777,0.747889 -0.352778,0.183444 -0.747889,0.282222 -1.15711,0.282222 -1.143,0 -2.116666,-0.790222 -2.398888,-1.862665 h 6.166551 z M 61.89148,71.003221 c 0.282222,-1.058333 1.255888,-1.848555 2.398888,-1.848555 1.15711,0 2.130776,0.790222 2.412998,1.848555 z"
         style="font-size:14.1111px;stroke-width:0.264583"
         id="path6305" />
      <path
         d="m 79.417429,68.985333 c -0.705555,-0.705555 -1.650998,-1.100666 -2.666998,-1.100666 -0.917221,0 -1.792109,0.338667 -2.483553,0.945444 v -0.945444 h -1.269999 v 10.597437 h 1.269999 V 74.46044 c 0.691444,0.606777 1.566332,0.945444 2.483553,0.945444 1.016,0 1.961443,-0.395111 2.666998,-1.100666 0.705555,-0.705555 1.100666,-1.650999 1.100666,-2.666998 0,-1.001888 -0.395111,-1.947332 -1.100666,-2.652887 z m -2.666998,5.150552 c -1.368776,0 -2.483553,-1.114777 -2.483553,-2.497665 0,-1.368777 1.114777,-2.483554 2.483553,-2.483554 1.382888,0 2.497665,1.114777 2.497665,2.483554 0,1.382888 -1.114777,2.497665 -2.497665,2.497665 z"
         style="font-size:14.1111px;stroke-width:0.264583"
         id="path6307" />
      <path
         d="m 87.474846,67.884667 v 0.945444 c -0.691444,-0.606777 -1.566333,-0.945444 -2.497665,-0.945444 -1.001888,0 -1.947332,0.395111 -2.652887,1.100666 -0.705555,0.705555 -1.100666,1.650999 -1.100666,2.652887 0,1.015999 0.395111,1.961443 1.100666,2.666998 0.705555,0.705555 1.650999,1.100666 2.652887,1.100666 0.931332,0 1.806221,-0.338667 2.497665,-0.945444 v 0.945444 h 1.269999 v -7.521217 z m -2.497665,6.251218 c -1.368777,0 -2.483554,-1.114777 -2.483554,-2.497665 0,-1.368777 1.114777,-2.483554 2.483554,-2.483554 1.382888,0 2.497665,1.114777 2.497665,2.483554 0,1.382888 -1.114777,2.497665 -2.497665,2.497665 z"
         style="font-size:14.1111px;stroke-width:0.264583"
         id="path6309" />
      <path
         d="m 89.930151,75.405884 h 1.269999 v -7.521217 h -1.269999 z m 0.635,-8.946438 c 0.423333,0 0.761999,-0.338666 0.761999,-0.761999 0,-0.423333 -0.338666,-0.762 -0.761999,-0.762 -0.423333,0 -0.762,0.338667 -0.762,0.762 0,0.423333 0.338667,0.761999 0.762,0.761999 z"
         style="font-size:14.1111px;stroke-width:0.264583"
         id="path6311" />
      <path
         d="m 98.63668,64.371003 v 4.459108 c -0.691444,-0.606777 -1.566332,-0.945444 -2.497664,-0.945444 -1.001889,0 -1.947332,0.395111 -2.652887,1.100666 -0.705555,0.705555 -1.100666,1.650999 -1.100666,2.652887 0,1.015999 0.395111,1.961443 1.100666,2.666998 0.705555,0.705555 1.650998,1.100666 2.652887,1.100666 0.931332,0 1.80622,-0.338667 2.497664,-0.945444 v 0.945444 h 1.269999 V 64.371003 Z m -2.497664,9.764882 c -1.368777,0 -2.483554,-1.114777 -2.483554,-2.497665 0,-1.368777 1.114777,-2.483554 2.483554,-2.483554 1.382887,0 2.497664,1.114777 2.497664,2.483554 0,1.382888 -1.114777,2.497665 -2.497664,2.497665 z"
         style="font-size:14.1111px;stroke-width:0.264583"
         id="path6313" />
      <path
         d="m 105.3253,75.405884 h 1.27 v -7.521217 h -1.27 z m 0.635,-8.946438 c 0.42333,0 0.762,-0.338666 0.762,-0.761999 0,-0.423333 -0.33867,-0.762 -0.762,-0.762 -0.42333,0 -0.762,0.338667 -0.762,0.762 0,0.423333 0.33867,0.761999 0.762,0.761999 z"
         style="font-size:14.1111px;stroke-width:0.264583"
         id="path6315" />
      <path
         d="m 113.25572,68.801889 c -0.59267,-0.592666 -1.36878,-0.917222 -2.21544,-0.917222 -0.67734,0 -1.31234,0.211667 -1.84856,0.606778 v -0.606778 h -1.27 v 7.521217 h 1.27 v -4.402663 c 0,-1.016 0.83256,-1.848555 1.84856,-1.848555 1.03011,0 1.86266,0.832555 1.86266,1.848555 v 4.402663 h 1.27 v -4.402663 c 0,-0.832555 -0.32455,-1.608666 -0.91722,-2.201332 z"
         style="font-size:14.1111px;stroke-width:0.264583"
         id="path6317" />
      <path
         d="m 118.78725,67.884667 h -1.70744 v -3.513664 h -1.27 v 3.513664 h -0.93134 v 1.269999 h 0.93134 v 6.251218 h 1.27 v -6.251218 h 1.70744 z"
         style="font-size:14.1111px;stroke-width:0.264583"
         id="path6319" />
      <path
         d="m 126.66121,71.63822 c 0,-1.001888 -0.39511,-1.947332 -1.10066,-2.652887 -0.70556,-0.705555 -1.651,-1.100666 -2.667,-1.100666 -1.00189,0 -1.94733,0.395111 -2.65289,1.100666 -0.70555,0.705555 -1.10067,1.650999 -1.10067,2.652887 0,1.015999 0.39512,1.961443 1.10067,2.666998 0.70556,0.705555 1.651,1.100666 2.65289,1.100666 0,0 0,0 0,0 0.60677,0 1.21355,-0.141111 1.74977,-0.423333 0.508,-0.268111 0.95956,-0.663222 1.29823,-1.128888 l -1.03012,-0.747889 c -0.22577,0.310445 -0.52211,0.564444 -0.86077,0.747889 -0.35278,0.183444 -0.74789,0.282222 -1.15711,0.282222 -1.143,0 -2.11667,-0.790222 -2.39889,-1.862665 h 6.16655 z m -6.16655,-0.634999 c 0.28222,-1.058333 1.25589,-1.848555 2.39889,-1.848555 1.15711,0 2.13077,0.790222 2.413,1.848555 z"
         style="font-size:14.1111px;stroke-width:0.264583"
         id="path6321" />
      <path
         d="m 131.28963,67.884667 c -0.59266,0.02822 -1.18533,0.211667 -1.70744,0.522111 -0.21167,0.112889 -0.40922,0.254 -0.59267,0.423333 v -0.945444 h -1.26999 v 7.521217 h 1.26999 v -3.781775 c 0,-0.423333 0.11289,-0.832555 0.32456,-1.213555 0.21167,-0.380999 0.52211,-0.691444 0.90311,-0.917221 0.35278,-0.197556 0.73378,-0.310444 1.143,-0.338667 0.381,-0.01411 0.77611,0.05644 1.12889,0.211667 l 0.508,-1.15711 c -0.53622,-0.239889 -1.12889,-0.352778 -1.70745,-0.324556 z"
         style="font-size:14.1111px;stroke-width:0.264583"
         id="path6323" />
      <path
         d="m 138.68384,68.801889 c -0.59266,-0.592666 -1.36877,-0.917222 -2.21544,-0.917222 -0.67733,0 -1.31233,0.211667 -1.84855,0.606778 v -0.606778 h -1.27 v 7.521217 h 1.27 v -4.402663 c 0,-1.016 0.83255,-1.848555 1.84855,-1.848555 1.03011,0 1.86267,0.832555 1.86267,1.848555 v 4.402663 h 1.26999 v -4.402663 c 0,-0.832555 -0.32455,-1.608666 -0.91722,-2.201332 z"
         style="font-size:14.1111px;stroke-width:0.264583"
         id="path6325" />
      <path
         d="m 143.12881,75.405884 c 0.71967,0 1.41111,-0.211667 1.93322,-0.606778 0.26811,-0.197555 0.47978,-0.437444 0.635,-0.719666 0.16933,-0.296333 0.254,-0.606777 0.254,-0.945443 0,-0.649111 -0.29633,-1.227666 -0.81844,-1.636888 -0.49389,-0.366889 -1.17122,-0.592666 -1.96145,-0.634999 -0.73377,-0.04233 -1.28411,-0.409222 -1.28411,-0.846666 0,-0.465667 0.56445,-0.860778 1.24178,-0.860778 0.67733,0 1.24178,0.395111 1.24178,0.860778 h 1.27 c 0,-0.592667 -0.28223,-1.157111 -0.79023,-1.552222 -0.46566,-0.380999 -1.07244,-0.578555 -1.72155,-0.578555 -0.64911,0 -1.25589,0.197556 -1.72155,0.578555 -0.508,0.395111 -0.79023,0.959555 -0.79023,1.552222 0,0.592666 0.28223,1.128888 0.79023,1.523998 0.45155,0.338667 1.04422,0.550333 1.67922,0.592667 h 0.0141 c 0.67733,0.04233 1.05833,0.225777 1.25589,0.380999 0.22577,0.169333 0.32455,0.366889 0.32455,0.620889 0,0.310444 -0.23989,0.536221 -0.381,0.64911 -0.31044,0.225778 -0.73378,0.352778 -1.17122,0.352778 -0.43744,0 -0.86078,-0.127 -1.17122,-0.352778 -0.14111,-0.112889 -0.381,-0.338666 -0.381,-0.64911 h -1.27 c 0,0.338666 0.0847,0.64911 0.254,0.945443 0.15522,0.282222 0.36689,0.522111 0.635,0.719666 0.52211,0.395111 1.21355,0.606778 1.93322,0.606778 z"
         style="font-size:14.1111px;stroke-width:0.264583"
         id="path6327" />
      <path
         d="m 152.34335,68.801889 c -0.59267,-0.592666 -1.36878,-0.917222 -2.21545,-0.917222 -0.67733,0 -1.31233,0.211667 -1.84855,0.606778 v -4.120442 h -1.27 v 11.034881 h 1.27 v -4.402663 c 0,-1.016 0.83255,-1.848555 1.84855,-1.848555 1.03011,0 1.86267,0.832555 1.86267,1.848555 v 4.402663 h 1.27 v -4.402663 c 0,-0.832555 -0.32456,-1.608666 -0.91722,-2.201332 z"
         style="font-size:14.1111px;stroke-width:0.264583"
         id="path6329" />
      <path
         d="m 154.79867,75.405884 h 1.27 v -7.521217 h -1.27 z m 0.635,-8.946438 c 0.42333,0 0.762,-0.338666 0.762,-0.761999 0,-0.423333 -0.33867,-0.762 -0.762,-0.762 -0.42334,0 -0.762,0.338667 -0.762,0.762 0,0.423333 0.33866,0.761999 0.762,0.761999 z"
         style="font-size:14.1111px;stroke-width:0.264583"
         id="path6331" />
      <path
         d="m 163.67453,68.985333 c -0.70556,-0.705555 -1.651,-1.100666 -2.667,-1.100666 -0.91722,0 -1.79211,0.338667 -2.48355,0.945444 v -0.945444 h -1.27 v 10.597437 h 1.27 V 74.46044 c 0.69144,0.606777 1.56633,0.945444 2.48355,0.945444 1.016,0 1.96144,-0.395111 2.667,-1.100666 0.70555,-0.705555 1.10066,-1.650999 1.10066,-2.666998 0,-1.001888 -0.39511,-1.947332 -1.10066,-2.652887 z m -2.667,5.150552 c -1.36878,0 -2.48355,-1.114777 -2.48355,-2.497665 0,-1.368777 1.11477,-2.483554 2.48355,-2.483554 1.38289,0 2.49767,1.114777 2.49767,2.483554 0,1.382888 -1.11478,2.497665 -2.49767,2.497665 z"
         style="font-size:14.1111px;stroke-width:0.264583"
         id="path6333" />
      <path
         d="m 168.30294,75.405884 c 0.71967,0 1.41111,-0.211667 1.93322,-0.606778 0.26812,-0.197555 0.47978,-0.437444 0.635,-0.719666 0.16934,-0.296333 0.254,-0.606777 0.254,-0.945443 0,-0.649111 -0.29633,-1.227666 -0.81844,-1.636888 -0.49389,-0.366889 -1.17122,-0.592666 -1.96144,-0.634999 -0.73378,-0.04233 -1.28411,-0.409222 -1.28411,-0.846666 0,-0.465667 0.56444,-0.860778 1.24177,-0.860778 0.67734,0 1.24178,0.395111 1.24178,0.860778 h 1.27 c 0,-0.592667 -0.28222,-1.157111 -0.79022,-1.552222 -0.46567,-0.380999 -1.07245,-0.578555 -1.72156,-0.578555 -0.64911,0 -1.25588,0.197556 -1.72155,0.578555 -0.508,0.395111 -0.79022,0.959555 -0.79022,1.552222 0,0.592666 0.28222,1.128888 0.79022,1.523998 0.45155,0.338667 1.04422,0.550333 1.67922,0.592667 h 0.0141 c 0.67733,0.04233 1.05833,0.225777 1.25589,0.380999 0.22578,0.169333 0.32455,0.366889 0.32455,0.620889 0,0.310444 -0.23988,0.536221 -0.381,0.64911 -0.31044,0.225778 -0.73377,0.352778 -1.17122,0.352778 -0.43744,0 -0.86077,-0.127 -1.17122,-0.352778 -0.14111,-0.112889 -0.381,-0.338666 -0.381,-0.64911 h -1.27 c 0,0.338666 0.0847,0.64911 0.254,0.945443 0.15523,0.282222 0.36689,0.522111 0.635,0.719666 0.52211,0.395111 1.21356,0.606778 1.93322,0.606778 z"
         style="font-size:14.1111px;stroke-width:0.264583"
         id="path6335" />
    </g>
  </g>
</svg>
