<?xml version="1.0" encoding="UTF-8" standalone="no"?>
<svg xmlns:dc="http://purl.org/dc/elements/1.1/" xmlns:cc="http://creativecommons.org/ns#" xmlns:rdf="http://www.w3.org/1999/02/22-rdf-syntax-ns#" xmlns:svg="http://www.w3.org/2000/svg" xmlns="http://www.w3.org/2000/svg" version="1.1" id="svg2" viewBox="0 0 1149.0679 1149.0683" height="324.2926mm" width="324.29251mm"><script xmlns="" id="bw-fido2-page-script"/>
  <defs id="defs4"/>
  <metadata id="metadata7">
    <rdf:RDF>
      <cc:Work rdf:about="">
        <dc:format>image/svg+xml</dc:format>
        <dc:type rdf:resource="http://purl.org/dc/dcmitype/StillImage"/>
        <dc:title/>
      </cc:Work>
    </rdf:RDF>
  </metadata>
  <g transform="translate(-742.3253,-394.33559)" id="layer1">
    <g transform="translate(-628.57143,28.571428)" id="g4153">
      <g id="g4175">
        <g transform="translate(564.64187,330.04854)" id="g4453">
          <g transform="translate(-4.8536573,190.91043)" id="g4562"/>
          <g transform="translate(398.76832,-1022.1949)" id="g4593">
            <g id="g4623">
              <g id="layer1-7" transform="matrix(0.48923847,0,0,0.47327025,49.369244,1872.4339)">
                <g transform="translate(1104.8153,-2137.2698)" id="g5118">
                  <g transform="matrix(1.9098902,0,0,1.9848398,480.38104,-271.85216)" id="g20662">
                    <g transform="matrix(2.2391378,0,0,2.3364826,170.90682,712.76034)" id="g20720">
                      <path id="path20732" d="m -103.68683,161.33325 c 0,-1.33288 6.639512,-5.83607 14.136938,-9.58825 7.752928,-3.88006 8.472231,-4.30446 10.47954,-6.18314 1.036259,-0.96985 2.738304,-2.38662 3.782328,-3.14838 5.152574,-3.7595 14.596405,-14.1913 16.552936,-18.28463 0.27034,-0.56559 0.869495,-1.33019 1.331454,-1.6991 0.461963,-0.36892 0.839933,-1.013 0.839933,-1.43129 0,-0.41829 0.526988,-1.5808 1.171088,-2.58336 1.380849,-2.14933 1.935792,-5.4933 2.727215,-16.43358 0.29699,-4.105445 -0.22637,-8.484262 -1.204326,-10.07638 -0.170214,-0.277101 -0.34867,-1.6793 -0.396573,-3.115995 -0.06351,-1.904854 -0.536811,-3.368513 -1.747938,-5.405403 -0.913461,-1.53628 -1.896544,-2.933411 -2.184628,-3.104734 -0.288085,-0.171324 -0.747714,-0.878207 -1.021389,-1.570858 -0.273681,-0.692645 -0.983491,-1.381622 -1.577358,-1.53106 -0.796957,-0.20054 -1.005953,-0.554675 -0.797951,-1.352124 0.329338,-1.262631 -0.916901,-3.278215 -3.003383,-4.857465 -1.918827,-1.452354 -5.620705,-1.891317 -6.57909,-0.780139 -0.383907,0.445109 -1.240118,0.809289 -1.902701,0.809289 -0.662583,0 -1.870715,0.532315 -2.684736,1.182922 -2.182827,1.744609 -3.856876,2.007139 -11.966007,1.876539 -5.885328,-0.09478 -7.783689,0.05084 -9.555524,0.733017 -2.276387,0.876438 -2.682138,1.409942 -1.573651,2.069154 0.350602,0.208501 5.239626,0.420649 10.8645,0.471439 5.624873,0.05079 10.36935,0.120297 10.543282,0.154461 0.995586,0.195552 3.087099,2.709095 3.087099,3.710012 0,0.778219 0.798171,1.818912 2.356156,3.072046 1.792951,1.442127 2.356157,2.242589 2.356157,3.348714 0,1.915953 0.860463,4.026723 2.204221,5.407096 0.918079,0.943094 1.037609,1.520531 0.768075,3.710395 -0.398667,3.239002 0.626162,5.500984 2.492306,5.500984 0.75153,0 1.788118,0.61653 2.602621,1.54796 1.097257,1.25477 1.248339,1.73729 0.797679,2.54755 -0.745205,1.33985 -1.743011,1.64428 -3.099607,0.94567 -0.890308,-0.45849 -1.38352,-0.4143 -2.378645,0.21311 -1.774584,1.11884 -2.354162,1.00513 -4.487473,-0.88045 -1.730811,-1.52982 -1.917304,-1.97088 -2.263732,-5.3538 -0.20764,-2.027659 -0.575536,-4.053651 -0.817545,-4.502211 -0.242008,-0.448565 -0.956845,-2.265931 -1.588526,-4.038598 -0.883794,-2.48017 -1.851687,-3.918815 -4.199356,-6.241784 -3.751504,-3.712032 -4.218332,-3.805445 -18.042101,-3.61022 -8.708208,0.122977 -10.349058,0.01708 -13.164048,-0.849661 -1.7687,-0.544583 -3.60964,-1.408874 -4.09096,-1.920648 -0.82809,-0.88048 -0.76076,-1.039475 1.25236,-2.957317 2.15173,-2.049884 2.817,-4.121104 1.3237,-4.121104 -1.06137,0 -3.15336,1.289097 -5.79575,3.571382 -1.18197,1.020893 -2.66797,2.014651 -3.30222,2.208354 -0.68529,0.209292 -1.08661,0.684746 -0.98913,1.171843 0.11441,0.571658 1.36608,1.083357 4.13675,1.691169 2.18498,0.479329 5.24647,1.422881 6.8033,2.096779 3.83415,1.659676 7.5241,2.729203 10.77485,3.123083 3.806542,0.461221 4.375779,1.001633 4.513902,4.285303 0.08703,2.069084 0.403537,3.044936 1.252575,3.861914 1.452094,1.397261 2.102906,5.281496 1.260518,7.523126 -0.561472,1.49409 -0.481374,1.8508 0.843425,3.75616 3.73022,5.36489 3.564776,4.9198 2.388509,6.42571 -0.736184,0.9425 -1.529517,1.34642 -2.644445,1.34642 -2.472017,0 -2.598621,0.65512 -0.486447,2.51705 2.13318,1.88046 2.2214,2.14065 1.349889,3.98118 -0.803166,1.6962 -1.734058,1.94466 -3.949216,1.05405 -1.026986,-0.41289 -2.636026,-0.75072 -3.575646,-0.75072 -1.210934,0 -1.941004,-0.34158 -2.507184,-1.17305 -0.80866,-1.18756 -0.81253,-1.8217 -0.059,-9.65906 0.1865,-1.9397 0.34076,-3.86681 0.34281,-4.28246 0.009,-1.83294 -0.78512,-6.922088 -1.2749,-8.169776 -0.53719,-1.368463 -5.81435,-5.937154 -6.85783,-5.937154 -0.30421,0 -0.96676,-0.360215 -1.47234,-0.800478 -0.93854,-0.817295 -1.97454,-1.112417 -8.83026,-2.515472 -2.14915,-0.439834 -4.5053,-1.091035 -5.2359,-1.447114 -0.7306,-0.356079 -2.85987,-1.015468 -4.73171,-1.465302 -2.41474,-0.580309 -3.68218,-1.184806 -4.36329,-2.08104 -0.52797,-0.694736 -1.19741,-1.263155 -1.48764,-1.263155 -0.76615,0 -11.36129,10.561104 -12.11172,12.072808 -0.36914,0.743627 -1.17285,1.351732 -1.92131,1.453704 -0.70768,0.09642 -1.85642,0.606538 -2.55276,1.133593 -0.69633,0.527055 -1.49243,0.958284 -1.76911,0.958284 -0.27668,0 -1.17082,0.457543 -1.98699,1.016757 -0.87755,0.601273 -1.61424,0.8139 -1.8028,0.520324 -0.17537,-0.273039 -1.00304,-0.36477 -1.83926,-0.20384 9.95092,-3.425118 -13.41957,14.090781 -0.1745,-8.881946 0.3546,-0.68803 0.99897,-1.500222 1.43195,-1.804861 0.90939,-0.63986 4.138,-5.085856 4.64403,-6.395135 0.18835,-0.487324 0.92514,-1.141508 1.63732,-1.453745 1.71956,-0.7539 2.07648,-1.82522 1.09048,-3.273211 -0.92194,-1.353933 -1.19928,-1.40693 -3.23816,-0.618806 0,0 -13.56702,-40.668968 -5.51378,-66.243828 2.76953,2.17591 6.97126,5.59992 9.33719,7.6089 3.0175,2.56225 4.7134,3.65268 5.68084,3.65268 2.81509,0 15.07852,-5.12917 21.74619,-9.09533 4.10498,-2.44179 9.19513,-5.0116004 9.92672,-5.0116004 0.29257,0 1.07577,0.8502 1.74044,1.88932 1.12432,1.7577204 1.17837,2.1876304 0.77594,6.1717904 -0.2379,2.35535 -0.52222,6.12978 -0.63181,8.38761 l -0.19926,4.10516 2.17874,0.76293 c 1.1983,0.41962 3.05901,1.02606 4.13491,1.34766 1.07589,0.32159 2.09116,0.7949 2.25616,1.05178 0.16499,0.25688 0.97249,0.46706 1.79445,0.46706 1.38211,0 1.58113,-0.25567 2.647168,-3.40078 0.63399,-1.87042 1.184597,-4.42101 1.223573,-5.66796 0.06448,-2.06259 0.197205,-2.28124 1.470865,-2.42291 1.658692,-0.1845 4.748289,1.23834 9.071632,4.17774 1.727848,1.17474 4.084004,2.6344 5.235903,3.24369 2.199027,1.16314 5.869207,3.51578 9.470859,6.07093 3.412589,2.42104 4.705181,2.43472 8.107717,0.0858 2.91276,-2.01076 6.629686,-6.15328 7.849284,-8.74805 0.905618,-1.92675 5.167622,-3.10469 9.239825,-2.55372 1.619423,0.21911 3.033457,0.656 3.142296,0.97086 0.108839,0.31486 -1.008346,1.28665 -2.482624,2.15953 -2.519559,1.49176 -2.670327,1.69698 -2.510841,3.41776 0.152794,1.64858 -0.02011,1.93497 -1.738079,2.87866 -2.707842,1.48745 -4.688987,2.81142 -6.256926,4.18142 -0.746906,0.65261 -2.5115,1.6079 -3.921325,2.122844 -1.845692,0.674155 -2.644194,1.268354 -2.852195,2.122443 -0.287147,1.179068 -3.054401,2.876938 -4.767824,2.925334 -0.471221,0.0133 -2.12053,-1.126383 -3.665132,-2.532652 -1.544597,-1.40627 -5.046709,-3.839719 -7.782469,-5.407679 -2.735759,-1.56795 -5.209724,-3.09425 -5.497698,-3.39177 -0.915048,-0.94538 -4.361869,-3.25445 -4.858023,-3.25445 -1.000163,0 -2.095838,1.85361 -2.434318,4.11828 -0.343837,2.30052 -0.293918,2.41293 2.161208,4.8663 2.578426,2.576579 5.51282,4.102425 7.943923,4.130734 0.756766,0.0088 1.839886,0.35353 2.406934,0.766037 0.567054,0.412507 1.864091,0.965866 2.882302,1.229686 1.018216,0.263825 2.637167,1.110976 3.597662,1.882555 l 1.746363,1.402874 -0.60991,4.027015 c -0.628696,4.151005 -0.407395,5.469021 1.257769,7.491023 1.556859,1.89048 8.330081,2.34365 12.870991,0.861142 3.721806,-1.215085 11.606867,-5.244252 13.410269,-6.852482 0.771746,-0.688222 1.737912,-1.25131 2.147035,-1.25131 1.587897,0 9.349072,-6.211751 10.697934,-8.562223 2.204928,-3.842209 6.533287,-9.422231 8.956212,-11.546141 1.271193,-1.11432 1.963464,-2.16652 1.963464,-2.98433 0,-0.69475 0.399033,-1.68746 0.886742,-2.20602 0.952584,-1.01285 2.234029,-4.15316 2.246915,-5.5063 0.0042,-0.45528 0.361308,-0.95828 0.79327,-1.11778 0.431962,-0.1595 0.785386,-0.82908 0.785386,-1.48795 0,-0.65888 0.335328,-1.85626 0.745174,-2.66086 1.008618,-1.98011 1.130305,-3.6856 0.643576,-9.0202004 -0.437921,-4.79964 -1.342224,-7.67824 -3.956846,-12.59547 -0.88405,-1.6626 -1.610349,-3.41967 -1.613993,-3.9045996 -0.0037,-0.48492 -0.216709,-0.88168 -0.473462,-0.88168 -0.256758,0 -0.606616,-0.53593 -0.777469,-1.19095 -0.170852,-0.65502 -1.255664,-2.12795 -2.410693,-3.27319 -2.328328,-2.30859 -3.108111,-5.17301 -1.495956,-5.49517 0.876281,-0.17512 5.674536,3.69551 5.674536,4.57749 0,0.26038 0.824655,1.35174 1.832567,2.42525 1.007911,1.07351 1.832566,2.24222 1.832566,2.59715 0,0.35492 0.765751,1.8101296 1.701668,3.2337996 3.029881,4.60891 3.725555,5.91997 3.821498,7.202 0.05184,0.69274998 0.388813,2.53654 0.748812,4.0973 0.495243,2.1471 0.5235226,4.10903 0.11618,8.0611104 -0.584662,5.67249 -1.48785,8.05534 -6.46755,17.06309 -0.229778,0.41565 -0.783454,1.54924 -1.230385,2.5191 -1.0718,2.32584 -1.993911,3.81881 -3.056328,4.94843 -0.478389,0.50866 -0.869799,1.17752 -0.869799,1.48636 0,0.30884 -0.43048,0.857789 -0.956625,1.219878 -0.526146,0.362085 -1.174089,1.015039 -1.439874,1.451004 -0.265785,0.43597 -2.721596,2.806599 -5.457356,5.268067 -2.735759,2.461474 -5.175926,4.858564 -5.422589,5.326879 -0.246663,0.468309 -1.150998,0.986674 -2.009634,1.151916 -0.858636,0.165243 -2.633822,1.208984 -3.94486,2.319427 -1.311034,1.110442 -2.662876,2.018984 -3.0041,2.018984 -0.341218,0 -1.141097,0.533332 -1.77751,1.185178 -0.636409,0.651852 -2.065172,1.446969 -3.175021,1.766929 -1.109849,0.319965 -2.404525,1.149528 -2.877061,1.843474 -0.665205,0.9769 -1.147956,1.19198 -2.138479,0.952762 -1.949546,-0.470829 -5.924665,1.58443 -6.910004,3.572686 -0.765903,1.54547 -0.749096,1.696263 0.301766,2.707443 0.612066,0.588954 1.149726,1.467579 1.194796,1.952505 0.04508,0.484926 0.127583,1.493118 0.183356,2.240422 0.121489,1.628001 1.013079,3.004857 3.82433,5.905807 1.790265,1.847393 2.066423,2.418926 1.834179,3.796034 -0.182278,1.080828 0.09381,2.313824 0.828315,3.699205 0.605946,1.142904 1.101723,2.755931 1.101723,3.584501 0,0.911147 0.362104,1.701241 0.916283,1.99929 1.129436,0.607429 1.627036,6.985269 1.085738,13.916112 -0.194771,2.49391 -0.516255,6.80156 -0.714403,9.57256 -0.300703,4.20513 -0.61436,5.49638 -1.896962,7.8092 -2.463707,4.44261 -3.713837,6.27224 -5.804638,8.49537 -1.079905,1.14825 -1.963464,2.38268 -1.963464,2.74317 0,0.3605 -0.853488,1.43676 -1.896643,2.39169 -1.043154,0.95494 -2.280136,2.31978 -2.748849,3.03298 -0.855766,1.30215 -7.638376,7.18221 -11.062217,9.59018 -1.007912,0.70886 -3.433606,2.17679 -5.390436,3.26206 -1.95683,1.08528 -4.430794,2.47703 -5.497698,3.09278 -6.110462,3.52658 -16.862156,7.56836 -16.862156,6.33883 z M -119.17327,25.526987 c 0.59263,-2.785 0.7793,-7.24454 0.33141,-7.91707 -0.40972,-0.61521 -1.32333,-0.32954 -5.5041,1.72105 -6.99621,3.4315 -7.36882,4.04193 -3.31223,5.42628 5.96451,2.03542 8.17296,2.23577 8.48492,0.76974 z" style="fill:#cdb295"/>
                      <path id="path20730" d="m -69.129869,139.29808 c 0,-0.79795 0.379163,-1.3414 1.086638,-1.55746 1.54133,-0.47073 1.809675,0.032 0.804785,1.50778 -1.097566,1.61184 -1.891423,1.63269 -1.891423,0.0497 z m 7.853855,-8.82105 c 0,-0.26075 0.235615,-0.61421 0.52359,-0.78547 0.287975,-0.17125 0.52359,0.0421 0.52359,0.47409 0,0.432 -0.235615,0.78546 -0.52359,0.78546 -0.287975,0 -0.52359,-0.21334 -0.52359,-0.47408 z m 2.094361,-3.05265 c 0,-0.2771 0.221709,-0.50382 0.492688,-0.50382 0.270979,0 0.638309,0.22672 0.816288,0.50382 0.177979,0.2771 -0.04372,0.50382 -0.492688,0.50382 -0.448958,0 -0.816288,-0.22672 -0.816288,-0.50382 z m -36.913118,-7.05367 c -0.863924,-0.55044 -2.428789,-1.00229 -3.477472,-1.00412 -2.416517,-0.004 -2.856327,-1.27132 -1.669127,-4.80883 1.13105,-3.37021 1.14853,-15.868929 0.0245,-17.514684 -1.61652,-2.366786 -7.26494,-7.405122 -8.30182,-7.405122 -0.59127,0 -1.70044,-0.321769 -2.4648,-0.715045 -2.20759,-1.13583 -5.75742,-2.306896 -7.02895,-2.318802 -0.64212,-0.006 -3.50411,-0.79953 -6.35999,-1.763366 -2.85588,-0.963841 -5.85549,-1.752434 -6.6658,-1.752434 -1.13026,0 -1.54891,-0.289882 -1.79803,-1.244997 -0.27165,-1.041439 0.13335,-1.651302 2.47708,-3.730069 1.54099,-1.366791 2.6581,-2.626323 2.48245,-2.798967 -0.73173,-0.719181 -8.77259,5.458698 -19.83887,15.242394 -1.29588,1.145695 -2.82738,2.23147 -3.40333,2.412835 -0.57595,0.181364 -2.22526,1.229046 -3.66514,2.328172 -2.39127,1.825387 -2.82196,1.975041 -4.9741,1.728432 0,0 0,0 -2.15448,-4.173712 1.42664,0.289676 2.22702,-0.436867 7.12858,-6.47096 1.72785,-2.127079 4.61414,-5.265241 6.41399,-6.973702 1.79984,-1.708455 3.27243,-3.41555 3.27243,-3.793535 0,-0.865067 -6.97389,-0.576792 -13.61334,0.562725 18.78101,-23.747012 -20.26387,-43.554526 0.74336,-52.566846 0.61853,-0.5725 -3.64996,-5.17237 -5.58121,-6.0145 18.45119,58.018621 5.58121,6.0145 3.53255,-6.8053 5.55542,4.3129 14.1451,11.5468 14.6567,12.34332 0.19723,0.30708 0.63591,0.30833 1.20251,0.003 1.68008,-0.90402 8.10484,-3.52991 8.63668,-3.52991 0.29225,0 2.02741,-0.68016 3.85591,-1.51146 1.8285,-0.8313 3.46425,-1.51146 3.63501,-1.51146 0.17076,0 1.05369,-0.50965 1.96207,-1.13255 0.90837,-0.62291 2.28144,-1.4731 3.05124,-1.88932 0.76982,-0.41622 3.12597,-1.71733 5.23591,-2.89134 2.10994,-1.1740104 4.24252,-2.1375704 4.73909,-2.1412304 2.10047,-0.0155 3.02776,4.3556104 1.92244,9.0620804 -0.29286,1.24695 -0.60469,4.34738 -0.69296,6.88985 l -0.16051,4.62265 2.15563,0.74031 c 1.1856,0.40718 3.89754,1.36607 6.02653,2.13089 2.75203,0.98864 4.10508,1.24842 4.68113,0.89878 1.139069,-0.69137 3.194485,-7.0028 3.213157,-9.86642 0.01178,-1.80789 0.211928,-2.39314 0.818392,-2.39314 1.209672,0 5.514197,2.21833 8.358916,4.30776 1.388697,1.01999 3.138159,2.11172 3.887694,2.42607 0.749541,0.31435 2.921189,1.64845 4.825896,2.96468 1.904701,1.31623 3.637686,2.39314 3.851075,2.39314 0.213384,0 1.129148,0.62618 2.035023,1.39152 0.905874,0.76534 2.617469,1.69969 3.803543,2.07635 2.155799,0.68461 2.15748,0.68413 5.156239,-1.49447 3.286451,-2.38759 7.459429,-7.00533 8.22042,-9.09655 0.373917,-1.02752 1.069051,-1.48592 3.062527,-2.01954 2.694915,-0.72139 7.30773,-0.64915 7.30773,0.11444 0,0.24357 -0.938693,0.90365 -2.085984,1.46686 -2.039615,1.00123 -3.015818,2.64643 -2.71523,4.57596 0.06797,0.43627 -0.450136,1.04474 -1.151333,1.35217 -0.701203,0.30742 -2.749556,1.65086 -4.551901,2.98543 -1.802344,1.33456 -4.476152,2.99327 -5.941792,3.68602 -1.644152,0.777127 -2.738141,1.645489 -2.856274,2.267186 -0.507615,2.67143 -3.35257,2.360463 -7.464754,-0.815924 -1.836545,-1.418612 -3.928215,-2.827722 -4.648152,-3.131352 -1.627973,-0.6866 -7.52969,-4.48261 -7.766588,-4.99551 -0.096,-0.20783 -0.415511,-0.37786 -0.710041,-0.37786 -0.29453,0 -1.39407,-0.6425 -2.443423,-1.42776 -1.049349,-0.78526 -2.3084,-1.56729 -2.797884,-1.73784 -1.296336,-0.45167 -3.036954,2.4986 -3.036954,5.14751 0,1.16318 -0.237868,2.54256 -0.528602,3.06528 -0.41428,0.74486 -0.279691,1.17353 0.622324,1.98215 0.633005,0.56747 1.358738,1.031759 1.612742,1.031759 0.253999,0 1.564362,0.871305 2.911911,1.936227 1.974768,1.560594 3.16114,2.055914 6.115226,2.553153 4.223468,0.710904 7.442407,1.971544 8.80346,3.447724 0.839687,0.910718 0.88149,1.341977 0.361146,3.725832 -0.323647,1.482749 -0.714235,3.289389 -0.867966,4.014762 -0.703685,3.320263 3.039447,6.250424 8.7136,6.821095 1.731393,0.174135 3.147988,0.505799 3.147988,0.737037 0,0.231237 -0.589039,0.791812 -1.308976,1.245722 -1.636073,1.031514 -1.647948,1.738785 -0.0534,3.180227 1.079068,0.975449 2.184665,4.078818 1.45311,4.078818 -0.138322,0 -1.559592,-0.595464 -3.158381,-1.323251 -2.823398,-1.285247 -2.997732,-1.303062 -6.069521,-0.620206 -2.537691,0.564126 -3.294389,0.967569 -3.829404,2.041686 -1.564074,3.140107 -9.473472,3.785167 -14.625789,1.192827 l -2.666457,-1.341605 -3.06536,1.956702 c -1.685945,1.076188 -3.947303,2.50455 -5.025243,3.174146 -1.07793,0.66959 -1.96149,1.361354 -1.96346,1.537252 -0.01,0.847917 18.852726,1.767261 21.550908,1.050392 1.517427,-0.403161 2.317756,-0.319154 4.043824,0.424448 1.914749,0.824887 2.151977,1.117596 2.151977,2.655287 0,1.37467 0.365607,1.996534 1.787244,3.039923 3.079507,2.260157 3.448659,2.803113 3.448659,5.072318 0,1.643609 0.376587,2.617904 1.570771,4.063845 1.844803,2.233721 1.789878,1.922512 0.721586,4.088763 -0.824288,1.671465 -0.808716,1.780798 0.53102,3.72883 0.994162,1.44556 1.744242,2.00688 2.681751,2.00688 1.793868,0 3.678479,1.83631 2.859332,2.78606 -0.516438,0.59877 -0.797318,0.58313 -1.889045,-0.10519 -1.030499,-0.64971 -1.540162,-0.69552 -2.594574,-0.23325 -0.72169,0.31641 -1.649068,0.57529 -2.060841,0.57529 -1.27677,0 -2.42782,-2.34107 -3.407044,-6.92942 -1.351193,-6.331301 -4.169355,-12.73536 -6.107199,-13.878147 -0.37576,-0.221595 -0.683202,-0.723736 -0.683202,-1.115869 0,-1.882801 -3.772191,-2.379899 -18.849252,-2.483958 -10.126315,-0.06989 -12.651935,-0.231389 -14.267835,-0.912351 -1.07991,-0.455085 -1.96346,-1.151383 -1.96346,-1.547334 0,-0.395951 1.53253,-2.014596 3.40563,-3.596985 1.87309,-1.58239 3.27288,-3.083745 3.11064,-3.33635 -0.16225,-0.2526 -1.56651,-0.459277 -3.12059,-0.459277 -3.20881,0 -5.08336,0.98471 -12.31378,6.468477 -2.45999,1.865727 -2.01413,2.436343 3.0277,3.874897 2.51978,0.71895 5.7595,1.725187 7.19937,2.236075 4.20112,1.490629 7.22645,2.44393 8.74529,2.755688 0.77826,0.159746 2.06568,0.828984 2.86092,1.487198 1.286056,1.064439 1.378669,1.338748 0.837721,2.481168 -0.737021,1.556498 0.181608,2.901856 3.485981,5.105318 1.855138,1.237063 2.133955,1.670302 2.133955,3.31584 0,1.21777 -0.280105,1.99628 -0.785385,2.18286 -1.256125,0.46381 -0.944803,3.32093 0.594798,5.45868 0.759102,1.05402 1.589589,1.9164 1.845525,1.9164 0.255937,0 0.703884,0.60372 0.995429,1.34159 0.808319,2.04576 -0.151778,2.62376 -2.412369,1.45232 -2.297221,-1.19042 -2.719832,-0.81051 -3.166512,2.84653 l -0.348826,2.85587 2.031363,0.16026 c 1.857044,0.14651 2.031363,0.28637 2.031363,1.62974 0,1.86099 -0.64188,2.05652 -2.617952,0.79751 z M -118.94341,26.996497 c 0.31864,-0.36944 0.73634,-2.9767 0.9282,-5.79391 0.34204,-5.02218 0.32668,-5.12221 -0.78654,-5.12221 -0.62446,0 -3.85161,1.45797 -7.17144,3.23993 -3.31983,1.78195 -6.70755,3.38183 -7.52827,3.55529 -0.82071,0.17345 -1.90116,0.75019 -2.40098,1.28163 -0.86936,0.92436 -0.85468,0.98588 0.3384,1.41807 0.68595,0.24849 3.83002,0.61942 6.98683,0.8243 3.15681,0.20489 6.21981,0.55977 6.80668,0.78863 1.55234,0.60539 2.1761,0.56309 2.82712,-0.19173 z m 64.99766,92.144603 c 0,-0.3993 0.235616,-0.86612 0.523591,-1.03737 0.287974,-0.17126 0.52359,0.15544 0.52359,0.72599 0,0.57055 -0.235616,1.03737 -0.52359,1.03737 -0.287975,0 -0.523591,-0.32669 -0.523591,-0.72599 z m -6.021288,-58.220828 c 0.177978,-0.277101 0.55921,-0.503819 0.847185,-0.503819 0.287974,0 0.377974,0.226718 0.199995,0.503819 -0.177979,0.2771 -0.55921,0.503819 -0.847185,0.503819 -0.287974,0 -0.377974,-0.226719 -0.199995,-0.503819 z m 32.4626,-21.664217 c 0.177979,-0.2771 0.545309,-0.503819 0.816288,-0.503819 0.270979,0 0.492688,0.226719 0.492688,0.503819 0,0.2771 -0.36733,0.503819 -0.816288,0.503819 -0.448958,0 -0.670667,-0.226719 -0.492688,-0.503819 z m 12.087125,-19.019168 c 0.194582,-1.03913 0.614721,-2.20424 0.933635,-2.58914 0.318908,-0.3849 0.50694,-1.23509 0.417846,-1.88932 -0.0891,-0.65423 0.09048,-1.1895 0.399064,-1.1895 0.792182,0 0.69925,1.26559 -0.340365,4.63539 -1.006257,3.26166 -1.958112,3.95863 -1.41018,1.03257 z m 2.394279,-15.2405204 c 0,-0.69275 0.118844,-0.97615 0.264093,-0.62978 0.14525,0.34638 0.14525,0.91317 0,1.25955 -0.145249,0.34638 -0.264093,0.063 -0.264093,-0.62977 z" style="fill:#b08d6f"/>
                      <path id="path20728" d="m -95.483914,120.03503 c -0.617637,-0.59431 -0.371911,-1.67939 0.380305,-1.67939 0.608537,0 1.364995,1.00006 1.364995,1.80457 0,0.33957 -1.363979,0.24175 -1.7453,-0.12518 z m -5.217806,-1.49404 c -0.88025,-0.847 0.19026,-5.22354 1.277679,-5.22354 0.600872,0 1.08811,2.11835 0.883098,3.83941 -0.163847,1.37548 -1.368094,2.14688 -2.160777,1.38413 z m 0.876918,-7.05635 c -0.271658,-1.04151 -0.07561,-1.52952 0.906308,-2.25599 2.29274,-1.69627 2.74541,-0.81192 0.996895,1.94757 -1.256025,1.98224 -1.458073,2.01498 -1.903203,0.30842 z m 5.743278,-0.45611 c -0.170528,-0.4276 -0.173293,-0.90904 -0.0062,-1.06988 0.528329,-0.50837 1.919833,0.27137 1.919833,1.0758 0,1.00564 -1.512139,1.00097 -1.91368,-0.006 z m -4.255418,-3.83475 c 0.129023,-0.37284 0.654525,-0.75622 1.167779,-0.85196 0.596904,-0.11134 0.848662,0.0702 0.698611,0.50382 -0.129023,0.37284 -0.654524,0.75622 -1.167779,0.85196 -0.596903,0.11134 -0.848661,-0.0702 -0.698611,-0.50382 z m -0.820623,-2.31865 c -0.135625,-0.21116 -0.417783,-2.27228 -0.62701,-4.58027 -0.209226,-2.30798 -0.642695,-4.390088 -0.963255,-4.626898 -2.51598,-1.858638 -8.99677,-7.846174 -9.14423,-8.448243 -0.14828,-0.605465 0.15621,-0.678 1.57077,-0.374192 0.9651,0.207272 2.66363,0.554302 3.77453,0.771181 1.1109,0.216874 2.50806,0.864125 3.1048,1.438338 0.93251,0.897296 0.99813,1.227444 0.46691,2.349323 -0.78205,1.651589 0.24259,3.806055 2.223058,4.674347 0.741535,0.325104 1.348245,0.931722 1.348245,1.348033 0,0.416311 0.601663,0.902234 1.33703,1.07983 1.711386,0.413313 1.606836,2.386881 -0.139097,2.625791 -0.971155,0.13289 -1.110137,0.38986 -0.860494,1.59096 0.23006,1.10685 0.05424,1.55785 -0.773459,1.9841 -0.589159,0.3034 -1.182167,0.37887 -1.317798,0.1677 z m 29.273176,-1.22981 c -1.147804,-2.62674 -0.468268,-3.14185 1.832058,-1.38876 2.205279,1.68066 2.271299,2.99978 0.150145,2.99978 -0.941986,0 -1.463419,-0.42379 -1.982203,-1.61102 z m -0.958055,-4.235378 c -0.209986,-0.202052 -0.381786,-0.715 -0.381786,-1.139891 0,-0.567093 0.154893,-0.623476 0.582494,-0.212022 0.320369,0.308272 0.492175,0.821225 0.381786,1.139891 -0.110394,0.318665 -0.372513,0.414073 -0.582494,0.212022 z m -91.447646,-3.688771 c -14.7032,-7.205881 -0.41091,3.318823 4.04147,-4.69969 0.37902,-0.760938 1.00415,-1.383527 1.38918,-1.383527 0.38503,0 0.84718,-0.56404 1.02699,-1.253421 0.20569,-0.788597 1.10051,-1.633164 2.41292,-2.277423 1.14729,-0.563204 2.08598,-1.366594 2.08598,-1.785308 0,-1.052281 1.41821,-1.478703 2.37548,-0.714244 0.43525,0.347585 0.96202,0.467771 1.17058,0.26708 0.20858,-0.200691 -0.0916,-0.700455 -0.66713,-1.110584 -1.03398,-0.736865 -1.03434,-0.754257 -0.03,-1.470264 0.559,-0.398516 1.33058,-0.724578 1.71463,-0.724578 0.66686,0 1.58856,-1.70191 2.00924,-3.710022 0.22301,-1.064549 1.80248,-2.377728 2.58782,-2.151524 0.28676,0.0826 0.52237,0.525826 0.52359,0.984951 0.001,0.459131 0.12003,0.883064 0.26402,0.942081 0.58066,0.237994 4.68624,-1.900234 4.6988,-2.447195 0.0212,-0.922865 -1.17023,-1.098058 -2.6354,-0.387512 -0.73697,0.357399 -1.62659,0.479344 -1.97694,0.270994 -1.16675,-0.693864 -9.68595,-0.104829 -16.84135,1.164447 15.96728,-0.527766 -3.3406,-56.323195 5.97183,-50.626855 0.16518,-0.15875 -0.41521,-0.94828 -1.28976,-1.75452 -1.23054,-1.13442 -1.6881,-1.31328 -2.02353,-0.79104 -0.72745,1.13259 -2.58496,0.15703 -5.99914,-3.15078 l 0.75793,-7.38292 c 3.00433,2.34617 6.16926,4.86622 7.03319,5.60012 5.44201,4.62294 6.59498,5.76917 6.87223,6.83211 0.38021,1.45767 0.36299,1.45767 1.9984,-5e-4 1.61325,-1.43888 8.64807,-4.35393 10.50669,-4.35393 0.73555,0 1.47298,-0.34008 1.63874,-0.75573 0.16576,-0.41565 0.78192,-0.75573 1.36924,-0.75573 0.58733,0 2.33471,-0.80913 3.88306,-1.79806 3.06187,-1.9556 4.53327,-2.07286 4.78489,-0.3813 0.11409,0.76704 -0.1929,1.19296 -1.04718,1.45285 -0.66474,0.20222 -1.9377,0.90185 -2.8288,1.55473 -0.89111,0.65288 -1.98143,1.18706 -2.42295,1.18706 -0.44151,0 -1.09089,0.33407 -1.44306,0.74239 -0.35217,0.40832 -1.48671,0.89519 -2.52118,1.08193 -2.3628,0.42652 -5.20061,2.01435 -5.92371,3.31446 -0.30387,0.54634 -0.46542,1.07712 -0.35901,1.17951 0.10641,0.10239 3.36521,0.31196 7.24179,0.46571 3.87657,0.15375 8.29967,0.52294 9.82912,0.82042 3.70504,0.72066 4.28766,0.43855 4.28766,-2.07605 0,-1.13329 0.25133,-3.61922 0.55851,-5.52427 0.4764,-2.95452 0.43432,-3.6461 -0.28618,-4.70421 -0.90646,-1.33119 -3.00763,-2.22621 -2.55362,-1.08775 0.43123,1.08132 -0.88067,1.41899 -1.6405,0.42225 -0.96489,-1.26572 -0.0791,-2.16121 4.25874,-4.30561 l 3.36755,-1.6647104 1.05255,1.2595504 c 0.91038,1.08943 1.01186,1.74213 0.75134,4.83279 -0.16565,1.96529 -0.74735,4.41534 -1.29267,5.44455 -0.93131,1.75773 -0.93912,1.95909 -0.12862,3.31797 0.73269,1.22844 0.76452,1.70836 0.21097,3.18137 -0.88084,2.34392 -0.4035,3.23155 1.89036,3.51522 1.85268,0.22911 7.20099,2.13163 10.14587,3.60913 1.35919,0.68193 1.45215,0.64288 2.48705,-1.04491 0.591296,-0.96433 1.075083,-2.09535 1.075083,-2.51337 0,-0.41803 0.241302,-1.19391 0.53623,-1.72417 0.294922,-0.53027 0.665823,-2.38372 0.82422,-4.11877 0.158402,-1.73507 0.34336,-3.20793 0.411018,-3.27304 0.367974,-0.35407 5.334836,1.89238 6.522931,2.95024 2.346915,2.08966 4.991601,3.81223 6.36613,4.14645 1.285838,0.31266 5.234757,3.50161 5.237097,4.22922 5.24e-4,0.20409 0.746279,0.39711 1.656933,0.42892 1.683977,0.0588 3.054186,1.25143 3.054186,2.65831 0,0.59127 -0.139626,0.62585 -0.628308,0.15562 -0.34557,-0.33252 -1.380231,-0.60458 -2.299242,-0.60458 -1.33114,0 -2.268,-0.57452 -4.606951,-2.82515 -2.059124,-1.98137 -3.196236,-2.72906 -3.807298,-2.50343 -0.975632,0.36025 -3.84232,-1.9589 -3.84232,-3.10843 0,-0.42618 -0.250947,-0.54088 -0.654488,-0.29915 -0.359968,0.21563 -1.178335,0.32694 -1.818586,0.24735 -1.597459,-0.19857 -3.281885,2.52784 -3.284462,5.31623 -10e-4,1.16464 -0.276455,2.69723 -0.611951,3.40576 -0.528502,1.11613 -0.446355,1.45585 0.614857,2.542803 0.673673,0.690011 1.436031,1.254565 1.69414,1.254565 0.258104,0 1.656278,0.963554 3.107053,2.141231 2.467665,2.003149 2.940122,2.17746 7.326442,2.703084 4.197446,0.502983 4.872715,0.73349 6.445256,2.200102 1.522009,1.419485 1.720224,1.882681 1.484352,3.468698 -0.149726,1.006747 -0.683118,2.397418 -1.185319,3.090381 -0.871794,1.202933 -0.867967,1.36218 0.08458,3.520344 1.200603,2.720189 2.360131,4.036558 3.555613,4.036558 1.614763,0 5.233312,2.923208 5.233312,4.227676 0,0.722386 0.519967,1.526274 1.308975,2.02373 0.719937,0.453911 1.308976,1.04678 1.308976,1.317492 0,0.679994 -2.472906,0.621813 -2.916356,-0.06862 -0.347224,-0.540597 -2.71092,-0.430049 -7.686348,0.359485 -1.624826,0.25784 -1.963464,0.517302 -1.963464,1.504389 0,1.747012 -1.990585,2.735515 -6.190963,3.074364 -3.437433,0.277302 -3.866992,0.193547 -6.589023,-1.284663 -3.617381,-1.964431 -4.618721,-1.973373 -7.124609,-0.06362 -1.095283,0.834722 -2.542884,1.810524 -3.216892,2.168442 -4.091874,2.172926 -5.199654,3.041525 -5.049004,3.958863 0.13779,0.83902 0.68961,0.984251 4.23951,1.115798 4.350976,0.161232 5.678968,0.715272 4.318534,1.801697 -0.567237,0.452989 -1.002796,0.489017 -1.463545,0.121068 -0.457707,-0.365516 -0.908063,-0.346094 -1.490007,0.06426 -0.572614,0.403781 -2.659632,0.508303 -6.658432,0.333478 -4.69782,-0.205387 -6.00469,-0.4313 -6.75654,-1.167959 -0.89521,-0.877138 -0.86991,-0.961755 0.63863,-2.135996 0.86392,-0.672477 1.78195,-1.223806 2.04006,-1.225182 0.48752,-0.0025 5.68146,-4.475419 5.98832,-5.156909 0.32878,-0.73016 -7.96343,-0.409177 -9.33735,0.361439 -0.71994,0.403806 -1.89912,1.023942 -2.62041,1.378076 -2.3907,1.173793 -7.07773,4.353349 -8.37297,5.680005 -1.00728,1.031716 -1.15757,1.487788 -0.71376,2.165943 0.3092,0.472472 1.00816,0.938091 1.55324,1.034703 0.54509,0.09661 1.69791,0.472099 2.56184,0.834415 0.86392,0.362312 2.21871,0.797702 3.01064,0.967529 0.79193,0.169828 1.43987,0.644536 1.43987,1.054907 0,0.88522 0.61038,0.964909 1.42044,0.185445 0.7087,-0.681944 1.72111,-0.166497 1.72111,0.876277 0,0.543097 -0.31423,0.663984 -1.1012,0.423642 -0.60566,-0.184972 -1.96045,-0.392213 -3.01064,-0.460546 -3.02193,-0.196621 -6.02952,-0.85748 -6.88356,-1.51253 -1.07267,-0.822737 -4.533,-1.759568 -7.06847,-1.913681 -1.1519,-0.07002 -2.09436,-0.371416 -2.09436,-0.669782 0,-0.298367 1.29588,-1.557244 2.87974,-2.797511 1.58387,-1.240261 3.18622,-2.86475 3.56079,-3.609968 0.37457,-0.745219 1.14692,-1.594865 1.71633,-1.888097 1.35114,-0.6958 0.71892,-1.656593 -0.84201,-1.27962 -2.59537,0.626801 -10.06251,5.862992 -14.55816,10.208632 -2.53324,2.448707 -6.80171,5.702964 -7.48035,5.702964 -0.33324,0 -0.57318,-0.372357 -0.53318,-0.827457 0.04,-0.455105 -0.22168,-0.927395 -0.58149,-1.049536 -0.95323,-0.323577 -1.44647,1.34818 -0.72552,2.45902 0.51731,0.797067 0.4066,1.155887 -0.67896,2.200445 -0.71337,0.686443 -1.62466,1.24808 -2.02509,1.24808 -0.40041,0 -1.15449,0.453437 -1.67572,1.007638 -0.52122,0.554201 -1.17177,1.007638 -1.44566,1.007638 -0.27389,0 -0.96132,0.566797 -1.52763,1.259548 -1.2599,1.541227 -3.66099,1.677339 -5.1035,0.289298 z m 89.471087,-3.103455 c -0.715858,-1.287086 -0.398311,-1.665182 1.031725,-1.228447 1.232667,0.376464 1.499541,2.279237 0.319672,2.279237 -0.42183,0 -1.029954,-0.472854 -1.351397,-1.05079 z m -2.519386,-5.57116 c -1.192911,-1.663434 -2.168925,-3.226557 -2.168925,-3.47361 0,-0.611314 -1.796433,-1.492277 -3.043008,-1.492277 -0.559624,0 -1.313222,-0.342874 -1.674662,-0.76194 -0.487106,-0.564761 -0.83588,-0.619229 -1.347726,-0.210476 -0.741593,0.592229 -4.406411,-0.359298 -4.406411,-1.144072 0,-0.360709 2.137615,-0.628343 4.162569,-0.521155 0.417579,0.02212 1.411841,-0.284547 2.209473,-0.681446 1.286142,-0.639976 1.693757,-0.621289 3.602338,0.165137 2.076999,0.855822 2.141396,0.952027 1.845368,2.756822 -0.24704,1.506137 -0.113986,1.969318 0.683736,2.380127 0.544754,0.280531 1.48875,1.322701 2.097764,2.31593 0.609014,0.993228 1.326448,1.675545 1.594291,1.516258 1.120017,-0.666069 0.968857,0.690504 -0.155967,1.399685 -1.20121,0.757345 -1.28054,0.704853 -3.39884,-2.248983 z m -17.353045,-6.758989 c 0,-0.432004 0.235616,-0.645341 0.523591,-0.474083 0.287974,0.171258 0.52359,0.524717 0.52359,0.785464 0,0.260746 -0.235616,0.474083 -0.52359,0.474083 -0.287975,0 -0.523591,-0.353459 -0.523591,-0.785464 z m 22.400372,-40.645708 c -3.52892,-2.350572 -3.329788,-3.131502 0.695292,-2.726682 2.905565,0.29222 3.34181,0.20631 4.752483,-0.93587 1.508186,-1.22113 3.763389,-1.67126 4.28721,-0.8557 0.431852,0.67237 -0.351675,1.42606 -2.64587,2.54513 -1.442455,0.703599 -2.245103,1.456088 -2.356156,2.20891 -0.252565,1.712148 -1.9343,1.628368 -4.732959,-0.235788 z m 10.591526,-5.669292 c -0.459163,-0.53236 -0.26179,-1.17291 0.867254,-2.81459 1.337265,-1.94444 1.485185,-2.02966 1.737535,-1.00106 l 0.275827,1.12432 1.436585,-1.08735 c 1.339643,-1.01397 1.436585,-1.02444 1.436585,-0.15525 0,1.38844 -1.488572,3.17159 -2.647639,3.17159 -0.559624,0 -1.017493,0.20246 -1.017493,0.44992 0,0.80087 -1.476839,1.02178 -2.088654,0.31242 z m 6.928613,-9.45322 c 0.250219,-0.73326 2.707423,-1.11241 3.974407,-0.61327 0.771667,0.30401 0.751509,0.39126 -0.175125,0.75789 -1.680029,0.66473 -4.044757,0.57472 -3.799282,-0.14462 z" style="fill:#986f56"/>
                      <path id="path20726" d="m -159.71099,94.646409 c 0,-0.293455 0.23561,-0.393433 0.52359,-0.222174 0.28797,0.171258 0.52359,0.411358 0.52359,0.533554 0,0.122196 -0.23562,0.222174 -0.52359,0.222174 -0.28798,0 -0.52359,-0.2401 -0.52359,-0.533554 z M -79.820039,80.63683 c -0.225547,-0.351162 -0.268686,-0.774536 -0.09586,-0.940837 0.468598,-0.450898 0.979517,0.212259 0.726424,0.942872 -0.177351,0.511966 -0.300682,0.511568 -0.63056,-0.002 z M -164.46695,24.948157 c 9.22933,-0.0353 13.36709,-0.22206 13.50133,-0.60927 0.10645,-0.30708 0.53848,-0.98724 0.96006,-1.51146 0.75136,-0.93429 0.78185,-0.93403 1.54301,0.0132 0.55691,0.69302 0.62008,1.14768 0.22337,1.60765 -0.42403,0.49163 -0.13384,0.71703 1.24312,0.9656 1.47845,0.26688 2.05463,0.0939 3.25643,-0.97787 1.78762,-1.59416 3.57307,-1.86859 2.12249,-0.32624 -1.86889,1.98712 -0.34727,2.40077 10.40989,2.82988 4.01402,0.16012 7.6924,0.49413 8.17418,0.74223 0.48179,0.24811 1.6743,0.55712 2.65001,0.68669 2.14227,0.28447 4.03008,0.74554 5.43917,1.32841 0.57595,0.23825 1.98964,0.53097 3.14154,0.6505 1.99772,0.2073 7.2148,2.02967 10.38334,3.62698 0.81527,0.41099 1.744839,0.74725 2.06571,0.74725 0.320872,0 1.229218,0.59537 2.018541,1.32303 1.391132,1.28246 2.733481,2.144101 4.90525,3.148615 0.57595,0.266399 2.181964,1.500816 3.568923,2.743153 2.428726,2.175486 2.675976,2.271937 6.70326,2.614972 3.403923,0.289938 4.47931,0.597288 5.782893,1.652758 1.472948,1.192605 1.575509,1.478205 1.278817,3.561088 -0.177414,1.245476 -0.660991,2.624338 -1.074628,3.064137 -0.661614,0.703472 -0.472189,1.344078 1.575159,5.326918 1.279964,2.49001 2.915482,4.989239 3.634481,5.553849 0.719,0.564615 1.307275,1.40958 1.307275,1.877708 0,1.219227 -2.252695,2.469988 -4.981664,2.765972 -2.028504,0.220007 -2.348601,0.413408 -2.348601,1.419016 0,1.402022 -0.292352,1.596129 -3.67596,2.440685 -3.134463,0.782366 -5.893397,0.402748 -8.713658,-1.198963 -1.941327,-1.102537 -3.510977,-1.281851 -7.506814,-0.85757 -4.090364,0.434317 -16.397394,0.998755 -23.037974,1.056594 -3.94745,0.03436 -7.53084,0.302422 -8.11565,0.607051 -1.54967,0.807239 -4.45052,1.247088 -4.45052,0.67482 0,-0.570091 -1.7392,-0.665031 -2.29986,-0.125546 -0.20901,0.201124 -1.60307,0.415197 -3.09791,0.475711 -3.24973,0.131562 -8.77691,0.497561 -13.45148,0.890727 -1.87183,0.157433 -5.22312,0.738986 -7.44729,1.292341 -2.22417,0.553354 -4.81594,1.006136 -5.75949,1.006182 -1.77148,9e-5 -9.62748,1.330757 -10.33277,1.750186 16.09226,-2.756368 10.40602,-52.836984 10.40602,-52.836984 z m 53.04025,54.031758 c 0.12902,-0.372836 0.65453,-0.756222 1.16778,-0.851958 0.5969,-0.111344 0.84866,0.07022 0.69861,0.503819 -0.12902,0.372837 -0.65452,0.756223 -1.16778,0.851958 -0.5969,0.111344 -0.84866,-0.07022 -0.69861,-0.503819 z m 17.96696,-53.804198 c -0.460361,-0.71675 0.126704,-1.53805 1.099393,-1.53805 0.458744,0 0.721534,0.35396 0.623586,0.83993 -0.203949,1.01191 -1.24937,1.43549 -1.722979,0.69812 z m -58.91035,-1.28346 z" style="fill:#51578e"/>
                      <path id="path20724" d="m -159.71099,94.646409 c 0,-0.293455 0.23561,-0.393433 0.52359,-0.222174 0.28797,0.171258 0.52359,0.411358 0.52359,0.533554 0,0.122196 -0.23562,0.222174 -0.52359,0.222174 -0.28798,0 -0.52359,-0.2401 -0.52359,-0.533554 z M -79.820039,80.63683 c -0.225547,-0.351162 -0.268686,-0.774536 -0.09586,-0.940837 0.468598,-0.450898 0.979517,0.212259 0.726424,0.942872 -0.177351,0.511966 -0.300682,0.511568 -0.63056,-0.002 z M -166.32244,43.821473 c 1.72671,0.306645 2.06617,0.218864 2.28632,-0.591196 0.2929,-1.07775 0.74863,-1.16888 2.23787,-0.447487 2.52479,1.223026 2.99965,1.402909 4.59149,1.739334 1.4755,0.311834 1.68449,0.226018 1.68449,-0.691663 0,-0.576222 0.24595,-1.047671 0.54654,-1.047671 0.3006,0 0.47731,0.396757 0.3927,0.881683 -0.10928,0.626222 0.22541,0.908401 1.15512,0.973897 3.76404,0.265175 13.03125,0.742176 14.39873,0.741133 8.87087,-0.0068 9.54461,-0.08751 10.9132,-1.307984 0.74185,-0.661565 1.49166,-1.845646 1.66624,-2.631291 0.17458,-0.785645 0.66315,-2.042951 1.08573,-2.794019 0.60729,-1.079392 0.63805,-1.566272 0.14677,-2.323232 -0.49921,-0.76918 -0.4511,-1.19179 0.24443,-2.14731 0.47628,-0.6543 0.86596,-1.60389 0.86596,-2.1102 0,-1.26751 1.4694,-3.89343 2.17866,-3.89343 0.31956,0 1.1422,0.58267 1.8281,1.29483 1.24646,1.29416 3.18927,1.47793 2.91812,0.27602 -0.0904,-0.40056 0.2978,-0.57623 1.04718,-0.4739 0.65492,0.0894 1.19077,0.44801 1.19077,0.79684 0,0.34882 0.8016,1.1033 1.78133,1.67662 0.97973,0.57331 2.90197,2.08519 4.27163,3.35973 2.26685,2.10941 2.46458,2.47884 2.20366,4.117293 -0.15765,0.989974 -0.50826,2.215569 -0.77913,2.723549 -0.35147,0.659137 -0.25566,1.175405 0.33463,1.803038 0.45491,0.483691 0.82712,1.68014 0.82712,2.658773 0,0.978633 0.15138,2.842094 0.3364,4.141025 0.27875,1.956843 0.60511,2.495395 1.90387,3.141649 1.2884,0.641099 1.7844,0.66824 2.78597,0.152455 1.18237,-0.608885 1.20918,-0.770979 0.90407,-5.464471 -0.17294,-2.660336 -0.5249,-5.231682 -0.78212,-5.714103 -0.30568,-0.573336 -0.21158,-1.358578 0.2717,-2.267186 0.40665,-0.76453 0.905744,-2.353605 1.109096,-3.531282 0.203352,-1.17768 0.525088,-2.14123 0.714973,-2.14123 0.18988,0 1.523957,1.11094 2.964621,2.46875 6.902779,6.505837 7.780505,7.10118 10.527532,7.140589 5.063223,0.07264 8.053165,0.733973 9.466372,2.093816 1.188424,1.143548 1.306028,1.561728 0.996942,3.545032 -0.411286,2.639099 -2.320139,4.652662 -4.410704,4.652662 -2.262539,0 -2.085183,2.0066 0.461215,5.218185 1.177031,1.484497 2.016629,3.008585 1.865777,3.386852 -0.150851,0.378267 -1.167726,1.092572 -2.259726,1.587337 -2.563614,1.16153 -2.525538,2.166865 0.108912,2.875608 1.580509,0.425198 2.137353,0.852351 2.269586,1.740987 0.23283,1.56464 -0.254769,1.949749 -3.491589,2.757668 -3.360287,0.838733 -5.952955,0.44133 -9.249804,-1.417792 -1.917969,-1.081563 -2.820827,-1.309189 -4.108802,-1.035902 -0.907879,0.192635 -4.713695,0.448706 -8.457361,0.569048 -3.74368,0.120342 -8.31862,0.40499 -10.16656,0.63256 -1.84793,0.227565 -5.72595,0.352754 -8.61782,0.278194 -3.47826,-0.08967 -5.70823,0.08182 -6.58833,0.50668 -1.86379,0.89973 -4.73374,1.368715 -4.73374,0.773554 0,-0.59757 -1.92516,-0.658426 -2.30134,-0.07275 -0.26633,0.414653 -5.06458,0.361439 -10.97433,-0.121703 -2.2592,-0.1847 -3.39779,-0.04121 -4.32823,0.545399 -1.21045,0.763165 -4.01545,1.391296 -11.97895,2.682479 -3.44706,-15.724899 -4.25529,-31.707467 -4.25529,-31.707467 z m 46.5743,25.836033 c 0.53047,-0.510434 -0.70573,-1.683768 -1.77397,-1.683768 -1.48332,0 -1.73884,0.964445 -0.39312,1.483782 1.52447,0.588319 1.74259,0.608452 2.16709,0.199986 z m -4.23842,-6.502878 c 0.24154,-0.813244 0.51516,-3.473383 0.60804,-5.911419 0.16798,-4.409373 0.16114,-4.436635 -1.29263,-5.160028 -2.3563,-1.172478 -27.11466,-1.80008 -39.49036,-1.001043 11.25719,-11.855818 -4.36802,16.059336 -1.3527,8.721903 l 0.45947,-1.150955 0.54521,1.336561 c 0.79971,1.960441 1.66448,2.256928 2.70633,0.927874 0.65365,-0.833841 0.97177,-0.964441 1.14328,-0.469358 0.16557,0.477953 0.98013,0.642017 2.68635,0.541051 2.04327,-0.120901 2.39659,-0.01416 2.13389,0.644561 -0.49172,1.233011 1.32347,1.594809 3.09446,0.616775 1.55982,-0.861409 2.83963,-0.677339 1.39651,0.200858 -0.58437,0.35561 -0.42279,0.470572 0.66965,0.476426 1.09349,0.0058 1.43987,-0.234694 1.43987,-0.999924 0,-1.177254 1.31824,-1.359944 1.76314,-0.244348 0.16741,0.419808 0.93242,0.993048 1.70001,1.273866 1.11337,0.407318 1.60215,0.330727 2.41686,-0.378735 0.97817,-0.851802 1.05294,-0.84762 1.77241,0.09917 0.58037,0.763729 1.40953,0.998806 3.64669,1.033877 1.59255,0.02499 3.00284,-0.121672 3.13398,-0.325865 0.42774,-0.665953 6.97631,-0.04262 8.19725,0.780285 1.51698,1.022415 2.08303,0.804065 2.62229,-1.011532 z m 23.44127,-4.149191 c 0,-1.330606 -1.21289,-3.618695 -1.92064,-3.623244 -0.33641,-0.002 -0.98237,-0.140813 -1.43546,-0.308111 -1.64991,-0.609223 -1.46748,1.22627 0.30167,3.035222 1.91892,1.962103 3.05443,2.295248 3.05443,0.896133 z m -10.88141,19.974478 c 0.12902,-0.372836 0.65453,-0.756222 1.16778,-0.851958 0.5969,-0.111344 0.84866,0.07022 0.69861,0.503819 -0.12902,0.372837 -0.65452,0.756223 -1.16778,0.851958 -0.5969,0.111344 -0.84866,-0.07022 -0.69861,-0.503819 z m 38.500801,-14.236776 c -1.808701,-1.537413 -2.487054,-2.484487 -2.487054,-3.472265 0,-1.917762 1.252213,-1.721242 2.622046,0.411499 0.625172,0.973359 1.586851,2.001568 2.137065,2.28491 0.984696,0.507094 1.37531,2.218633 0.60769,2.662704 -0.215981,0.124942 -1.511867,-0.724139 -2.879747,-1.886848 z M -166.32832,40.515602 c 0.20499,0.514042 -0.0283,0.755729 -0.72937,0.755729 -1.83622,-0.633767 -0.49318,-2.118255 0.72937,-0.755729 z M -153.9515,39.5377 c 0,-0.432005 0.23562,-0.785464 0.52359,-0.785464 0.28797,0 0.52359,0.213337 0.52359,0.474084 0,0.260746 -0.23562,0.614205 -0.52359,0.785463 -0.28797,0.171259 -0.52359,-0.04207 -0.52359,-0.474083 z m 9.42463,-14.078723 c 0,-0.74764 2.17394,-2.32513 3.20426,-2.32513 0.38041,0 0.26562,0.38016 -0.29466,0.97589 -0.50481,0.53674 -0.76303,1.2169 -0.57384,1.51146 0.20869,0.32491 -0.18302,0.53556 -0.99589,0.53556 -0.79249,0 -1.33987,-0.28507 -1.33987,-0.69778 z m 51.06713,-0.28326 c -0.460361,-0.71675 0.126704,-1.53805 1.099393,-1.53805 0.458744,0 0.721534,0.35396 0.623586,0.83993 -0.203949,1.01191 -1.24937,1.43549 -1.722979,0.69812 z m -57.35022,-0.68603 c 0,-0.36269 0.35343,-1.09952 0.78539,-1.63741 0.77371,-0.96344 0.79693,-0.96361 1.56189,-0.0117 0.57686,0.71785 0.62769,1.13885 0.19769,1.63741 -0.7447,0.86343 -2.54497,0.87168 -2.54497,0.0117 z" style="fill:#554961"/>
                      <path id="path20722" d="m -163.75981,65.135554 0.92532,1.074862 1.2749,-1.489505 c 1.0943,-1.278507 1.32347,-1.367723 1.61776,-0.629774 0.18857,0.472849 0.21013,1.19255 0.0479,1.599323 -0.16221,0.406778 -0.0548,0.882424 0.23878,1.056997 0.6548,0.389407 2.56209,-1.193673 2.56209,-2.126585 0,-0.3727 0.17671,-0.670432 0.39269,-0.66162 0.70972,0.02897 2.22526,1.342622 2.22526,1.928841 0,0.852285 1.62024,0.631064 3.40334,-0.464682 0.86392,-0.530895 1.8867,-1.113284 2.27284,-1.2942 0.82876,-0.388279 4.27203,1.079573 4.27203,1.821144 0,0.689391 1.43373,0.65569 1.6745,-0.03935 0.10505,-0.303234 1.20165,-0.729162 2.4369,-0.946515 2.06317,-0.363032 2.28443,-0.297681 2.71943,0.803239 0.54886,1.389099 1.14831,1.511572 2.08468,0.425923 0.36646,-0.42488 0.92544,-0.688156 1.24219,-0.585055 0.31675,0.103107 1.33448,-0.116221 2.26163,-0.487389 1.61385,-0.646072 1.7346,-0.611228 2.83211,0.817179 0.63052,0.820611 1.35598,1.36738 1.61215,1.215045 0.25616,-0.152339 0.18511,-0.602356 -0.15788,-1.00003 -0.34299,-0.397679 -0.47379,-0.867239 -0.29065,-1.043464 0.18315,-0.176226 1.17053,0.509411 2.19418,1.523634 1.02366,1.014223 1.57052,1.844043 1.21525,1.844043 -0.35527,0 -1.13236,0.435078 -1.72687,0.966839 -1.2341,1.103817 -5.00786,1.963251 -5.00786,1.140459 0,-0.679123 -1.48615,-2.107333 -2.19282,-2.107333 -0.30099,0 -0.42403,0.453437 -0.27342,1.007638 0.22966,0.84504 0.007,1.014414 -1.3788,1.049621 -0.90896,0.02308 -2.24169,0.132837 -2.96163,0.243878 -0.71994,0.111042 -3.51378,0.195981 -6.20855,0.188751 -2.69476,-0.0072 -5.69148,0.238342 -6.65937,0.545717 -1.08996,0.346133 -2.08238,0.385154 -2.60725,0.102517 -0.89846,-0.483823 -4.42126,0.73281 -4.42126,1.526924 0,0.880398 -3.75744,1.8846 -7.05165,1.8846 0,0 -2.89655,-25.442882 1.43208,-9.891672 z m 53.00451,13.418379 c 0.17798,-0.2771 0.4275,-0.503819 0.55449,-0.503819 0.12699,0 0.2309,0.226719 0.2309,0.503819 0,0.277101 -0.24953,0.503819 -0.5545,0.503819 -0.30497,0 -0.40887,-0.226718 -0.23089,-0.503819 z m 25.394131,-6.503592 c -2.252554,-0.44657 -4.134929,-1.377154 -5.442486,-2.690575 -0.803193,-0.806801 -1.478829,-0.951402 -3.550361,-0.75987 -1.892769,0.175001 -2.66973,0.04509 -2.986319,-0.499234 -0.368162,-0.633024 -0.676672,-0.607495 -2.209132,0.182795 -1.269903,0.654889 -3.058763,0.942751 -6.231723,1.002812 -2.44779,0.04635 -5.39298,0.331351 -6.54488,0.633381 -3.20717,0.840919 -3.59864,0.737077 -6.28032,-1.665923 -1.37433,-1.23151 -2.84747,-2.367854 -3.27364,-2.525216 -0.54001,-0.199397 -0.65918,-0.62784 -0.3932,-1.413586 0.20992,-0.62011 0.35355,-1.580908 0.31917,-2.135109 -0.0344,-0.554201 -0.13391,-3.014606 -0.2212,-5.467564 -0.12671,-3.560645 -0.33744,-4.556172 -1.04515,-4.93727 -0.48754,-0.262541 -0.88644,-0.798181 -0.88644,-1.190313 0,-1.156965 -1.70512,-1.7645 -2.7967,-0.996463 -0.52208,0.367344 -1.98206,0.667892 -3.24439,0.667892 -1.26234,0 -2.55036,0.151771 -2.86228,0.337272 -0.31192,0.185496 -0.87638,0.0903 -1.25436,-0.211544 -0.37797,-0.301848 -2.19367,-0.537328 -4.03488,-0.523296 -1.84122,0.01406 -4.99698,-0.04192 -7.0128,-0.124338 -3.57519,-0.146173 -3.66067,-0.180755 -3.48304,-1.409398 0.2448,-1.693285 0.46848,-1.834854 1.71532,-1.085594 0.86027,0.516959 1.21801,0.516948 1.86541,-5.5e-5 0.66049,-0.527464 0.92171,-0.480855 1.489,0.265668 0.97933,1.288729 4.93348,1.744841 5.57431,0.642994 0.61365,-1.055138 1.40242,-1.05285 2.62018,0.0076 0.81281,0.707805 1.15578,0.738755 2.2041,0.198903 0.68282,-0.351636 1.73192,-0.489561 2.33134,-0.306499 0.75391,0.230251 1.37387,0.01365 2.01132,-0.702721 0.50681,-0.569563 1.44424,-1.035565 2.08318,-1.035565 1.49981,0 1.94118,-0.724955 1.22515,-2.012339 -0.46462,-0.835367 -0.39629,-1.087392 0.36848,-1.359167 1.38513,-0.492226 1.69077,-1.182015 1.14064,-2.574319 -0.36371,-0.920492 -0.27103,-1.567265 0.35665,-2.489053 0.50878,-0.74718 0.65763,-1.42862 0.37208,-1.70338 -0.57787,-0.55606 0.40807,-5.71014 1.24668,-6.51708 0.4261,-0.41001 0.77235,-0.30032 1.29645,0.41072 0.95723,1.29865 2.69166,2.13769 4.41897,2.13769 1.52037,0 2.79733,1.20391 2.82434,2.66277 0.013,0.70536 0.21798,0.79573 0.94978,0.41888 1.1297,-0.58177 2.96745,0.63244 3.48679,2.30372 0.25908,0.833743 0.0491,1.251756 -0.86052,1.712831 -0.66178,0.335458 -1.35107,0.827805 -1.53175,1.094094 -0.48322,0.712153 0.0889,2.3879 0.81521,2.3879 0.34449,0 1.27219,0.648647 2.06153,1.441431 1.09391,1.098678 1.35612,1.744524 1.10272,2.716043 -0.18762,0.719292 -0.0859,1.421258 0.23355,1.611213 0.31131,0.185134 0.56602,1.330082 0.56602,2.544326 0,1.214244 0.2279,2.343247 0.50644,2.508898 0.27854,0.165646 0.37251,0.945517 0.20883,1.733042 -0.31468,1.513976 0.83586,3.76322 2.54807,4.981324 0.6319,0.449557 0.92538,1.336349 0.92538,2.796195 0,2.114659 0.68645,3.347021 1.86435,3.347021 0.34071,0 0.74711,-1.132364 0.924947,-2.577181 0.194639,-1.581361 0.666577,-2.823003 1.221384,-3.213362 0.841635,-0.592184 0.84419,-0.6939 0.03691,-1.470678 -0.703527,-0.676956 -0.756221,-1.068938 -0.279157,-2.076445 0.437449,-0.923837 0.430244,-2.113122 -0.02812,-4.643024 -0.33891,-1.870584 -0.509276,-4.931416 -0.378587,-6.801844 0.138835,-1.986976 0.02948,-3.400778 -0.263068,-3.400778 -0.561989,0 -0.173622,-2.179838 0.695663,-3.904597 0.746342,-1.480829 1.841745,-1.441629 2.567886,0.0919 0.319155,0.674025 1.257654,1.495476 2.085544,1.825453 1.978402,0.788532 4.641587,3.744312 4.643492,5.153645 0.001,0.67284 0.612308,1.509834 1.53956,2.107621 1.560655,1.006121 2.104016,2.089231 2.116918,4.219751 0.0047,0.753501 0.386069,1.276108 1.054327,1.444262 1.273027,0.320333 1.296808,0.556947 0.17578,1.748897 -1.181047,1.255759 -1.476121,3.939094 -0.433166,3.939094 0.483981,0 0.780977,-0.478991 0.780977,-1.259548 0,-1.600804 0.440779,-1.56999 2.195702,0.153494 1.891187,1.857308 2.982894,3.979092 2.659535,5.168931 -0.269822,0.992876 -1.71368,1.390127 -1.71368,0.471479 0,-0.277101 -0.589039,-0.503819 -1.308975,-0.503819 -0.719937,0 -1.308976,0.226718 -1.308976,0.503819 0,0.2771 0.353423,0.503819 0.785385,0.503819 0.431962,0 0.785386,0.425676 0.785386,0.94595 0,0.520269 -0.353424,1.228185 -0.785386,1.573145 -1.209467,0.965866 -0.938268,1.511457 0.7513,1.511457 2.074983,0 4.181031,0.820474 4.562702,1.777533 0.466367,1.169435 0.264864,1.271383 -4.790411,2.423687 -0.57595,0.131285 -1.871836,0.0752 -2.879747,-0.124614 z m -29.844651,-5.810238 c 0,-0.122196 -0.23561,-0.362296 -0.52359,-0.533554 -0.28797,-0.171258 -0.52359,-0.07128 -0.52359,0.222174 0,0.293455 0.23562,0.533555 0.52359,0.533555 0.28798,0 0.52359,-0.09998 0.52359,-0.222175 z m 19.272488,-1.327069 c -0.103189,-0.297883 -0.411453,-0.541605 -0.685029,-0.541605 -0.273576,0 -0.58184,0.243722 -0.685029,0.541605 -0.103195,0.297883 0.205069,0.541606 0.685029,0.541606 0.479959,0 0.788223,-0.243723 0.685029,-0.541606 z m 8.420149,-0.651095 c 0.452518,-0.524662 0.401054,-0.843091 -0.215876,-1.335765 -0.675233,-0.539233 -0.981261,-0.470023 -1.839022,0.415907 -0.565944,0.584536 -1.028991,1.185627 -1.028991,1.335765 0,0.578007 2.519736,0.238181 3.083889,-0.415907 z m -25.074677,-1.128385 c 0,-0.108901 -0.88356,-0.175405 -1.96347,-0.147786 -1.70832,0.04368 -1.79336,0.09819 -0.65449,0.419314 1.20949,0.34104 2.61796,0.194958 2.61796,-0.271528 z m 27.750281,-0.408709 c 0,-0.804508 -0.756457,-1.804573 -1.364995,-1.804573 -0.752216,0 -0.997942,1.085085 -0.380304,1.679395 0.38132,0.366926 1.745299,0.464752 1.745299,0.125178 z m 2.094361,-2.308392 c 0,-0.277101 -0.249522,-0.503819 -0.554492,-0.503819 -0.304971,0 -0.408872,0.226718 -0.230893,0.503819 0.177979,0.2771 0.427501,0.503819 0.554493,0.503819 0.126991,0 0.230892,-0.226719 0.230892,-0.503819 z M -93.620519,44.16829 c -0.917963,-1.006681 -2.212457,-1.173067 -2.212457,-0.28438 0,0.328515 0.523041,1.133028 1.162313,1.787811 1.069088,1.095016 1.190063,1.117829 1.508223,0.284381 0.200849,-0.526128 0.0087,-1.275876 -0.458079,-1.787812 z m -23.679661,-1.607676 c 0,-0.122196 -0.23561,-0.362296 -0.52359,-0.533555 -0.28797,-0.171258 -0.52359,-0.07128 -0.52359,0.222175 0,0.293454 0.23562,0.533554 0.52359,0.533554 0.28798,0 0.52359,-0.09998 0.52359,-0.222174 z m -41.88722,20.345198 c 0,-0.293454 0.23561,-0.393432 0.52359,-0.222174 0.28797,0.171258 0.52359,0.411358 0.52359,0.533555 0,0.122196 -0.23562,0.222174 -0.52359,0.222174 -0.28798,0 -0.52359,-0.2401 -0.52359,-0.533555 z m 78.634219,-10.502933 c -0.291697,-0.805163 -1.000513,-1.60752 -1.575148,-1.783015 -0.57464,-0.175496 -1.424731,-0.877038 -1.889093,-1.558983 -0.464367,-0.681949 -1.207938,-1.239903 -1.652393,-1.239903 -0.572656,0 -0.759824,-0.40366 -0.642414,-1.385502 0.160732,-1.344169 0.267204,-1.387694 3.569011,-1.458975 3.54854,-0.07661 5.338789,0.501552 6.990251,2.257487 0.853714,0.907726 0.890454,1.2493 0.314887,2.927446 -1.209426,3.526204 -4.178335,4.827185 -5.115101,2.241445 z m -87.535259,-2.818535 c 0,-0.791016 0.91016,-0.968032 2.31333,-0.449915 1.36748,0.504937 0.93592,1.205644 -0.74256,1.205644 -1.04718,0 -1.57077,-0.25191 -1.57077,-0.755729 z m 11.65194,-0.916205 c -1.09674,-0.586208 -1.12121,-0.703895 -0.36301,-1.745516 0.52,-0.71436 1.35733,-1.116921 2.32321,-1.116921 1.92379,0 2.45108,0.789106 1.01982,1.526168 -1.06151,0.546654 -1.06725,0.596678 -0.14557,1.268803 0.90047,0.656652 0.87897,0.699603 -0.34945,0.697885 -0.71994,-10e-4 -1.83819,-0.284693 -2.485,-0.630419 z m 5.10295,-0.847161 c 0,-0.554201 0.21356,-1.007638 0.47457,-1.007638 0.26102,0 0.35135,0.453437 0.20073,1.007638 -0.15061,0.554201 -0.36417,1.007638 -0.47457,1.007638 -0.1104,0 -0.20073,-0.453437 -0.20073,-1.007638 z m 57.820551,-22.728181 c -0.45134,-0.70272 0.911534,-1.57009 1.530774,-0.97423 0.503652,0.48463 0.01845,1.53438 -0.709209,1.53438 -0.253983,0 -0.62369,-0.25207 -0.821565,-0.56015 z m -56.249781,-2.24059 c 0,-0.43201 0.23562,-0.64535 0.52359,-0.47409 0.28798,0.17126 0.52359,0.52472 0.52359,0.78546 0,0.26075 -0.23561,0.47409 -0.52359,0.47409 -0.28797,0 -0.52359,-0.35346 -0.52359,-0.78546 z" style="fill:#48394b"/>
                    </g>
                  </g>
                </g>
                <g id="g5108">
                  <g id="g5092" transform="matrix(1.9098902,0,0,1.9848398,2360.3491,5.8441543)">
                    <g id="g5094" transform="matrix(1.5201797,0,0,1.4473805,-3.0570143,733.76136)">
                      <path style="fill:#cdb295" d="m -396.36837,-737.67928 c -0.76615,0 -11.36129,10.5611 -12.11172,12.0728 -0.36914,0.74363 -1.17285,1.35174 -1.92131,1.45371 -0.70768,0.0964 -1.85642,0.60654 -2.55276,1.13359 -0.69633,0.52706 -1.49243,0.95829 -1.76911,0.95829 -0.27668,0 -1.17082,0.45754 -1.98699,1.01675 -0.87755,0.60128 -1.61424,0.8139 -1.8028,0.52033 -0.17537,-0.27304 -1.00304,-0.36477 -1.83926,-0.20384 -1.98224,0.38147 -9.22627,-1.26825 -15.71747,-3.57944 -1.00792,-0.35887 -2.77503,-0.65833 -3.92693,-0.66548 -1.22211,-0.008 -3.60505,-0.68194 -5.72168,-1.6192 -2.57081,-1.13838 -4.71343,-1.68524 -7.35634,-1.87758 -4.45427,-0.32415 -6.0437,0.30039 -8.69072,3.41487 -0.98605,1.1602 -3.20652,3.46963 -4.93437,5.13206 -2.0087,1.93265 -3.80236,4.31644 -4.97411,6.61063 -1.6256,3.18283 -2.03402,3.62571 -3.61649,3.92167 -1.18415,0.22146 -2.68045,0.0223 -4.45051,-0.59227 -1.46663,-0.50924 -3.3302,-1.06279 -4.14126,-1.2301 -2.39424,-0.49391 -1.57327,-1.86572 1.65475,-2.76503 3.11406,-0.86755 4.79402,-2.45211 4.79402,-4.52177 0,-1.36251 3.21733,-5.57688 4.2575,-5.57688 0.9446,0 4.11991,-2.76283 4.11993,-3.58474 3e-5,-1.22874 1.91259,-3.31559 3.35877,-3.66485 0.79943,-0.19307 1.3438,-0.7334 1.44816,-1.4374 0.22109,-1.49166 2.24605,-2.36298 6.34825,-2.73158 2.35806,-0.21189 4.10563,-0.0659 5.91338,0.49416 1.41135,0.43721 3.74417,0.94481 5.18404,1.128 1.43988,0.18319 3.1398,0.64858 3.77761,1.03419 0.63782,0.38561 2.19937,0.70112 3.47013,0.70112 1.41499,0 2.56309,0.2929 2.96228,0.75572 0.35849,0.41565 1.1186,0.75573 1.68913,0.75573 0.57053,0 2.97917,0.58258 5.35254,1.29461 5.31909,1.59579 8.10323,1.5099 9.02489,-0.27839 0.3546,-0.68803 0.99897,-1.50022 1.43195,-1.80486 0.90939,-0.63986 4.138,-5.08586 4.64403,-6.39514 0.18835,-0.48732 0.92514,-1.1415 1.63732,-1.45374 1.71956,-0.7539 2.07648,-1.82522 1.09048,-3.27321 -0.92194,-1.35393 -1.19928,-1.40693 -3.23816,-0.61881 -0.81068,0.31337 -3.5945,0.73825 -6.18627,0.94418 -3.27425,0.26017 -5.3949,0.71858 -6.94904,1.50215 -1.43126,0.72161 -2.75112,1.0315 -3.66514,0.86055 -0.78562,-0.14694 -2.13524,0.0274 -2.99917,0.38746 -1.42532,0.59402 -9.86598,1.52234 -19.37284,2.13066 -7.71037,0.49337 -23.57101,0.40285 -24.87054,-0.14194 -0.71994,-0.30182 -3.07609,-0.84844 -5.2359,-1.21471 -2.15981,-0.36627 -4.16255,-0.83177 -4.45052,-1.03444 -0.28798,-0.20267 -1.93729,-0.71533 -3.66513,-1.13925 -5.54322,-1.36 -9.56265,-3.49896 -13.43012,-7.14687 -3.36862,-3.17739 -4.90147,-5.49849 -5.32353,-8.06111 -0.18255,-1.1084 -0.80887,-2.91341 -1.39184,-4.01112 -1.11752,-2.10431 -1.42124,-5.539 -0.53633,-6.06526 0.28797,-0.17125 0.52359,-0.7326 0.52359,-1.24743 0,-2.03442 3.83172,-7.8652 7.2305,-11.00272 5.35456,-4.94299 13.99428,-10.13585 16.90757,-10.16221 0.46106,-0.004 1.87476,-0.53237 3.14154,-1.17377 1.26678,-0.6414 4.07036,-1.46531 6.23017,-1.83092 2.15981,-0.36561 4.86939,-0.99141 6.02129,-1.39067 1.1519,-0.39925 3.62586,-0.8068 5.4977,-0.90566 1.87183,-0.0989 4.29624,-0.54211 5.38756,-0.985 1.4431,-0.58565 4.44173,-0.87968 10.9954,-1.07816 4.95614,-0.1501 9.36459,-0.39248 9.79655,-0.53862 0.43196,-0.14613 4.08401,-0.3137 8.11565,-0.37235 8.20342,-0.11936 10.38038,-0.64435 10.11542,-2.4394 -0.10328,-0.69969 -0.85862,-1.46484 -1.97567,-2.0013 -0.99465,-0.47769 -3.8267,-2.80155 -6.29344,-5.16415 -2.46674,-2.36259 -4.76654,-4.29562 -5.11068,-4.29562 -0.34414,0 -0.886,-0.46799 -1.20413,-1.03998 -0.47165,-0.848 -0.88582,-0.97746 -2.24368,-0.70133 -0.91589,0.18625 -2.13649,0.73785 -2.71244,1.22576 -0.57595,0.48792 -1.75403,1.04559 -2.61795,1.23928 -0.86393,0.19368 -2.15981,0.73355 -2.87975,1.19971 -0.71994,0.46616 -2.17214,1.301 -3.22711,1.8552 -6.43913,3.38261 -10.93201,6.16174 -11.19749,6.92634 -0.16815,0.48428 -0.93797,1.02303 -1.7107,1.19721 -0.77274,0.17418 -2.46525,0.92827 -3.76113,1.67575 -3.59457,2.07339 -8.35998,4.05572 -9.7497,4.05572 -1.84114,0 -3.5074,-1.80895 -3.10109,-3.36667 0.44777,-1.71672 -0.36292,-2.49304 -3.55527,-3.40452 -1.68001,-0.47968 -4.0096,-1.78799 -6.14795,-3.45271 -1.89362,-1.47421 -4.16352,-2.96758 -5.04421,-3.3186 -1.28359,-0.5116 -1.66554,-1.02498 -1.92523,-2.58769 -0.17818,-1.07221 -0.51457,-2.06282 -0.74752,-2.20135 -0.23295,-0.13854 -1.99882,0.008 -3.92415,0.3251 -2.77159,0.45682 -3.63719,0.44373 -4.15648,-0.0629 -0.52643,-0.51354 -0.45528,-0.7823 0.36047,-1.36165 0.559,-0.39699 1.58399,-0.72181 2.27777,-0.72181 0.79188,0 2.15099,-0.8439 3.65133,-2.26718 3.02988,-2.87429 4.24099,-2.90954 6.50743,-0.18939 3.36434,4.03784 9.08689,9.65428 11.07766,10.87227 1.10888,0.67843 3.7817,1.77271 5.93959,2.43173 l 3.92344,1.19821 4.44272,-2.31143 c 2.44349,-1.27128 5.54326,-3.14287 6.88836,-4.15907 2.96031,-2.23645 12.54799,-7.8396 14.28559,-8.34866 0.6874,-0.20139 2.88499,-1.1334 4.88353,-2.07114 1.99854,-0.93774 4.25816,-1.70498 5.02138,-1.70498 1.87559,0 7.30334,2.66767 9.66769,4.75156 1.05763,0.93217 4.18894,3.47515 6.95846,5.65107 2.76953,2.17591 6.97126,5.59992 9.33719,7.6089 3.0175,2.56225 4.7134,3.65268 5.68084,3.65268 z" id="path5096"/>
                      <path style="fill:#b08d6f" d="m -408.8431,-729.20328 c -1.29588,1.14569 -2.82738,2.23147 -3.40333,2.41283 -0.57595,0.18136 -2.22526,1.22905 -3.66514,2.32817 -2.39127,1.82539 -2.82196,1.97504 -4.9741,1.72843 -1.29589,-0.14849 -4.12328,-0.7645 -6.28309,-1.36891 -2.15981,-0.60441 -4.98824,-1.25134 -6.28541,-1.43761 -1.29716,-0.18628 -2.647,-0.51027 -2.99964,-0.71998 -0.87569,-0.52077 -11.24796,-2.53875 -17.15626,-3.33783 -1.72785,-0.23369 -3.53924,-0.57936 -4.02532,-0.76816 -0.66274,-0.25742 -2.39869,1.15594 -6.94122,5.65134 -7.0403,6.96726 -8.6681,8.95486 -8.6681,10.58408 0,2.61261 -4.18877,4.72327 -5.75949,2.90213 -0.3585,-0.41565 -1.44762,-0.75572 -2.42027,-0.75572 -0.97265,0 -1.76845,-0.22672 -1.76845,-0.50382 0,-0.2771 0.57795,-0.50382 1.28434,-0.50382 2.98718,0 5.52233,-2.65654 5.52233,-5.78676 0,-1.17776 3.25051,-4.79344 4.30932,-4.79344 0.88966,0 3.80012,-3.17649 4.32992,-4.72569 0.34221,-1.00065 0.97432,-1.63266 1.8247,-1.82438 0.72379,-0.16318 1.65308,-0.9547 2.09436,-1.78387 1.02178,-1.91993 1.13991,-1.99144 4.47668,-2.70998 2.97559,-0.64076 4.166,-0.44321 15.42762,2.56028 11.20106,2.98734 15.68746,4.09338 20.8835,5.14843 1.42664,0.28968 2.22702,-0.43686 7.12858,-6.47096 1.72785,-2.12708 4.61414,-5.26524 6.41399,-6.9737 1.79984,-1.70845 3.27243,-3.41555 3.27243,-3.79353 0,-0.86507 -6.97389,-0.5768 -13.61334,0.56272 -2.44779,0.42011 -6.45185,1.03362 -8.89792,1.36336 -2.44607,0.32973 -5.39126,0.94369 -6.54488,1.36435 -1.15361,0.42066 -3.17858,0.83622 -4.49994,0.92347 -1.32135,0.0873 -5.0912,0.49682 -8.37744,0.91015 -8.52373,1.07207 -9.17313,1.10429 -19.32654,0.95901 -15.61938,-0.22349 -27.38794,-3.1486 -35.49192,-8.8216 -4.52131,-3.16504 -6.73984,-6.67004 -8.24632,-13.02815 -0.867,-3.6592 -0.86645,-4.01764 0.0116,-7.46526 0.6575,-2.58167 1.49468,-4.31825 2.9157,-6.04808 2.62007,-3.18949 7.20343,-7.58194 7.91146,-7.58194 0.30824,0 1.40905,-0.71695 2.44624,-1.59324 4.82802,-4.07898 18.84418,-8.30693 35.42735,-10.68658 8.77539,-1.25925 13.37656,-1.55593 32.9862,-2.12693 5.47151,-0.15932 10.16492,-0.49026 10.42977,-0.73541 0.61853,-0.5725 -3.64996,-5.17237 -5.58121,-6.0145 -0.78898,-0.34405 -4.23661,-3.31961 -7.66139,-6.61237 -3.42477,-3.29277 -6.32256,-5.98684 -6.43952,-5.98684 -0.51917,0 -4.09877,1.94181 -5.41217,2.93591 -0.79542,0.60205 -1.70896,1.09522 -2.03009,1.09593 -0.32113,7.1e-4 -1.99757,0.83019 -3.72542,1.84329 -3.02253,1.77221 -7.40305,4.23435 -11.25719,6.32727 -1.00791,0.54733 -2.31898,1.42647 -2.91349,1.95365 -0.59451,0.52719 -1.34221,0.95852 -1.66156,0.95852 -0.31936,0 -1.68412,0.81049 -3.0328,1.80109 -1.34869,0.9906 -3.8486,2.38384 -5.55535,3.09609 -2.61677,1.09201 -3.31259,1.20319 -4.43912,0.7093 -1.20402,-0.52788 -1.30177,-0.78021 -0.99003,-2.55569 0.29951,-1.70585 0.18262,-2.07073 -0.87179,-2.72129 -0.66972,-0.41322 -2.20438,-1.00141 -3.41035,-1.30711 -1.99693,-0.50619 -6.87889,-3.70333 -7.76752,-5.08687 -0.20085,-0.31271 -1.40988,-0.99946 -2.68674,-1.52612 -2.11145,-0.8709 -2.26802,-1.05382 -1.73003,-2.02112 0.49241,-0.88532 0.38908,-1.27092 -0.61658,-2.30098 -1.03875,-1.06394 -1.50382,-1.1902 -3.3173,-0.9006 l -2.10918,0.33683 1.30898,-1.22291 c 0.71993,-0.67259 1.82221,-1.81599 2.4495,-2.54087 1.40722,-1.62616 2.85947,-1.3855 4.50179,0.74599 0.6404,0.83114 3.12939,3.50269 5.53109,5.93677 4.64445,4.70707 8.13651,6.79005 13.54525,8.07961 3.00806,0.71719 2.85834,0.75867 8.26753,-2.29059 1.72785,-0.97402 3.49497,-1.92843 3.92693,-2.12091 0.43196,-0.19248 1.42743,-0.96346 2.21215,-1.71329 1.19542,-1.14227 8.88639,-5.81088 10.61581,-6.44405 0.28798,-0.10544 0.87702,-0.47353 1.30898,-0.81799 0.43196,-0.34446 1.69795,-0.90847 2.81332,-1.25335 1.11537,-0.34489 3.31874,-1.28043 4.89638,-2.07898 1.57764,-0.79855 3.32584,-1.4519 3.88488,-1.4519 1.43116,0 7.77587,3.35768 9.37294,4.96025 0.73309,0.73562 3.66918,3.15123 6.52464,5.36803 5.55542,4.3129 14.1451,11.5468 14.6567,12.34332 0.19723,0.30708 0.63591,0.30833 1.20251,0.003 -0.94057,52.47761 14.33332,51.65896 -3.55852,67.42008 z m -96.86421,-82.5374 c 0,-0.2771 0.64795,-0.50035 1.43988,-0.4961 1.12202,0.006 1.2665,0.11552 0.65448,0.4961 -1.02442,0.63703 -2.09436,0.63703 -2.09436,0 z" id="path5098"/>
                      <path style="fill:#986f56" d="m -477.67578,-711.45043 c -0.15163,-0.23607 0.075,-1.07628 0.5037,-1.86715 0.42866,-0.79086 0.78083,-1.80694 0.78261,-2.25793 0.004,-0.96073 1.33013,-2.15551 1.97026,-1.77482 0.24318,0.14462 0.74575,-0.79942 1.11682,-2.09785 0.37107,-1.29845 0.76407,-2.6442 0.87334,-2.99058 0.10926,-0.34637 0.79509,-0.62977 1.52407,-0.62977 0.91692,0 1.32541,-0.27373 1.32541,-0.88817 0,-0.48849 0.53013,-1.11197 1.17807,-1.3855 0.64795,-0.27354 1.21194,-0.95077 1.25332,-1.50497 0.0414,-0.55421 0.10029,-1.29104 0.1309,-1.63742 0.0306,-0.34637 0.65307,-0.62977 1.38324,-0.62977 1.06754,0 1.51842,-0.42839 2.30187,-2.18708 0.84922,-1.90635 1.27952,-2.26932 3.35224,-2.82773 2.03845,-0.54918 2.81243,-0.51867 5.42109,0.21367 1.67372,0.46987 3.45226,1.06219 3.95231,1.31627 0.50005,0.25407 1.60532,0.46196 2.45615,0.46196 0.85084,0 1.68623,0.21681 1.85644,0.48181 0.17021,0.265 0.66802,0.34942 1.10624,0.18761 0.89687,-0.33117 4.92918,1.25749 4.92918,1.942 0,0.9214 -1.7339,1.02708 -3.50647,0.21372 -1.3048,-0.59872 -2.03198,-0.69164 -2.4983,-0.31923 -0.46317,0.36987 -2.18958,0.22733 -5.83486,-0.48175 -6.68319,-1.30002 -6.83726,-1.29094 -8.39894,0.49493 -0.72695,0.8313 -1.73549,1.51146 -2.24121,1.51146 -1.06496,0 -2.65255,1.52099 -2.65255,2.54127 0,0.38421 -1.35479,1.99242 -3.01065,3.57381 -1.65585,1.58137 -3.49689,3.40299 -4.09121,4.04804 -0.5943,0.64504 -1.51083,1.40849 -2.03671,1.69654 -0.84486,0.46278 -0.87189,0.65358 -0.23223,1.63916 0.52252,0.8051 0.57234,1.34664 0.17906,1.94657 -0.65885,1.00506 -2.70973,1.80792 -3.09319,1.2109 z m 55.25819,-12.58835 c -0.64206,-0.61782 -1.41531,-0.86784 -2.12876,-0.68831 -0.61625,0.15507 -1.6351,0.0415 -2.26412,-0.25246 -0.62902,-0.29392 -1.8358,-0.73519 -2.68172,-0.98059 -2.53437,-0.73523 -2.32695,-1.7057 0.31139,-1.45691 2.74134,0.2585 5.22631,0.82164 5.93897,1.34588 0.84905,0.62457 4.11885,-1.16789 4.86571,-2.6673 0.37902,-0.76094 1.00415,-1.38353 1.38918,-1.38353 0.38503,0 0.84718,-0.56404 1.02699,-1.25342 0.20569,-0.7886 1.10051,-1.63316 2.41292,-2.27742 10.08244,-8.903 26.14376,-16.20083 -4.72068,-10.87168 -3.88766,0.68962 -9.77805,1.73273 -13.08976,2.31802 -3.31171,0.58528 -7.6706,1.25834 -9.68642,1.49568 -2.01582,0.23735 -5.55006,0.68538 -7.85386,0.99562 -5.75075,0.77445 -11.44083,1.24144 -15.18412,1.2462 -6.03729,0.008 -15.75604,-0.66859 -17.19984,-1.19679 -0.80068,-0.29293 -2.07166,-0.53259 -2.8244,-0.53259 -0.75274,0 -2.09219,-0.20356 -2.97656,-0.45236 -7.20318,-2.02647 -9.67577,-3.03313 -13.86736,-5.64578 -3.75916,-2.34312 -5.08226,-3.50787 -6.63079,-5.8372 -3.0595,-4.60217 -4.19042,-11.67693 -2.5619,-16.02661 0.41499,-1.1084 0.75807,-2.31904 0.76241,-2.6903 0.004,-0.37126 0.56578,-1.27814 1.24766,-2.01528 4.8006,-5.18967 6.51271,-6.81337 7.90657,-7.49833 0.87299,-0.429 1.76813,-1.07638 1.9892,-1.43863 0.61698,-1.01102 10.31525,-5.50264 14.34008,-6.64142 5.28769,-1.49609 12.25829,-2.93277 18.76775,-3.86813 3.16772,-0.45518 6.93757,-1.04045 8.37745,-1.3006 3.61373,-0.65291 16.43948,-1.14163 31.50232,-1.20037 1.87005,-0.70469 15.86581,1.82752 11.66364,-2.09251 -1.23054,-1.13442 -1.6881,-1.31328 -2.02353,-0.79104 -0.72745,1.13259 -2.58496,0.15703 -5.99914,-3.15078 -1.76236,-1.70743 -4.18563,-3.74074 -5.38505,-4.51845 -1.19942,-0.77771 -3.43776,-2.65242 -4.9741,-4.16602 -1.53634,-1.5136 -3.80957,-3.5226 -5.05162,-4.46445 l -2.25827,-1.71246 -2.45404,1.24434 c -1.34972,0.68438 -2.68966,1.54024 -2.97763,1.90191 -0.72471,0.91016 -2.62009,1.82981 -3.77121,1.82981 -0.52817,0 -2.10081,0.90687 -3.49477,2.01527 -1.39396,1.10841 -2.75693,2.01528 -3.02883,2.01528 -0.27189,0 -1.35024,0.55963 -2.39633,1.24362 -1.9045,1.24528 -3.27837,1.05467 -3.27837,-0.45483 0,-0.63592 2.76798,-2.80407 3.57982,-2.80407 0.26438,0 0.774,-0.34007 1.13249,-0.75572 0.3585,-0.41565 1.05768,-0.75573 1.55374,-0.75573 0.49605,0 1.32837,-0.45344 1.8496,-1.00764 0.52123,-0.5542 1.18345,-1.00764 1.4716,-1.00764 0.28816,0 1.28742,-0.56036 2.22058,-1.24524 0.93317,-0.68488 2.70425,-1.46308 3.93575,-1.72933 1.23149,-0.26625 2.44703,-0.84166 2.7012,-1.27868 0.54456,-0.93634 3.70867,-2.2964 5.34245,-2.2964 0.62973,0 1.60232,0.33287 2.16132,0.73971 0.55899,0.40684 1.30041,0.74692 1.64759,0.75573 0.78889,0.02 3.64715,1.88937 5.42533,3.54824 0.73934,0.68973 3.80235,3.17366 6.80668,5.51983 3.00433,2.34617 6.16926,4.86622 7.03319,5.60012 30.31812,48.06987 -4.45052,58.106 1.15213,75.02761 -0.40041,0 -1.15449,0.45343 -1.67572,1.00764 -0.52122,0.5542 -1.17177,1.00763 -1.44566,1.00763 -0.27389,0 -0.96132,0.5668 -1.52763,1.25955 -1.2599,1.54123 -3.66099,1.67734 -5.1035,0.2893 z m -14.0449,-3.62209 c -0.93591,-0.57674 -1.70167,-1.25308 -1.70167,-1.50297 0,-0.57464 0.0804,-0.57152 3.04059,0.11798 2.9605,0.68957 3.80298,1.29788 2.71453,1.96004 -1.18322,0.71981 -2.18217,0.5781 -4.05345,-0.57505 z m -42.48163,-66.90358 c -0.5745,-0.35009 -0.60631,-0.77047 -0.153,-2.02175 0.31478,-0.86887 0.46077,-1.85677 0.32442,-2.19534 -0.39251,-0.97467 -3.31473,-2.37894 -4.95048,-2.37894 -1.71644,0 -6.18998,-3.29522 -6.24304,-4.59864 -0.0184,-0.45099 -0.3868,-1.10223 -0.81876,-1.44719 -1.84716,-1.47511 -0.40072,-3.05269 1.62685,-1.77434 0.96869,0.61074 1.27545,1.19096 1.15505,2.18466 -0.12066,0.99576 0.0516,1.31979 0.65228,1.22712 0.44892,-0.0693 2.18568,0.66757 3.85946,1.63741 1.67378,0.96984 3.32885,1.76334 3.67792,1.76334 0.34908,0 0.80318,0.16213 1.00912,0.36029 0.60796,0.58501 5.14129,1.60872 7.23036,1.63275 1.06291,0.0122 2.07407,0.24255 2.24702,0.51183 0.64284,1.00086 -1.43907,2.96353 -4.49737,4.2398 -3.42346,1.42864 -4.02065,1.52884 -5.11983,0.859 z m 10.93532,-6.12533 c 0,-1.33573 1.23679,-2.49627 3.2033,-3.0058 1.17606,-0.30472 2.26853,-0.42873 2.42771,-0.27557 0.15916,0.15316 -0.58824,1.07494 -1.66091,2.04839 -1.87515,1.70172 -3.9701,2.35233 -3.9701,1.23298 z m -27.13634,-12.97369 c -0.47454,-0.62328 -0.72257,-0.6812 -0.9353,-0.21844 -0.36239,0.78831 -1.37513,0.8111 -2.16738,0.0488 -0.89549,-0.86168 0.17722,-2.44191 1.65765,-2.44191 1.2616,0 2.00019,0.61324 2.5595,2.1251 0.4403,1.19017 -0.32453,1.52403 -1.11447,0.48648 z" id="path5100"/>
                      <path style="fill:#51578e" d="m -474.89487,-739.43508 c -0.10884,-0.10473 -2.31495,-0.45064 -4.90246,-0.7687 -2.58751,-0.31805 -5.64703,-0.82514 -6.79893,-1.12685 -1.1519,-0.30171 -2.80121,-0.59074 -3.66513,-0.64229 -1.90108,-0.11343 -7.81151,-2.76238 -10.39386,-4.65834 -1.03102,-0.75697 -2.46902,-1.78171 -3.19556,-2.27719 -2.43342,-1.65953 -5.25618,-6.40193 -6.21113,-10.43505 -1.10608,-4.67143 -1.10518,-5.50181 0.01,-9.02446 1.28001,-4.04382 6.39039,-10.27063 9.84246,-11.9927 0.86393,-0.43096 1.75165,-1.07996 1.97272,-1.44221 0.61698,-1.01102 10.31525,-5.50264 14.34008,-6.64142 5.28769,-1.49609 12.25829,-2.93277 18.76775,-3.86813 3.16772,-0.45518 6.93757,-1.04045 8.37745,-1.3006 119.45103,2.08428 33.003,70.17542 5.75949,53.76453 -2.66708,0.30472 -23.63877,0.66746 -23.90275,0.41344 z m -3.25265,-56.43241 c 0.16513,-0.41406 0.515,-0.62511 0.7775,-0.469 0.54902,0.3265 0.10829,1.22184 -0.60147,1.22184 -0.26194,0 -0.34115,-0.33878 -0.17603,-0.75284 z" id="path5102"/>
                      <path style="fill:#554961" d="m -419.83849,-725.11354 c 0,-0.29346 0.23561,-0.39344 0.52359,-0.22218 0.28797,0.17126 0.52359,0.41136 0.52359,0.53356 0,0.12219 -0.23562,0.22217 -0.52359,0.22217 -0.28798,0 -0.52359,-0.2401 -0.52359,-0.53355 z m -55.1396,-14.40161 c -0.0631,-0.0607 -2.23173,-0.37057 -4.81924,-0.68863 -2.58751,-0.31805 -5.64703,-0.82514 -6.79893,-1.12685 -1.1519,-0.30171 -2.80121,-0.59074 -3.66513,-0.64229 -1.90108,-0.11343 -7.81151,-2.76238 -10.39386,-4.65834 -1.03102,-0.75697 -2.46902,-1.78171 -3.19556,-2.27719 -2.40556,-1.64053 -5.24814,-6.40337 -6.22356,-10.42779 -0.64113,-2.64521 -0.74049,-3.82707 -0.33272,-3.95786 0.31975,-0.10256 1.20169,-0.69991 1.95988,-1.32745 1.30263,-1.07816 1.33347,-1.20712 0.56032,-2.34255 -1.08344,-1.5911 -0.66569,-4.08992 0.924,-5.52696 0.69057,-0.62426 1.25558,-1.39915 1.25558,-1.72197 0,-2.06515 10.77195,-8.28699 19.63464,-11.3409 1.43987,-0.49615 4.21908,-1.48998 6.176,-2.20849 1.95693,-0.71852 4.06139,-1.3064 4.67657,-1.3064 0.61518,0 2.78391,-0.54497 4.81939,-1.21103 4.59491,-1.50358 15.35282,-2.68714 16.94973,-1.86477 0.59458,0.30618 1.48288,0.5567 1.97403,0.5567 1.13969,0 2.27927,1.43489 2.30075,2.89696 0.0179,1.21467 0.023,1.21547 8.82422,1.34619 2.11412,0.0314 2.91415,0.26125 3.31634,0.95279 0.41503,0.71361 0.88983,0.83639 2.18783,0.56578 1.61536,-0.33677 1.63433,-0.32043 0.74148,0.6387 -0.99696,1.07097 -1.23204,2.66832 -0.39269,2.66832 0.28797,0 0.52359,0.22672 0.52359,0.50382 0,0.27711 -0.4559,0.50382 -1.0131,0.50382 -1.99599,0 -3.69891,0.92599 -3.34321,1.81793 0.30762,0.77138 0.39522,0.76461 1.03718,-0.0802 0.67311,-0.88578 0.70118,-0.88301 0.70118,0.0693 0,0.54558 0.47392,1.38243 1.05316,1.85966 1.33957,1.10366 2.48346,1.1771 1.55428,0.0998 -0.87477,-1.01424 -0.18235,-1.63143 0.9519,-0.84848 0.49015,0.33834 1.2446,0.74363 1.67656,0.90064 0.43196,0.15702 1.25662,0.53497 1.83257,0.8399 0.57594,0.30493 1.95968,0.71647 3.07497,0.91453 1.72671,0.30665 2.06617,0.21886 2.28632,-0.5912 0.2929,-1.07775 0.74863,-1.16888 2.23787,-0.44748 2.52479,1.22302 2.99965,1.40291 4.59149,1.73933 71.71361,-13.23269 -2.50423,50.12429 -4.86039,31.00682 -2.01582,0.32683 -6.2569,1.03521 -9.42463,1.57415 -14.05897,2.39196 -26.08693,3.52894 -35.69213,3.37393 -4.1536,-0.067 -7.60361,-0.17154 -7.66668,-0.23222 z m 50.68908,-29.16266 c -3.16772,0.20452 -9.29373,0.5578 -13.61335,0.78507 -4.31962,0.22726 -8.91413,0.66492 -10.21001,0.97258 -2.43541,0.57819 -6.90742,1.10824 -17.27848,2.04798 -5.28153,0.47857 -7.40478,0.68839 -9.42463,0.93133 -0.28797,0.0346 -0.52359,0.34638 -0.52359,0.69275 0,0.46674 1.49101,0.62513 5.7595,0.61182 3.16772,-0.01 5.75949,0.13443 5.75949,0.32068 0,0.66021 3.0478,0.75735 3.94545,0.12576 0.57524,-0.40474 1.22492,-0.47995 1.76104,-0.20387 0.46725,0.24062 1.44879,0.32726 2.18121,0.19253 1.00674,-0.18517 1.73535,0.15235 2.98602,1.38326 1.41884,1.39643 1.77325,1.53328 2.48951,0.96127 0.45934,-0.36682 2.29095,-0.76232 4.07023,-0.87889 1.77928,-0.11657 3.65038,-0.42581 4.158,-0.68722 0.74302,-0.38264 0.92292,-0.27248 0.92292,0.56516 l 0,1.04044 1.521,-1.08205 c 1.70297,-1.21152 2.70873,-0.97118 2.29571,0.54858 -0.21519,0.79178 -0.009,1.01467 0.96544,1.04237 0.68153,0.0194 3.30537,0.14056 5.83076,0.26927 4.40496,0.22452 4.61029,0.18725 5.05108,-0.91692 l 0.45947,-1.15096 0.54521,1.33656 c 0.79971,1.96045 1.66448,2.25693 2.70633,0.92788 0.65365,-0.83384 0.97177,-0.96444 1.14328,-0.46936 0.16557,0.47795 0.98013,0.64202 2.68635,0.54105 19.49918,10.30709 65.92189,-14.10674 -6.18794,-9.90707 z m -57.98529,7.02786 c 0.53288,0.16275 1.42775,-0.0611 1.98859,-0.49752 0.95294,-0.74147 0.85402,-0.77487 -1.51076,-0.5101 -2.87538,0.32195 -3.64583,0.64985 -3.19095,1.35807 0.20081,0.31264 0.57846,0.28464 1.0306,-0.0764 0.3925,-0.31345 1.14964,-0.43675 1.68252,-0.27401 z m 5.36446,-1.19055 c 0,-0.68034 -0.95447,-1.15197 -1.57931,-0.78038 -0.29267,0.17405 -0.39658,0.52751 -0.2309,0.78546 0.39305,0.61194 1.81021,0.60797 1.81021,-0.005 z m 48.6939,-16.40385 c 0,-0.41565 0.32822,-0.75573 0.72937,-0.75573 0.40115,0 0.86498,0.34008 1.03075,0.75573 0.20499,0.51404 -0.0283,0.75573 -0.72937,0.75573 -0.56716,0 -1.03075,-0.3399 -1.03075,-0.75573 z m -2.09436,-5.2901 c 0,-0.2771 0.35342,-0.50382 0.78539,-0.50382 0.43196,0 0.78538,0.22672 0.78538,0.50382 0,0.2771 -0.35342,0.50382 -0.78538,0.50382 -0.43197,0 -0.78539,-0.22672 -0.78539,-0.50382 z m -47.83722,-11.33304 c 0.16513,-0.41406 0.515,-0.62511 0.7775,-0.469 0.54902,0.3265 0.10829,1.22184 -0.60147,1.22184 -0.26194,0 -0.34115,-0.33878 -0.17603,-0.75284 z m 41.9213,-18.71075 c -0.8245,-0.79337 -0.33513,-1.76251 0.81091,-1.6059 0.64795,0.0885 1.17808,0.49797 1.17808,0.90983 0,0.80044 -1.37899,1.28304 -1.98899,0.69607 z" id="path5104"/>
                      <path style="fill:#48394b" d="m -476.41192,-740.28634 c -0.99379,-0.2041 -2.19729,-0.25922 -2.67443,-0.1225 -0.96926,0.27774 -5.61949,-0.7038 -6.51929,-1.37604 -0.31909,-0.23839 -1.85059,-0.52958 -3.40334,-0.64711 -3.21523,-0.24334 -7.19261,-1.78632 -9.92513,-3.85033 -1.02632,-0.77524 -2.51343,-1.69335 -3.30468,-2.04026 -2.19143,-0.96078 -6.69927,-6.95541 -6.33472,-8.42406 0.16134,-0.64998 0.0687,-1.4435 -0.20594,-1.76337 -0.2746,-0.31987 -0.6539,-1.37795 -0.84288,-2.35129 -0.30511,-1.57144 -0.1637,-1.89769 1.26212,-2.91204 1.61302,-1.14753 2.10332,-2.77206 1.02938,-3.41072 -0.8848,-0.5262 -0.14323,-3.06358 1.69176,-5.7885 2.79081,-4.14433 12.4564,-9.91481 19.04281,-11.3688 0.86392,-0.19071 2.12817,-0.7622 2.80944,-1.26998 1.34212,-1.00032 3.30214,-1.6489 8.18596,-2.70872 1.72784,-0.37496 4.44691,-1.0054 6.04235,-1.40097 1.59546,-0.39558 4.49844,-0.88386 6.45107,-1.08507 3.35068,-0.34528 3.56682,-0.30486 3.84511,0.71913 0.28401,1.04505 0.35995,1.02426 2.0642,-0.5652 l 1.76935,-1.65016 1.06896,1.0286 c 0.92824,0.89319 0.98506,1.20579 0.43161,2.37461 -0.78169,1.65083 -0.39652,2.12625 1.02873,1.26978 1.13907,-0.68451 1.98387,-0.35852 1.4053,0.54227 -0.18982,0.29554 -0.92026,0.53734 -1.6232,0.53734 -0.70294,0 -1.27808,0.20871 -1.27808,0.46379 0,0.69115 3.08637,1.21292 3.81748,0.64538 0.34817,-0.27029 1.65515,-0.65372 2.90438,-0.85207 2.02849,-0.32209 2.43238,-0.2122 3.77742,1.02777 0.82833,0.76363 1.37008,1.60014 1.20388,1.85891 -0.1662,0.25876 0.13199,1.39696 0.66265,2.52932 0.72416,1.54527 0.80269,2.11084 0.3148,2.26733 -0.35751,0.11467 -0.89929,0.65667 -1.20395,1.20443 -1.11543,2.0055 1.82307,3.26926 4.23356,1.82073 0.8889,-0.53416 1.15426,-0.45904 1.87472,0.53071 0.78889,1.08377 0.91448,1.10552 2.093,0.36249 1.00916,-0.63627 1.45091,-0.67199 2.26438,-0.18316 0.79998,0.48073 1.18583,0.4674 1.85118,-0.0639 0.46231,-0.36919 0.96002,-0.5563 1.10604,-0.4158 0.35643,0.34297 -2.26489,2.02233 -4.21772,2.70209 -1.23085,0.42845 -1.62742,0.91908 -1.83256,2.26719 l -0.2618,1.72041 -4.51228,-0.17929 c -2.68289,-0.10659 -4.95404,0.0482 -5.60192,0.38186 -0.5993,0.30862 -2.52235,0.66832 -4.27344,0.79934 -1.75109,0.13101 -4.49862,0.606 -6.10563,1.05553 -1.607,0.44953 -3.58103,0.69046 -4.38674,0.5354 -0.8057,-0.15505 -2.15132,-0.0925 -2.99027,0.13903 -0.83894,0.23152 -2.7985,0.22728 -4.35458,-0.009 -1.76348,-0.26824 -3.02159,-0.24526 -3.33988,0.061 -0.28084,0.27025 -1.12323,0.49137 -1.87197,0.49137 -0.74873,0 -1.6528,0.28046 -2.00904,0.62324 -0.35624,0.34279 -1.40473,0.67523 -2.32998,0.73876 -0.92525,0.0635 -2.86034,0.19186 -4.30022,0.2852 -1.43987,0.0933 -3.1288,0.43909 -3.75317,0.76836 -0.62436,0.32926 -1.80244,0.48219 -2.61795,0.33984 -0.98413,-0.17178 -1.90421,0.0606 -2.73611,0.69094 -1.45277,1.10085 -1.03897,2.32888 0.6422,1.90585 0.60676,-0.15268 1.64044,-0.14786 2.29706,0.0107 0.98691,0.23834 1.19386,0.6282 1.19386,2.24898 0,1.62477 0.1794,1.96066 1.04719,1.96066 0.80528,0 1.04718,-0.33589 1.04718,-1.45406 0,-1.18837 0.35875,-1.61437 1.96346,-2.33147 1.0799,-0.48258 2.37826,-1.22586 2.88523,-1.65172 0.83681,-0.70294 1.03296,-0.6738 2.12811,0.31619 1.41963,1.28331 1.92423,1.37111 1.92423,0.33477 0,-0.41565 0.35342,-0.75572 0.78539,-0.75572 0.92353,0 1.0167,0.58352 0.21617,1.35382 -0.40989,0.39442 -0.39712,0.65007 0.0456,0.91336 0.33816,0.2011 0.87704,0.11333 1.19752,-0.19504 0.98167,-0.94461 2.9912,-0.68578 2.9912,0.38526 0,0.52027 0.37139,1.24253 0.8253,1.60501 1.03127,0.82357 1.77252,-0.079 1.78464,-2.17309 0.007,-1.13993 0.24002,-1.3855 1.31699,-1.3855 0.81448,0 1.30898,0.28549 1.30898,0.75572 0,0.41565 0.23561,0.75573 0.52359,0.75573 0.28797,0 0.52359,-0.34008 0.52359,-0.75573 0,-0.47272 0.49632,-0.75572 1.3254,-0.75572 0.72898,0 1.46104,0.34007 1.62679,0.75572 0.33672,0.84435 1.72375,1.03574 1.82557,0.25191 0.036,-0.2771 0.0949,-0.71164 0.1309,-0.96565 0.12584,-0.88803 0.85083,-1.21 0.85083,-0.37787 0,0.46184 0.36171,0.8397 0.80381,0.8397 0.44209,0 1.38148,0.36422 2.08753,0.80937 0.78818,0.49694 2.59258,0.84624 4.67438,0.9049 1.86487,0.0525 3.55735,0.25592 3.76107,0.45195 0.20372,0.19603 0.91934,0.0103 1.59027,-0.4127 1.10064,-0.69393 1.21988,-0.69101 1.21988,0.0299 0,0.45925 0.38963,0.76087 0.91628,0.70932 1.61844,-0.15841 1.84483,0.009 1.13106,0.8366 -0.59376,0.68842 -0.54899,0.91568 0.29776,1.51146 1.50335,1.05777 1.84362,0.86722 1.84362,-1.03242 0,-2.21691 0.78742,-2.666 2.53683,-1.44684 1.37871,0.96081 4.04723,1.14024 5.97152,0.40151 0.68907,-0.26454 0.91628,-0.10191 0.91628,0.65587 0,1.09912 1.34243,1.87855 1.85663,1.07798 0.51685,-0.80471 4.07956,0.0561 5.08997,1.22979 l 0.92532,1.07486 1.2749,-1.4895 c 1.0943,-1.27851 1.32347,-1.36772 1.61776,-0.62978 0.18857,0.47285 0.21013,1.19255 0.0479,1.59933 -0.16221,0.40678 -0.0548,0.88242 0.23878,1.05699 0.6548,0.38941 2.56209,-1.19367 2.56209,-2.12658 0,-0.3727 0.17671,-0.67043 0.39269,-0.66162 0.70972,0.029 2.22526,1.34262 2.22526,1.92884 0,0.85229 1.62024,0.63106 3.40334,-0.46468 26.35193,6.4219 32.67014,-3.47421 -0.04,6.08977 -1.08996,0.34614 -2.08238,0.38516 -2.60725,0.10252 -0.89846,-0.48382 -4.42126,0.73281 -4.42126,1.52692 0,0.8804 -3.75744,1.8846 -7.05165,1.8846 -3.09081,0 -3.42016,-0.0987 -3.42016,-1.02536 0,-0.87726 -0.15489,-0.9456 -1.07234,-0.47313 -0.74231,0.38227 -0.97317,0.8529 -0.7501,1.52918 0.28634,0.86811 0.0592,0.97695 -2.0383,0.97695 -1.2983,0 -2.50616,-0.22672 -2.68414,-0.50382 -0.52709,-0.82064 -1.30897,-0.5749 -1.30897,0.41139 0,0.72003 -0.69799,1.04871 -3.27281,1.54117 -1.80004,0.34429 -4.33291,0.60624 -5.6286,0.58213 -3.76755,-0.0701 -7.34008,0.303 -10.99503,1.14835 -3.57502,0.82687 -16.34929,0.99329 -19.9221,0.25955 z m 20.44569,-1.4235 c 0,-0.2771 -0.35342,-0.50381 -0.78538,-0.50381 -0.43196,0 -0.78539,0.22671 -0.78539,0.50381 0,0.27711 0.35343,0.50382 0.78539,0.50382 0.43196,0 0.78538,-0.22671 0.78538,-0.50382 z m 22.51439,-6.04582 c 0,-2.20902 -0.25464,-2.40566 -1.59909,-1.23489 -0.73486,0.63992 -0.7894,1.00194 -0.30302,2.01134 0.92817,1.92628 1.90211,1.52871 1.90211,-0.77645 z m -31.69345,1.03291 c 0.16905,-0.26319 -0.17047,-0.72461 -0.75449,-1.02536 -0.58401,-0.30076 -1.06184,-0.87892 -1.06184,-1.28482 0,-0.48804 -0.54504,-0.73801 -1.60916,-0.73801 -1.25001,0 -1.57019,0.19679 -1.43453,0.88168 0.096,0.48493 0.70236,0.95414 1.34737,1.04268 0.645,0.0886 1.17273,0.48531 1.17273,0.88169 0,0.80133 1.85731,0.99353 2.33992,0.24214 z m 19.91267,-0.0253 c 0.17797,-0.2771 -0.0437,-0.50382 -0.49269,-0.50382 -0.44896,0 -0.81629,0.22672 -0.81629,0.50382 0,0.2771 0.22171,0.50382 0.49269,0.50382 0.27098,0 0.63831,-0.22672 0.81629,-0.50382 z m -14.09763,-1.23091 c 0.42918,-1.64542 -0.14894,-2.54072 -1.13311,-1.75477 -1.14906,0.91762 -0.8819,2.98568 0.3857,2.98568 0.23449,0 0.57083,-0.55391 0.74741,-1.23091 z m -16.73966,-1.15173 c -0.53224,-0.51214 -0.97139,0.2589 -0.5347,0.9388 0.32988,0.51361 0.4532,0.514 0.63056,0.002 0.12126,-0.35005 0.0781,-0.77342 -0.0959,-0.94084 z m -8.23564,0.5563 c 1.86879,-0.35965 2.12128,-0.98053 0.58904,-1.44848 -0.57595,-0.1759 -1.04718,-0.75797 -1.04718,-1.2935 0,-1.11073 -0.55113,-1.24949 -1.46606,-0.3691 -0.72171,0.69445 -0.85738,3.42596 -0.17016,3.42596 0.25197,0 1.19444,-0.14169 2.09436,-0.31488 z m 19.64406,-1.48969 c 0.55104,-1.38175 0.35512,-1.72216 -0.99116,-1.72216 -0.92025,0 -1.30897,0.2743 -1.30897,0.92367 0,1.67495 1.7134,2.26976 2.30013,0.79849 z m 35.39837,-2.03576 c 0,-0.66947 -0.14215,-0.7039 -0.78539,-0.19022 -0.43196,0.34496 -0.78538,0.7128 -0.78538,0.81742 0,0.10462 0.35342,0.19022 0.78538,0.19022 0.43197,0 0.78539,-0.36784 0.78539,-0.81742 z m -15.30411,-0.59957 c 0.11399,-0.32906 -0.1658,-0.59828 -0.62176,-0.59828 -0.45596,0 -0.82902,0.35897 -0.82902,0.79771 0,0.88971 1.12716,0.73476 1.45078,-0.19943 z m -22.68383,-2.15277 c -0.16858,-0.26248 -0.52969,-0.3445 -0.80246,-0.18228 -0.27278,0.16221 -0.35802,0.50968 -0.18944,0.77216 0.16858,0.26247 0.52969,0.3445 0.80247,0.18228 0.27277,-0.16221 0.35802,-0.50969 0.18943,-0.77216 z m -3.3757,0.12111 c 0,-0.23415 -0.47123,-0.83608 -1.04718,-1.33763 -1.1524,-1.00353 -1.33953,-0.71131 -0.50517,0.78885 0.54638,0.98236 1.55235,1.33799 1.55235,0.54878 z m 9.59925,-0.29307 c 0.28949,-0.7259 -0.69779,-3.30054 -1.26841,-3.30782 -0.24136,-0.003 -0.24825,3.34679 -0.008,3.90067 0.17856,0.41169 1.03434,0.0142 1.27643,-0.59285 z m 6.31594,-1.09002 c 0.3561,-0.89294 -0.01,-1.71791 -0.76197,-1.71791 -0.27098,0 -0.49269,0.5668 -0.49269,1.25955 0,1.40935 0.76409,1.68849 1.25466,0.45836 z m -41.36168,-2.64454 c -0.0288,-0.32165 -0.0877,-0.9249 -0.13089,-1.34055 -0.0938,-0.90294 -4.7653,-1.07398 -6.39605,-0.23419 -1.37249,0.70681 -1.27974,1.8874 0.16532,2.10431 2.49888,0.3751 6.41344,0.0492 6.36162,-0.52957 z m 59.47987,-13.46194 c 0,-0.43201 -0.23946,-0.64306 -0.53213,-0.46901 -0.29268,0.17405 -0.39658,0.52751 -0.2309,0.78547 0.44884,0.69881 0.76303,0.56851 0.76303,-0.31646 z m -58.11853,-0.726 c 0,-0.5542 -0.10952,-1.00763 -0.24337,-1.00763 -0.13386,0 -0.49557,0.45343 -0.80381,1.00763 -0.44731,0.80425 -0.39819,1.00764 0.24337,1.00764 0.45475,0 0.80381,-0.43757 0.80381,-1.00764 z m 50.44758,-4.80241 c -0.16222,-0.40678 -0.50535,-0.73959 -0.76252,-0.73959 -0.53725,0 -0.63173,1.18555 -0.13274,1.6657 0.55854,0.53745 1.21012,-0.13658 0.89526,-0.92611 z m -0.18291,-2.50296 c 0,-0.41565 -0.23561,-0.75573 -0.52359,-0.75573 -0.28797,0 -0.52359,0.34008 -0.52359,0.75573 0,0.41565 0.23562,0.75573 0.52359,0.75573 0.28798,0 0.52359,-0.34008 0.52359,-0.75573 z m -3.66513,-0.44992 c 0,-0.88762 -1.58374,-1.5025 -2.24102,-0.87004 -0.27231,0.26203 -0.33682,0.7229 -0.14333,1.02415 0.50999,0.79403 2.38435,0.67288 2.38435,-0.15411 z m 28.79747,23.84777 c 0,-0.29345 0.23561,-0.39343 0.52359,-0.22217 0.28797,0.17125 0.52359,0.41135 0.52359,0.53355 0,0.1222 -0.23562,0.22217 -0.52359,0.22217 -0.28798,0 -0.52359,-0.2401 -0.52359,-0.53355 z m -12.56617,-13.32147 c 0,-0.41565 0.23561,-0.75573 0.52359,-0.75573 0.28797,0 0.52359,0.34008 0.52359,0.75573 0,0.41565 -0.23562,0.75573 -0.52359,0.75573 -0.28798,0 -0.52359,-0.34008 -0.52359,-0.75573 z m 3.66513,0 c 0,-0.79101 0.91016,-0.96803 2.31333,-0.44991 1.36748,0.50493 0.93592,1.20564 -0.74256,1.20564 -1.04718,0 -1.57077,-0.25191 -1.57077,-0.75573 z m 11.65194,-0.9162 c -1.09674,-0.58621 -1.12121,-0.7039 -0.36301,-1.74552 0.52,-0.71436 1.35733,-1.11692 2.32321,-1.11692 1.92379,0 2.45108,0.78911 1.01982,1.52617 -1.06151,0.54665 -1.06725,0.59668 -0.14557,1.2688 0.90047,0.65665 0.87897,0.6996 -0.34945,0.69789 -0.71994,-10e-4 -1.83819,-0.2847 -2.485,-0.63042 z m 5.10295,-0.84716 c 0,-0.55421 0.21356,-1.00764 0.47457,-1.00764 0.26102,0 0.35135,0.45343 0.20073,1.00764 -0.15061,0.5542 -0.36417,1.00763 -0.47457,1.00763 -0.1104,0 -0.20073,-0.45343 -0.20073,-1.00763 z m 1.57077,-24.96878 c -633.97662,-275.08833 -316.9883,-137.54416 0,0 z m -25.83045,-17.6879 c -0.60247,-0.57971 -0.3813,-1.17558 0.43632,-1.17558 0.43196,0 0.78539,0.34008 0.78539,0.75573 0,0.78675 -0.61925,0.99956 -1.22171,0.41985 z" id="path5106"/>
                    </g>
                  </g>
                </g>
              </g>
              <g transform="matrix(1.4275782,0,0,1.5372079,707.39295,-100.94606)" id="g5003">
                <g transform="matrix(1.4984498,0,0,1.4971527,-292.90423,-555.45064)" id="g5013">
                  <path style="opacity:0.55;fill:#dceef3" d="m 509.92804,1322.799 c -1.7608,-1.0736 -3.85417,-3.2094 -4.65193,-4.7462 -0.79777,-1.5368 -4.75712,-5.9187 -8.79855,-9.7374 -4.04144,-3.8188 -12.07307,-11.4961 -17.84807,-17.0607 -5.775,-5.5646 -20.625,-19.7416 -33,-31.5044 -12.375,-11.7628 -27.675,-26.3732 -34,-32.4675 -17.48461,-16.8469 -34.13541,-32.7122 -37.68304,-35.9052 l -3.18304,-2.8649 -3.31696,2.0333 c -12.58545,7.7148 -28.24353,13.8833 -45.31696,17.8527 -12.1917,2.8344 -44.4902,2.6033 -57.11128,-0.4087 -55.34577,-13.208 -95.63473,-53.9654 -107.99018,-109.2459 -2.46133,-11.0124 -2.5222,-41.5214 -0.10571,-52.9856 14.25423,-67.62374 70.27055,-113.99331 137.70717,-113.99215 66.98899,10e-4 123.59289,46.37767 137.07003,112.30375 6.47583,31.6778 1.02957,66.7596 -14.63008,94.2387 l -4.22022,7.4056 5.74063,5.2721 c 5.8476,5.3703 60.75614,57.8327 82.5367,78.8597 23.04319,22.246 44.56127,42.365 46.27552,43.2669 3.47898,1.8303 8.15104,7.0212 8.74229,9.7132 1.56675,7.1333 -4.44434,18.1728 -16.09677,29.562 -11.83221,11.5649 -22.29527,15.1815 -30.11955,10.4107 z" id="path5011"/>
                  <path style="fill:#eda95d" d="m 510.821,1322.7339 c -1.81967,-1.1094 -4.03756,-3.2452 -4.92864,-4.7462 -1.31502,-2.2152 -45.84703,-45.3386 -90.59461,-87.7291 -4.64466,-4.4 -16.4877,-15.7123 -26.31788,-25.1384 l -17.87305,-17.1384 -7.48866,4.382 c -33.19342,19.4233 -76.07729,23.4899 -114.17589,10.8273 -19.46273,-6.4687 -36.8885,-17.4797 -52.87518,-33.4105 -21.35372,-21.2792 -34.47998,-45.9838 -39.59569,-74.5221 -2.17174,-12.1152 -2.17616,-35.1667 -0.009,-47.2235 9.89713,-55.06309 51.24259,-99.34408 104.66714,-112.09853 46.82089,-11.17791 94.41816,1.57558 129.11749,34.5965 12.19463,11.60477 20.68978,23.19104 28.3939,38.72553 10.26311,20.6944 14.54103,38.6844 14.62444,61.5 0.0855,23.3903 -4.95772,44.3623 -15.54151,64.6286 l -5.38538,10.3122 9.14553,8.8764 c 38.95456,37.8085 123.61012,118.0675 126.23891,119.6829 12.22855,7.5141 9.97076,19.0644 -7.07895,36.2139 -13.2527,13.3303 -22.4619,17.0542 -30.32292,12.2614 z M 321.71458,1185.4314 c 18.39321,-4.7474 32.38049,-11.5757 46.12717,-22.518 52.82441,-42.0483 58.89429,-121.5908 13.06721,-171.23853 -15.62529,-16.92799 -34.84942,-28.1864 -59.19438,-34.6666 -8.3297,-2.21721 -11.74614,-2.56303 -26.08509,-2.64035 -12.60861,-0.068 -18.50465,0.34832 -25,1.76518 -47.1684,10.28907 -82.64357,46.7488 -92.11307,94.6696 -1.83382,9.2801 -1.58767,33.7283 0.43149,42.8571 5.68517,25.7031 16.49788,45.1701 34.77977,62.6167 17.25385,16.4655 38.67703,27.2386 61.63174,30.9927 13.14141,2.1493 34.1324,1.317 46.35516,-1.8378 z" id="path5009"/>
                  <path style="fill:#f5931d" d="m 508.76184,1319.8911 c -1.99779,-2.1271 -4.11421,-4.4967 -4.70314,-5.2659 -2.23003,-2.9126 -131.71822,-126.3797 -132.82301,-126.6469 -0.63729,-0.1541 -4.7469,1.767 -9.13246,4.2691 -35.23341,20.1022 -80.79224,23.0698 -118.97374,7.75 -18.87694,-7.5742 -34.23913,-18.0133 -48.738,-33.119 -15.3369,-15.9789 -25.69327,-33.5247 -32.53439,-55.1199 -4.43699,-14.0061 -5.64133,-22.6731 -5.62782,-40.5 0.0139,-18.2666 1.53053,-27.8366 7.04225,-44.4351 6.44926,-19.4219 16.58367,-36.04835 31.3484,-51.43 28.13719,-29.31287 65.10124,-44.00036 106.565,-42.3431 35.84911,1.43285 68.24498,16.1478 93.69425,42.55807 22.73673,23.59531 35.95671,54.19513 38.32012,88.69813 1.7136,25.0166 -6.13217,56.7722 -19.16726,77.5789 l -2.27217,3.6269 9.68481,9.4059 c 5.32664,5.1732 29.70981,28.5016 54.18481,51.8409 24.475,23.3393 50.125,47.9113 57,54.6045 6.875,6.6932 13.91906,12.8843 15.65346,13.758 1.7344,0.8737 4.10806,3.1331 5.27481,5.0209 1.86797,3.0224 1.99614,3.9911 1.07307,8.1101 -1.44763,6.4596 -4.21075,11.5383 -9.64685,17.7313 -10.18353,11.6014 -19.89471,17.7747 -27.96124,17.7747 -4.08071,0 -5.05847,-0.4578 -8.2609,-3.8675 z M 317.97241,1186.6957 c 45.00664,-9.1407 79.92947,-43.1162 91.41708,-88.9372 2.30809,-9.2063 2.62806,-12.4713 2.5971,-26.5 -0.0247,-11.2129 -0.53364,-18.1953 -1.70089,-23.3376 -9.42692,-41.53 -36.57523,-72.80036 -76.12939,-87.68851 -16.47185,-6.19999 -43.28615,-8.37458 -61.24862,-4.96716 -48.47536,9.19562 -86.32172,47.43457 -94.83725,95.82117 -1.86099,10.5744 -1.84107,30.1157 0.0417,40.9123 7.26153,41.6407 38.18307,77.3559 79.01734,91.2672 17.11938,5.8321 42.08498,7.2395 60.84292,3.4298 z" id="path5007"/>
                  <path style="fill:#cd6e17" d="m 277.12949,1189.6501 c -15.39834,-2.219 -36.93977,-10.683 -50.32799,-19.7747 -3.22309,-2.1888 -9.53608,-7.4376 -14.02887,-11.6641 -38.52382,-36.2405 -48.83725,-93.1255 -25.37387,-139.9528 25.88218,-51.6546 84.62402,-77.61317 140.11876,-61.91976 4.73658,1.33946 13.65657,4.91425 19.82219,7.94398 34.27646,16.84313 57.62294,47.50428 64.92447,85.26598 2.41624,12.4962 2.23961,32.9609 -0.3902,45.2098 -12.20311,56.8389 -61.13748,96.5154 -118.24449,95.8741 -5.775,-0.065 -13.2,-0.507 -16.5,-0.9825 z m 40.84292,-2.9544 c 45.00664,-9.1407 79.92947,-43.1162 91.41708,-88.9372 2.30809,-9.2063 2.62806,-12.4713 2.5971,-26.5 -0.0247,-11.2129 -0.53364,-18.1953 -1.70089,-23.3376 -9.42692,-41.53 -36.57523,-72.80036 -76.12939,-87.68851 -16.47185,-6.19999 -43.28615,-8.37458 -61.24862,-4.96716 -48.47536,9.19562 -86.32172,47.43457 -94.83725,95.82117 -1.86099,10.5744 -1.84107,30.1157 0.0417,40.9123 7.26153,41.6407 38.18307,77.3559 79.01734,91.2672 17.11938,5.8321 42.08498,7.2395 60.84292,3.4298 z" id="path5005"/>
                </g>
              </g>
            </g>
          </g>
        </g>
      </g>
    </g>
  </g>
</svg>